%TF.GenerationSoftware,KiCad,Pcbnew,6.0.4-6f826c9f35~116~ubuntu20.04.1*%
%TF.CreationDate,2022-04-08T20:43:30+02:00*%
%TF.ProjectId,Arduini_TPSE,41726475-696e-4695-9f54-5053452e6b69,rev?*%
%TF.SameCoordinates,Original*%
%TF.FileFunction,Copper,L2,Bot*%
%TF.FilePolarity,Positive*%
%FSLAX46Y46*%
G04 Gerber Fmt 4.6, Leading zero omitted, Abs format (unit mm)*
G04 Created by KiCad (PCBNEW 6.0.4-6f826c9f35~116~ubuntu20.04.1) date 2022-04-08 20:43:30*
%MOMM*%
%LPD*%
G01*
G04 APERTURE LIST*
G04 Aperture macros list*
%AMRoundRect*
0 Rectangle with rounded corners*
0 $1 Rounding radius*
0 $2 $3 $4 $5 $6 $7 $8 $9 X,Y pos of 4 corners*
0 Add a 4 corners polygon primitive as box body*
4,1,4,$2,$3,$4,$5,$6,$7,$8,$9,$2,$3,0*
0 Add four circle primitives for the rounded corners*
1,1,$1+$1,$2,$3*
1,1,$1+$1,$4,$5*
1,1,$1+$1,$6,$7*
1,1,$1+$1,$8,$9*
0 Add four rect primitives between the rounded corners*
20,1,$1+$1,$2,$3,$4,$5,0*
20,1,$1+$1,$4,$5,$6,$7,0*
20,1,$1+$1,$6,$7,$8,$9,0*
20,1,$1+$1,$8,$9,$2,$3,0*%
%AMFreePoly0*
4,1,25,-1.000000,0.425000,-0.979199,0.556332,-0.918832,0.674809,-0.824809,0.768832,-0.706332,0.829199,-0.575000,0.850000,0.575000,0.850000,0.706332,0.829199,0.824809,0.768832,0.918832,0.674809,0.979199,0.556332,1.000000,0.425000,1.000000,-0.425000,0.979199,-0.556332,0.918832,-0.674809,0.824809,-0.768832,0.706332,-0.829199,0.575000,-0.850000,-0.575000,-0.850000,-0.706332,-0.829199,
-0.824809,-0.768832,-0.918832,-0.674809,-0.979199,-0.556332,-1.000000,-0.425000,-1.000000,0.425000,-1.000000,0.425000,$1*%
%AMFreePoly1*
4,1,25,-1.000000,0.510000,-0.988415,0.597998,-0.938512,0.705016,-0.855016,0.788512,-0.747998,0.838415,-0.660000,0.850000,0.660000,0.850000,0.747998,0.838415,0.855016,0.788512,0.938512,0.705016,0.988415,0.597998,1.000000,0.510000,1.000000,-0.510000,0.988415,-0.597998,0.938512,-0.705016,0.855016,-0.788512,0.747998,-0.838415,0.660000,-0.850000,-0.660000,-0.850000,-0.747998,-0.838415,
-0.855016,-0.788512,-0.938512,-0.705016,-0.988415,-0.597998,-1.000000,-0.510000,-1.000000,0.510000,-1.000000,0.510000,$1*%
G04 Aperture macros list end*
%TA.AperFunction,EtchedComponent*%
%ADD10C,0.000100*%
%TD*%
%TA.AperFunction,ComponentPad*%
%ADD11C,1.500000*%
%TD*%
%TA.AperFunction,ComponentPad*%
%ADD12R,1.600000X1.600000*%
%TD*%
%TA.AperFunction,ComponentPad*%
%ADD13O,1.600000X1.600000*%
%TD*%
%TA.AperFunction,ComponentPad*%
%ADD14R,1.800000X1.800000*%
%TD*%
%TA.AperFunction,ComponentPad*%
%ADD15C,1.800000*%
%TD*%
%TA.AperFunction,SMDPad,CuDef*%
%ADD16R,1.500000X2.000000*%
%TD*%
%TA.AperFunction,SMDPad,CuDef*%
%ADD17R,3.800000X2.000000*%
%TD*%
%TA.AperFunction,SMDPad,CuDef*%
%ADD18R,0.450000X1.750000*%
%TD*%
%TA.AperFunction,SMDPad,CuDef*%
%ADD19RoundRect,0.250001X0.924999X-0.499999X0.924999X0.499999X-0.924999X0.499999X-0.924999X-0.499999X0*%
%TD*%
%TA.AperFunction,SMDPad,CuDef*%
%ADD20R,0.400000X1.400000*%
%TD*%
%TA.AperFunction,ComponentPad*%
%ADD21O,1.250000X2.500000*%
%TD*%
%TA.AperFunction,SMDPad,CuDef*%
%ADD22RoundRect,0.250000X0.625000X-0.400000X0.625000X0.400000X-0.625000X0.400000X-0.625000X-0.400000X0*%
%TD*%
%TA.AperFunction,ComponentPad*%
%ADD23R,1.700000X1.700000*%
%TD*%
%TA.AperFunction,ComponentPad*%
%ADD24O,1.700000X1.700000*%
%TD*%
%TA.AperFunction,SMDPad,CuDef*%
%ADD25RoundRect,0.250000X-0.412500X-0.650000X0.412500X-0.650000X0.412500X0.650000X-0.412500X0.650000X0*%
%TD*%
%TA.AperFunction,SMDPad,CuDef*%
%ADD26RoundRect,0.250000X-0.650000X0.412500X-0.650000X-0.412500X0.650000X-0.412500X0.650000X0.412500X0*%
%TD*%
%TA.AperFunction,SMDPad,CuDef*%
%ADD27RoundRect,0.250000X-0.625000X0.400000X-0.625000X-0.400000X0.625000X-0.400000X0.625000X0.400000X0*%
%TD*%
%TA.AperFunction,SMDPad,CuDef*%
%ADD28RoundRect,0.250000X0.412500X0.650000X-0.412500X0.650000X-0.412500X-0.650000X0.412500X-0.650000X0*%
%TD*%
%TA.AperFunction,ComponentPad*%
%ADD29C,0.700000*%
%TD*%
%TA.AperFunction,SMDPad,CuDef*%
%ADD30FreePoly0,180.000000*%
%TD*%
%TA.AperFunction,SMDPad,CuDef*%
%ADD31FreePoly1,180.000000*%
%TD*%
%TA.AperFunction,SMDPad,CuDef*%
%ADD32RoundRect,0.250000X0.650000X-0.412500X0.650000X0.412500X-0.650000X0.412500X-0.650000X-0.412500X0*%
%TD*%
%TA.AperFunction,SMDPad,CuDef*%
%ADD33R,2.500000X1.800000*%
%TD*%
%TA.AperFunction,SMDPad,CuDef*%
%ADD34RoundRect,0.250000X1.450000X-0.312500X1.450000X0.312500X-1.450000X0.312500X-1.450000X-0.312500X0*%
%TD*%
%TA.AperFunction,Conductor*%
%ADD35C,0.400000*%
%TD*%
%TA.AperFunction,Conductor*%
%ADD36C,0.750000*%
%TD*%
%TA.AperFunction,Conductor*%
%ADD37C,0.800000*%
%TD*%
%TA.AperFunction,Conductor*%
%ADD38C,0.600000*%
%TD*%
G04 APERTURE END LIST*
%TO.C,J1*%
G36*
X18635000Y53050000D02*
G01*
X14775000Y53050000D01*
X14775000Y54600000D01*
X17225000Y54600000D01*
X17225000Y55650000D01*
X18635000Y55650000D01*
X18635000Y53050000D01*
G37*
D10*
X18635000Y53050000D02*
X14775000Y53050000D01*
X14775000Y54600000D01*
X17225000Y54600000D01*
X17225000Y55650000D01*
X18635000Y55650000D01*
X18635000Y53050000D01*
G36*
X8725000Y54600000D02*
G01*
X11175000Y54600000D01*
X11175000Y53050000D01*
X7315000Y53050000D01*
X7315000Y55650000D01*
X8725000Y55650000D01*
X8725000Y54600000D01*
G37*
X8725000Y54600000D02*
X11175000Y54600000D01*
X11175000Y53050000D01*
X7315000Y53050000D01*
X7315000Y55650000D01*
X8725000Y55650000D01*
X8725000Y54600000D01*
G36*
X8725000Y56925000D02*
G01*
X7315000Y56925000D01*
X7315000Y59775000D01*
X8725000Y59775000D01*
X8725000Y56925000D01*
G37*
X8725000Y56925000D02*
X7315000Y56925000D01*
X7315000Y59775000D01*
X8725000Y59775000D01*
X8725000Y56925000D01*
G36*
X18635000Y56925000D02*
G01*
X17225000Y56925000D01*
X17225000Y59775000D01*
X18635000Y59775000D01*
X18635000Y56925000D01*
G37*
X18635000Y56925000D02*
X17225000Y56925000D01*
X17225000Y59775000D01*
X18635000Y59775000D01*
X18635000Y56925000D01*
%TD*%
D11*
%TO.P,Y1,1,1*%
%TO.N,Net-(C5-Pad1)*%
X6200000Y12137500D03*
%TO.P,Y1,2,2*%
%TO.N,Net-(C4-Pad1)*%
X6200000Y17017500D03*
%TD*%
D12*
%TO.P,U4,1,~{RESET}/PC6*%
%TO.N,/Reset*%
X9200000Y36330000D03*
D13*
%TO.P,U4,2,PD0*%
%TO.N,/0(Rx)*%
X9200000Y33790000D03*
%TO.P,U4,3,PD1*%
%TO.N,/1(Tx)*%
X9200000Y31250000D03*
%TO.P,U4,4,PD2*%
%TO.N,/2*%
X9200000Y28710000D03*
%TO.P,U4,5,PD3*%
%TO.N,/3(\u002A\u002A)*%
X9200000Y26170000D03*
%TO.P,U4,6,PD4*%
%TO.N,/4*%
X9200000Y23630000D03*
%TO.P,U4,7,VCC*%
%TO.N,+5V*%
X9200000Y21090000D03*
%TO.P,U4,8,GND*%
%TO.N,GND*%
X9200000Y18550000D03*
%TO.P,U4,9,XTAL1/PB6*%
%TO.N,Net-(C4-Pad1)*%
X9200000Y16010000D03*
%TO.P,U4,10,XTAL2/PB7*%
%TO.N,Net-(C5-Pad1)*%
X9200000Y13470000D03*
%TO.P,U4,11,PD5*%
%TO.N,/5(\u002A\u002A)*%
X9200000Y10930000D03*
%TO.P,U4,12,PD6*%
%TO.N,/6(\u002A\u002A)*%
X9200000Y8390000D03*
%TO.P,U4,13,PD7*%
%TO.N,/7*%
X9200000Y5850000D03*
%TO.P,U4,14,PB0*%
%TO.N,/8*%
X9200000Y3310000D03*
%TO.P,U4,15,PB1*%
%TO.N,/9(\u002A\u002A)*%
X16820000Y3310000D03*
%TO.P,U4,16,PB2*%
%TO.N,/10(\u002A\u002A{slash}SS)*%
X16820000Y5850000D03*
%TO.P,U4,17,PB3*%
%TO.N,/11(\u002A\u002A{slash}MOSI)*%
X16820000Y8390000D03*
%TO.P,U4,18,PB4*%
%TO.N,/12(MISO)*%
X16820000Y10930000D03*
%TO.P,U4,19,PB5*%
%TO.N,/13(SCK)*%
X16820000Y13470000D03*
%TO.P,U4,20,AVCC*%
%TO.N,+5VA*%
X16820000Y16010000D03*
%TO.P,U4,21,AREF*%
%TO.N,/AREF*%
X16820000Y18550000D03*
%TO.P,U4,22,GND*%
%TO.N,GND*%
X16820000Y21090000D03*
%TO.P,U4,23,PC0*%
%TO.N,/A0*%
X16820000Y23630000D03*
%TO.P,U4,24,PC1*%
%TO.N,/A1*%
X16820000Y26170000D03*
%TO.P,U4,25,PC2*%
%TO.N,/A2*%
X16820000Y28710000D03*
%TO.P,U4,26,PC3*%
%TO.N,/A3*%
X16820000Y31250000D03*
%TO.P,U4,27,PC4*%
%TO.N,/A4*%
X16820000Y33790000D03*
%TO.P,U4,28,PC5*%
%TO.N,/A5*%
X16820000Y36330000D03*
%TD*%
D14*
%TO.P,D4,1,K*%
%TO.N,GND*%
X3700000Y57750000D03*
D15*
%TO.P,D4,2,A*%
%TO.N,Net-(D4-Pad2)*%
X1160000Y57750000D03*
%TD*%
D14*
%TO.P,D3,1,K*%
%TO.N,Net-(D3-Pad1)*%
X2025000Y39735000D03*
D15*
%TO.P,D3,2,A*%
%TO.N,+5V*%
X2025000Y42275000D03*
%TD*%
D14*
%TO.P,D2,1,K*%
%TO.N,Net-(D2-Pad1)*%
X2025000Y47185000D03*
D15*
%TO.P,D2,2,A*%
%TO.N,+5V*%
X2025000Y44645000D03*
%TD*%
D16*
%TO.P,U2,1,GND*%
%TO.N,GND*%
X20275000Y58675000D03*
D17*
%TO.P,U2,2,VO*%
%TO.N,+3V3*%
X22575000Y52375000D03*
D16*
X22575000Y58675000D03*
%TO.P,U2,3,VI*%
%TO.N,+5V*%
X24875000Y58675000D03*
%TD*%
D18*
%TO.P,U3,1,TXD*%
%TO.N,/0(Rx)*%
X14875000Y39350000D03*
%TO.P,U3,2,DTR*%
%TO.N,Net-(C1-Pad1)*%
X14225000Y39350000D03*
%TO.P,U3,3,RTS*%
%TO.N,unconnected-(U3-Pad3)*%
X13575000Y39350000D03*
%TO.P,U3,4,VCCIO*%
%TO.N,+5V*%
X12925000Y39350000D03*
%TO.P,U3,5,RXD*%
%TO.N,/1(Tx)*%
X12275000Y39350000D03*
%TO.P,U3,6,RI*%
%TO.N,unconnected-(U3-Pad6)*%
X11625000Y39350000D03*
%TO.P,U3,7,GND*%
%TO.N,GND*%
X10975000Y39350000D03*
%TO.P,U3,8*%
%TO.N,N/C*%
X10325000Y39350000D03*
%TO.P,U3,9,DCR*%
%TO.N,unconnected-(U3-Pad9)*%
X9675000Y39350000D03*
%TO.P,U3,10,DCD*%
%TO.N,unconnected-(U3-Pad10)*%
X9025000Y39350000D03*
%TO.P,U3,11,CTS*%
%TO.N,unconnected-(U3-Pad11)*%
X8375000Y39350000D03*
%TO.P,U3,12,CBUS4*%
%TO.N,unconnected-(U3-Pad12)*%
X7725000Y39350000D03*
%TO.P,U3,13,CBUS2*%
%TO.N,unconnected-(U3-Pad13)*%
X7075000Y39350000D03*
%TO.P,U3,14,CBUS3*%
%TO.N,unconnected-(U3-Pad14)*%
X6425000Y39350000D03*
%TO.P,U3,15,USBD+*%
%TO.N,/D+*%
X6425000Y46550000D03*
%TO.P,U3,16,USBD-*%
%TO.N,/D-*%
X7075000Y46550000D03*
%TO.P,U3,17,3V3OUT*%
%TO.N,/3V3OUT*%
X7725000Y46550000D03*
%TO.P,U3,18,GND*%
%TO.N,GND*%
X8375000Y46550000D03*
%TO.P,U3,19,~{RESET}*%
%TO.N,unconnected-(U3-Pad19)*%
X9025000Y46550000D03*
%TO.P,U3,20,VCC*%
%TO.N,+5V*%
X9675000Y46550000D03*
%TO.P,U3,21,GND*%
%TO.N,GND*%
X10325000Y46550000D03*
%TO.P,U3,22,CBUS1*%
%TO.N,Net-(R2-Pad1)*%
X10975000Y46550000D03*
%TO.P,U3,23,CBUS0*%
%TO.N,Net-(R1-Pad1)*%
X11625000Y46550000D03*
%TO.P,U3,24*%
%TO.N,N/C*%
X12275000Y46550000D03*
%TO.P,U3,25,AGND*%
%TO.N,GND*%
X12925000Y46550000D03*
%TO.P,U3,26,TEST*%
X13575000Y46550000D03*
%TO.P,U3,27,OSCI*%
%TO.N,unconnected-(U3-Pad27)*%
X14225000Y46550000D03*
%TO.P,U3,28,OSCO*%
%TO.N,unconnected-(U3-Pad28)*%
X14875000Y46550000D03*
%TD*%
D19*
%TO.P,C7,1*%
%TO.N,+5V*%
X17700000Y38375000D03*
%TO.P,C7,2*%
%TO.N,GND*%
X17700000Y41625000D03*
%TD*%
D20*
%TO.P,J1,1,VBUS*%
%TO.N,Net-(D1-Pad2)*%
X14275000Y53900000D03*
%TO.P,J1,2,D-*%
%TO.N,/D-*%
X13625000Y53900000D03*
%TO.P,J1,3,D+*%
%TO.N,/D+*%
X12975000Y53900000D03*
%TO.P,J1,4,ID*%
%TO.N,unconnected-(J1-Pad4)*%
X12325000Y53900000D03*
%TO.P,J1,5,GND*%
%TO.N,GND*%
X11675000Y53900000D03*
D21*
%TO.P,J1,S1,SHIELD*%
X8100000Y54350000D03*
%TO.P,J1,S2,SHIELD*%
X8100000Y58350000D03*
%TO.P,J1,S3,SHIELD*%
X17850000Y58350000D03*
%TO.P,J1,S4,SHIELD*%
X17850000Y54350000D03*
%TD*%
D22*
%TO.P,R2,1*%
%TO.N,Net-(R2-Pad1)*%
X4250000Y44250000D03*
%TO.P,R2,2*%
%TO.N,Net-(D2-Pad1)*%
X4250000Y47350000D03*
%TD*%
D23*
%TO.P,P1,1,Pin_1*%
%TO.N,/1(Tx)*%
X2300000Y37240000D03*
D24*
%TO.P,P1,2,Pin_2*%
%TO.N,/0(Rx)*%
X2300000Y34700000D03*
%TO.P,P1,3,Pin_3*%
%TO.N,/Reset*%
X2300000Y32160000D03*
%TO.P,P1,4,Pin_4*%
%TO.N,GND*%
X2300000Y29620000D03*
%TO.P,P1,5,Pin_5*%
%TO.N,/2*%
X2300000Y27080000D03*
%TO.P,P1,6,Pin_6*%
%TO.N,/3(\u002A\u002A)*%
X2300000Y24540000D03*
%TO.P,P1,7,Pin_7*%
%TO.N,/4*%
X2300000Y22000000D03*
%TO.P,P1,8,Pin_8*%
%TO.N,/5(\u002A\u002A)*%
X2300000Y19460000D03*
%TO.P,P1,9,Pin_9*%
%TO.N,/6(\u002A\u002A)*%
X2300000Y16920000D03*
%TO.P,P1,10,Pin_10*%
%TO.N,/7*%
X2300000Y14380000D03*
%TO.P,P1,11,Pin_11*%
%TO.N,/8*%
X2300000Y11840000D03*
%TO.P,P1,12,Pin_12*%
%TO.N,/9(\u002A\u002A)*%
X2300000Y9300000D03*
%TO.P,P1,13,Pin_13*%
%TO.N,/10(\u002A\u002A{slash}SS)*%
X2300000Y6760000D03*
%TO.P,P1,14,Pin_14*%
%TO.N,/11(\u002A\u002A{slash}MOSI)*%
X2300000Y4220000D03*
%TO.P,P1,15,Pin_15*%
%TO.N,/12(MISO)*%
X2300000Y1680000D03*
%TD*%
D22*
%TO.P,R3,1*%
%TO.N,+5V*%
X11400000Y33850000D03*
%TO.P,R3,2*%
%TO.N,/Reset*%
X11400000Y36950000D03*
%TD*%
D16*
%TO.P,U1,1,GND*%
%TO.N,GND*%
X20275000Y45850000D03*
%TO.P,U1,2,VO*%
%TO.N,+5V*%
X22575000Y45850000D03*
D17*
X22575000Y39550000D03*
D16*
%TO.P,U1,3,VI*%
%TO.N,/Vin*%
X24875000Y45850000D03*
%TD*%
D25*
%TO.P,C3,1*%
%TO.N,+5V*%
X11575000Y27105000D03*
%TO.P,C3,2*%
%TO.N,GND*%
X14700000Y27105000D03*
%TD*%
D26*
%TO.P,C2,1*%
%TO.N,+5VA*%
X14475000Y16005000D03*
%TO.P,C2,2*%
%TO.N,GND*%
X14475000Y12880000D03*
%TD*%
D25*
%TO.P,C10,1*%
%TO.N,+3V3*%
X16987500Y49850000D03*
%TO.P,C10,2*%
%TO.N,GND*%
X20112500Y49850000D03*
%TD*%
D19*
%TO.P,C9,1*%
%TO.N,+3V3*%
X17700000Y44375000D03*
%TO.P,C9,2*%
%TO.N,GND*%
X17700000Y47625000D03*
%TD*%
D27*
%TO.P,R1,1*%
%TO.N,Net-(R1-Pad1)*%
X4250000Y42550000D03*
%TO.P,R1,2*%
%TO.N,Net-(D3-Pad1)*%
X4250000Y39450000D03*
%TD*%
D28*
%TO.P,C8,1*%
%TO.N,+5V*%
X25062500Y49850000D03*
%TO.P,C8,2*%
%TO.N,GND*%
X21937500Y49850000D03*
%TD*%
D26*
%TO.P,C6,1*%
%TO.N,GND*%
X3625000Y55757500D03*
%TO.P,C6,2*%
%TO.N,/3V3OUT*%
X3625000Y52632500D03*
%TD*%
D29*
%TO.P,J2,1,Pin_1*%
%TO.N,/12(MISO)*%
X14275000Y7230000D03*
D30*
X14775000Y7230000D03*
D31*
%TO.P,J2,2,Pin_2*%
%TO.N,+5V*%
X11235000Y7230000D03*
D29*
X11735000Y7230000D03*
D30*
%TO.P,J2,3,Pin_3*%
%TO.N,/13(SCK)*%
X14775000Y4690000D03*
D29*
X14275000Y4690000D03*
D30*
%TO.P,J2,4,Pin_4*%
%TO.N,/11(\u002A\u002A{slash}MOSI)*%
X11235000Y4690000D03*
D29*
X11735000Y4690000D03*
%TO.P,J2,5,Pin_5*%
%TO.N,/Reset*%
X14275000Y2150000D03*
D30*
X14775000Y2150000D03*
%TO.P,J2,6,Pin_6*%
%TO.N,GND*%
X11235000Y2150000D03*
D29*
X11735000Y2150000D03*
%TD*%
D32*
%TO.P,C1,1*%
%TO.N,Net-(C1-Pad1)*%
X13650000Y33825000D03*
%TO.P,C1,2*%
%TO.N,/Reset*%
X13650000Y36950000D03*
%TD*%
%TO.P,C4,1*%
%TO.N,Net-(C4-Pad1)*%
X11550000Y16005000D03*
%TO.P,C4,2*%
%TO.N,GND*%
X11550000Y19130000D03*
%TD*%
D33*
%TO.P,D1,1,K*%
%TO.N,+5V*%
X9700000Y49500000D03*
%TO.P,D1,2,A*%
%TO.N,Net-(D1-Pad2)*%
X13700000Y49500000D03*
%TD*%
D26*
%TO.P,C5,1*%
%TO.N,Net-(C5-Pad1)*%
X11550000Y13480000D03*
%TO.P,C5,2*%
%TO.N,GND*%
X11550000Y10355000D03*
%TD*%
D23*
%TO.P,P2,1,Pin_1*%
%TO.N,/Vin*%
X23850000Y37240000D03*
D24*
%TO.P,P2,2,Pin_2*%
%TO.N,GND*%
X23850000Y34700000D03*
%TO.P,P2,3,Pin_3*%
%TO.N,/Reset*%
X23850000Y32160000D03*
%TO.P,P2,4,Pin_4*%
%TO.N,+5V*%
X23850000Y29620000D03*
%TO.P,P2,5,Pin_5*%
%TO.N,GND*%
X23850000Y27080000D03*
%TO.P,P2,6,Pin_6*%
%TO.N,+3V3*%
X23850000Y24540000D03*
%TO.P,P2,7,Pin_7*%
%TO.N,/A5*%
X23850000Y22000000D03*
%TO.P,P2,8,Pin_8*%
%TO.N,/A4*%
X23850000Y19460000D03*
%TO.P,P2,9,Pin_9*%
%TO.N,/A3*%
X23850000Y16920000D03*
%TO.P,P2,10,Pin_10*%
%TO.N,/A2*%
X23850000Y14380000D03*
%TO.P,P2,11,Pin_11*%
%TO.N,/A1*%
X23850000Y11840000D03*
%TO.P,P2,12,Pin_12*%
%TO.N,/A0*%
X23850000Y9300000D03*
%TO.P,P2,13,Pin_13*%
%TO.N,/AREF*%
X23850000Y6760000D03*
%TO.P,P2,14,Pin_14*%
%TO.N,+3V3*%
X23850000Y4220000D03*
%TO.P,P2,15,Pin_15*%
%TO.N,/13(SCK)*%
X23850000Y1680000D03*
%TD*%
D22*
%TO.P,R4,1*%
%TO.N,+5V*%
X1225000Y52650000D03*
%TO.P,R4,2*%
%TO.N,Net-(D4-Pad2)*%
X1225000Y55750000D03*
%TD*%
D34*
%TO.P,L1,1,1*%
%TO.N,+5VA*%
X13675000Y20862500D03*
%TO.P,L1,2,2*%
%TO.N,+5V*%
X13675000Y25137500D03*
%TD*%
D35*
%TO.N,/1(Tx)*%
X7450000Y33000000D02*
X9200000Y31250000D01*
X8546467Y38075489D02*
X7450000Y36979022D01*
X8546467Y38075489D02*
X12249511Y38075489D01*
X7450000Y36979022D02*
X7450000Y33000000D01*
X7189022Y37240000D02*
X2300000Y37240000D01*
X7450000Y36979022D02*
X7189022Y37240000D01*
X12275000Y38100978D02*
X12275000Y39350000D01*
X12249511Y38075489D02*
X12275000Y38100978D01*
%TO.N,/0(Rx)*%
X14949520Y36268461D02*
X14131059Y35450000D01*
X14875000Y39350000D02*
X14949520Y39275480D01*
X14949520Y39275480D02*
X14949520Y36268461D01*
X14131059Y35450000D02*
X10860000Y35450000D01*
X10860000Y35450000D02*
X9200000Y33790000D01*
%TO.N,/Reset*%
X24430489Y430489D02*
X15994511Y430489D01*
X25099511Y1099511D02*
X24430489Y430489D01*
X25099511Y30910489D02*
X25099511Y1099511D01*
X11400000Y36950000D02*
X13650000Y36950000D01*
X675000Y30535000D02*
X2300000Y32160000D01*
X10780000Y36330000D02*
X11400000Y36950000D01*
X9200000Y36330000D02*
X10780000Y36330000D01*
X1911955Y300969D02*
X675000Y1537924D01*
X12425969Y300969D02*
X1911955Y300969D01*
X23850000Y32160000D02*
X25099511Y30910489D01*
X10855000Y36330000D02*
X11475000Y36950000D01*
X675000Y1537924D02*
X675000Y30535000D01*
X14275000Y2150000D02*
X12425969Y300969D01*
X15994511Y430489D02*
X14275000Y2150000D01*
%TO.N,GND*%
X17850000Y58350000D02*
X19950000Y58350000D01*
X8100000Y54350000D02*
X8100000Y58350000D01*
X8100000Y54350000D02*
X6325000Y54350000D01*
X17850000Y54350000D02*
X17850000Y58350000D01*
X11675000Y53900000D02*
X8550000Y53900000D01*
X8100000Y58350000D02*
X6525000Y58350000D01*
X13575000Y45275000D02*
X13575000Y46550000D01*
X19950000Y58350000D02*
X20275000Y58675000D01*
X19600000Y54350000D02*
X19650000Y54300000D01*
X17850000Y54350000D02*
X19600000Y54350000D01*
X17700000Y41625000D02*
X17225000Y41625000D01*
X8550000Y53900000D02*
X8100000Y54350000D01*
X17225000Y41625000D02*
X13575000Y45275000D01*
%TO.N,Net-(C4-Pad1)*%
X7207500Y16010000D02*
X6200000Y17017500D01*
X9200000Y16010000D02*
X7207500Y16010000D01*
X9200000Y16010000D02*
X11545000Y16010000D01*
X11545000Y16010000D02*
X11550000Y16005000D01*
%TO.N,+5V*%
X9675000Y45275000D02*
X9675000Y46550000D01*
X725489Y52150489D02*
X725489Y45944511D01*
D36*
X11707500Y27105000D02*
X13675000Y25137500D01*
D35*
X17700000Y39281441D02*
X17700000Y38375000D01*
X14125978Y41800000D02*
X15181441Y41800000D01*
D36*
X13247500Y25137500D02*
X9200000Y21090000D01*
X22575000Y39550000D02*
X22400489Y39375489D01*
X22400489Y39375489D02*
X22400489Y31069511D01*
D35*
X12925000Y40599022D02*
X12024022Y41500000D01*
X2025000Y44645000D02*
X725489Y45944511D01*
X2800000Y41500000D02*
X2025000Y42275000D01*
X2025000Y44645000D02*
X2925000Y45545000D01*
D37*
X25062500Y48986522D02*
X22575000Y46499022D01*
D35*
X12925000Y39350000D02*
X12925000Y40599022D01*
X2925000Y45545000D02*
X4898559Y45545000D01*
D36*
X11575000Y27105000D02*
X11707500Y27105000D01*
D37*
X25062500Y49850000D02*
X25062500Y48986522D01*
D36*
X22275000Y39250000D02*
X22575000Y39550000D01*
D37*
X25075000Y58475000D02*
X24875000Y58675000D01*
X25074511Y58475489D02*
X24875000Y58675000D01*
D35*
X9700000Y46575000D02*
X9675000Y46550000D01*
X4898559Y45545000D02*
X5918069Y44525490D01*
D36*
X11575000Y27105000D02*
X11575000Y33675000D01*
D35*
X12024022Y41500000D02*
X2800000Y41500000D01*
X15181441Y41800000D02*
X17700000Y39281441D01*
D37*
X22575000Y45850000D02*
X22575000Y39550000D01*
X25062500Y49850000D02*
X25074511Y49862011D01*
D35*
X1225000Y52650000D02*
X725489Y52150489D01*
D37*
X23850000Y29620000D02*
X22400489Y31069511D01*
D35*
X5918069Y44525490D02*
X8925490Y44525490D01*
X8925490Y44525490D02*
X9675000Y45275000D01*
X12925000Y40599022D02*
X14125978Y41800000D01*
X9700000Y49500000D02*
X9700000Y46575000D01*
D36*
X13675000Y25137500D02*
X13247500Y25137500D01*
D37*
X25074511Y49862011D02*
X25074511Y58475489D01*
X22575000Y46499022D02*
X22575000Y45850000D01*
D36*
X11575000Y33675000D02*
X11400000Y33850000D01*
D35*
%TO.N,/13(SCK)*%
X17345489Y4650489D02*
X18908183Y6213183D01*
X18900490Y6220876D02*
X18908183Y6213183D01*
X18908183Y6213183D02*
X23500000Y1621366D01*
X23500000Y1621366D02*
X23791366Y1621366D01*
X18900490Y11389510D02*
X18900490Y6220876D01*
X23791366Y1621366D02*
X23850000Y1680000D01*
X14275000Y4690000D02*
X14314511Y4650489D01*
X16820000Y13470000D02*
X18900490Y11389510D01*
X14314511Y4650489D02*
X17345489Y4650489D01*
%TO.N,Net-(C5-Pad1)*%
X9200000Y13470000D02*
X7532500Y13470000D01*
X11550000Y13480000D02*
X9210000Y13480000D01*
X7532500Y13470000D02*
X6200000Y12137500D01*
X9210000Y13480000D02*
X9200000Y13470000D01*
D36*
%TO.N,+3V3*%
X22375000Y5695000D02*
X23850000Y4220000D01*
X22375000Y23065000D02*
X23850000Y24540000D01*
D38*
X16025480Y48887980D02*
X16025480Y44874520D01*
D36*
X22375000Y5695000D02*
X22375000Y23065000D01*
D38*
X19400000Y28990000D02*
X19400000Y42675000D01*
X22575000Y58675000D02*
X22575000Y52375000D01*
X23850000Y24540000D02*
X19400000Y28990000D01*
X16987500Y49850000D02*
X16025480Y48887980D01*
X19512500Y52375000D02*
X22575000Y52375000D01*
X16025480Y44874520D02*
X16525000Y44375000D01*
X19400000Y42675000D02*
X17700000Y44375000D01*
X16987500Y49850000D02*
X19512500Y52375000D01*
X16525000Y44375000D02*
X17700000Y44375000D01*
D35*
%TO.N,/12(MISO)*%
X12634520Y1390872D02*
X12144128Y900480D01*
X14275000Y8385000D02*
X14275000Y7230000D01*
X16820000Y10930000D02*
X14275000Y8385000D01*
X14275000Y7230000D02*
X12634520Y5589520D01*
X3079520Y900480D02*
X2300000Y1680000D01*
X12144128Y900480D02*
X3079520Y900480D01*
X12634520Y5589520D02*
X12634520Y1390872D01*
%TO.N,/11(\u002A\u002A{slash}MOSI)*%
X11554511Y4509511D02*
X11735000Y4690000D01*
X2589511Y4509511D02*
X11554511Y4509511D01*
X2300000Y4220000D02*
X2589511Y4509511D01*
%TO.N,Net-(C1-Pad1)*%
X15620489Y40503533D02*
X15124022Y41000000D01*
X15124022Y41000000D02*
X14675000Y41000000D01*
X14225000Y40550000D02*
X14225000Y39350000D01*
X15620489Y35795489D02*
X15620489Y40503533D01*
X13650000Y33825000D02*
X15620489Y35795489D01*
X14675000Y41000000D02*
X14225000Y40550000D01*
%TO.N,/D+*%
X12975000Y52850978D02*
X12975000Y53900000D01*
X8001675Y52099511D02*
X12223533Y52099511D01*
X12223533Y52099511D02*
X12975000Y52850978D01*
X6425000Y50522836D02*
X8001675Y52099511D01*
X6425000Y46550000D02*
X6425000Y50522836D01*
%TO.N,/D-*%
X7075000Y50324986D02*
X8150014Y51400000D01*
X12371871Y51400000D02*
X13625000Y52653129D01*
X13625000Y52653129D02*
X13625000Y53900000D01*
X8150014Y51400000D02*
X12371871Y51400000D01*
X7075000Y46550000D02*
X7075000Y50324986D01*
%TO.N,Net-(R2-Pad1)*%
X5400000Y43900000D02*
X9600000Y43900000D01*
X4250000Y44250000D02*
X5050000Y44250000D01*
X9600000Y43900000D02*
X10975000Y45275000D01*
X10975000Y45275000D02*
X10975000Y46550000D01*
X5050000Y44250000D02*
X5400000Y43900000D01*
%TO.N,Net-(R1-Pad1)*%
X9500000Y42550000D02*
X11625000Y44675000D01*
X11625000Y44675000D02*
X11625000Y46550000D01*
X4250000Y42550000D02*
X9500000Y42550000D01*
D37*
%TO.N,/Vin*%
X25075000Y45650000D02*
X24875000Y45850000D01*
X23850000Y37240000D02*
X24364022Y37240000D01*
X24364022Y37240000D02*
X25075000Y37950978D01*
X25075000Y37950978D02*
X25075000Y45650000D01*
D35*
%TO.N,+5VA*%
X13675000Y20862500D02*
X13675000Y16805000D01*
X14480000Y16010000D02*
X14475000Y16005000D01*
X13675000Y16805000D02*
X14475000Y16005000D01*
X16820000Y16010000D02*
X14480000Y16010000D01*
%TO.N,Net-(D2-Pad1)*%
X2025000Y47185000D02*
X4050000Y47185000D01*
%TO.N,/3V3OUT*%
X3625000Y49918559D02*
X3625000Y52632500D01*
X7699511Y45275489D02*
X6022347Y45275489D01*
X7725000Y45300978D02*
X7699511Y45275489D01*
X6022347Y45275489D02*
X5800489Y45497347D01*
X7725000Y46550000D02*
X7725000Y45300978D01*
X5800489Y47743070D02*
X3625000Y49918559D01*
X5800489Y45497347D02*
X5800489Y47743070D01*
%TO.N,Net-(D1-Pad2)*%
X14275000Y50075000D02*
X14275000Y53900000D01*
X13700000Y49500000D02*
X14275000Y50075000D01*
%TO.N,Net-(D3-Pad1)*%
X2025000Y39735000D02*
X3765000Y39735000D01*
X3765000Y39735000D02*
X4250000Y39250000D01*
%TO.N,Net-(D4-Pad2)*%
X1225000Y57685000D02*
X1160000Y57750000D01*
X1225000Y55750000D02*
X1225000Y57685000D01*
%TD*%
%TA.AperFunction,Conductor*%
%TO.N,GND*%
G36*
X25895445Y44737289D02*
G01*
X25938710Y44694024D01*
X25949500Y44649079D01*
X25949500Y1010045D01*
X25949458Y1010045D01*
X25949467Y1009966D01*
X25945339Y1000000D01*
X25948774Y991706D01*
X25948638Y990155D01*
X25948638Y990154D01*
X25935830Y843753D01*
X25932834Y826758D01*
X25900706Y706852D01*
X25894479Y683614D01*
X25888579Y667405D01*
X25885191Y660139D01*
X25825952Y533101D01*
X25817324Y518157D01*
X25732329Y396771D01*
X25721237Y383551D01*
X25616449Y278763D01*
X25603229Y267671D01*
X25481843Y182676D01*
X25466899Y174048D01*
X25332595Y111421D01*
X25316390Y105523D01*
X25208329Y76568D01*
X25173242Y67166D01*
X25156247Y64170D01*
X25008294Y51226D01*
X25008133Y53063D01*
X25005064Y52564D01*
X25000000Y54661D01*
X24990138Y50576D01*
X24978673Y51478D01*
X24972502Y50500D01*
X24855901Y50500D01*
X24797710Y69407D01*
X24761746Y118907D01*
X24761746Y180093D01*
X24785897Y219504D01*
X25404995Y838602D01*
X25404998Y838606D01*
X25427561Y861169D01*
X25438513Y882665D01*
X25446628Y895906D01*
X25456226Y909116D01*
X25460807Y915421D01*
X25468263Y938368D01*
X25474206Y952714D01*
X25485157Y974207D01*
X25487929Y991706D01*
X25488930Y998030D01*
X25492556Y1013136D01*
X25500011Y1036078D01*
X25500011Y30942008D01*
X25500010Y30942014D01*
X25500010Y30973922D01*
X25497604Y30981329D01*
X25497603Y30981332D01*
X25492557Y30996862D01*
X25488931Y31011965D01*
X25486376Y31028097D01*
X25485157Y31035793D01*
X25474206Y31057285D01*
X25468262Y31071634D01*
X25463215Y31087168D01*
X25463215Y31087169D01*
X25460807Y31094579D01*
X25446622Y31114103D01*
X25438515Y31127333D01*
X25427561Y31148831D01*
X24865399Y31710993D01*
X24837622Y31765510D01*
X24841464Y31812245D01*
X24879351Y31926137D01*
X24882953Y31954645D01*
X24904823Y32127772D01*
X24905171Y32130526D01*
X24905583Y32160000D01*
X24903413Y32182136D01*
X24885952Y32360220D01*
X24885951Y32360224D01*
X24885480Y32365030D01*
X24825935Y32562251D01*
X24729218Y32744151D01*
X24599011Y32903800D01*
X24568357Y32929159D01*
X24444002Y33032035D01*
X24444000Y33032036D01*
X24440275Y33035118D01*
X24259055Y33133103D01*
X24205038Y33149824D01*
X24122061Y33175510D01*
X24072063Y33210780D01*
X24052346Y33268701D01*
X24070439Y33327150D01*
X24119432Y33363801D01*
X24130752Y33366919D01*
X24137202Y33368290D01*
X24343304Y33430124D01*
X24350852Y33433082D01*
X24544087Y33527747D01*
X24551046Y33531896D01*
X24726231Y33656852D01*
X24732412Y33662076D01*
X24884831Y33813965D01*
X24890088Y33820142D01*
X25015651Y33994881D01*
X25019823Y34001824D01*
X25115164Y34194732D01*
X25118144Y34202256D01*
X25180701Y34408157D01*
X25182410Y34416062D01*
X25184304Y34430453D01*
X25181873Y34443569D01*
X25180571Y34444805D01*
X25175290Y34446000D01*
X23695000Y34446000D01*
X23636809Y34464907D01*
X23600845Y34514407D01*
X23596000Y34545000D01*
X23596000Y34855000D01*
X23614907Y34913191D01*
X23664407Y34949155D01*
X23695000Y34954000D01*
X25170779Y34954000D01*
X25182730Y34957883D01*
X25183058Y34967538D01*
X25140946Y35135191D01*
X25138333Y35142867D01*
X25052534Y35340193D01*
X25048701Y35347340D01*
X24931826Y35528003D01*
X24926880Y35534425D01*
X24782065Y35693574D01*
X24776139Y35699101D01*
X24607269Y35832466D01*
X24600525Y35836946D01*
X24412141Y35940940D01*
X24404749Y35944262D01*
X24255316Y35997179D01*
X24206774Y36034426D01*
X24189397Y36093092D01*
X24209821Y36150768D01*
X24260246Y36185423D01*
X24288363Y36189500D01*
X24719748Y36189500D01*
X24745995Y36194721D01*
X24768666Y36199230D01*
X24768668Y36199231D01*
X24778231Y36201133D01*
X24844552Y36245448D01*
X24888867Y36311769D01*
X24891943Y36327230D01*
X24899552Y36365488D01*
X24900500Y36370252D01*
X24900500Y36886235D01*
X24919407Y36944426D01*
X24929496Y36956239D01*
X25467199Y37493942D01*
X25476936Y37502480D01*
X25498129Y37518742D01*
X25503282Y37522696D01*
X25599536Y37648137D01*
X25660044Y37794216D01*
X25675500Y37911617D01*
X25680682Y37950978D01*
X25676347Y37983906D01*
X25675500Y37996827D01*
X25675500Y44589687D01*
X25694407Y44647878D01*
X25719497Y44672002D01*
X25722384Y44673931D01*
X25769552Y44705448D01*
X25774971Y44713558D01*
X25780496Y44719083D01*
X25835013Y44746860D01*
X25895445Y44737289D01*
G37*
%TD.AperFunction*%
%TA.AperFunction,Conductor*%
G36*
X229133Y51993807D02*
G01*
X277850Y51927850D01*
X283799Y51923456D01*
X283800Y51923455D01*
X284805Y51922713D01*
X285463Y51921792D01*
X289036Y51918219D01*
X288441Y51917624D01*
X320380Y51872933D01*
X324989Y51843078D01*
X324989Y45881078D01*
X329388Y45867541D01*
X332444Y45858136D01*
X336070Y45843030D01*
X339843Y45819207D01*
X350794Y45797714D01*
X356737Y45783368D01*
X364193Y45760421D01*
X374643Y45746039D01*
X378372Y45740906D01*
X386487Y45727665D01*
X397439Y45706169D01*
X420002Y45683606D01*
X420005Y45683602D01*
X969166Y45134441D01*
X996943Y45079924D01*
X993709Y45035081D01*
X975208Y44975496D01*
X954261Y44908035D01*
X943937Y44874787D01*
X920164Y44673931D01*
X924261Y44611426D01*
X931641Y44498827D01*
X933392Y44472106D01*
X934508Y44467713D01*
X934508Y44467711D01*
X976974Y44300500D01*
X983178Y44276072D01*
X1067856Y44092393D01*
X1184588Y43927220D01*
X1329466Y43786087D01*
X1497637Y43673718D01*
X1683470Y43593878D01*
X1754182Y43577877D01*
X1853272Y43555455D01*
X1905855Y43524171D01*
X1930008Y43467954D01*
X1916504Y43408278D01*
X1870502Y43367936D01*
X1848192Y43361327D01*
X1738949Y43342556D01*
X1549193Y43272551D01*
X1375371Y43169138D01*
X1371956Y43166143D01*
X1371953Y43166141D01*
X1355630Y43151826D01*
X1223305Y43035780D01*
X1220497Y43032218D01*
X1126031Y42912387D01*
X1098089Y42876943D01*
X1003914Y42697947D01*
X1002569Y42693616D01*
X1002568Y42693613D01*
X975934Y42607834D01*
X943937Y42504787D01*
X920164Y42303931D01*
X920461Y42299403D01*
X932053Y42122541D01*
X933392Y42102106D01*
X934508Y42097713D01*
X934508Y42097711D01*
X941109Y42071719D01*
X983178Y41906072D01*
X1067856Y41722393D01*
X1184588Y41557220D01*
X1329466Y41416087D01*
X1497637Y41303718D01*
X1683470Y41223878D01*
X1880740Y41179240D01*
X2082842Y41171300D01*
X2136377Y41179062D01*
X2278519Y41199671D01*
X2278522Y41199672D01*
X2283007Y41200322D01*
X2411561Y41243961D01*
X2472741Y41244762D01*
X2513388Y41220219D01*
X2539091Y41194516D01*
X2539095Y41194513D01*
X2561658Y41171950D01*
X2583146Y41161001D01*
X2596387Y41152887D01*
X2609606Y41143283D01*
X2609610Y41143281D01*
X2615911Y41138703D01*
X2638859Y41131247D01*
X2653203Y41125305D01*
X2674696Y41114354D01*
X2682391Y41113135D01*
X2682392Y41113135D01*
X2698517Y41110581D01*
X2713621Y41106955D01*
X2729158Y41101907D01*
X2729160Y41101907D01*
X2736567Y41099500D01*
X11817121Y41099500D01*
X11875312Y41080593D01*
X11887124Y41070504D01*
X12363125Y40594504D01*
X12390903Y40539987D01*
X12381332Y40479555D01*
X12338067Y40436290D01*
X12293122Y40425500D01*
X12030252Y40425500D01*
X11971769Y40413867D01*
X11971113Y40417164D01*
X11928336Y40413797D01*
X11928231Y40413867D01*
X11869748Y40425500D01*
X11732861Y40425500D01*
X11674670Y40444407D01*
X11650586Y40471772D01*
X11650172Y40471462D01*
X11646229Y40476723D01*
X11646025Y40476955D01*
X11645943Y40477105D01*
X11567137Y40582256D01*
X11557256Y40592137D01*
X11452108Y40670941D01*
X11439855Y40677649D01*
X11316022Y40724072D01*
X11304033Y40726923D01*
X11250748Y40732711D01*
X11245414Y40733000D01*
X11215680Y40733000D01*
X11202995Y40728878D01*
X11200000Y40724757D01*
X11200000Y40249825D01*
X11199833Y40246420D01*
X11199500Y40244748D01*
X11199500Y39224000D01*
X11180593Y39165809D01*
X11131093Y39129845D01*
X11100500Y39125000D01*
X10849500Y39125000D01*
X10791309Y39143907D01*
X10755345Y39193407D01*
X10750500Y39224000D01*
X10750500Y40244748D01*
X10750167Y40246420D01*
X10750000Y40249825D01*
X10750000Y40717319D01*
X10745878Y40730004D01*
X10741757Y40732999D01*
X10704589Y40732999D01*
X10699249Y40732710D01*
X10645965Y40726922D01*
X10633980Y40724073D01*
X10510145Y40677649D01*
X10497892Y40670941D01*
X10392744Y40592137D01*
X10382863Y40582256D01*
X10304057Y40477105D01*
X10303975Y40476955D01*
X10303872Y40476858D01*
X10299828Y40471462D01*
X10298891Y40472164D01*
X10259445Y40434995D01*
X10217139Y40425500D01*
X10080252Y40425500D01*
X10021769Y40413867D01*
X10021113Y40417164D01*
X9978336Y40413797D01*
X9978231Y40413867D01*
X9919748Y40425500D01*
X9430252Y40425500D01*
X9371769Y40413867D01*
X9371113Y40417164D01*
X9328336Y40413797D01*
X9328231Y40413867D01*
X9269748Y40425500D01*
X8780252Y40425500D01*
X8721769Y40413867D01*
X8721113Y40417164D01*
X8678336Y40413797D01*
X8678231Y40413867D01*
X8619748Y40425500D01*
X8130252Y40425500D01*
X8071769Y40413867D01*
X8071113Y40417164D01*
X8028336Y40413797D01*
X8028231Y40413867D01*
X7969748Y40425500D01*
X7480252Y40425500D01*
X7421769Y40413867D01*
X7421113Y40417164D01*
X7378336Y40413797D01*
X7378231Y40413867D01*
X7319748Y40425500D01*
X6830252Y40425500D01*
X6771769Y40413867D01*
X6771113Y40417164D01*
X6728336Y40413797D01*
X6728231Y40413867D01*
X6669748Y40425500D01*
X6180252Y40425500D01*
X6154005Y40420279D01*
X6131334Y40415770D01*
X6131332Y40415769D01*
X6121769Y40413867D01*
X6055448Y40369552D01*
X6011133Y40303231D01*
X5999500Y40244748D01*
X5999500Y38455252D01*
X6011133Y38396769D01*
X6055448Y38330448D01*
X6121769Y38286133D01*
X6131332Y38284231D01*
X6131334Y38284230D01*
X6154005Y38279721D01*
X6180252Y38274500D01*
X6669748Y38274500D01*
X6728231Y38286133D01*
X6728887Y38282836D01*
X6771664Y38286203D01*
X6771769Y38286133D01*
X6830252Y38274500D01*
X7319748Y38274500D01*
X7378231Y38286133D01*
X7378887Y38282836D01*
X7421664Y38286203D01*
X7421769Y38286133D01*
X7480252Y38274500D01*
X7940077Y38274500D01*
X7998268Y38255593D01*
X8034232Y38206093D01*
X8034232Y38144907D01*
X8010081Y38105496D01*
X7509799Y37605214D01*
X7455282Y37577437D01*
X7394850Y37587008D01*
X7381605Y37595125D01*
X7373112Y37601296D01*
X7360401Y37605426D01*
X7350165Y37608752D01*
X7335819Y37614695D01*
X7314326Y37625646D01*
X7306633Y37626864D01*
X7306631Y37626865D01*
X7290503Y37629419D01*
X7275402Y37633044D01*
X7252455Y37640500D01*
X3449500Y37640500D01*
X3391309Y37659407D01*
X3355345Y37708907D01*
X3350500Y37739500D01*
X3350500Y38109748D01*
X3345279Y38135995D01*
X3340770Y38158666D01*
X3340769Y38158668D01*
X3338867Y38168231D01*
X3294552Y38234552D01*
X3228231Y38278867D01*
X3218668Y38280769D01*
X3218666Y38280770D01*
X3190777Y38286317D01*
X3169748Y38290500D01*
X1430252Y38290500D01*
X1409223Y38286317D01*
X1381334Y38280770D01*
X1381332Y38280769D01*
X1371769Y38278867D01*
X1305448Y38234552D01*
X1261133Y38168231D01*
X1259231Y38158668D01*
X1259230Y38158666D01*
X1254721Y38135995D01*
X1249500Y38109748D01*
X1249500Y36370252D01*
X1250448Y36365488D01*
X1258058Y36327230D01*
X1261133Y36311769D01*
X1305448Y36245448D01*
X1371769Y36201133D01*
X1381332Y36199231D01*
X1381334Y36199230D01*
X1404005Y36194721D01*
X1430252Y36189500D01*
X3169748Y36189500D01*
X3195995Y36194721D01*
X3218666Y36199230D01*
X3218668Y36199231D01*
X3228231Y36201133D01*
X3294552Y36245448D01*
X3338867Y36311769D01*
X3341943Y36327230D01*
X3349552Y36365488D01*
X3350500Y36370252D01*
X3350500Y36740500D01*
X3369407Y36798691D01*
X3418907Y36834655D01*
X3449500Y36839500D01*
X6950500Y36839500D01*
X7008691Y36820593D01*
X7044655Y36771093D01*
X7049500Y36740500D01*
X7049500Y32936567D01*
X7055787Y32917219D01*
X7056955Y32913625D01*
X7060581Y32898519D01*
X7064354Y32874696D01*
X7075305Y32853203D01*
X7081248Y32838857D01*
X7088704Y32815910D01*
X7093285Y32809605D01*
X7102883Y32796395D01*
X7110998Y32783154D01*
X7121950Y32761658D01*
X7144513Y32739095D01*
X7144516Y32739091D01*
X8224146Y31659461D01*
X8251923Y31604944D01*
X8248508Y31559523D01*
X8221775Y31475247D01*
X8216628Y31459022D01*
X8216088Y31454210D01*
X8216088Y31454209D01*
X8203642Y31343246D01*
X8194757Y31264037D01*
X8197928Y31226273D01*
X8210468Y31076940D01*
X8211175Y31068517D01*
X8212508Y31063869D01*
X8212508Y31063868D01*
X8255817Y30912835D01*
X8265258Y30879909D01*
X8267473Y30875599D01*
X8352731Y30709704D01*
X8352734Y30709700D01*
X8354944Y30705399D01*
X8476818Y30551631D01*
X8480505Y30548493D01*
X8480507Y30548491D01*
X8622550Y30427603D01*
X8622555Y30427600D01*
X8626238Y30424465D01*
X8630460Y30422105D01*
X8630465Y30422102D01*
X8725290Y30369107D01*
X8797513Y30328743D01*
X8898549Y30295914D01*
X8979513Y30269607D01*
X8979516Y30269606D01*
X8984118Y30268111D01*
X9178946Y30244879D01*
X9183768Y30245250D01*
X9183771Y30245250D01*
X9369748Y30259560D01*
X9369753Y30259561D01*
X9374576Y30259932D01*
X9563556Y30312697D01*
X9567869Y30314876D01*
X9567875Y30314878D01*
X9734368Y30398980D01*
X9734370Y30398982D01*
X9738689Y30401163D01*
X9742506Y30404145D01*
X9889487Y30518978D01*
X9889491Y30518982D01*
X9893303Y30521960D01*
X9918915Y30551631D01*
X10018345Y30666823D01*
X10018347Y30666825D01*
X10021509Y30670489D01*
X10024139Y30675118D01*
X10116036Y30836885D01*
X10116037Y30836888D01*
X10118425Y30841091D01*
X10129905Y30875599D01*
X10178831Y31022677D01*
X10178831Y31022679D01*
X10180358Y31027268D01*
X10181259Y31034395D01*
X10198216Y31168634D01*
X10204949Y31221929D01*
X10205004Y31225823D01*
X10205302Y31247230D01*
X10205341Y31250000D01*
X10204438Y31259217D01*
X10186666Y31440454D01*
X10186194Y31445272D01*
X10129484Y31633106D01*
X10065082Y31754228D01*
X10039643Y31802073D01*
X10039641Y31802077D01*
X10037370Y31806347D01*
X9913361Y31958398D01*
X9762180Y32083465D01*
X9589585Y32176787D01*
X9402152Y32234807D01*
X9397342Y32235313D01*
X9397340Y32235313D01*
X9211835Y32254811D01*
X9211833Y32254811D01*
X9207019Y32255317D01*
X9142891Y32249481D01*
X9016438Y32237973D01*
X9016435Y32237972D01*
X9011618Y32237534D01*
X9006976Y32236168D01*
X9006972Y32236167D01*
X8888178Y32201203D01*
X8827017Y32202911D01*
X8790222Y32226171D01*
X7879496Y33136897D01*
X7851719Y33191414D01*
X7850500Y33206901D01*
X7850500Y36772121D01*
X7869407Y36830312D01*
X7879496Y36842125D01*
X8030496Y36993125D01*
X8085013Y37020902D01*
X8145445Y37011331D01*
X8188710Y36968066D01*
X8199500Y36923121D01*
X8199500Y35510252D01*
X8211133Y35451769D01*
X8255448Y35385448D01*
X8321769Y35341133D01*
X8331332Y35339231D01*
X8331334Y35339230D01*
X8354005Y35334721D01*
X8380252Y35329500D01*
X9934099Y35329500D01*
X9992290Y35310593D01*
X10028254Y35261093D01*
X10028254Y35199907D01*
X10004103Y35160496D01*
X9609523Y34765916D01*
X9555006Y34738139D01*
X9510244Y34741347D01*
X9430874Y34765916D01*
X9402152Y34774807D01*
X9397342Y34775313D01*
X9397340Y34775313D01*
X9211835Y34794811D01*
X9211833Y34794811D01*
X9207019Y34795317D01*
X9142891Y34789481D01*
X9016438Y34777973D01*
X9016435Y34777972D01*
X9011618Y34777534D01*
X9006976Y34776168D01*
X9006972Y34776167D01*
X8828040Y34723504D01*
X8828037Y34723503D01*
X8823393Y34722136D01*
X8649512Y34631233D01*
X8645743Y34628203D01*
X8645742Y34628202D01*
X8636016Y34620382D01*
X8496600Y34508289D01*
X8470186Y34476810D01*
X8373589Y34361690D01*
X8373586Y34361686D01*
X8370480Y34357984D01*
X8275956Y34186046D01*
X8274492Y34181432D01*
X8274491Y34181429D01*
X8257600Y34128182D01*
X8216628Y33999022D01*
X8216088Y33994210D01*
X8216088Y33994209D01*
X8195871Y33813965D01*
X8194757Y33804037D01*
X8198060Y33764704D01*
X8206678Y33662076D01*
X8211175Y33608517D01*
X8212508Y33603869D01*
X8212508Y33603868D01*
X8261481Y33433082D01*
X8265258Y33419909D01*
X8267473Y33415599D01*
X8352731Y33249704D01*
X8352734Y33249700D01*
X8354944Y33245399D01*
X8476818Y33091631D01*
X8480505Y33088493D01*
X8480507Y33088491D01*
X8622550Y32967603D01*
X8622555Y32967600D01*
X8626238Y32964465D01*
X8630460Y32962105D01*
X8630465Y32962102D01*
X8729266Y32906885D01*
X8797513Y32868743D01*
X8866702Y32846262D01*
X8979513Y32809607D01*
X8979516Y32809606D01*
X8984118Y32808111D01*
X9178946Y32784879D01*
X9183768Y32785250D01*
X9183771Y32785250D01*
X9369748Y32799560D01*
X9369753Y32799561D01*
X9374576Y32799932D01*
X9563556Y32852697D01*
X9567869Y32854876D01*
X9567875Y32854878D01*
X9734368Y32938980D01*
X9734370Y32938982D01*
X9738689Y32941163D01*
X9745409Y32946413D01*
X9889487Y33058978D01*
X9889491Y33058982D01*
X9893303Y33061960D01*
X9914011Y33085950D01*
X10018345Y33206823D01*
X10018347Y33206825D01*
X10021509Y33210489D01*
X10036465Y33236816D01*
X10116036Y33376885D01*
X10116037Y33376888D01*
X10118425Y33381091D01*
X10122671Y33393853D01*
X10131843Y33421427D01*
X10168152Y33470675D01*
X10226473Y33489176D01*
X10284530Y33469862D01*
X10320148Y33420113D01*
X10324436Y33396160D01*
X10324500Y33396166D01*
X10327481Y33364631D01*
X10372366Y33236816D01*
X10376761Y33230865D01*
X10376762Y33230864D01*
X10424751Y33165893D01*
X10452850Y33127850D01*
X10458807Y33123450D01*
X10546095Y33058978D01*
X10561816Y33047366D01*
X10689631Y33002481D01*
X10695638Y33001913D01*
X10695639Y33001913D01*
X10718855Y32999718D01*
X10718865Y32999718D01*
X10721166Y32999500D01*
X10900500Y32999500D01*
X10958691Y32980593D01*
X10994655Y32931093D01*
X10999500Y32900500D01*
X10999500Y28242563D01*
X10980593Y28184372D01*
X10950096Y28157908D01*
X10949316Y28157634D01*
X10840350Y28077150D01*
X10835950Y28071193D01*
X10767839Y27978978D01*
X10759866Y27968184D01*
X10714981Y27840369D01*
X10714413Y27834362D01*
X10714413Y27834361D01*
X10713415Y27823800D01*
X10712000Y27808834D01*
X10712000Y26401166D01*
X10714981Y26369631D01*
X10759866Y26241816D01*
X10764261Y26235865D01*
X10764262Y26235864D01*
X10835950Y26138807D01*
X10840350Y26132850D01*
X10949316Y26052366D01*
X11077131Y26007481D01*
X11083138Y26006913D01*
X11083139Y26006913D01*
X11106355Y26004718D01*
X11106365Y26004718D01*
X11108666Y26004500D01*
X11916759Y26004500D01*
X11974950Y25985593D01*
X12010914Y25936093D01*
X12010914Y25874907D01*
X11975577Y25825868D01*
X11902850Y25772150D01*
X11822366Y25663184D01*
X11777481Y25535369D01*
X11776913Y25529362D01*
X11776913Y25529361D01*
X11775159Y25510803D01*
X11774500Y25503834D01*
X11774500Y24771166D01*
X11777481Y24739631D01*
X11786741Y24713263D01*
X11822366Y24611816D01*
X11820366Y24611114D01*
X11829104Y24561025D01*
X11801097Y24504977D01*
X9407287Y22111167D01*
X9352770Y22083390D01*
X9326935Y22082713D01*
X9281370Y22087502D01*
X9211835Y22094811D01*
X9211833Y22094811D01*
X9207019Y22095317D01*
X9142891Y22089481D01*
X9016438Y22077973D01*
X9016435Y22077972D01*
X9011618Y22077534D01*
X9006976Y22076168D01*
X9006972Y22076167D01*
X8828040Y22023504D01*
X8828037Y22023503D01*
X8823393Y22022136D01*
X8649512Y21931233D01*
X8496600Y21808289D01*
X8493493Y21804586D01*
X8373589Y21661690D01*
X8373586Y21661686D01*
X8370480Y21657984D01*
X8275956Y21486046D01*
X8274492Y21481432D01*
X8274491Y21481429D01*
X8240992Y21375827D01*
X8216628Y21299022D01*
X8216088Y21294210D01*
X8216088Y21294209D01*
X8197353Y21127179D01*
X8194757Y21104037D01*
X8211175Y20908517D01*
X8212508Y20903869D01*
X8212508Y20903868D01*
X8224320Y20862677D01*
X8265258Y20719909D01*
X8267473Y20715599D01*
X8352731Y20549704D01*
X8352734Y20549700D01*
X8354944Y20545399D01*
X8476818Y20391631D01*
X8480505Y20388493D01*
X8480507Y20388491D01*
X8622550Y20267603D01*
X8622555Y20267600D01*
X8626238Y20264465D01*
X8630460Y20262105D01*
X8630465Y20262102D01*
X8726251Y20208570D01*
X8797513Y20168743D01*
X8870848Y20144915D01*
X8979513Y20109607D01*
X8979516Y20109606D01*
X8984118Y20108111D01*
X9178946Y20084879D01*
X9183768Y20085250D01*
X9183771Y20085250D01*
X9369748Y20099560D01*
X9369753Y20099561D01*
X9374576Y20099932D01*
X9563556Y20152697D01*
X9567869Y20154876D01*
X9567875Y20154878D01*
X9734368Y20238980D01*
X9734370Y20238982D01*
X9738689Y20241163D01*
X9749441Y20249563D01*
X9889487Y20358978D01*
X9889491Y20358982D01*
X9893303Y20361960D01*
X9897611Y20366950D01*
X10009146Y20496166D01*
X11774500Y20496166D01*
X11774718Y20493865D01*
X11774718Y20493855D01*
X11776913Y20470639D01*
X11777481Y20464631D01*
X11779481Y20458936D01*
X11809727Y20372806D01*
X11811168Y20311637D01*
X11805034Y20299239D01*
X11804000Y20292711D01*
X11804000Y19399680D01*
X11808122Y19386995D01*
X11812243Y19384000D01*
X12942319Y19384000D01*
X12955004Y19388122D01*
X12957999Y19392243D01*
X12957999Y19590292D01*
X12957733Y19595422D01*
X12947591Y19693173D01*
X12945318Y19703700D01*
X12892914Y19860777D01*
X12888069Y19871119D01*
X12840243Y19948404D01*
X12825700Y20007836D01*
X12848868Y20064466D01*
X12900896Y20096663D01*
X12924428Y20099500D01*
X13175500Y20099500D01*
X13233691Y20080593D01*
X13269655Y20031093D01*
X13274500Y20000500D01*
X13274500Y16741567D01*
X13280018Y16724586D01*
X13281955Y16718625D01*
X13285581Y16703519D01*
X13289354Y16679696D01*
X13300305Y16658203D01*
X13306248Y16643857D01*
X13313704Y16620910D01*
X13318285Y16614605D01*
X13327883Y16601395D01*
X13335998Y16588154D01*
X13346950Y16566658D01*
X13352454Y16561154D01*
X13357040Y16554842D01*
X13354235Y16552804D01*
X13375189Y16511679D01*
X13375969Y16486876D01*
X13374500Y16471334D01*
X13374500Y15538666D01*
X13377481Y15507131D01*
X13422366Y15379316D01*
X13426761Y15373365D01*
X13426762Y15373364D01*
X13439233Y15356480D01*
X13502850Y15270350D01*
X13611816Y15189866D01*
X13739631Y15144981D01*
X13745638Y15144413D01*
X13745639Y15144413D01*
X13768855Y15142218D01*
X13768865Y15142218D01*
X13771166Y15142000D01*
X15178834Y15142000D01*
X15181135Y15142218D01*
X15181145Y15142218D01*
X15204361Y15144413D01*
X15204362Y15144413D01*
X15210369Y15144981D01*
X15338184Y15189866D01*
X15447150Y15270350D01*
X15510767Y15356480D01*
X15523238Y15373364D01*
X15523239Y15373365D01*
X15527634Y15379316D01*
X15572519Y15507131D01*
X15573718Y15519815D01*
X15598017Y15575969D01*
X15650681Y15607115D01*
X15672279Y15609500D01*
X15840456Y15609500D01*
X15898647Y15590593D01*
X15928508Y15555753D01*
X15974944Y15465399D01*
X16096818Y15311631D01*
X16100505Y15308493D01*
X16100507Y15308491D01*
X16242550Y15187603D01*
X16242555Y15187600D01*
X16246238Y15184465D01*
X16250460Y15182105D01*
X16250465Y15182102D01*
X16346251Y15128570D01*
X16417513Y15088743D01*
X16518549Y15055914D01*
X16599513Y15029607D01*
X16599516Y15029606D01*
X16604118Y15028111D01*
X16798946Y15004879D01*
X16803768Y15005250D01*
X16803771Y15005250D01*
X16989748Y15019560D01*
X16989753Y15019561D01*
X16994576Y15019932D01*
X17183556Y15072697D01*
X17187869Y15074876D01*
X17187875Y15074878D01*
X17354368Y15158980D01*
X17354370Y15158982D01*
X17358689Y15161163D01*
X17362506Y15164145D01*
X17509487Y15278978D01*
X17509491Y15278982D01*
X17513303Y15281960D01*
X17538915Y15311631D01*
X17638345Y15426823D01*
X17638347Y15426825D01*
X17641509Y15430489D01*
X17644388Y15435557D01*
X17736036Y15596885D01*
X17736037Y15596888D01*
X17738425Y15601091D01*
X17741223Y15609500D01*
X17798831Y15782677D01*
X17798831Y15782679D01*
X17800358Y15787268D01*
X17824949Y15981929D01*
X17825341Y16010000D01*
X17823718Y16026559D01*
X17808319Y16183596D01*
X17806194Y16205272D01*
X17749484Y16393106D01*
X17678035Y16527482D01*
X17659643Y16562073D01*
X17659641Y16562077D01*
X17657370Y16566347D01*
X17604899Y16630684D01*
X17536422Y16714645D01*
X17536421Y16714646D01*
X17533361Y16718398D01*
X17421784Y16810702D01*
X17385907Y16840382D01*
X17385906Y16840383D01*
X17382180Y16843465D01*
X17209585Y16936787D01*
X17022152Y16994807D01*
X17017342Y16995313D01*
X17017340Y16995313D01*
X16831835Y17014811D01*
X16831833Y17014811D01*
X16827019Y17015317D01*
X16762891Y17009481D01*
X16636438Y16997973D01*
X16636435Y16997972D01*
X16631618Y16997534D01*
X16626976Y16996168D01*
X16626972Y16996167D01*
X16448040Y16943504D01*
X16448037Y16943503D01*
X16443393Y16942136D01*
X16269512Y16851233D01*
X16265743Y16848203D01*
X16265742Y16848202D01*
X16256084Y16840437D01*
X16116600Y16728289D01*
X16102274Y16711216D01*
X15993589Y16581690D01*
X15993586Y16581686D01*
X15990480Y16577984D01*
X15988149Y16573744D01*
X15988145Y16573738D01*
X15926611Y16461807D01*
X15882009Y16419922D01*
X15839857Y16410500D01*
X15671334Y16410500D01*
X15613143Y16429407D01*
X15577179Y16478907D01*
X15574668Y16491031D01*
X15574380Y16490968D01*
X15573087Y16496861D01*
X15572519Y16502869D01*
X15527634Y16630684D01*
X15474890Y16702094D01*
X15451550Y16733693D01*
X15447150Y16739650D01*
X15338184Y16820134D01*
X15210369Y16865019D01*
X15204362Y16865587D01*
X15204361Y16865587D01*
X15181145Y16867782D01*
X15181135Y16867782D01*
X15178834Y16868000D01*
X14219401Y16868000D01*
X14161210Y16886907D01*
X14149397Y16896996D01*
X14104496Y16941897D01*
X14076719Y16996414D01*
X14075500Y17011901D01*
X14075500Y18564037D01*
X15814757Y18564037D01*
X15831175Y18368517D01*
X15832508Y18363869D01*
X15832508Y18363868D01*
X15855945Y18282136D01*
X15885258Y18179909D01*
X15887473Y18175599D01*
X15972731Y18009704D01*
X15972734Y18009700D01*
X15974944Y18005399D01*
X16096818Y17851631D01*
X16100505Y17848493D01*
X16100507Y17848491D01*
X16242550Y17727603D01*
X16242555Y17727600D01*
X16246238Y17724465D01*
X16250460Y17722105D01*
X16250465Y17722102D01*
X16346251Y17668570D01*
X16417513Y17628743D01*
X16518549Y17595914D01*
X16599513Y17569607D01*
X16599516Y17569606D01*
X16604118Y17568111D01*
X16798946Y17544879D01*
X16803768Y17545250D01*
X16803771Y17545250D01*
X16989748Y17559560D01*
X16989753Y17559561D01*
X16994576Y17559932D01*
X17183556Y17612697D01*
X17187869Y17614876D01*
X17187875Y17614878D01*
X17354368Y17698980D01*
X17354370Y17698982D01*
X17358689Y17701163D01*
X17369441Y17709563D01*
X17509487Y17818978D01*
X17509491Y17818982D01*
X17513303Y17821960D01*
X17538915Y17851631D01*
X17638345Y17966823D01*
X17638347Y17966825D01*
X17641509Y17970489D01*
X17644139Y17975118D01*
X17736036Y18136885D01*
X17736037Y18136888D01*
X17738425Y18141091D01*
X17749905Y18175599D01*
X17798831Y18322677D01*
X17798831Y18322679D01*
X17800358Y18327268D01*
X17824949Y18521929D01*
X17825341Y18550000D01*
X17824438Y18559217D01*
X17808319Y18723596D01*
X17806194Y18745272D01*
X17749484Y18933106D01*
X17678236Y19067104D01*
X17659643Y19102073D01*
X17659641Y19102077D01*
X17657370Y19106347D01*
X17578891Y19202573D01*
X17536422Y19254645D01*
X17536421Y19254646D01*
X17533361Y19258398D01*
X17382180Y19383465D01*
X17209585Y19476787D01*
X17022152Y19534807D01*
X17017342Y19535313D01*
X17017340Y19535313D01*
X16831835Y19554811D01*
X16831833Y19554811D01*
X16827019Y19555317D01*
X16762891Y19549481D01*
X16636438Y19537973D01*
X16636435Y19537972D01*
X16631618Y19537534D01*
X16626976Y19536168D01*
X16626972Y19536167D01*
X16448040Y19483504D01*
X16448037Y19483503D01*
X16443393Y19482136D01*
X16269512Y19391233D01*
X16265743Y19388203D01*
X16265742Y19388202D01*
X16256016Y19380382D01*
X16116600Y19268289D01*
X16094436Y19241875D01*
X15993589Y19121690D01*
X15993586Y19121686D01*
X15990480Y19117984D01*
X15895956Y18946046D01*
X15894492Y18941432D01*
X15894491Y18941429D01*
X15851803Y18806859D01*
X15836628Y18759022D01*
X15836088Y18754210D01*
X15836088Y18754209D01*
X15817353Y18587179D01*
X15814757Y18564037D01*
X14075500Y18564037D01*
X14075500Y20000500D01*
X14094407Y20058691D01*
X14143907Y20094655D01*
X14174500Y20099500D01*
X15178834Y20099500D01*
X15181135Y20099718D01*
X15181145Y20099718D01*
X15204361Y20101913D01*
X15204362Y20101913D01*
X15210369Y20102481D01*
X15338184Y20147366D01*
X15348355Y20154878D01*
X15441193Y20223450D01*
X15447150Y20227850D01*
X15472449Y20262102D01*
X15523238Y20330864D01*
X15523239Y20330865D01*
X15527634Y20336816D01*
X15538216Y20366950D01*
X15575336Y20415589D01*
X15633956Y20433121D01*
X15691685Y20412848D01*
X15712720Y20390932D01*
X15811708Y20249563D01*
X15817241Y20242968D01*
X15972968Y20087241D01*
X15979563Y20081708D01*
X16159957Y19955394D01*
X16167427Y19951082D01*
X16367009Y19858015D01*
X16375102Y19855069D01*
X16550855Y19807976D01*
X16563141Y19808620D01*
X16566000Y19818273D01*
X16566000Y19819598D01*
X17074000Y19819598D01*
X17077802Y19807896D01*
X17087864Y19807633D01*
X17264898Y19855069D01*
X17272991Y19858015D01*
X17472573Y19951082D01*
X17480043Y19955394D01*
X17660437Y20081708D01*
X17667032Y20087241D01*
X17822759Y20242968D01*
X17828292Y20249563D01*
X17954606Y20429957D01*
X17958918Y20437427D01*
X18051985Y20637009D01*
X18054931Y20645102D01*
X18102024Y20820855D01*
X18101380Y20833141D01*
X18091727Y20836000D01*
X17089680Y20836000D01*
X17076995Y20831878D01*
X17074000Y20827757D01*
X17074000Y19819598D01*
X16566000Y19819598D01*
X16566000Y21359680D01*
X17074000Y21359680D01*
X17078122Y21346995D01*
X17082243Y21344000D01*
X18090402Y21344000D01*
X18102104Y21347802D01*
X18102367Y21357864D01*
X18054931Y21534898D01*
X18051985Y21542991D01*
X17958918Y21742573D01*
X17954606Y21750043D01*
X17828292Y21930437D01*
X17822759Y21937032D01*
X17667032Y22092759D01*
X17660437Y22098292D01*
X17480043Y22224606D01*
X17472573Y22228918D01*
X17272991Y22321985D01*
X17264898Y22324931D01*
X17089145Y22372024D01*
X17076859Y22371380D01*
X17074000Y22361727D01*
X17074000Y21359680D01*
X16566000Y21359680D01*
X16566000Y22360402D01*
X16562198Y22372104D01*
X16552136Y22372367D01*
X16375102Y22324931D01*
X16367009Y22321985D01*
X16167427Y22228918D01*
X16159957Y22224606D01*
X15979563Y22098292D01*
X15972968Y22092759D01*
X15817241Y21937032D01*
X15811708Y21930437D01*
X15685394Y21750043D01*
X15681087Y21742582D01*
X15587192Y21541223D01*
X15545463Y21496475D01*
X15485402Y21484800D01*
X15438649Y21503429D01*
X15344136Y21573238D01*
X15344135Y21573239D01*
X15338184Y21577634D01*
X15210369Y21622519D01*
X15204362Y21623087D01*
X15204361Y21623087D01*
X15181145Y21625282D01*
X15181135Y21625282D01*
X15178834Y21625500D01*
X12171166Y21625500D01*
X12168865Y21625282D01*
X12168855Y21625282D01*
X12145639Y21623087D01*
X12145638Y21623087D01*
X12139631Y21622519D01*
X12011816Y21577634D01*
X12005865Y21573239D01*
X12005864Y21573238D01*
X11996674Y21566450D01*
X11902850Y21497150D01*
X11898450Y21491193D01*
X11855093Y21432492D01*
X11822366Y21388184D01*
X11777481Y21260369D01*
X11776913Y21254362D01*
X11776913Y21254361D01*
X11775484Y21239241D01*
X11774500Y21228834D01*
X11774500Y20496166D01*
X10009146Y20496166D01*
X10018345Y20506823D01*
X10018347Y20506825D01*
X10021509Y20510489D01*
X10024388Y20515557D01*
X10116036Y20676885D01*
X10116037Y20676888D01*
X10118425Y20681091D01*
X10129905Y20715599D01*
X10178831Y20862677D01*
X10178831Y20862679D01*
X10180358Y20867268D01*
X10204949Y21061929D01*
X10205341Y21090000D01*
X10204438Y21099217D01*
X10192811Y21217789D01*
X10205949Y21277547D01*
X10221334Y21297454D01*
X12567917Y23644037D01*
X15814757Y23644037D01*
X15818060Y23604704D01*
X15828582Y23479402D01*
X15831175Y23448517D01*
X15832508Y23443869D01*
X15832508Y23443868D01*
X15856448Y23360382D01*
X15885258Y23259909D01*
X15887473Y23255599D01*
X15972731Y23089704D01*
X15972734Y23089700D01*
X15974944Y23085399D01*
X16096818Y22931631D01*
X16100505Y22928493D01*
X16100507Y22928491D01*
X16242550Y22807603D01*
X16242555Y22807600D01*
X16246238Y22804465D01*
X16250460Y22802105D01*
X16250465Y22802102D01*
X16349266Y22746885D01*
X16417513Y22708743D01*
X16518549Y22675914D01*
X16599513Y22649607D01*
X16599516Y22649606D01*
X16604118Y22648111D01*
X16798946Y22624879D01*
X16803768Y22625250D01*
X16803771Y22625250D01*
X16989748Y22639560D01*
X16989753Y22639561D01*
X16994576Y22639932D01*
X17183556Y22692697D01*
X17187869Y22694876D01*
X17187875Y22694878D01*
X17354368Y22778980D01*
X17354370Y22778982D01*
X17358689Y22781163D01*
X17362506Y22784145D01*
X17509487Y22898978D01*
X17509491Y22898982D01*
X17513303Y22901960D01*
X17520134Y22909873D01*
X17638345Y23046823D01*
X17638347Y23046825D01*
X17641509Y23050489D01*
X17644388Y23055557D01*
X17736036Y23216885D01*
X17736037Y23216888D01*
X17738425Y23221091D01*
X17749905Y23255599D01*
X17798831Y23402677D01*
X17798831Y23402679D01*
X17800358Y23407268D01*
X17805158Y23445260D01*
X17818964Y23554554D01*
X17824949Y23601929D01*
X17825341Y23630000D01*
X17824438Y23639217D01*
X17808012Y23806730D01*
X17806194Y23825272D01*
X17749484Y24013106D01*
X17678236Y24147104D01*
X17659643Y24182073D01*
X17659641Y24182077D01*
X17657370Y24186347D01*
X17561021Y24304484D01*
X17536422Y24334645D01*
X17536421Y24334646D01*
X17533361Y24338398D01*
X17434823Y24419915D01*
X17385907Y24460382D01*
X17385906Y24460383D01*
X17382180Y24463465D01*
X17209585Y24556787D01*
X17022152Y24614807D01*
X17017342Y24615313D01*
X17017340Y24615313D01*
X16831835Y24634811D01*
X16831833Y24634811D01*
X16827019Y24635317D01*
X16762891Y24629481D01*
X16636438Y24617973D01*
X16636435Y24617972D01*
X16631618Y24617534D01*
X16626976Y24616168D01*
X16626972Y24616167D01*
X16448040Y24563504D01*
X16448037Y24563503D01*
X16443393Y24562136D01*
X16269512Y24471233D01*
X16265743Y24468203D01*
X16265742Y24468202D01*
X16256016Y24460382D01*
X16116600Y24348289D01*
X16095525Y24323173D01*
X15993589Y24201690D01*
X15993586Y24201686D01*
X15990480Y24197984D01*
X15895956Y24026046D01*
X15894492Y24021432D01*
X15894491Y24021429D01*
X15877600Y23968182D01*
X15836628Y23839022D01*
X15836088Y23834210D01*
X15836088Y23834209D01*
X15817353Y23667179D01*
X15814757Y23644037D01*
X12567917Y23644037D01*
X13269384Y24345504D01*
X13323901Y24373281D01*
X13339388Y24374500D01*
X15178834Y24374500D01*
X15181135Y24374718D01*
X15181145Y24374718D01*
X15204361Y24376913D01*
X15204362Y24376913D01*
X15210369Y24377481D01*
X15338184Y24422366D01*
X15447150Y24502850D01*
X15489027Y24559546D01*
X15523238Y24605864D01*
X15523239Y24605865D01*
X15527634Y24611816D01*
X15572519Y24739631D01*
X15575500Y24771166D01*
X15575500Y25503834D01*
X15574842Y25510803D01*
X15573087Y25529361D01*
X15573087Y25529362D01*
X15572519Y25535369D01*
X15527634Y25663184D01*
X15511756Y25684681D01*
X15492392Y25742718D01*
X15510840Y25801056D01*
X15539293Y25827683D01*
X15581648Y25853894D01*
X15590598Y25860987D01*
X15687043Y25957599D01*
X15741535Y25985424D01*
X15801976Y25975904D01*
X15845278Y25932677D01*
X15852272Y25914944D01*
X15881481Y25813082D01*
X15885258Y25799909D01*
X15887473Y25795599D01*
X15972731Y25629704D01*
X15972734Y25629700D01*
X15974944Y25625399D01*
X16096818Y25471631D01*
X16100505Y25468493D01*
X16100507Y25468491D01*
X16242550Y25347603D01*
X16242555Y25347600D01*
X16246238Y25344465D01*
X16250460Y25342105D01*
X16250465Y25342102D01*
X16349266Y25286885D01*
X16417513Y25248743D01*
X16518549Y25215914D01*
X16599513Y25189607D01*
X16599516Y25189606D01*
X16604118Y25188111D01*
X16798946Y25164879D01*
X16803768Y25165250D01*
X16803771Y25165250D01*
X16989748Y25179560D01*
X16989753Y25179561D01*
X16994576Y25179932D01*
X17183556Y25232697D01*
X17187869Y25234876D01*
X17187875Y25234878D01*
X17354368Y25318980D01*
X17354370Y25318982D01*
X17358689Y25321163D01*
X17362506Y25324145D01*
X17509487Y25438978D01*
X17509491Y25438982D01*
X17513303Y25441960D01*
X17538915Y25471631D01*
X17638345Y25586823D01*
X17638347Y25586825D01*
X17641509Y25590489D01*
X17644388Y25595557D01*
X17736036Y25756885D01*
X17736037Y25756888D01*
X17738425Y25761091D01*
X17740123Y25766193D01*
X17798831Y25942677D01*
X17798831Y25942679D01*
X17800358Y25947268D01*
X17805200Y25985593D01*
X17818964Y26094554D01*
X17824949Y26141929D01*
X17825341Y26170000D01*
X17824438Y26179217D01*
X17810707Y26319241D01*
X17806194Y26365272D01*
X17749484Y26553106D01*
X17678236Y26687104D01*
X17659643Y26722073D01*
X17659641Y26722077D01*
X17657370Y26726347D01*
X17624644Y26766474D01*
X17536422Y26874645D01*
X17536421Y26874646D01*
X17533361Y26878398D01*
X17382180Y27003465D01*
X17209585Y27096787D01*
X17022152Y27154807D01*
X17017342Y27155313D01*
X17017340Y27155313D01*
X16831835Y27174811D01*
X16831833Y27174811D01*
X16827019Y27175317D01*
X16762891Y27169481D01*
X16636438Y27157973D01*
X16636435Y27157972D01*
X16631618Y27157534D01*
X16626976Y27156168D01*
X16626972Y27156167D01*
X16448040Y27103504D01*
X16448037Y27103503D01*
X16443393Y27102136D01*
X16269512Y27011233D01*
X16265743Y27008203D01*
X16265742Y27008202D01*
X16256016Y27000382D01*
X16116600Y26888289D01*
X16060973Y26821994D01*
X16041592Y26798897D01*
X15989704Y26766474D01*
X15928667Y26770742D01*
X15881797Y26810071D01*
X15871598Y26831941D01*
X15866378Y26848005D01*
X15862257Y26851000D01*
X13545181Y26851000D01*
X13532496Y26846878D01*
X13529501Y26842757D01*
X13529501Y26407208D01*
X13529766Y26402081D01*
X13536339Y26338738D01*
X13523539Y26278906D01*
X13478015Y26238026D01*
X13417156Y26231711D01*
X13367864Y26258516D01*
X12466996Y27159384D01*
X12439219Y27213901D01*
X12438000Y27229388D01*
X12438000Y27374680D01*
X13529500Y27374680D01*
X13533622Y27361995D01*
X13537743Y27359000D01*
X14430320Y27359000D01*
X14443005Y27363122D01*
X14446000Y27367243D01*
X14446000Y27374680D01*
X14954000Y27374680D01*
X14958122Y27361995D01*
X14962243Y27359000D01*
X15854819Y27359000D01*
X15867504Y27363122D01*
X15870499Y27367243D01*
X15870499Y27802792D01*
X15870233Y27807922D01*
X15860091Y27905673D01*
X15857818Y27916200D01*
X15807249Y28067777D01*
X15806972Y28103026D01*
X15805526Y28103250D01*
X15765978Y28139520D01*
X15713611Y28224142D01*
X15706513Y28233098D01*
X15589561Y28349847D01*
X15580596Y28356927D01*
X15439920Y28443641D01*
X15429566Y28448469D01*
X15272390Y28500602D01*
X15261879Y28502855D01*
X15165388Y28512741D01*
X15160330Y28513000D01*
X14969680Y28513000D01*
X14956995Y28508878D01*
X14954000Y28504757D01*
X14954000Y27374680D01*
X14446000Y27374680D01*
X14446000Y28497319D01*
X14441878Y28510004D01*
X14437757Y28512999D01*
X14239708Y28512999D01*
X14234578Y28512733D01*
X14136827Y28502591D01*
X14126300Y28500318D01*
X13969223Y28447914D01*
X13958876Y28443067D01*
X13818355Y28356109D01*
X13809402Y28349013D01*
X13692653Y28232061D01*
X13685573Y28223096D01*
X13598859Y28082420D01*
X13594031Y28072066D01*
X13541898Y27914890D01*
X13539645Y27904379D01*
X13529759Y27807888D01*
X13529500Y27802830D01*
X13529500Y27374680D01*
X12438000Y27374680D01*
X12438000Y27808834D01*
X12436586Y27823800D01*
X12435587Y27834361D01*
X12435587Y27834362D01*
X12435019Y27840369D01*
X12390134Y27968184D01*
X12382162Y27978978D01*
X12314050Y28071193D01*
X12309650Y28077150D01*
X12200684Y28157634D01*
X12200686Y28157637D01*
X12160595Y28199011D01*
X12150500Y28242563D01*
X12150500Y28724037D01*
X15814757Y28724037D01*
X15818524Y28679176D01*
X15827984Y28566524D01*
X15831175Y28528517D01*
X15832508Y28523869D01*
X15832508Y28523868D01*
X15881481Y28353082D01*
X15885258Y28339909D01*
X15938214Y28236867D01*
X15946874Y28183402D01*
X15958721Y28179655D01*
X15978746Y28160602D01*
X16096818Y28011631D01*
X16100505Y28008493D01*
X16100507Y28008491D01*
X16242550Y27887603D01*
X16242555Y27887600D01*
X16246238Y27884465D01*
X16250460Y27882105D01*
X16250465Y27882102D01*
X16349266Y27826885D01*
X16417513Y27788743D01*
X16516977Y27756425D01*
X16599513Y27729607D01*
X16599516Y27729606D01*
X16604118Y27728111D01*
X16798946Y27704879D01*
X16803768Y27705250D01*
X16803771Y27705250D01*
X16989748Y27719560D01*
X16989753Y27719561D01*
X16994576Y27719932D01*
X17183556Y27772697D01*
X17187869Y27774876D01*
X17187875Y27774878D01*
X17354368Y27858980D01*
X17354370Y27858982D01*
X17358689Y27861163D01*
X17385490Y27882102D01*
X17509487Y27978978D01*
X17509491Y27978982D01*
X17513303Y27981960D01*
X17538915Y28011631D01*
X17638345Y28126823D01*
X17638347Y28126825D01*
X17641509Y28130489D01*
X17644388Y28135557D01*
X17736036Y28296885D01*
X17736037Y28296888D01*
X17738425Y28301091D01*
X17749905Y28335599D01*
X17798831Y28482677D01*
X17798831Y28482679D01*
X17800358Y28487268D01*
X17801259Y28494395D01*
X17818964Y28634554D01*
X17824949Y28681929D01*
X17825341Y28710000D01*
X17824438Y28719217D01*
X17813648Y28829254D01*
X17806194Y28905272D01*
X17749484Y29093106D01*
X17678236Y29227104D01*
X17659643Y29262073D01*
X17659641Y29262077D01*
X17657370Y29266347D01*
X17560676Y29384907D01*
X17536422Y29414645D01*
X17536421Y29414646D01*
X17533361Y29418398D01*
X17382180Y29543465D01*
X17209585Y29636787D01*
X17022152Y29694807D01*
X17017342Y29695313D01*
X17017340Y29695313D01*
X16831835Y29714811D01*
X16831833Y29714811D01*
X16827019Y29715317D01*
X16762891Y29709481D01*
X16636438Y29697973D01*
X16636435Y29697972D01*
X16631618Y29697534D01*
X16626976Y29696168D01*
X16626972Y29696167D01*
X16448040Y29643504D01*
X16448037Y29643503D01*
X16443393Y29642136D01*
X16269512Y29551233D01*
X16265743Y29548203D01*
X16265742Y29548202D01*
X16256016Y29540382D01*
X16116600Y29428289D01*
X16090186Y29396810D01*
X15993589Y29281690D01*
X15993586Y29281686D01*
X15990480Y29277984D01*
X15895956Y29106046D01*
X15894492Y29101432D01*
X15894491Y29101429D01*
X15854016Y28973836D01*
X15836628Y28919022D01*
X15836088Y28914210D01*
X15836088Y28914209D01*
X15815871Y28733965D01*
X15814757Y28724037D01*
X12150500Y28724037D01*
X12150500Y31264037D01*
X15814757Y31264037D01*
X15817928Y31226273D01*
X15830468Y31076940D01*
X15831175Y31068517D01*
X15832508Y31063869D01*
X15832508Y31063868D01*
X15875817Y30912835D01*
X15885258Y30879909D01*
X15887473Y30875599D01*
X15972731Y30709704D01*
X15972734Y30709700D01*
X15974944Y30705399D01*
X16096818Y30551631D01*
X16100505Y30548493D01*
X16100507Y30548491D01*
X16242550Y30427603D01*
X16242555Y30427600D01*
X16246238Y30424465D01*
X16250460Y30422105D01*
X16250465Y30422102D01*
X16345290Y30369107D01*
X16417513Y30328743D01*
X16518549Y30295914D01*
X16599513Y30269607D01*
X16599516Y30269606D01*
X16604118Y30268111D01*
X16798946Y30244879D01*
X16803768Y30245250D01*
X16803771Y30245250D01*
X16989748Y30259560D01*
X16989753Y30259561D01*
X16994576Y30259932D01*
X17183556Y30312697D01*
X17187869Y30314876D01*
X17187875Y30314878D01*
X17354368Y30398980D01*
X17354370Y30398982D01*
X17358689Y30401163D01*
X17362506Y30404145D01*
X17509487Y30518978D01*
X17509491Y30518982D01*
X17513303Y30521960D01*
X17538915Y30551631D01*
X17638345Y30666823D01*
X17638347Y30666825D01*
X17641509Y30670489D01*
X17644139Y30675118D01*
X17736036Y30836885D01*
X17736037Y30836888D01*
X17738425Y30841091D01*
X17749905Y30875599D01*
X17798831Y31022677D01*
X17798831Y31022679D01*
X17800358Y31027268D01*
X17801259Y31034395D01*
X17818216Y31168634D01*
X17824949Y31221929D01*
X17825004Y31225823D01*
X17825302Y31247230D01*
X17825341Y31250000D01*
X17824438Y31259217D01*
X17806666Y31440454D01*
X17806194Y31445272D01*
X17749484Y31633106D01*
X17685082Y31754228D01*
X17659643Y31802073D01*
X17659641Y31802077D01*
X17657370Y31806347D01*
X17533361Y31958398D01*
X17382180Y32083465D01*
X17209585Y32176787D01*
X17022152Y32234807D01*
X17017342Y32235313D01*
X17017340Y32235313D01*
X16831835Y32254811D01*
X16831833Y32254811D01*
X16827019Y32255317D01*
X16762891Y32249481D01*
X16636438Y32237973D01*
X16636435Y32237972D01*
X16631618Y32237534D01*
X16626976Y32236168D01*
X16626972Y32236167D01*
X16448040Y32183504D01*
X16448037Y32183503D01*
X16443393Y32182136D01*
X16269512Y32091233D01*
X16265743Y32088203D01*
X16265742Y32088202D01*
X16256016Y32080382D01*
X16116600Y31968289D01*
X16090186Y31936810D01*
X15993589Y31821690D01*
X15993586Y31821686D01*
X15990480Y31817984D01*
X15895956Y31646046D01*
X15894492Y31641432D01*
X15894491Y31641429D01*
X15868509Y31559523D01*
X15836628Y31459022D01*
X15836088Y31454210D01*
X15836088Y31454209D01*
X15823642Y31343246D01*
X15814757Y31264037D01*
X12150500Y31264037D01*
X12150500Y32946413D01*
X12169407Y33004604D01*
X12216699Y33039821D01*
X12231202Y33044914D01*
X12231204Y33044915D01*
X12238184Y33047366D01*
X12253906Y33058978D01*
X12341193Y33123450D01*
X12347150Y33127850D01*
X12408189Y33210489D01*
X12422658Y33230079D01*
X12472439Y33265653D01*
X12533623Y33265172D01*
X12582838Y33228821D01*
X12591207Y33212711D01*
X12591450Y33212840D01*
X12594914Y33206297D01*
X12597366Y33199316D01*
X12601761Y33193365D01*
X12601762Y33193364D01*
X12614949Y33175510D01*
X12677850Y33090350D01*
X12683807Y33085950D01*
X12756802Y33032035D01*
X12786816Y33009866D01*
X12914631Y32964981D01*
X12920638Y32964413D01*
X12920639Y32964413D01*
X12943855Y32962218D01*
X12943865Y32962218D01*
X12946166Y32962000D01*
X14353834Y32962000D01*
X14356135Y32962218D01*
X14356145Y32962218D01*
X14379361Y32964413D01*
X14379362Y32964413D01*
X14385369Y32964981D01*
X14513184Y33009866D01*
X14543199Y33032035D01*
X14616193Y33085950D01*
X14622150Y33090350D01*
X14685051Y33175510D01*
X14698238Y33193364D01*
X14698239Y33193365D01*
X14702634Y33199316D01*
X14747519Y33327131D01*
X14750500Y33358666D01*
X14750500Y33804037D01*
X15814757Y33804037D01*
X15818060Y33764704D01*
X15826678Y33662076D01*
X15831175Y33608517D01*
X15832508Y33603869D01*
X15832508Y33603868D01*
X15881481Y33433082D01*
X15885258Y33419909D01*
X15887473Y33415599D01*
X15972731Y33249704D01*
X15972734Y33249700D01*
X15974944Y33245399D01*
X16096818Y33091631D01*
X16100505Y33088493D01*
X16100507Y33088491D01*
X16242550Y32967603D01*
X16242555Y32967600D01*
X16246238Y32964465D01*
X16250460Y32962105D01*
X16250465Y32962102D01*
X16349266Y32906885D01*
X16417513Y32868743D01*
X16486702Y32846262D01*
X16599513Y32809607D01*
X16599516Y32809606D01*
X16604118Y32808111D01*
X16798946Y32784879D01*
X16803768Y32785250D01*
X16803771Y32785250D01*
X16989748Y32799560D01*
X16989753Y32799561D01*
X16994576Y32799932D01*
X17183556Y32852697D01*
X17187869Y32854876D01*
X17187875Y32854878D01*
X17354368Y32938980D01*
X17354370Y32938982D01*
X17358689Y32941163D01*
X17365409Y32946413D01*
X17509487Y33058978D01*
X17509491Y33058982D01*
X17513303Y33061960D01*
X17534011Y33085950D01*
X17638345Y33206823D01*
X17638347Y33206825D01*
X17641509Y33210489D01*
X17656465Y33236816D01*
X17736036Y33376885D01*
X17736037Y33376888D01*
X17738425Y33381091D01*
X17742671Y33393853D01*
X17798831Y33562677D01*
X17798831Y33562679D01*
X17800358Y33567268D01*
X17824949Y33761929D01*
X17825341Y33790000D01*
X17824438Y33799217D01*
X17808012Y33966730D01*
X17806194Y33985272D01*
X17749484Y34173106D01*
X17678236Y34307104D01*
X17659643Y34342073D01*
X17659641Y34342077D01*
X17657370Y34346347D01*
X17646565Y34359596D01*
X17536422Y34494645D01*
X17536421Y34494646D01*
X17533361Y34498398D01*
X17382180Y34623465D01*
X17267288Y34685587D01*
X17213839Y34714487D01*
X17213838Y34714487D01*
X17209585Y34716787D01*
X17022152Y34774807D01*
X17017342Y34775313D01*
X17017340Y34775313D01*
X16831835Y34794811D01*
X16831833Y34794811D01*
X16827019Y34795317D01*
X16762891Y34789481D01*
X16636438Y34777973D01*
X16636435Y34777972D01*
X16631618Y34777534D01*
X16626976Y34776168D01*
X16626972Y34776167D01*
X16448040Y34723504D01*
X16448037Y34723503D01*
X16443393Y34722136D01*
X16269512Y34631233D01*
X16265743Y34628203D01*
X16265742Y34628202D01*
X16256016Y34620382D01*
X16116600Y34508289D01*
X16090186Y34476810D01*
X15993589Y34361690D01*
X15993586Y34361686D01*
X15990480Y34357984D01*
X15895956Y34186046D01*
X15894492Y34181432D01*
X15894491Y34181429D01*
X15877600Y34128182D01*
X15836628Y33999022D01*
X15836088Y33994210D01*
X15836088Y33994209D01*
X15815871Y33813965D01*
X15814757Y33804037D01*
X14750500Y33804037D01*
X14750500Y34291334D01*
X14749031Y34306876D01*
X14762379Y34366587D01*
X14777588Y34386196D01*
X15948539Y35557147D01*
X15959493Y35578645D01*
X15967602Y35591878D01*
X15971982Y35597907D01*
X16021482Y35633868D01*
X16082667Y35633867D01*
X16116236Y35615105D01*
X16242550Y35507603D01*
X16242555Y35507600D01*
X16246238Y35504465D01*
X16250460Y35502105D01*
X16250465Y35502102D01*
X16349266Y35446885D01*
X16417513Y35408743D01*
X16505885Y35380029D01*
X16599513Y35349607D01*
X16599516Y35349606D01*
X16604118Y35348111D01*
X16798946Y35324879D01*
X16803768Y35325250D01*
X16803771Y35325250D01*
X16989748Y35339560D01*
X16989753Y35339561D01*
X16994576Y35339932D01*
X17183556Y35392697D01*
X17187869Y35394876D01*
X17187875Y35394878D01*
X17354368Y35478980D01*
X17354370Y35478982D01*
X17358689Y35481163D01*
X17385490Y35502102D01*
X17509487Y35598978D01*
X17509491Y35598982D01*
X17513303Y35601960D01*
X17521451Y35611399D01*
X17638345Y35746823D01*
X17638347Y35746825D01*
X17641509Y35750489D01*
X17644347Y35755484D01*
X17736036Y35916885D01*
X17736037Y35916888D01*
X17738425Y35921091D01*
X17741223Y35929500D01*
X17798831Y36102677D01*
X17798831Y36102679D01*
X17800358Y36107268D01*
X17802105Y36121093D01*
X17824601Y36299176D01*
X17824949Y36301929D01*
X17825341Y36330000D01*
X17824805Y36335473D01*
X17812140Y36464631D01*
X17806194Y36525272D01*
X17749484Y36713106D01*
X17692332Y36820593D01*
X17659643Y36882073D01*
X17659641Y36882077D01*
X17657370Y36886347D01*
X17533361Y37038398D01*
X17382180Y37163465D01*
X17243563Y37238415D01*
X17201369Y37282724D01*
X17193276Y37343371D01*
X17222378Y37397193D01*
X17277557Y37423630D01*
X17290650Y37424500D01*
X18670865Y37424501D01*
X18678832Y37424501D01*
X18710368Y37427481D01*
X18767699Y37447614D01*
X18828866Y37449055D01*
X18879199Y37414268D01*
X18899500Y37354206D01*
X18899500Y29057166D01*
X18898081Y29044465D01*
X18898103Y29044463D01*
X18897537Y29037431D01*
X18895981Y29030553D01*
X18896418Y29023515D01*
X18899310Y28976898D01*
X18899500Y28970767D01*
X18899500Y28954060D01*
X18899999Y28950573D01*
X18900000Y28950565D01*
X18901101Y28942879D01*
X18901911Y28934976D01*
X18903467Y28909902D01*
X18904859Y28887462D01*
X18907252Y28880833D01*
X18907253Y28880829D01*
X18908342Y28877813D01*
X18913223Y28858237D01*
X18914677Y28848082D01*
X18917596Y28841663D01*
X18917597Y28841658D01*
X18934381Y28804743D01*
X18937377Y28797385D01*
X18953540Y28752613D01*
X18959592Y28744328D01*
X18969768Y28726914D01*
X18974016Y28717572D01*
X18982927Y28707230D01*
X19005093Y28681505D01*
X19010033Y28675284D01*
X19018522Y28663664D01*
X19029986Y28652200D01*
X19034981Y28646819D01*
X19067600Y28608963D01*
X19073520Y28605126D01*
X19074811Y28604289D01*
X19090968Y28591218D01*
X22800264Y24881922D01*
X22828041Y24827405D01*
X22824626Y24781984D01*
X22818949Y24764087D01*
X22817484Y24759468D01*
X22816944Y24754656D01*
X22816944Y24754655D01*
X22795402Y24562599D01*
X22794520Y24554738D01*
X22809656Y24374500D01*
X22810533Y24364052D01*
X22796561Y24304484D01*
X22781884Y24285764D01*
X21999313Y23503193D01*
X21989584Y23494661D01*
X21964549Y23475451D01*
X21941391Y23445271D01*
X21941388Y23445268D01*
X21912230Y23407268D01*
X21872302Y23355233D01*
X21814313Y23215236D01*
X21813466Y23208800D01*
X21799500Y23102720D01*
X21799500Y23102714D01*
X21797221Y23085399D01*
X21794535Y23065000D01*
X21795382Y23058566D01*
X21798653Y23033720D01*
X21799500Y23020798D01*
X21799500Y5739202D01*
X21798653Y5726280D01*
X21794535Y5695000D01*
X21799500Y5657286D01*
X21799500Y5657280D01*
X21814313Y5544764D01*
X21857256Y5441091D01*
X21872302Y5404767D01*
X21876253Y5399618D01*
X21941385Y5314735D01*
X21941391Y5314729D01*
X21964549Y5284549D01*
X21989584Y5265339D01*
X21999313Y5256807D01*
X22783710Y4472410D01*
X22811487Y4417893D01*
X22812089Y4391371D01*
X22796231Y4249989D01*
X22794520Y4234738D01*
X22794925Y4229918D01*
X22808032Y4073834D01*
X22811759Y4029447D01*
X22813092Y4024799D01*
X22813092Y4024798D01*
X22859753Y3862073D01*
X22868544Y3831414D01*
X22870759Y3827104D01*
X22902660Y3765032D01*
X22962712Y3648182D01*
X23090677Y3486730D01*
X23094357Y3483598D01*
X23094359Y3483596D01*
X23137589Y3446805D01*
X23247564Y3353209D01*
X23251787Y3350849D01*
X23251791Y3350846D01*
X23368702Y3285507D01*
X23427398Y3252703D01*
X23431996Y3251209D01*
X23618724Y3190537D01*
X23618726Y3190536D01*
X23623329Y3189041D01*
X23827894Y3164649D01*
X23832716Y3165020D01*
X23832719Y3165020D01*
X23900541Y3170239D01*
X24033300Y3180454D01*
X24231725Y3235855D01*
X24236038Y3238034D01*
X24236044Y3238036D01*
X24411289Y3326559D01*
X24411291Y3326560D01*
X24415610Y3328742D01*
X24439209Y3347179D01*
X24539061Y3425192D01*
X24596556Y3446119D01*
X24655371Y3429254D01*
X24693041Y3381039D01*
X24699011Y3347179D01*
X24699011Y2551459D01*
X24680104Y2493268D01*
X24630604Y2457304D01*
X24569418Y2457304D01*
X24536906Y2475178D01*
X24444002Y2552035D01*
X24444000Y2552036D01*
X24440275Y2555118D01*
X24328123Y2615758D01*
X24263309Y2650803D01*
X24263308Y2650803D01*
X24259055Y2653103D01*
X24177059Y2678485D01*
X24066875Y2712593D01*
X24066871Y2712594D01*
X24062254Y2714023D01*
X24057446Y2714528D01*
X24057443Y2714529D01*
X23862185Y2735051D01*
X23862183Y2735051D01*
X23857369Y2735557D01*
X23797354Y2730095D01*
X23657022Y2717325D01*
X23657017Y2717324D01*
X23652203Y2716886D01*
X23454572Y2658720D01*
X23450288Y2656481D01*
X23450287Y2656480D01*
X23276290Y2565516D01*
X23276288Y2565515D01*
X23272002Y2563274D01*
X23268230Y2560242D01*
X23268225Y2560238D01*
X23259455Y2553187D01*
X23202257Y2531461D01*
X23143213Y2547505D01*
X23127420Y2560339D01*
X19329986Y6357773D01*
X19302209Y6412290D01*
X19300990Y6427777D01*
X19300990Y11452943D01*
X19293534Y11475890D01*
X19289909Y11490991D01*
X19287355Y11507119D01*
X19287354Y11507121D01*
X19286136Y11514814D01*
X19275185Y11536307D01*
X19269242Y11550653D01*
X19264194Y11566191D01*
X19264192Y11566195D01*
X19261786Y11573600D01*
X19247604Y11593120D01*
X19239492Y11606358D01*
X19228540Y11627852D01*
X18471907Y12384485D01*
X17795858Y13060535D01*
X17768081Y13115052D01*
X17771923Y13161788D01*
X17798831Y13242677D01*
X17798831Y13242679D01*
X17800358Y13247268D01*
X17824949Y13441929D01*
X17825341Y13470000D01*
X17823718Y13486559D01*
X17808319Y13643596D01*
X17806194Y13665272D01*
X17749484Y13853106D01*
X17681712Y13980567D01*
X17659643Y14022073D01*
X17659641Y14022077D01*
X17657370Y14026347D01*
X17650461Y14034819D01*
X17536422Y14174645D01*
X17536421Y14174646D01*
X17533361Y14178398D01*
X17464159Y14235646D01*
X17385907Y14300382D01*
X17385906Y14300383D01*
X17382180Y14303465D01*
X17209585Y14396787D01*
X17022152Y14454807D01*
X17017342Y14455313D01*
X17017340Y14455313D01*
X16831835Y14474811D01*
X16831833Y14474811D01*
X16827019Y14475317D01*
X16762891Y14469481D01*
X16636438Y14457973D01*
X16636435Y14457972D01*
X16631618Y14457534D01*
X16626976Y14456168D01*
X16626972Y14456167D01*
X16448040Y14403504D01*
X16448037Y14403503D01*
X16443393Y14402136D01*
X16269512Y14311233D01*
X16265743Y14308203D01*
X16265742Y14308202D01*
X16256016Y14300382D01*
X16116600Y14188289D01*
X16094436Y14161875D01*
X15993589Y14041690D01*
X15993586Y14041686D01*
X15990480Y14037984D01*
X15895956Y13866046D01*
X15894492Y13861430D01*
X15894490Y13861426D01*
X15879590Y13814454D01*
X15843973Y13764704D01*
X15785916Y13745390D01*
X15727594Y13763891D01*
X15715281Y13774324D01*
X15602061Y13887347D01*
X15593096Y13894427D01*
X15452420Y13981141D01*
X15442066Y13985969D01*
X15284890Y14038102D01*
X15274379Y14040355D01*
X15177888Y14050241D01*
X15172830Y14050500D01*
X14744680Y14050500D01*
X14731995Y14046378D01*
X14729000Y14042257D01*
X14729000Y11725181D01*
X14733122Y11712496D01*
X14737243Y11709501D01*
X15172792Y11709501D01*
X15177922Y11709767D01*
X15275673Y11719909D01*
X15286200Y11722182D01*
X15443277Y11774586D01*
X15453624Y11779433D01*
X15594145Y11866391D01*
X15603098Y11873487D01*
X15719847Y11990439D01*
X15726927Y11999404D01*
X15813641Y12140080D01*
X15818469Y12150434D01*
X15870602Y12307610D01*
X15872855Y12318121D01*
X15882741Y12414612D01*
X15883000Y12419671D01*
X15883000Y12757114D01*
X15901907Y12815305D01*
X15951407Y12851269D01*
X16012593Y12851269D01*
X16059585Y12818608D01*
X16096818Y12771631D01*
X16100505Y12768493D01*
X16100507Y12768491D01*
X16242550Y12647603D01*
X16242555Y12647600D01*
X16246238Y12644465D01*
X16250460Y12642105D01*
X16250465Y12642102D01*
X16346251Y12588570D01*
X16417513Y12548743D01*
X16509840Y12518744D01*
X16599513Y12489607D01*
X16599516Y12489606D01*
X16604118Y12488111D01*
X16798946Y12464879D01*
X16803768Y12465250D01*
X16803771Y12465250D01*
X16989748Y12479560D01*
X16989753Y12479561D01*
X16994576Y12479932D01*
X17021817Y12487538D01*
X17133585Y12518744D01*
X17194717Y12516182D01*
X17230212Y12493395D01*
X18470994Y11252614D01*
X18498771Y11198097D01*
X18499990Y11182610D01*
X18499990Y6412391D01*
X18481083Y6354200D01*
X18470994Y6342387D01*
X17987120Y5858513D01*
X17932603Y5830736D01*
X17872171Y5840307D01*
X17828906Y5883572D01*
X17818590Y5918848D01*
X17806194Y6045272D01*
X17749484Y6233106D01*
X17675961Y6371383D01*
X17659643Y6402073D01*
X17659641Y6402077D01*
X17657370Y6406347D01*
X17536451Y6554610D01*
X17536422Y6554645D01*
X17536421Y6554646D01*
X17533361Y6558398D01*
X17392364Y6675040D01*
X17385907Y6680382D01*
X17385906Y6680383D01*
X17382180Y6683465D01*
X17209585Y6776787D01*
X17022152Y6834807D01*
X17017342Y6835313D01*
X17017340Y6835313D01*
X16831835Y6854811D01*
X16831833Y6854811D01*
X16827019Y6855317D01*
X16762891Y6849481D01*
X16636438Y6837973D01*
X16636435Y6837972D01*
X16631618Y6837534D01*
X16626976Y6836168D01*
X16626972Y6836167D01*
X16448040Y6783504D01*
X16448037Y6783503D01*
X16443393Y6782136D01*
X16269512Y6691233D01*
X16265743Y6688203D01*
X16265742Y6688202D01*
X16251526Y6676772D01*
X16136074Y6583946D01*
X16121212Y6571997D01*
X16064014Y6550270D01*
X16004969Y6566312D01*
X15966630Y6613997D01*
X15964109Y6676772D01*
X15971298Y6701515D01*
X15971299Y6701518D01*
X15972709Y6706373D01*
X15975500Y6741837D01*
X15975499Y7580626D01*
X15994406Y7638817D01*
X16043906Y7674781D01*
X16105092Y7674781D01*
X16138663Y7656018D01*
X16242550Y7567603D01*
X16242555Y7567600D01*
X16246238Y7564465D01*
X16250460Y7562105D01*
X16250465Y7562102D01*
X16346251Y7508570D01*
X16417513Y7468743D01*
X16518549Y7435914D01*
X16599513Y7409607D01*
X16599516Y7409606D01*
X16604118Y7408111D01*
X16798946Y7384879D01*
X16803768Y7385250D01*
X16803771Y7385250D01*
X16989748Y7399560D01*
X16989753Y7399561D01*
X16994576Y7399932D01*
X17183556Y7452697D01*
X17187869Y7454876D01*
X17187875Y7454878D01*
X17354368Y7538980D01*
X17354370Y7538982D01*
X17358689Y7541163D01*
X17362506Y7544145D01*
X17509487Y7658978D01*
X17509491Y7658982D01*
X17513303Y7661960D01*
X17518721Y7668236D01*
X17638345Y7806823D01*
X17638347Y7806825D01*
X17641509Y7810489D01*
X17644388Y7815557D01*
X17736036Y7976885D01*
X17736037Y7976888D01*
X17738425Y7981091D01*
X17747320Y8007828D01*
X17798831Y8162677D01*
X17798831Y8162679D01*
X17800358Y8167268D01*
X17802333Y8182898D01*
X17818964Y8314554D01*
X17824949Y8361929D01*
X17825341Y8390000D01*
X17824438Y8399217D01*
X17810707Y8539241D01*
X17806194Y8585272D01*
X17749484Y8773106D01*
X17678236Y8907104D01*
X17659643Y8942073D01*
X17659641Y8942077D01*
X17657370Y8946347D01*
X17533361Y9098398D01*
X17417018Y9194645D01*
X17385907Y9220382D01*
X17385906Y9220383D01*
X17382180Y9223465D01*
X17209585Y9316787D01*
X17022152Y9374807D01*
X17017342Y9375313D01*
X17017340Y9375313D01*
X16831835Y9394811D01*
X16831833Y9394811D01*
X16827019Y9395317D01*
X16762891Y9389481D01*
X16636438Y9377973D01*
X16636435Y9377972D01*
X16631618Y9377534D01*
X16626976Y9376168D01*
X16626972Y9376167D01*
X16448040Y9323504D01*
X16448037Y9323503D01*
X16443393Y9322136D01*
X16269512Y9231233D01*
X16265743Y9228203D01*
X16265742Y9228202D01*
X16256016Y9220382D01*
X16116600Y9108289D01*
X16094436Y9081875D01*
X15993589Y8961690D01*
X15993586Y8961686D01*
X15990480Y8957984D01*
X15895956Y8786046D01*
X15894492Y8781432D01*
X15894491Y8781429D01*
X15851500Y8645905D01*
X15836628Y8599022D01*
X15836088Y8594210D01*
X15836088Y8594209D01*
X15817353Y8427179D01*
X15814757Y8404037D01*
X15823543Y8299406D01*
X15824967Y8282447D01*
X15810995Y8222878D01*
X15764678Y8182898D01*
X15703707Y8177779D01*
X15675919Y8188950D01*
X15642833Y8208517D01*
X15600390Y8233618D01*
X15560449Y8245222D01*
X15453485Y8276298D01*
X15453482Y8276299D01*
X15448627Y8277709D01*
X15443587Y8278106D01*
X15443585Y8278106D01*
X15428109Y8279324D01*
X15413163Y8280500D01*
X15407690Y8280500D01*
X14975899Y8280499D01*
X14917709Y8299406D01*
X14881745Y8348906D01*
X14881745Y8410091D01*
X14905896Y8449503D01*
X16410559Y9954166D01*
X16465076Y9981943D01*
X16511156Y9978316D01*
X16599504Y9949609D01*
X16599515Y9949607D01*
X16604118Y9948111D01*
X16798946Y9924879D01*
X16803768Y9925250D01*
X16803771Y9925250D01*
X16989748Y9939560D01*
X16989753Y9939561D01*
X16994576Y9939932D01*
X17183556Y9992697D01*
X17187869Y9994876D01*
X17187875Y9994878D01*
X17354368Y10078980D01*
X17354370Y10078982D01*
X17358689Y10081163D01*
X17373529Y10092757D01*
X17509487Y10198978D01*
X17509491Y10198982D01*
X17513303Y10201960D01*
X17516468Y10205626D01*
X17638345Y10346823D01*
X17638347Y10346825D01*
X17641509Y10350489D01*
X17644388Y10355557D01*
X17736036Y10516885D01*
X17736037Y10516888D01*
X17738425Y10521091D01*
X17749905Y10555599D01*
X17798831Y10702677D01*
X17798831Y10702679D01*
X17800358Y10707268D01*
X17824949Y10901929D01*
X17825341Y10930000D01*
X17824438Y10939217D01*
X17810707Y11079241D01*
X17806194Y11125272D01*
X17749484Y11313106D01*
X17680489Y11442867D01*
X17659643Y11482073D01*
X17659641Y11482077D01*
X17657370Y11486347D01*
X17653583Y11490991D01*
X17536422Y11634645D01*
X17536421Y11634646D01*
X17533361Y11638398D01*
X17435150Y11719645D01*
X17385907Y11760382D01*
X17385906Y11760383D01*
X17382180Y11763465D01*
X17209585Y11856787D01*
X17022152Y11914807D01*
X17017342Y11915313D01*
X17017340Y11915313D01*
X16831835Y11934811D01*
X16831833Y11934811D01*
X16827019Y11935317D01*
X16776309Y11930702D01*
X16636438Y11917973D01*
X16636435Y11917972D01*
X16631618Y11917534D01*
X16626976Y11916168D01*
X16626972Y11916167D01*
X16448040Y11863504D01*
X16448037Y11863503D01*
X16443393Y11862136D01*
X16269512Y11771233D01*
X16265743Y11768203D01*
X16265742Y11768202D01*
X16256016Y11760382D01*
X16116600Y11648289D01*
X16096573Y11624421D01*
X15993589Y11501690D01*
X15993586Y11501686D01*
X15990480Y11497984D01*
X15895956Y11326046D01*
X15894492Y11321432D01*
X15894491Y11321429D01*
X15860992Y11215827D01*
X15836628Y11139022D01*
X15836088Y11134210D01*
X15836088Y11134209D01*
X15817353Y10967179D01*
X15814757Y10944037D01*
X15831175Y10748517D01*
X15868796Y10617319D01*
X15866661Y10556173D01*
X15843635Y10520028D01*
X13969516Y8645909D01*
X13969513Y8645905D01*
X13946950Y8623342D01*
X13935998Y8601846D01*
X13927884Y8588607D01*
X13913704Y8569090D01*
X13911296Y8561679D01*
X13906248Y8546143D01*
X13900305Y8531797D01*
X13889354Y8510304D01*
X13888136Y8502611D01*
X13888135Y8502609D01*
X13885581Y8486481D01*
X13881956Y8471380D01*
X13874500Y8448433D01*
X13874500Y8245666D01*
X13855593Y8187475D01*
X13825898Y8160455D01*
X13813580Y8153170D01*
X13701830Y8041420D01*
X13621382Y7905390D01*
X13619644Y7899409D01*
X13619644Y7899408D01*
X13585533Y7781995D01*
X13577291Y7753627D01*
X13576894Y7748587D01*
X13576894Y7748585D01*
X13575788Y7734532D01*
X13574500Y7718163D01*
X13574501Y7407538D01*
X13574501Y7136902D01*
X13555594Y7078711D01*
X13545505Y7066898D01*
X12329036Y5850429D01*
X12329033Y5850425D01*
X12306470Y5827862D01*
X12295518Y5806366D01*
X12287404Y5793127D01*
X12273224Y5773610D01*
X12270816Y5766199D01*
X12265768Y5750663D01*
X12259825Y5736317D01*
X12248874Y5714824D01*
X12248874Y5714823D01*
X12248169Y5715182D01*
X12216008Y5670919D01*
X12157817Y5652014D01*
X12107428Y5665800D01*
X12060390Y5693618D01*
X12020449Y5705222D01*
X11913485Y5736298D01*
X11913482Y5736299D01*
X11908627Y5737709D01*
X11903587Y5738106D01*
X11903585Y5738106D01*
X11888109Y5739324D01*
X11873163Y5740500D01*
X11235164Y5740500D01*
X10596838Y5740499D01*
X10594894Y5740346D01*
X10594892Y5740346D01*
X10566414Y5738106D01*
X10566410Y5738105D01*
X10561373Y5737709D01*
X10409610Y5693618D01*
X10344846Y5655317D01*
X10285136Y5641970D01*
X10228983Y5666270D01*
X10197837Y5718935D01*
X10196234Y5752938D01*
X10204601Y5819174D01*
X10204601Y5819175D01*
X10204949Y5821929D01*
X10205341Y5850000D01*
X10204507Y5858513D01*
X10188012Y6026730D01*
X10186194Y6045272D01*
X10159645Y6133208D01*
X10160927Y6194380D01*
X10197920Y6243116D01*
X10256494Y6260800D01*
X10302527Y6248207D01*
X10307172Y6244681D01*
X10444860Y6190167D01*
X10533005Y6179500D01*
X11234882Y6179500D01*
X11936994Y6179501D01*
X11939960Y6179860D01*
X11939962Y6179860D01*
X12018827Y6189403D01*
X12018828Y6189403D01*
X12025140Y6190167D01*
X12031056Y6192509D01*
X12080143Y6211944D01*
X12162828Y6244681D01*
X12280785Y6334215D01*
X12370319Y6452172D01*
X12424833Y6589860D01*
X12435500Y6678005D01*
X12435499Y7781994D01*
X12434217Y7792593D01*
X12425597Y7863827D01*
X12425597Y7863828D01*
X12424833Y7870140D01*
X12370319Y8007828D01*
X12280785Y8125785D01*
X12162828Y8215319D01*
X12025140Y8269833D01*
X11936995Y8280500D01*
X11235118Y8280500D01*
X10533006Y8280499D01*
X10530040Y8280140D01*
X10530038Y8280140D01*
X10451173Y8270597D01*
X10451172Y8270597D01*
X10444860Y8269833D01*
X10438948Y8267492D01*
X10438947Y8267492D01*
X10335714Y8226620D01*
X10274649Y8222778D01*
X10222989Y8255564D01*
X10200465Y8312452D01*
X10201051Y8331071D01*
X10204949Y8361929D01*
X10205341Y8390000D01*
X10204438Y8399217D01*
X10190707Y8539241D01*
X10186194Y8585272D01*
X10129484Y8773106D01*
X10058236Y8907104D01*
X10039643Y8942073D01*
X10039641Y8942077D01*
X10037370Y8946347D01*
X9913361Y9098398D01*
X9797018Y9194645D01*
X9765907Y9220382D01*
X9765906Y9220383D01*
X9762180Y9223465D01*
X9589585Y9316787D01*
X9402152Y9374807D01*
X9397342Y9375313D01*
X9397340Y9375313D01*
X9211835Y9394811D01*
X9211833Y9394811D01*
X9207019Y9395317D01*
X9142891Y9389481D01*
X9016438Y9377973D01*
X9016435Y9377972D01*
X9011618Y9377534D01*
X9006976Y9376168D01*
X9006972Y9376167D01*
X8828040Y9323504D01*
X8828037Y9323503D01*
X8823393Y9322136D01*
X8649512Y9231233D01*
X8645743Y9228203D01*
X8645742Y9228202D01*
X8636016Y9220382D01*
X8496600Y9108289D01*
X8474436Y9081875D01*
X8373589Y8961690D01*
X8373586Y8961686D01*
X8370480Y8957984D01*
X8275956Y8786046D01*
X8274492Y8781432D01*
X8274491Y8781429D01*
X8231500Y8645905D01*
X8216628Y8599022D01*
X8216088Y8594210D01*
X8216088Y8594209D01*
X8197353Y8427179D01*
X8194757Y8404037D01*
X8198060Y8364704D01*
X8210604Y8215319D01*
X8211175Y8208517D01*
X8212508Y8203869D01*
X8212508Y8203868D01*
X8259090Y8041420D01*
X8265258Y8019909D01*
X8267473Y8015599D01*
X8352731Y7849704D01*
X8352734Y7849700D01*
X8354944Y7845399D01*
X8476818Y7691631D01*
X8480505Y7688493D01*
X8480507Y7688491D01*
X8622550Y7567603D01*
X8622555Y7567600D01*
X8626238Y7564465D01*
X8630460Y7562105D01*
X8630465Y7562102D01*
X8726251Y7508570D01*
X8797513Y7468743D01*
X8898549Y7435914D01*
X8979513Y7409607D01*
X8979516Y7409606D01*
X8984118Y7408111D01*
X9178946Y7384879D01*
X9183768Y7385250D01*
X9183771Y7385250D01*
X9369748Y7399560D01*
X9369753Y7399561D01*
X9374576Y7399932D01*
X9563556Y7452697D01*
X9567869Y7454876D01*
X9567875Y7454878D01*
X9734368Y7538980D01*
X9734370Y7538982D01*
X9738689Y7541163D01*
X9756628Y7555178D01*
X9789200Y7580626D01*
X9874551Y7647309D01*
X9932045Y7668236D01*
X9990860Y7651371D01*
X10028530Y7603156D01*
X10034500Y7569296D01*
X10034501Y7095894D01*
X10034501Y6678006D01*
X10034859Y6675051D01*
X10034920Y6674032D01*
X10019550Y6614809D01*
X9972305Y6575931D01*
X9911230Y6572248D01*
X9872995Y6591792D01*
X9765907Y6680382D01*
X9765906Y6680383D01*
X9762180Y6683465D01*
X9589585Y6776787D01*
X9402152Y6834807D01*
X9397342Y6835313D01*
X9397340Y6835313D01*
X9211835Y6854811D01*
X9211833Y6854811D01*
X9207019Y6855317D01*
X9142891Y6849481D01*
X9016438Y6837973D01*
X9016435Y6837972D01*
X9011618Y6837534D01*
X9006976Y6836168D01*
X9006972Y6836167D01*
X8828040Y6783504D01*
X8828037Y6783503D01*
X8823393Y6782136D01*
X8649512Y6691233D01*
X8645743Y6688203D01*
X8645742Y6688202D01*
X8636776Y6680993D01*
X8496600Y6568289D01*
X8485122Y6554610D01*
X8373589Y6421690D01*
X8373586Y6421686D01*
X8370480Y6417984D01*
X8275956Y6246046D01*
X8274492Y6241432D01*
X8274491Y6241429D01*
X8254846Y6179500D01*
X8216628Y6059022D01*
X8216088Y6054210D01*
X8216088Y6054209D01*
X8197353Y5887179D01*
X8194757Y5864037D01*
X8197553Y5830736D01*
X8209334Y5690446D01*
X8211175Y5668517D01*
X8212508Y5663869D01*
X8212508Y5663868D01*
X8259090Y5501420D01*
X8265258Y5479909D01*
X8267473Y5475599D01*
X8352731Y5309704D01*
X8352734Y5309700D01*
X8354944Y5305399D01*
X8476818Y5151631D01*
X8480505Y5148493D01*
X8480507Y5148491D01*
X8555811Y5084403D01*
X8587871Y5032290D01*
X8583177Y4971285D01*
X8543522Y4924690D01*
X8491647Y4910011D01*
X3139889Y4910011D01*
X3081698Y4928918D01*
X3063171Y4946439D01*
X3049011Y4963800D01*
X2890275Y5095118D01*
X2778123Y5155758D01*
X2713309Y5190803D01*
X2713308Y5190803D01*
X2709055Y5193103D01*
X2627059Y5218485D01*
X2516875Y5252593D01*
X2516871Y5252594D01*
X2512254Y5254023D01*
X2507446Y5254528D01*
X2507443Y5254529D01*
X2312185Y5275051D01*
X2312183Y5275051D01*
X2307369Y5275557D01*
X2247354Y5270095D01*
X2107022Y5257325D01*
X2107017Y5257324D01*
X2102203Y5256886D01*
X1904572Y5198720D01*
X1900288Y5196481D01*
X1900287Y5196480D01*
X1889428Y5190803D01*
X1722002Y5103274D01*
X1718231Y5100242D01*
X1565220Y4977219D01*
X1565217Y4977217D01*
X1561447Y4974185D01*
X1558333Y4970474D01*
X1558332Y4970473D01*
X1519916Y4924690D01*
X1429024Y4816370D01*
X1329776Y4635838D01*
X1328313Y4631225D01*
X1328311Y4631221D01*
X1268866Y4443825D01*
X1233249Y4394076D01*
X1175191Y4374762D01*
X1116870Y4393263D01*
X1080561Y4442511D01*
X1075500Y4473760D01*
X1075500Y6514587D01*
X1094407Y6572778D01*
X1143907Y6608742D01*
X1205093Y6608742D01*
X1254593Y6572778D01*
X1269665Y6541875D01*
X1309753Y6402073D01*
X1318544Y6371414D01*
X1320759Y6367104D01*
X1352660Y6305032D01*
X1412712Y6188182D01*
X1540677Y6026730D01*
X1544357Y6023598D01*
X1544359Y6023596D01*
X1588395Y5986119D01*
X1697564Y5893209D01*
X1701787Y5890849D01*
X1701791Y5890846D01*
X1792221Y5840307D01*
X1877398Y5792703D01*
X1881996Y5791209D01*
X2068724Y5730537D01*
X2068726Y5730536D01*
X2073329Y5729041D01*
X2277894Y5704649D01*
X2282716Y5705020D01*
X2282719Y5705020D01*
X2350541Y5710239D01*
X2483300Y5720454D01*
X2681725Y5775855D01*
X2686038Y5778034D01*
X2686044Y5778036D01*
X2861289Y5866559D01*
X2861291Y5866560D01*
X2865610Y5868742D01*
X2870301Y5872407D01*
X3024135Y5992594D01*
X3024139Y5992598D01*
X3027951Y5995576D01*
X3162564Y6151528D01*
X3164957Y6155740D01*
X3261934Y6326450D01*
X3261935Y6326453D01*
X3264323Y6330656D01*
X3268226Y6342387D01*
X3327824Y6521546D01*
X3327824Y6521548D01*
X3329351Y6526137D01*
X3332953Y6554645D01*
X3354823Y6727772D01*
X3355171Y6730526D01*
X3355583Y6760000D01*
X3353413Y6782136D01*
X3335952Y6960220D01*
X3335951Y6960224D01*
X3335480Y6965030D01*
X3329806Y6983825D01*
X3300125Y7082131D01*
X3275935Y7162251D01*
X3179218Y7344151D01*
X3049011Y7503800D01*
X3003847Y7541163D01*
X2894002Y7632035D01*
X2894000Y7632036D01*
X2890275Y7635118D01*
X2778123Y7695758D01*
X2713309Y7730803D01*
X2713308Y7730803D01*
X2709055Y7733103D01*
X2627059Y7758485D01*
X2516875Y7792593D01*
X2516871Y7792594D01*
X2512254Y7794023D01*
X2507446Y7794528D01*
X2507443Y7794529D01*
X2312185Y7815051D01*
X2312183Y7815051D01*
X2307369Y7815557D01*
X2247354Y7810095D01*
X2107022Y7797325D01*
X2107017Y7797324D01*
X2102203Y7796886D01*
X1904572Y7738720D01*
X1900288Y7736481D01*
X1900287Y7736480D01*
X1889428Y7730803D01*
X1722002Y7643274D01*
X1718231Y7640242D01*
X1565220Y7517219D01*
X1565217Y7517217D01*
X1561447Y7514185D01*
X1558333Y7510474D01*
X1558332Y7510473D01*
X1466670Y7401234D01*
X1429024Y7356370D01*
X1426689Y7352122D01*
X1426688Y7352121D01*
X1419955Y7339874D01*
X1329776Y7175838D01*
X1328313Y7171225D01*
X1328311Y7171221D01*
X1268866Y6983825D01*
X1233249Y6934076D01*
X1175191Y6914762D01*
X1116870Y6933263D01*
X1080561Y6982511D01*
X1075500Y7013760D01*
X1075500Y9054587D01*
X1094407Y9112778D01*
X1143907Y9148742D01*
X1205093Y9148742D01*
X1254593Y9112778D01*
X1269665Y9081875D01*
X1309753Y8942073D01*
X1318544Y8911414D01*
X1412712Y8728182D01*
X1540677Y8566730D01*
X1544357Y8563598D01*
X1544359Y8563596D01*
X1588395Y8526119D01*
X1697564Y8433209D01*
X1701787Y8430849D01*
X1701791Y8430846D01*
X1818702Y8365507D01*
X1877398Y8332703D01*
X1881996Y8331209D01*
X2068724Y8270537D01*
X2068726Y8270536D01*
X2073329Y8269041D01*
X2277894Y8244649D01*
X2282716Y8245020D01*
X2282719Y8245020D01*
X2350541Y8250239D01*
X2483300Y8260454D01*
X2681725Y8315855D01*
X2686038Y8318034D01*
X2686044Y8318036D01*
X2861289Y8406559D01*
X2861291Y8406560D01*
X2865610Y8408742D01*
X2869427Y8411724D01*
X3024135Y8532594D01*
X3024139Y8532598D01*
X3027951Y8535576D01*
X3037073Y8546143D01*
X3103708Y8623342D01*
X3162564Y8691528D01*
X3181231Y8724387D01*
X3261934Y8866450D01*
X3261935Y8866453D01*
X3264323Y8870656D01*
X3277882Y8911414D01*
X3327824Y9061546D01*
X3327824Y9061548D01*
X3329351Y9066137D01*
X3332953Y9094645D01*
X3354823Y9267772D01*
X3355171Y9270526D01*
X3355583Y9300000D01*
X3353413Y9322136D01*
X3335952Y9500220D01*
X3335951Y9500224D01*
X3335480Y9505030D01*
X3329806Y9523825D01*
X3277333Y9697620D01*
X3275935Y9702251D01*
X3179218Y9884151D01*
X3049011Y10043800D01*
X3003847Y10081163D01*
X2894002Y10172035D01*
X2894000Y10172036D01*
X2890275Y10175118D01*
X2709055Y10273103D01*
X2645855Y10292667D01*
X2516875Y10332593D01*
X2516871Y10332594D01*
X2512254Y10334023D01*
X2507446Y10334528D01*
X2507443Y10334529D01*
X2312185Y10355051D01*
X2312183Y10355051D01*
X2307369Y10355557D01*
X2247354Y10350095D01*
X2107022Y10337325D01*
X2107017Y10337324D01*
X2102203Y10336886D01*
X1904572Y10278720D01*
X1900288Y10276481D01*
X1900287Y10276480D01*
X1889428Y10270803D01*
X1722002Y10183274D01*
X1718231Y10180242D01*
X1565220Y10057219D01*
X1565217Y10057217D01*
X1561447Y10054185D01*
X1558333Y10050474D01*
X1558332Y10050473D01*
X1466670Y9941234D01*
X1429024Y9896370D01*
X1426689Y9892122D01*
X1426688Y9892121D01*
X1419955Y9879874D01*
X1329776Y9715838D01*
X1328313Y9711225D01*
X1328311Y9711221D01*
X1268866Y9523825D01*
X1233249Y9474076D01*
X1175191Y9454762D01*
X1116870Y9473263D01*
X1080561Y9522511D01*
X1075500Y9553760D01*
X1075500Y11594587D01*
X1094407Y11652778D01*
X1143907Y11688742D01*
X1205093Y11688742D01*
X1254593Y11652778D01*
X1269665Y11621875D01*
X1317189Y11456141D01*
X1318544Y11451414D01*
X1412712Y11268182D01*
X1540677Y11106730D01*
X1544357Y11103598D01*
X1544359Y11103596D01*
X1588395Y11066119D01*
X1697564Y10973209D01*
X1701787Y10970849D01*
X1701791Y10970846D01*
X1796039Y10918173D01*
X1877398Y10872703D01*
X1881996Y10871209D01*
X2068724Y10810537D01*
X2068726Y10810536D01*
X2073329Y10809041D01*
X2277894Y10784649D01*
X2282716Y10785020D01*
X2282719Y10785020D01*
X2350541Y10790239D01*
X2483300Y10800454D01*
X2681725Y10855855D01*
X2686038Y10858034D01*
X2686044Y10858036D01*
X2856296Y10944037D01*
X8194757Y10944037D01*
X8211175Y10748517D01*
X8212507Y10743871D01*
X8212508Y10743868D01*
X8248818Y10617243D01*
X8265258Y10559909D01*
X8267473Y10555599D01*
X8352731Y10389704D01*
X8352734Y10389700D01*
X8354944Y10385399D01*
X8476818Y10231631D01*
X8480505Y10228493D01*
X8480507Y10228491D01*
X8622550Y10107603D01*
X8622555Y10107600D01*
X8626238Y10104465D01*
X8630460Y10102105D01*
X8630465Y10102102D01*
X8726251Y10048570D01*
X8797513Y10008743D01*
X8891157Y9978316D01*
X8979513Y9949607D01*
X8979516Y9949606D01*
X8984118Y9948111D01*
X9178946Y9924879D01*
X9183768Y9925250D01*
X9183771Y9925250D01*
X9369748Y9939560D01*
X9369753Y9939561D01*
X9374576Y9939932D01*
X9563556Y9992697D01*
X9567869Y9994876D01*
X9567875Y9994878D01*
X9734368Y10078980D01*
X9734370Y10078982D01*
X9738689Y10081163D01*
X9753529Y10092757D01*
X9889487Y10198978D01*
X9889491Y10198982D01*
X9893303Y10201960D01*
X9896467Y10205625D01*
X9896468Y10205626D01*
X9968059Y10288565D01*
X10020395Y10320260D01*
X10081365Y10315140D01*
X10127682Y10275160D01*
X10142001Y10223876D01*
X10142001Y9894708D01*
X10142267Y9889578D01*
X10152409Y9791827D01*
X10154682Y9781300D01*
X10207086Y9624223D01*
X10211933Y9613876D01*
X10298891Y9473355D01*
X10305987Y9464402D01*
X10422939Y9347653D01*
X10431904Y9340573D01*
X10572580Y9253859D01*
X10582934Y9249031D01*
X10740110Y9196898D01*
X10750621Y9194645D01*
X10847112Y9184759D01*
X10852170Y9184500D01*
X11280320Y9184500D01*
X11293005Y9188622D01*
X11296000Y9192743D01*
X11296000Y9200181D01*
X11804000Y9200181D01*
X11808122Y9187496D01*
X11812243Y9184501D01*
X12247792Y9184501D01*
X12252922Y9184767D01*
X12350673Y9194909D01*
X12361200Y9197182D01*
X12518277Y9249586D01*
X12528624Y9254433D01*
X12669145Y9341391D01*
X12678098Y9348487D01*
X12794847Y9465439D01*
X12801927Y9474404D01*
X12888641Y9615080D01*
X12893469Y9625434D01*
X12945602Y9782610D01*
X12947855Y9793121D01*
X12957741Y9889612D01*
X12958000Y9894671D01*
X12958000Y10085320D01*
X12953878Y10098005D01*
X12949757Y10101000D01*
X11819680Y10101000D01*
X11806995Y10096878D01*
X11804000Y10092757D01*
X11804000Y9200181D01*
X11296000Y9200181D01*
X11296000Y10624680D01*
X11804000Y10624680D01*
X11808122Y10611995D01*
X11812243Y10609000D01*
X12942319Y10609000D01*
X12955004Y10613122D01*
X12957999Y10617243D01*
X12957999Y10815292D01*
X12957733Y10820422D01*
X12947591Y10918173D01*
X12945318Y10928700D01*
X12892914Y11085777D01*
X12888067Y11096124D01*
X12801109Y11236645D01*
X12794013Y11245598D01*
X12677061Y11362347D01*
X12668096Y11369427D01*
X12527420Y11456141D01*
X12517066Y11460969D01*
X12359890Y11513102D01*
X12349379Y11515355D01*
X12252888Y11525241D01*
X12247830Y11525500D01*
X11819680Y11525500D01*
X11806995Y11521378D01*
X11804000Y11517257D01*
X11804000Y10624680D01*
X11296000Y10624680D01*
X11296000Y11509819D01*
X11291878Y11522504D01*
X11287757Y11525499D01*
X10852208Y11525499D01*
X10847078Y11525233D01*
X10749327Y11515091D01*
X10738800Y11512818D01*
X10581723Y11460414D01*
X10571376Y11455567D01*
X10430855Y11368609D01*
X10421902Y11361513D01*
X10303147Y11242551D01*
X10248655Y11214726D01*
X10188215Y11224245D01*
X10144913Y11267472D01*
X10138309Y11283879D01*
X10130885Y11308467D01*
X10130882Y11308474D01*
X10129484Y11313106D01*
X10060489Y11442867D01*
X10039643Y11482073D01*
X10039641Y11482077D01*
X10037370Y11486347D01*
X10033583Y11490991D01*
X9916422Y11634645D01*
X9916421Y11634646D01*
X9913361Y11638398D01*
X9815150Y11719645D01*
X9765907Y11760382D01*
X9765906Y11760383D01*
X9762180Y11763465D01*
X9589585Y11856787D01*
X9402152Y11914807D01*
X9397342Y11915313D01*
X9397340Y11915313D01*
X9211835Y11934811D01*
X9211833Y11934811D01*
X9207019Y11935317D01*
X9156309Y11930702D01*
X9016438Y11917973D01*
X9016435Y11917972D01*
X9011618Y11917534D01*
X9006976Y11916168D01*
X9006972Y11916167D01*
X8828040Y11863504D01*
X8828037Y11863503D01*
X8823393Y11862136D01*
X8649512Y11771233D01*
X8645743Y11768203D01*
X8645742Y11768202D01*
X8636016Y11760382D01*
X8496600Y11648289D01*
X8476573Y11624421D01*
X8373589Y11501690D01*
X8373586Y11501686D01*
X8370480Y11497984D01*
X8275956Y11326046D01*
X8274492Y11321432D01*
X8274491Y11321429D01*
X8240992Y11215827D01*
X8216628Y11139022D01*
X8216088Y11134210D01*
X8216088Y11134209D01*
X8197353Y10967179D01*
X8194757Y10944037D01*
X2856296Y10944037D01*
X2861289Y10946559D01*
X2861291Y10946560D01*
X2865610Y10948742D01*
X2869427Y10951724D01*
X3024135Y11072594D01*
X3024139Y11072598D01*
X3027951Y11075576D01*
X3036757Y11085777D01*
X3120339Y11182610D01*
X3162564Y11231528D01*
X3179187Y11260789D01*
X3261934Y11406450D01*
X3261935Y11406453D01*
X3264323Y11410656D01*
X3275039Y11442867D01*
X3327824Y11601546D01*
X3327824Y11601548D01*
X3329351Y11606137D01*
X3332953Y11634645D01*
X3354823Y11807772D01*
X3355171Y11810526D01*
X3355583Y11840000D01*
X3353413Y11862136D01*
X3335952Y12040220D01*
X3335951Y12040224D01*
X3335480Y12045030D01*
X3329806Y12063825D01*
X3303536Y12150835D01*
X5244994Y12150835D01*
X5260592Y11965086D01*
X5261925Y11960438D01*
X5261925Y11960437D01*
X5305701Y11807772D01*
X5311971Y11785905D01*
X5397176Y11620115D01*
X5512959Y11474032D01*
X5516646Y11470894D01*
X5516648Y11470892D01*
X5651224Y11356359D01*
X5651229Y11356356D01*
X5654912Y11353221D01*
X5659134Y11350861D01*
X5659139Y11350858D01*
X5734990Y11308467D01*
X5817627Y11262283D01*
X5822225Y11260789D01*
X5990302Y11206177D01*
X5990304Y11206176D01*
X5994907Y11204681D01*
X6179998Y11182610D01*
X6184820Y11182981D01*
X6184823Y11182981D01*
X6361023Y11196539D01*
X6361028Y11196540D01*
X6365851Y11196911D01*
X6545387Y11247038D01*
X6549700Y11249217D01*
X6549706Y11249219D01*
X6707447Y11328900D01*
X6707449Y11328902D01*
X6711768Y11331083D01*
X6858655Y11445844D01*
X6980454Y11586950D01*
X7057115Y11721898D01*
X7070137Y11744820D01*
X7070138Y11744823D01*
X7072526Y11749026D01*
X7077330Y11763465D01*
X7129837Y11921308D01*
X7129837Y11921310D01*
X7131364Y11925899D01*
X7132499Y11934878D01*
X7148622Y12062511D01*
X7154727Y12110832D01*
X7155099Y12137500D01*
X7136909Y12323013D01*
X7111132Y12408392D01*
X7111369Y12419708D01*
X13067001Y12419708D01*
X13067267Y12414578D01*
X13077409Y12316827D01*
X13079682Y12306300D01*
X13132086Y12149223D01*
X13136933Y12138876D01*
X13223891Y11998355D01*
X13230987Y11989402D01*
X13347939Y11872653D01*
X13356904Y11865573D01*
X13497580Y11778859D01*
X13507934Y11774031D01*
X13665110Y11721898D01*
X13675621Y11719645D01*
X13772112Y11709759D01*
X13777170Y11709500D01*
X14205320Y11709500D01*
X14218005Y11713622D01*
X14221000Y11717743D01*
X14221000Y12610320D01*
X14216878Y12623005D01*
X14212757Y12626000D01*
X13082681Y12626000D01*
X13069996Y12621878D01*
X13067001Y12617757D01*
X13067001Y12419708D01*
X7111369Y12419708D01*
X7112414Y12469564D01*
X7135903Y12507010D01*
X7669397Y13040504D01*
X7723914Y13068281D01*
X7739401Y13069500D01*
X8220456Y13069500D01*
X8278647Y13050593D01*
X8308508Y13015753D01*
X8328714Y12976437D01*
X8354944Y12925399D01*
X8476818Y12771631D01*
X8480505Y12768493D01*
X8480507Y12768491D01*
X8622550Y12647603D01*
X8622555Y12647600D01*
X8626238Y12644465D01*
X8630460Y12642105D01*
X8630465Y12642102D01*
X8726251Y12588570D01*
X8797513Y12548743D01*
X8889840Y12518744D01*
X8979513Y12489607D01*
X8979516Y12489606D01*
X8984118Y12488111D01*
X9178946Y12464879D01*
X9183768Y12465250D01*
X9183771Y12465250D01*
X9369748Y12479560D01*
X9369753Y12479561D01*
X9374576Y12479932D01*
X9563556Y12532697D01*
X9567869Y12534876D01*
X9567875Y12534878D01*
X9734368Y12618980D01*
X9734370Y12618982D01*
X9738689Y12621163D01*
X9744880Y12626000D01*
X9889487Y12738978D01*
X9889491Y12738982D01*
X9893303Y12741960D01*
X9901372Y12751307D01*
X10018345Y12886823D01*
X10018347Y12886825D01*
X10021509Y12890489D01*
X10100423Y13029402D01*
X10145605Y13070658D01*
X10186502Y13079500D01*
X10353193Y13079500D01*
X10411384Y13060593D01*
X10447348Y13011093D01*
X10451753Y12989823D01*
X10451912Y12988145D01*
X10452481Y12982131D01*
X10497366Y12854316D01*
X10501761Y12848365D01*
X10501762Y12848364D01*
X10529505Y12810803D01*
X10577850Y12745350D01*
X10583807Y12740950D01*
X10622955Y12712035D01*
X10686816Y12664866D01*
X10814631Y12619981D01*
X10820638Y12619413D01*
X10820639Y12619413D01*
X10843855Y12617218D01*
X10843865Y12617218D01*
X10846166Y12617000D01*
X12253834Y12617000D01*
X12256135Y12617218D01*
X12256145Y12617218D01*
X12279361Y12619413D01*
X12279362Y12619413D01*
X12285369Y12619981D01*
X12413184Y12664866D01*
X12477046Y12712035D01*
X12516193Y12740950D01*
X12522150Y12745350D01*
X12570495Y12810803D01*
X12598238Y12848364D01*
X12598239Y12848365D01*
X12602634Y12854316D01*
X12647519Y12982131D01*
X12650500Y13013666D01*
X12650500Y13149680D01*
X13067000Y13149680D01*
X13071122Y13136995D01*
X13075243Y13134000D01*
X14205320Y13134000D01*
X14218005Y13138122D01*
X14221000Y13142243D01*
X14221000Y14034819D01*
X14216878Y14047504D01*
X14212757Y14050499D01*
X13777208Y14050499D01*
X13772078Y14050233D01*
X13674327Y14040091D01*
X13663800Y14037818D01*
X13506723Y13985414D01*
X13496376Y13980567D01*
X13355855Y13893609D01*
X13346902Y13886513D01*
X13230153Y13769561D01*
X13223073Y13760596D01*
X13136359Y13619920D01*
X13131531Y13609566D01*
X13079398Y13452390D01*
X13077145Y13441879D01*
X13067259Y13345388D01*
X13067000Y13340330D01*
X13067000Y13149680D01*
X12650500Y13149680D01*
X12650500Y13946334D01*
X12650092Y13950656D01*
X12648087Y13971861D01*
X12648087Y13971862D01*
X12647519Y13977869D01*
X12602634Y14105684D01*
X12561131Y14161875D01*
X12526550Y14208693D01*
X12522150Y14214650D01*
X12413184Y14295134D01*
X12285369Y14340019D01*
X12279362Y14340587D01*
X12279361Y14340587D01*
X12256145Y14342782D01*
X12256135Y14342782D01*
X12253834Y14343000D01*
X10846166Y14343000D01*
X10843865Y14342782D01*
X10843855Y14342782D01*
X10820639Y14340587D01*
X10820638Y14340587D01*
X10814631Y14340019D01*
X10686816Y14295134D01*
X10577850Y14214650D01*
X10573450Y14208693D01*
X10538870Y14161875D01*
X10497366Y14105684D01*
X10452481Y13977869D01*
X10451913Y13971861D01*
X10451912Y13971855D01*
X10451753Y13970177D01*
X10451328Y13969195D01*
X10450620Y13965968D01*
X10449991Y13966106D01*
X10427450Y13914026D01*
X10374783Y13882883D01*
X10353193Y13880500D01*
X10174404Y13880500D01*
X10116213Y13899407D01*
X10086992Y13933022D01*
X10039643Y14022073D01*
X10039641Y14022077D01*
X10037370Y14026347D01*
X10030461Y14034819D01*
X9916422Y14174645D01*
X9916421Y14174646D01*
X9913361Y14178398D01*
X9844159Y14235646D01*
X9765907Y14300382D01*
X9765906Y14300383D01*
X9762180Y14303465D01*
X9589585Y14396787D01*
X9402152Y14454807D01*
X9397342Y14455313D01*
X9397340Y14455313D01*
X9211835Y14474811D01*
X9211833Y14474811D01*
X9207019Y14475317D01*
X9142891Y14469481D01*
X9016438Y14457973D01*
X9016435Y14457972D01*
X9011618Y14457534D01*
X9006976Y14456168D01*
X9006972Y14456167D01*
X8828040Y14403504D01*
X8828037Y14403503D01*
X8823393Y14402136D01*
X8649512Y14311233D01*
X8645743Y14308203D01*
X8645742Y14308202D01*
X8636016Y14300382D01*
X8496600Y14188289D01*
X8474436Y14161875D01*
X8373589Y14041690D01*
X8373586Y14041686D01*
X8370480Y14037984D01*
X8368149Y14033744D01*
X8368145Y14033738D01*
X8306611Y13921807D01*
X8262009Y13879922D01*
X8219857Y13870500D01*
X7469067Y13870500D01*
X7461660Y13868093D01*
X7461658Y13868093D01*
X7446121Y13863045D01*
X7431017Y13859419D01*
X7414892Y13856865D01*
X7414891Y13856865D01*
X7407196Y13855646D01*
X7385703Y13844695D01*
X7371359Y13838753D01*
X7348411Y13831297D01*
X7342110Y13826719D01*
X7342106Y13826717D01*
X7328887Y13817113D01*
X7315646Y13808999D01*
X7294158Y13798050D01*
X7271595Y13775487D01*
X7271591Y13775484D01*
X6569553Y13073446D01*
X6515036Y13045669D01*
X6470275Y13048877D01*
X6396675Y13071659D01*
X6392049Y13073091D01*
X6387239Y13073597D01*
X6387237Y13073597D01*
X6211484Y13092070D01*
X6211482Y13092070D01*
X6206668Y13092576D01*
X6144673Y13086934D01*
X6025852Y13076121D01*
X6025848Y13076120D01*
X6021032Y13075682D01*
X6016390Y13074316D01*
X6016386Y13074315D01*
X5846861Y13024420D01*
X5846858Y13024419D01*
X5842214Y13023052D01*
X5677023Y12936693D01*
X5673247Y12933657D01*
X5673244Y12933655D01*
X5599077Y12874023D01*
X5531752Y12819892D01*
X5528644Y12816188D01*
X5415044Y12680805D01*
X5415041Y12680801D01*
X5411935Y12677099D01*
X5322135Y12513754D01*
X5320672Y12509141D01*
X5320670Y12509137D01*
X5306705Y12465114D01*
X5265772Y12336076D01*
X5244994Y12150835D01*
X3303536Y12150835D01*
X3277333Y12237620D01*
X3275935Y12242251D01*
X3179218Y12424151D01*
X3049011Y12583800D01*
X3002858Y12621981D01*
X2894002Y12712035D01*
X2894000Y12712036D01*
X2890275Y12715118D01*
X2709055Y12813103D01*
X2645855Y12832667D01*
X2516875Y12872593D01*
X2516871Y12872594D01*
X2512254Y12874023D01*
X2507446Y12874528D01*
X2507443Y12874529D01*
X2312185Y12895051D01*
X2312183Y12895051D01*
X2307369Y12895557D01*
X2247354Y12890095D01*
X2107022Y12877325D01*
X2107017Y12877324D01*
X2102203Y12876886D01*
X1904572Y12818720D01*
X1900288Y12816481D01*
X1900287Y12816480D01*
X1889428Y12810803D01*
X1722002Y12723274D01*
X1718231Y12720242D01*
X1565220Y12597219D01*
X1565217Y12597217D01*
X1561447Y12594185D01*
X1558333Y12590474D01*
X1558332Y12590473D01*
X1466670Y12481234D01*
X1429024Y12436370D01*
X1426689Y12432122D01*
X1426688Y12432121D01*
X1419955Y12419874D01*
X1329776Y12255838D01*
X1328313Y12251225D01*
X1328311Y12251221D01*
X1268866Y12063825D01*
X1233249Y12014076D01*
X1175191Y11994762D01*
X1116870Y12013263D01*
X1080561Y12062511D01*
X1075500Y12093760D01*
X1075500Y14134587D01*
X1094407Y14192778D01*
X1143907Y14228742D01*
X1205093Y14228742D01*
X1254593Y14192778D01*
X1269665Y14161875D01*
X1309753Y14022073D01*
X1318544Y13991414D01*
X1412712Y13808182D01*
X1540677Y13646730D01*
X1544357Y13643598D01*
X1544359Y13643596D01*
X1588395Y13606119D01*
X1697564Y13513209D01*
X1701787Y13510849D01*
X1701791Y13510846D01*
X1818702Y13445507D01*
X1877398Y13412703D01*
X1881996Y13411209D01*
X2068724Y13350537D01*
X2068726Y13350536D01*
X2073329Y13349041D01*
X2277894Y13324649D01*
X2282716Y13325020D01*
X2282719Y13325020D01*
X2350541Y13330239D01*
X2483300Y13340454D01*
X2681725Y13395855D01*
X2686038Y13398034D01*
X2686044Y13398036D01*
X2861289Y13486559D01*
X2861291Y13486560D01*
X2865610Y13488742D01*
X2869427Y13491724D01*
X3024135Y13612594D01*
X3024139Y13612598D01*
X3027951Y13615576D01*
X3162564Y13771528D01*
X3181231Y13804387D01*
X3261934Y13946450D01*
X3261935Y13946453D01*
X3264323Y13950656D01*
X3270491Y13969195D01*
X3327824Y14141546D01*
X3327824Y14141548D01*
X3329351Y14146137D01*
X3332953Y14174645D01*
X3354823Y14347772D01*
X3355171Y14350526D01*
X3355583Y14380000D01*
X3353413Y14402136D01*
X3335952Y14580220D01*
X3335951Y14580224D01*
X3335480Y14585030D01*
X3329806Y14603825D01*
X3277333Y14777620D01*
X3275935Y14782251D01*
X3179218Y14964151D01*
X3049011Y15123800D01*
X3027011Y15142000D01*
X2894002Y15252035D01*
X2894000Y15252036D01*
X2890275Y15255118D01*
X2709055Y15353103D01*
X2643602Y15373364D01*
X2516875Y15412593D01*
X2516871Y15412594D01*
X2512254Y15414023D01*
X2507446Y15414528D01*
X2507443Y15414529D01*
X2312185Y15435051D01*
X2312183Y15435051D01*
X2307369Y15435557D01*
X2247354Y15430095D01*
X2107022Y15417325D01*
X2107017Y15417324D01*
X2102203Y15416886D01*
X1904572Y15358720D01*
X1900288Y15356481D01*
X1900287Y15356480D01*
X1889428Y15350803D01*
X1722002Y15263274D01*
X1718231Y15260242D01*
X1565220Y15137219D01*
X1565217Y15137217D01*
X1561447Y15134185D01*
X1558333Y15130474D01*
X1558332Y15130473D01*
X1466670Y15021234D01*
X1429024Y14976370D01*
X1426689Y14972122D01*
X1426688Y14972121D01*
X1419955Y14959874D01*
X1329776Y14795838D01*
X1328313Y14791225D01*
X1328311Y14791221D01*
X1268866Y14603825D01*
X1233249Y14554076D01*
X1175191Y14534762D01*
X1116870Y14553263D01*
X1080561Y14602511D01*
X1075500Y14633760D01*
X1075500Y16674587D01*
X1094407Y16732778D01*
X1143907Y16768742D01*
X1205093Y16768742D01*
X1254593Y16732778D01*
X1269665Y16701875D01*
X1314908Y16544095D01*
X1318544Y16531414D01*
X1412712Y16348182D01*
X1540677Y16186730D01*
X1544357Y16183598D01*
X1544359Y16183596D01*
X1608211Y16129254D01*
X1697564Y16053209D01*
X1701787Y16050849D01*
X1701791Y16050846D01*
X1818702Y15985507D01*
X1877398Y15952703D01*
X1881996Y15951209D01*
X2068724Y15890537D01*
X2068726Y15890536D01*
X2073329Y15889041D01*
X2277894Y15864649D01*
X2282716Y15865020D01*
X2282719Y15865020D01*
X2350541Y15870239D01*
X2483300Y15880454D01*
X2681725Y15935855D01*
X2686038Y15938034D01*
X2686044Y15938036D01*
X2861289Y16026559D01*
X2861291Y16026560D01*
X2865610Y16028742D01*
X2869427Y16031724D01*
X3024135Y16152594D01*
X3024139Y16152598D01*
X3027951Y16155576D01*
X3162564Y16311528D01*
X3181231Y16344387D01*
X3261934Y16486450D01*
X3261935Y16486453D01*
X3264323Y16490656D01*
X3266208Y16496321D01*
X3327824Y16681546D01*
X3327824Y16681548D01*
X3329351Y16686137D01*
X3332953Y16714645D01*
X3351949Y16865019D01*
X3355171Y16890526D01*
X3355262Y16896996D01*
X3355544Y16917224D01*
X3355583Y16920000D01*
X3353413Y16942136D01*
X3344716Y17030835D01*
X5244994Y17030835D01*
X5248120Y16993606D01*
X5260076Y16851233D01*
X5260592Y16845086D01*
X5261925Y16840438D01*
X5261925Y16840437D01*
X5310007Y16672756D01*
X5311971Y16665905D01*
X5314186Y16661595D01*
X5381090Y16531414D01*
X5397176Y16500115D01*
X5512959Y16354032D01*
X5516646Y16350894D01*
X5516648Y16350892D01*
X5651224Y16236359D01*
X5651229Y16236356D01*
X5654912Y16233221D01*
X5659134Y16230861D01*
X5659139Y16230858D01*
X5743706Y16183596D01*
X5817627Y16142283D01*
X5822225Y16140789D01*
X5990302Y16086177D01*
X5990304Y16086176D01*
X5994907Y16084681D01*
X6179998Y16062610D01*
X6184820Y16062981D01*
X6184823Y16062981D01*
X6361023Y16076539D01*
X6361028Y16076540D01*
X6365851Y16076911D01*
X6473003Y16106828D01*
X6534134Y16104266D01*
X6569628Y16081479D01*
X6760571Y15890537D01*
X6969158Y15681950D01*
X6990656Y15670996D01*
X7003886Y15662889D01*
X7023410Y15648704D01*
X7030815Y15646298D01*
X7030819Y15646296D01*
X7046357Y15641248D01*
X7060703Y15635305D01*
X7082196Y15624354D01*
X7089889Y15623136D01*
X7089891Y15623135D01*
X7106019Y15620581D01*
X7121120Y15616956D01*
X7144067Y15609500D01*
X8220456Y15609500D01*
X8278647Y15590593D01*
X8308508Y15555753D01*
X8354944Y15465399D01*
X8476818Y15311631D01*
X8480505Y15308493D01*
X8480507Y15308491D01*
X8622550Y15187603D01*
X8622555Y15187600D01*
X8626238Y15184465D01*
X8630460Y15182105D01*
X8630465Y15182102D01*
X8726251Y15128570D01*
X8797513Y15088743D01*
X8898549Y15055914D01*
X8979513Y15029607D01*
X8979516Y15029606D01*
X8984118Y15028111D01*
X9178946Y15004879D01*
X9183768Y15005250D01*
X9183771Y15005250D01*
X9369748Y15019560D01*
X9369753Y15019561D01*
X9374576Y15019932D01*
X9563556Y15072697D01*
X9567869Y15074876D01*
X9567875Y15074878D01*
X9734368Y15158980D01*
X9734370Y15158982D01*
X9738689Y15161163D01*
X9742506Y15164145D01*
X9889487Y15278978D01*
X9889491Y15278982D01*
X9893303Y15281960D01*
X9918915Y15311631D01*
X10018345Y15426823D01*
X10018347Y15426825D01*
X10021509Y15430489D01*
X10039186Y15461605D01*
X10094741Y15559400D01*
X10139924Y15600658D01*
X10180821Y15609500D01*
X10352721Y15609500D01*
X10410912Y15590593D01*
X10446876Y15541093D01*
X10451282Y15519815D01*
X10452481Y15507131D01*
X10497366Y15379316D01*
X10501761Y15373365D01*
X10501762Y15373364D01*
X10514233Y15356480D01*
X10577850Y15270350D01*
X10686816Y15189866D01*
X10814631Y15144981D01*
X10820638Y15144413D01*
X10820639Y15144413D01*
X10843855Y15142218D01*
X10843865Y15142218D01*
X10846166Y15142000D01*
X12253834Y15142000D01*
X12256135Y15142218D01*
X12256145Y15142218D01*
X12279361Y15144413D01*
X12279362Y15144413D01*
X12285369Y15144981D01*
X12413184Y15189866D01*
X12522150Y15270350D01*
X12585767Y15356480D01*
X12598238Y15373364D01*
X12598239Y15373365D01*
X12602634Y15379316D01*
X12647519Y15507131D01*
X12650500Y15538666D01*
X12650500Y16471334D01*
X12650282Y16473647D01*
X12648087Y16496861D01*
X12648087Y16496862D01*
X12647519Y16502869D01*
X12602634Y16630684D01*
X12549890Y16702094D01*
X12526550Y16733693D01*
X12522150Y16739650D01*
X12413184Y16820134D01*
X12285369Y16865019D01*
X12279362Y16865587D01*
X12279361Y16865587D01*
X12256145Y16867782D01*
X12256135Y16867782D01*
X12253834Y16868000D01*
X10846166Y16868000D01*
X10843865Y16867782D01*
X10843855Y16867782D01*
X10820639Y16865587D01*
X10820638Y16865587D01*
X10814631Y16865019D01*
X10686816Y16820134D01*
X10577850Y16739650D01*
X10573450Y16733693D01*
X10550111Y16702094D01*
X10497366Y16630684D01*
X10452481Y16502869D01*
X10451913Y16496861D01*
X10450620Y16490968D01*
X10448446Y16491445D01*
X10427925Y16444027D01*
X10375259Y16412883D01*
X10353666Y16410500D01*
X10179721Y16410500D01*
X10121530Y16429407D01*
X10092309Y16463022D01*
X10039643Y16562073D01*
X10039641Y16562077D01*
X10037370Y16566347D01*
X9984899Y16630684D01*
X9916422Y16714645D01*
X9916421Y16714646D01*
X9913361Y16718398D01*
X9801784Y16810702D01*
X9765907Y16840382D01*
X9765906Y16840383D01*
X9762180Y16843465D01*
X9589585Y16936787D01*
X9402152Y16994807D01*
X9397342Y16995313D01*
X9397340Y16995313D01*
X9211835Y17014811D01*
X9211833Y17014811D01*
X9207019Y17015317D01*
X9142891Y17009481D01*
X9016438Y16997973D01*
X9016435Y16997972D01*
X9011618Y16997534D01*
X9006976Y16996168D01*
X9006972Y16996167D01*
X8828040Y16943504D01*
X8828037Y16943503D01*
X8823393Y16942136D01*
X8649512Y16851233D01*
X8645743Y16848203D01*
X8645742Y16848202D01*
X8636084Y16840437D01*
X8496600Y16728289D01*
X8482274Y16711216D01*
X8373589Y16581690D01*
X8373586Y16581686D01*
X8370480Y16577984D01*
X8368149Y16573744D01*
X8368145Y16573738D01*
X8306611Y16461807D01*
X8262009Y16419922D01*
X8219857Y16410500D01*
X7414399Y16410500D01*
X7356208Y16429407D01*
X7344395Y16439497D01*
X7136315Y16647578D01*
X7108538Y16702094D01*
X7112380Y16748830D01*
X7129837Y16801308D01*
X7129837Y16801310D01*
X7131364Y16805899D01*
X7133163Y16820134D01*
X7147609Y16934487D01*
X7154727Y16990832D01*
X7154783Y16994807D01*
X7155060Y17014729D01*
X7155099Y17017500D01*
X7136909Y17203013D01*
X7083033Y17381460D01*
X6995522Y17546044D01*
X6877710Y17690495D01*
X6873981Y17693580D01*
X6737812Y17806230D01*
X6737810Y17806231D01*
X6734085Y17809313D01*
X6579119Y17893103D01*
X6574370Y17895671D01*
X6574369Y17895671D01*
X6570116Y17897971D01*
X6392049Y17953091D01*
X6387239Y17953597D01*
X6387237Y17953597D01*
X6211484Y17972070D01*
X6211482Y17972070D01*
X6206668Y17972576D01*
X6153562Y17967743D01*
X6025852Y17956121D01*
X6025848Y17956120D01*
X6021032Y17955682D01*
X6016390Y17954316D01*
X6016386Y17954315D01*
X5846861Y17904420D01*
X5846858Y17904419D01*
X5842214Y17903052D01*
X5677023Y17816693D01*
X5673247Y17813657D01*
X5673244Y17813655D01*
X5559376Y17722102D01*
X5531752Y17699892D01*
X5528644Y17696188D01*
X5415044Y17560805D01*
X5415041Y17560801D01*
X5411935Y17557099D01*
X5322135Y17393754D01*
X5320672Y17389141D01*
X5320670Y17389137D01*
X5285922Y17279598D01*
X5265772Y17216076D01*
X5265232Y17211264D01*
X5265232Y17211263D01*
X5252088Y17094076D01*
X5244994Y17030835D01*
X3344716Y17030835D01*
X3335952Y17120220D01*
X3335951Y17120224D01*
X3335480Y17125030D01*
X3329806Y17143825D01*
X3277333Y17317620D01*
X3275935Y17322251D01*
X3179218Y17504151D01*
X3049011Y17663800D01*
X3001665Y17702968D01*
X2894002Y17792035D01*
X2894000Y17792036D01*
X2890275Y17795118D01*
X2778123Y17855758D01*
X2713309Y17890803D01*
X2713308Y17890803D01*
X2709055Y17893103D01*
X2645855Y17912667D01*
X2516875Y17952593D01*
X2516871Y17952594D01*
X2512254Y17954023D01*
X2507446Y17954528D01*
X2507443Y17954529D01*
X2312185Y17975051D01*
X2312183Y17975051D01*
X2307369Y17975557D01*
X2247354Y17970095D01*
X2107022Y17957325D01*
X2107017Y17957324D01*
X2102203Y17956886D01*
X1904572Y17898720D01*
X1900288Y17896481D01*
X1900287Y17896480D01*
X1889428Y17890803D01*
X1722002Y17803274D01*
X1718231Y17800242D01*
X1565220Y17677219D01*
X1565217Y17677217D01*
X1561447Y17674185D01*
X1558333Y17670474D01*
X1558332Y17670473D01*
X1453924Y17546044D01*
X1429024Y17516370D01*
X1426689Y17512122D01*
X1426688Y17512121D01*
X1419955Y17499874D01*
X1329776Y17335838D01*
X1328313Y17331225D01*
X1328311Y17331221D01*
X1268866Y17143825D01*
X1233249Y17094076D01*
X1175191Y17074762D01*
X1116870Y17093263D01*
X1080561Y17142511D01*
X1075500Y17173760D01*
X1075500Y18282136D01*
X7917633Y18282136D01*
X7965069Y18105102D01*
X7968015Y18097009D01*
X8061082Y17897427D01*
X8065394Y17889957D01*
X8191708Y17709563D01*
X8197241Y17702968D01*
X8352968Y17547241D01*
X8359563Y17541708D01*
X8539957Y17415394D01*
X8547427Y17411082D01*
X8747009Y17318015D01*
X8755102Y17315069D01*
X8930855Y17267976D01*
X8943141Y17268620D01*
X8946000Y17278273D01*
X8946000Y17279598D01*
X9454000Y17279598D01*
X9457802Y17267896D01*
X9467864Y17267633D01*
X9644898Y17315069D01*
X9652991Y17318015D01*
X9852573Y17411082D01*
X9860043Y17415394D01*
X10040437Y17541708D01*
X10047032Y17547241D01*
X10202759Y17702968D01*
X10208292Y17709563D01*
X10334606Y17889957D01*
X10338918Y17897427D01*
X10391690Y18010596D01*
X10433418Y18055344D01*
X10493479Y18067019D01*
X10533361Y18053033D01*
X10572576Y18028861D01*
X10582934Y18024031D01*
X10740110Y17971898D01*
X10750621Y17969645D01*
X10847112Y17959759D01*
X10852170Y17959500D01*
X11280320Y17959500D01*
X11293005Y17963622D01*
X11296000Y17967743D01*
X11296000Y17975181D01*
X11804000Y17975181D01*
X11808122Y17962496D01*
X11812243Y17959501D01*
X12247792Y17959501D01*
X12252922Y17959767D01*
X12350673Y17969909D01*
X12361200Y17972182D01*
X12518277Y18024586D01*
X12528624Y18029433D01*
X12669145Y18116391D01*
X12678098Y18123487D01*
X12794847Y18240439D01*
X12801927Y18249404D01*
X12888641Y18390080D01*
X12893469Y18400434D01*
X12945602Y18557610D01*
X12947855Y18568121D01*
X12957741Y18664612D01*
X12958000Y18669671D01*
X12958000Y18860320D01*
X12953878Y18873005D01*
X12949757Y18876000D01*
X11819680Y18876000D01*
X11806995Y18871878D01*
X11804000Y18867757D01*
X11804000Y17975181D01*
X11296000Y17975181D01*
X11296000Y20284819D01*
X11291878Y20297504D01*
X11287757Y20300499D01*
X10852208Y20300499D01*
X10847078Y20300233D01*
X10749327Y20290091D01*
X10738800Y20287818D01*
X10581723Y20235414D01*
X10571376Y20230567D01*
X10430855Y20143609D01*
X10421902Y20136513D01*
X10305153Y20019561D01*
X10298073Y20010596D01*
X10211359Y19869920D01*
X10206531Y19859566D01*
X10154398Y19702390D01*
X10152145Y19691880D01*
X10149078Y19661946D01*
X10124339Y19605986D01*
X10071431Y19575255D01*
X10010564Y19581491D01*
X9993810Y19590941D01*
X9860043Y19684606D01*
X9852573Y19688918D01*
X9652991Y19781985D01*
X9644898Y19784931D01*
X9469145Y19832024D01*
X9456859Y19831380D01*
X9454000Y19821727D01*
X9454000Y17279598D01*
X8946000Y17279598D01*
X8946000Y18280320D01*
X8941878Y18293005D01*
X8937757Y18296000D01*
X7929598Y18296000D01*
X7917896Y18292198D01*
X7917633Y18282136D01*
X1075500Y18282136D01*
X1075500Y19214587D01*
X1094407Y19272778D01*
X1143907Y19308742D01*
X1205093Y19308742D01*
X1254593Y19272778D01*
X1269665Y19241875D01*
X1309753Y19102073D01*
X1318544Y19071414D01*
X1412712Y18888182D01*
X1540677Y18726730D01*
X1544357Y18723598D01*
X1544359Y18723596D01*
X1652249Y18631775D01*
X1697564Y18593209D01*
X1701787Y18590849D01*
X1701791Y18590846D01*
X1818702Y18525507D01*
X1877398Y18492703D01*
X1881996Y18491209D01*
X2068724Y18430537D01*
X2068726Y18430536D01*
X2073329Y18429041D01*
X2277894Y18404649D01*
X2282716Y18405020D01*
X2282719Y18405020D01*
X2350541Y18410239D01*
X2483300Y18420454D01*
X2681725Y18475855D01*
X2686038Y18478034D01*
X2686044Y18478036D01*
X2861289Y18566559D01*
X2861291Y18566560D01*
X2865610Y18568742D01*
X2869427Y18571724D01*
X3024135Y18692594D01*
X3024139Y18692598D01*
X3027951Y18695576D01*
X3134612Y18819145D01*
X7917976Y18819145D01*
X7918620Y18806859D01*
X7928273Y18804000D01*
X8930320Y18804000D01*
X8943005Y18808122D01*
X8946000Y18812243D01*
X8946000Y19820402D01*
X8942198Y19832104D01*
X8932136Y19832367D01*
X8755102Y19784931D01*
X8747009Y19781985D01*
X8547427Y19688918D01*
X8539957Y19684606D01*
X8359563Y19558292D01*
X8352968Y19552759D01*
X8197241Y19397032D01*
X8191708Y19390437D01*
X8065394Y19210043D01*
X8061082Y19202573D01*
X7968015Y19002991D01*
X7965069Y18994898D01*
X7917976Y18819145D01*
X3134612Y18819145D01*
X3162564Y18851528D01*
X3167559Y18860320D01*
X3261934Y19026450D01*
X3261935Y19026453D01*
X3264323Y19030656D01*
X3277882Y19071414D01*
X3327824Y19221546D01*
X3327824Y19221548D01*
X3329351Y19226137D01*
X3332953Y19254645D01*
X3354823Y19427772D01*
X3355171Y19430526D01*
X3355583Y19460000D01*
X3353413Y19482136D01*
X3335952Y19660220D01*
X3335951Y19660224D01*
X3335480Y19665030D01*
X3329806Y19683825D01*
X3288170Y19821727D01*
X3275935Y19862251D01*
X3179218Y20044151D01*
X3049011Y20203800D01*
X3001665Y20242968D01*
X2894002Y20332035D01*
X2894000Y20332036D01*
X2890275Y20335118D01*
X2741447Y20415589D01*
X2713309Y20430803D01*
X2713308Y20430803D01*
X2709055Y20433103D01*
X2625602Y20458936D01*
X2516875Y20492593D01*
X2516871Y20492594D01*
X2512254Y20494023D01*
X2507446Y20494528D01*
X2507443Y20494529D01*
X2312185Y20515051D01*
X2312183Y20515051D01*
X2307369Y20515557D01*
X2247354Y20510095D01*
X2107022Y20497325D01*
X2107017Y20497324D01*
X2102203Y20496886D01*
X1904572Y20438720D01*
X1900288Y20436481D01*
X1900287Y20436480D01*
X1889428Y20430803D01*
X1722002Y20343274D01*
X1718231Y20340242D01*
X1565220Y20217219D01*
X1565217Y20217217D01*
X1561447Y20214185D01*
X1558333Y20210474D01*
X1558332Y20210473D01*
X1449350Y20080593D01*
X1429024Y20056370D01*
X1426689Y20052122D01*
X1426688Y20052121D01*
X1419955Y20039874D01*
X1329776Y19875838D01*
X1328313Y19871225D01*
X1328311Y19871221D01*
X1268866Y19683825D01*
X1233249Y19634076D01*
X1175191Y19614762D01*
X1116870Y19633263D01*
X1080561Y19682511D01*
X1075500Y19713760D01*
X1075500Y21754587D01*
X1094407Y21812778D01*
X1143907Y21848742D01*
X1205093Y21848742D01*
X1254593Y21812778D01*
X1269665Y21781875D01*
X1315360Y21622519D01*
X1318544Y21611414D01*
X1412712Y21428182D01*
X1540677Y21266730D01*
X1544357Y21263598D01*
X1544359Y21263596D01*
X1608211Y21209254D01*
X1697564Y21133209D01*
X1701787Y21130849D01*
X1701791Y21130846D01*
X1818702Y21065507D01*
X1877398Y21032703D01*
X1881996Y21031209D01*
X2068724Y20970537D01*
X2068726Y20970536D01*
X2073329Y20969041D01*
X2277894Y20944649D01*
X2282716Y20945020D01*
X2282719Y20945020D01*
X2350541Y20950239D01*
X2483300Y20960454D01*
X2681725Y21015855D01*
X2686038Y21018034D01*
X2686044Y21018036D01*
X2861289Y21106559D01*
X2861291Y21106560D01*
X2865610Y21108742D01*
X2869427Y21111724D01*
X3024135Y21232594D01*
X3024139Y21232598D01*
X3027951Y21235576D01*
X3054267Y21266063D01*
X3133506Y21357864D01*
X3162564Y21391528D01*
X3181231Y21424387D01*
X3261934Y21566450D01*
X3261935Y21566453D01*
X3264323Y21570656D01*
X3266645Y21577634D01*
X3327824Y21761546D01*
X3327824Y21761548D01*
X3329351Y21766137D01*
X3335059Y21811317D01*
X3354823Y21967772D01*
X3355171Y21970526D01*
X3355583Y22000000D01*
X3353413Y22022136D01*
X3335952Y22200220D01*
X3335951Y22200224D01*
X3335480Y22205030D01*
X3329806Y22223825D01*
X3288170Y22361727D01*
X3275935Y22402251D01*
X3179218Y22584151D01*
X3049011Y22743800D01*
X3003847Y22781163D01*
X2894002Y22872035D01*
X2894000Y22872036D01*
X2890275Y22875118D01*
X2709055Y22973103D01*
X2645855Y22992667D01*
X2516875Y23032593D01*
X2516871Y23032594D01*
X2512254Y23034023D01*
X2507446Y23034528D01*
X2507443Y23034529D01*
X2312185Y23055051D01*
X2312183Y23055051D01*
X2307369Y23055557D01*
X2247354Y23050095D01*
X2107022Y23037325D01*
X2107017Y23037324D01*
X2102203Y23036886D01*
X1904572Y22978720D01*
X1900288Y22976481D01*
X1900287Y22976480D01*
X1889428Y22970803D01*
X1722002Y22883274D01*
X1718231Y22880242D01*
X1565220Y22757219D01*
X1565217Y22757217D01*
X1561447Y22754185D01*
X1558333Y22750474D01*
X1558332Y22750473D01*
X1466670Y22641234D01*
X1429024Y22596370D01*
X1426689Y22592122D01*
X1426688Y22592121D01*
X1419955Y22579874D01*
X1329776Y22415838D01*
X1328313Y22411225D01*
X1328311Y22411221D01*
X1268866Y22223825D01*
X1233249Y22174076D01*
X1175191Y22154762D01*
X1116870Y22173263D01*
X1080561Y22222511D01*
X1075500Y22253760D01*
X1075500Y24294587D01*
X1094407Y24352778D01*
X1143907Y24388742D01*
X1205093Y24388742D01*
X1254593Y24352778D01*
X1269665Y24321875D01*
X1309753Y24182073D01*
X1318544Y24151414D01*
X1412712Y23968182D01*
X1540677Y23806730D01*
X1544357Y23803598D01*
X1544359Y23803596D01*
X1588395Y23766119D01*
X1697564Y23673209D01*
X1701787Y23670849D01*
X1701791Y23670846D01*
X1818702Y23605507D01*
X1877398Y23572703D01*
X1881996Y23571209D01*
X2068724Y23510537D01*
X2068726Y23510536D01*
X2073329Y23509041D01*
X2277894Y23484649D01*
X2282716Y23485020D01*
X2282719Y23485020D01*
X2350541Y23490239D01*
X2483300Y23500454D01*
X2681725Y23555855D01*
X2686038Y23558034D01*
X2686044Y23558036D01*
X2856296Y23644037D01*
X8194757Y23644037D01*
X8198060Y23604704D01*
X8208582Y23479402D01*
X8211175Y23448517D01*
X8212508Y23443869D01*
X8212508Y23443868D01*
X8236448Y23360382D01*
X8265258Y23259909D01*
X8267473Y23255599D01*
X8352731Y23089704D01*
X8352734Y23089700D01*
X8354944Y23085399D01*
X8476818Y22931631D01*
X8480505Y22928493D01*
X8480507Y22928491D01*
X8622550Y22807603D01*
X8622555Y22807600D01*
X8626238Y22804465D01*
X8630460Y22802105D01*
X8630465Y22802102D01*
X8729266Y22746885D01*
X8797513Y22708743D01*
X8898549Y22675914D01*
X8979513Y22649607D01*
X8979516Y22649606D01*
X8984118Y22648111D01*
X9178946Y22624879D01*
X9183768Y22625250D01*
X9183771Y22625250D01*
X9369748Y22639560D01*
X9369753Y22639561D01*
X9374576Y22639932D01*
X9563556Y22692697D01*
X9567869Y22694876D01*
X9567875Y22694878D01*
X9734368Y22778980D01*
X9734370Y22778982D01*
X9738689Y22781163D01*
X9742506Y22784145D01*
X9889487Y22898978D01*
X9889491Y22898982D01*
X9893303Y22901960D01*
X9900134Y22909873D01*
X10018345Y23046823D01*
X10018347Y23046825D01*
X10021509Y23050489D01*
X10024388Y23055557D01*
X10116036Y23216885D01*
X10116037Y23216888D01*
X10118425Y23221091D01*
X10129905Y23255599D01*
X10178831Y23402677D01*
X10178831Y23402679D01*
X10180358Y23407268D01*
X10185158Y23445260D01*
X10198964Y23554554D01*
X10204949Y23601929D01*
X10205341Y23630000D01*
X10204438Y23639217D01*
X10188012Y23806730D01*
X10186194Y23825272D01*
X10129484Y24013106D01*
X10058236Y24147104D01*
X10039643Y24182073D01*
X10039641Y24182077D01*
X10037370Y24186347D01*
X9941021Y24304484D01*
X9916422Y24334645D01*
X9916421Y24334646D01*
X9913361Y24338398D01*
X9814823Y24419915D01*
X9765907Y24460382D01*
X9765906Y24460383D01*
X9762180Y24463465D01*
X9589585Y24556787D01*
X9402152Y24614807D01*
X9397342Y24615313D01*
X9397340Y24615313D01*
X9211835Y24634811D01*
X9211833Y24634811D01*
X9207019Y24635317D01*
X9142891Y24629481D01*
X9016438Y24617973D01*
X9016435Y24617972D01*
X9011618Y24617534D01*
X9006976Y24616168D01*
X9006972Y24616167D01*
X8828040Y24563504D01*
X8828037Y24563503D01*
X8823393Y24562136D01*
X8649512Y24471233D01*
X8645743Y24468203D01*
X8645742Y24468202D01*
X8636016Y24460382D01*
X8496600Y24348289D01*
X8475525Y24323173D01*
X8373589Y24201690D01*
X8373586Y24201686D01*
X8370480Y24197984D01*
X8275956Y24026046D01*
X8274492Y24021432D01*
X8274491Y24021429D01*
X8257600Y23968182D01*
X8216628Y23839022D01*
X8216088Y23834210D01*
X8216088Y23834209D01*
X8197353Y23667179D01*
X8194757Y23644037D01*
X2856296Y23644037D01*
X2861289Y23646559D01*
X2861291Y23646560D01*
X2865610Y23648742D01*
X2869427Y23651724D01*
X3024135Y23772594D01*
X3024139Y23772598D01*
X3027951Y23775576D01*
X3162564Y23931528D01*
X3181231Y23964387D01*
X3261934Y24106450D01*
X3261935Y24106453D01*
X3264323Y24110656D01*
X3277882Y24151414D01*
X3327824Y24301546D01*
X3327824Y24301548D01*
X3329351Y24306137D01*
X3332953Y24334645D01*
X3354823Y24507772D01*
X3355171Y24510526D01*
X3355583Y24540000D01*
X3353367Y24562599D01*
X3335952Y24740220D01*
X3335951Y24740224D01*
X3335480Y24745030D01*
X3329806Y24763825D01*
X3300125Y24862131D01*
X3275935Y24942251D01*
X3179218Y25124151D01*
X3049011Y25283800D01*
X3003847Y25321163D01*
X2894002Y25412035D01*
X2894000Y25412036D01*
X2890275Y25415118D01*
X2709055Y25513103D01*
X2618731Y25541063D01*
X2516875Y25572593D01*
X2516871Y25572594D01*
X2512254Y25574023D01*
X2507446Y25574528D01*
X2507443Y25574529D01*
X2312185Y25595051D01*
X2312183Y25595051D01*
X2307369Y25595557D01*
X2247354Y25590095D01*
X2107022Y25577325D01*
X2107017Y25577324D01*
X2102203Y25576886D01*
X1904572Y25518720D01*
X1900288Y25516481D01*
X1900287Y25516480D01*
X1832528Y25481056D01*
X1722002Y25423274D01*
X1718231Y25420242D01*
X1565220Y25297219D01*
X1565217Y25297217D01*
X1561447Y25294185D01*
X1558333Y25290474D01*
X1558332Y25290473D01*
X1466670Y25181234D01*
X1429024Y25136370D01*
X1426689Y25132122D01*
X1426688Y25132121D01*
X1419955Y25119874D01*
X1329776Y24955838D01*
X1328313Y24951225D01*
X1328311Y24951221D01*
X1268866Y24763825D01*
X1233249Y24714076D01*
X1175191Y24694762D01*
X1116870Y24713263D01*
X1080561Y24762511D01*
X1075500Y24793760D01*
X1075500Y26834587D01*
X1094407Y26892778D01*
X1143907Y26928742D01*
X1205093Y26928742D01*
X1254593Y26892778D01*
X1269665Y26861875D01*
X1309753Y26722073D01*
X1318544Y26691414D01*
X1412712Y26508182D01*
X1540677Y26346730D01*
X1544357Y26343598D01*
X1544359Y26343596D01*
X1620370Y26278906D01*
X1697564Y26213209D01*
X1701787Y26210849D01*
X1701791Y26210846D01*
X1818702Y26145507D01*
X1877398Y26112703D01*
X1881996Y26111209D01*
X2068724Y26050537D01*
X2068726Y26050536D01*
X2073329Y26049041D01*
X2277894Y26024649D01*
X2282716Y26025020D01*
X2282719Y26025020D01*
X2350541Y26030239D01*
X2483300Y26040454D01*
X2681725Y26095855D01*
X2686038Y26098034D01*
X2686044Y26098036D01*
X2856296Y26184037D01*
X8194757Y26184037D01*
X8198060Y26144704D01*
X8209815Y26004718D01*
X8211175Y25988517D01*
X8212508Y25983869D01*
X8212508Y25983868D01*
X8261481Y25813082D01*
X8265258Y25799909D01*
X8267473Y25795599D01*
X8352731Y25629704D01*
X8352734Y25629700D01*
X8354944Y25625399D01*
X8476818Y25471631D01*
X8480505Y25468493D01*
X8480507Y25468491D01*
X8622550Y25347603D01*
X8622555Y25347600D01*
X8626238Y25344465D01*
X8630460Y25342105D01*
X8630465Y25342102D01*
X8729266Y25286885D01*
X8797513Y25248743D01*
X8898549Y25215914D01*
X8979513Y25189607D01*
X8979516Y25189606D01*
X8984118Y25188111D01*
X9178946Y25164879D01*
X9183768Y25165250D01*
X9183771Y25165250D01*
X9369748Y25179560D01*
X9369753Y25179561D01*
X9374576Y25179932D01*
X9563556Y25232697D01*
X9567869Y25234876D01*
X9567875Y25234878D01*
X9734368Y25318980D01*
X9734370Y25318982D01*
X9738689Y25321163D01*
X9742506Y25324145D01*
X9889487Y25438978D01*
X9889491Y25438982D01*
X9893303Y25441960D01*
X9918915Y25471631D01*
X10018345Y25586823D01*
X10018347Y25586825D01*
X10021509Y25590489D01*
X10024388Y25595557D01*
X10116036Y25756885D01*
X10116037Y25756888D01*
X10118425Y25761091D01*
X10120123Y25766193D01*
X10178831Y25942677D01*
X10178831Y25942679D01*
X10180358Y25947268D01*
X10185200Y25985593D01*
X10198964Y26094554D01*
X10204949Y26141929D01*
X10205341Y26170000D01*
X10204438Y26179217D01*
X10190707Y26319241D01*
X10186194Y26365272D01*
X10129484Y26553106D01*
X10058236Y26687104D01*
X10039643Y26722073D01*
X10039641Y26722077D01*
X10037370Y26726347D01*
X10004644Y26766474D01*
X9916422Y26874645D01*
X9916421Y26874646D01*
X9913361Y26878398D01*
X9762180Y27003465D01*
X9589585Y27096787D01*
X9402152Y27154807D01*
X9397342Y27155313D01*
X9397340Y27155313D01*
X9211835Y27174811D01*
X9211833Y27174811D01*
X9207019Y27175317D01*
X9142891Y27169481D01*
X9016438Y27157973D01*
X9016435Y27157972D01*
X9011618Y27157534D01*
X9006976Y27156168D01*
X9006972Y27156167D01*
X8828040Y27103504D01*
X8828037Y27103503D01*
X8823393Y27102136D01*
X8649512Y27011233D01*
X8645743Y27008203D01*
X8645742Y27008202D01*
X8636016Y27000382D01*
X8496600Y26888289D01*
X8478576Y26866809D01*
X8373589Y26741690D01*
X8373586Y26741686D01*
X8370480Y26737984D01*
X8275956Y26566046D01*
X8274492Y26561432D01*
X8274491Y26561429D01*
X8257600Y26508182D01*
X8216628Y26379022D01*
X8216088Y26374210D01*
X8216088Y26374209D01*
X8209923Y26319241D01*
X8194757Y26184037D01*
X2856296Y26184037D01*
X2861289Y26186559D01*
X2861291Y26186560D01*
X2865610Y26188742D01*
X2900943Y26216347D01*
X3024135Y26312594D01*
X3024139Y26312598D01*
X3027951Y26315576D01*
X3162564Y26471528D01*
X3181231Y26504387D01*
X3261934Y26646450D01*
X3261935Y26646453D01*
X3264323Y26650656D01*
X3277882Y26691414D01*
X3327824Y26841546D01*
X3327824Y26841548D01*
X3329351Y26846137D01*
X3329966Y26851000D01*
X3354823Y27047772D01*
X3355171Y27050526D01*
X3355583Y27080000D01*
X3353413Y27102136D01*
X3335952Y27280220D01*
X3335951Y27280224D01*
X3335480Y27285030D01*
X3329806Y27303825D01*
X3277333Y27477620D01*
X3275935Y27482251D01*
X3179218Y27664151D01*
X3049011Y27823800D01*
X3003847Y27861163D01*
X2894002Y27952035D01*
X2894000Y27952036D01*
X2890275Y27955118D01*
X2709055Y28053103D01*
X2631372Y28077150D01*
X2572061Y28095510D01*
X2522063Y28130780D01*
X2502346Y28188701D01*
X2520439Y28247150D01*
X2569432Y28283801D01*
X2580752Y28286919D01*
X2587202Y28288290D01*
X2793304Y28350124D01*
X2800852Y28353082D01*
X2994087Y28447747D01*
X3001046Y28451896D01*
X3176231Y28576852D01*
X3182412Y28582076D01*
X3324868Y28724037D01*
X8194757Y28724037D01*
X8198524Y28679176D01*
X8207984Y28566524D01*
X8211175Y28528517D01*
X8212508Y28523869D01*
X8212508Y28523868D01*
X8261481Y28353082D01*
X8265258Y28339909D01*
X8267473Y28335599D01*
X8352731Y28169704D01*
X8352734Y28169700D01*
X8354944Y28165399D01*
X8357951Y28161605D01*
X8363130Y28155071D01*
X8476818Y28011631D01*
X8480505Y28008493D01*
X8480507Y28008491D01*
X8622550Y27887603D01*
X8622555Y27887600D01*
X8626238Y27884465D01*
X8630460Y27882105D01*
X8630465Y27882102D01*
X8729266Y27826885D01*
X8797513Y27788743D01*
X8896977Y27756425D01*
X8979513Y27729607D01*
X8979516Y27729606D01*
X8984118Y27728111D01*
X9178946Y27704879D01*
X9183768Y27705250D01*
X9183771Y27705250D01*
X9369748Y27719560D01*
X9369753Y27719561D01*
X9374576Y27719932D01*
X9563556Y27772697D01*
X9567869Y27774876D01*
X9567875Y27774878D01*
X9734368Y27858980D01*
X9734370Y27858982D01*
X9738689Y27861163D01*
X9765490Y27882102D01*
X9889487Y27978978D01*
X9889491Y27978982D01*
X9893303Y27981960D01*
X9918915Y28011631D01*
X10018345Y28126823D01*
X10018347Y28126825D01*
X10021509Y28130489D01*
X10024388Y28135557D01*
X10116036Y28296885D01*
X10116037Y28296888D01*
X10118425Y28301091D01*
X10129905Y28335599D01*
X10178831Y28482677D01*
X10178831Y28482679D01*
X10180358Y28487268D01*
X10181259Y28494395D01*
X10198964Y28634554D01*
X10204949Y28681929D01*
X10205341Y28710000D01*
X10204438Y28719217D01*
X10193648Y28829254D01*
X10186194Y28905272D01*
X10129484Y29093106D01*
X10058236Y29227104D01*
X10039643Y29262073D01*
X10039641Y29262077D01*
X10037370Y29266347D01*
X9940676Y29384907D01*
X9916422Y29414645D01*
X9916421Y29414646D01*
X9913361Y29418398D01*
X9762180Y29543465D01*
X9589585Y29636787D01*
X9402152Y29694807D01*
X9397342Y29695313D01*
X9397340Y29695313D01*
X9211835Y29714811D01*
X9211833Y29714811D01*
X9207019Y29715317D01*
X9142891Y29709481D01*
X9016438Y29697973D01*
X9016435Y29697972D01*
X9011618Y29697534D01*
X9006976Y29696168D01*
X9006972Y29696167D01*
X8828040Y29643504D01*
X8828037Y29643503D01*
X8823393Y29642136D01*
X8649512Y29551233D01*
X8645743Y29548203D01*
X8645742Y29548202D01*
X8636016Y29540382D01*
X8496600Y29428289D01*
X8470186Y29396810D01*
X8373589Y29281690D01*
X8373586Y29281686D01*
X8370480Y29277984D01*
X8275956Y29106046D01*
X8274492Y29101432D01*
X8274491Y29101429D01*
X8234016Y28973836D01*
X8216628Y28919022D01*
X8216088Y28914210D01*
X8216088Y28914209D01*
X8195871Y28733965D01*
X8194757Y28724037D01*
X3324868Y28724037D01*
X3334831Y28733965D01*
X3340088Y28740142D01*
X3465651Y28914881D01*
X3469823Y28921824D01*
X3565164Y29114732D01*
X3568144Y29122256D01*
X3630701Y29328157D01*
X3632410Y29336062D01*
X3634304Y29350453D01*
X3631873Y29363569D01*
X3630571Y29364805D01*
X3625290Y29366000D01*
X2145000Y29366000D01*
X2086809Y29384907D01*
X2050845Y29434407D01*
X2046000Y29465000D01*
X2046000Y29775000D01*
X2064907Y29833191D01*
X2114407Y29869155D01*
X2145000Y29874000D01*
X3620779Y29874000D01*
X3632730Y29877883D01*
X3633058Y29887538D01*
X3590946Y30055191D01*
X3588333Y30062867D01*
X3502534Y30260193D01*
X3498701Y30267340D01*
X3381826Y30448003D01*
X3376880Y30454425D01*
X3232065Y30613574D01*
X3226139Y30619101D01*
X3057269Y30752466D01*
X3050525Y30756946D01*
X2862141Y30860940D01*
X2854749Y30864262D01*
X2651920Y30936088D01*
X2644081Y30938159D01*
X2574589Y30950537D01*
X2520616Y30979356D01*
X2493890Y31034395D01*
X2504619Y31094633D01*
X2548706Y31137059D01*
X2565327Y31143356D01*
X2609867Y31155792D01*
X2681725Y31175855D01*
X2686038Y31178034D01*
X2686044Y31178036D01*
X2861289Y31266559D01*
X2861291Y31266560D01*
X2865610Y31268742D01*
X2896927Y31293209D01*
X3024135Y31392594D01*
X3024139Y31392598D01*
X3027951Y31395576D01*
X3162564Y31551528D01*
X3167106Y31559523D01*
X3261934Y31726450D01*
X3261935Y31726453D01*
X3264323Y31730656D01*
X3272165Y31754228D01*
X3327824Y31921546D01*
X3327825Y31921550D01*
X3329351Y31926137D01*
X3332953Y31954645D01*
X3354823Y32127772D01*
X3355171Y32130526D01*
X3355583Y32160000D01*
X3353413Y32182136D01*
X3335952Y32360220D01*
X3335951Y32360224D01*
X3335480Y32365030D01*
X3275935Y32562251D01*
X3179218Y32744151D01*
X3049011Y32903800D01*
X3018357Y32929159D01*
X2894002Y33032035D01*
X2894000Y33032036D01*
X2890275Y33035118D01*
X2709055Y33133103D01*
X2645855Y33152667D01*
X2516875Y33192593D01*
X2516871Y33192594D01*
X2512254Y33194023D01*
X2507446Y33194528D01*
X2507443Y33194529D01*
X2312185Y33215051D01*
X2312183Y33215051D01*
X2307369Y33215557D01*
X2247354Y33210095D01*
X2107022Y33197325D01*
X2107017Y33197324D01*
X2102203Y33196886D01*
X1904572Y33138720D01*
X1900288Y33136481D01*
X1900287Y33136480D01*
X1889428Y33130803D01*
X1722002Y33043274D01*
X1718231Y33040242D01*
X1565220Y32917219D01*
X1565217Y32917217D01*
X1561447Y32914185D01*
X1558333Y32910474D01*
X1558332Y32910473D01*
X1466670Y32801234D01*
X1429024Y32756370D01*
X1426689Y32752122D01*
X1426688Y32752121D01*
X1419955Y32739874D01*
X1329776Y32575838D01*
X1267484Y32379468D01*
X1266944Y32374656D01*
X1266944Y32374655D01*
X1247489Y32201203D01*
X1244520Y32174738D01*
X1261759Y31969447D01*
X1263092Y31964799D01*
X1263092Y31964798D01*
X1308370Y31806894D01*
X1306235Y31745746D01*
X1283209Y31709602D01*
X369516Y30795909D01*
X369513Y30795905D01*
X346950Y30773342D01*
X335998Y30751846D01*
X327884Y30738607D01*
X313704Y30719090D01*
X311296Y30711679D01*
X306248Y30696143D01*
X300305Y30681797D01*
X289354Y30660304D01*
X288136Y30652611D01*
X288135Y30652609D01*
X285581Y30636481D01*
X281956Y30621380D01*
X274500Y30598433D01*
X274500Y1474491D01*
X281955Y1451549D01*
X285581Y1436443D01*
X289354Y1412620D01*
X300305Y1391127D01*
X306248Y1376781D01*
X310238Y1364502D01*
X313704Y1353834D01*
X318285Y1347529D01*
X327883Y1334319D01*
X335998Y1321078D01*
X346950Y1299582D01*
X369513Y1277019D01*
X369516Y1277015D01*
X509229Y1137303D01*
X537005Y1082787D01*
X527434Y1022355D01*
X484169Y979090D01*
X423737Y969519D01*
X409226Y973654D01*
X409055Y973103D01*
X216875Y1032593D01*
X216871Y1032594D01*
X212254Y1034023D01*
X207446Y1034528D01*
X207443Y1034529D01*
X171830Y1038272D01*
X139151Y1041706D01*
X83256Y1066592D01*
X52663Y1119580D01*
X50500Y1140164D01*
X50500Y34714738D01*
X1244520Y34714738D01*
X1246765Y34688000D01*
X1258044Y34553693D01*
X1261759Y34509447D01*
X1263092Y34504799D01*
X1263092Y34504798D01*
X1309753Y34342073D01*
X1318544Y34311414D01*
X1412712Y34128182D01*
X1540677Y33966730D01*
X1544357Y33963598D01*
X1544359Y33963596D01*
X1657017Y33867717D01*
X1697564Y33833209D01*
X1701787Y33830849D01*
X1701791Y33830846D01*
X1818702Y33765507D01*
X1877398Y33732703D01*
X1881996Y33731209D01*
X2068724Y33670537D01*
X2068726Y33670536D01*
X2073329Y33669041D01*
X2277894Y33644649D01*
X2282716Y33645020D01*
X2282719Y33645020D01*
X2350541Y33650239D01*
X2483300Y33660454D01*
X2681725Y33715855D01*
X2686038Y33718034D01*
X2686044Y33718036D01*
X2861289Y33806559D01*
X2861291Y33806560D01*
X2865610Y33808742D01*
X2872295Y33813965D01*
X3024135Y33932594D01*
X3024139Y33932598D01*
X3027951Y33935576D01*
X3162564Y34091528D01*
X3181231Y34124387D01*
X3261934Y34266450D01*
X3261935Y34266453D01*
X3264323Y34270656D01*
X3270429Y34289009D01*
X3327824Y34461546D01*
X3327824Y34461548D01*
X3329351Y34466137D01*
X3332953Y34494645D01*
X3354823Y34667772D01*
X3355171Y34670526D01*
X3355583Y34700000D01*
X3353413Y34722136D01*
X3335952Y34900220D01*
X3335951Y34900224D01*
X3335480Y34905030D01*
X3330989Y34919907D01*
X3277333Y35097620D01*
X3275935Y35102251D01*
X3179218Y35284151D01*
X3049011Y35443800D01*
X3003847Y35481163D01*
X2894002Y35572035D01*
X2894000Y35572036D01*
X2890275Y35575118D01*
X2709055Y35673103D01*
X2616644Y35701709D01*
X2516875Y35732593D01*
X2516871Y35732594D01*
X2512254Y35734023D01*
X2507446Y35734528D01*
X2507443Y35734529D01*
X2312185Y35755051D01*
X2312183Y35755051D01*
X2307369Y35755557D01*
X2247354Y35750095D01*
X2107022Y35737325D01*
X2107017Y35737324D01*
X2102203Y35736886D01*
X1904572Y35678720D01*
X1900288Y35676481D01*
X1900287Y35676480D01*
X1889428Y35670803D01*
X1722002Y35583274D01*
X1718231Y35580242D01*
X1565220Y35457219D01*
X1565217Y35457217D01*
X1561447Y35454185D01*
X1558333Y35450474D01*
X1558332Y35450473D01*
X1440959Y35310593D01*
X1429024Y35296370D01*
X1426689Y35292122D01*
X1426688Y35292121D01*
X1419955Y35279874D01*
X1329776Y35115838D01*
X1328313Y35111225D01*
X1328311Y35111221D01*
X1282733Y34967538D01*
X1267484Y34919468D01*
X1266944Y34914656D01*
X1266944Y34914655D01*
X1245524Y34723687D01*
X1244520Y34714738D01*
X50500Y34714738D01*
X50500Y38815252D01*
X924500Y38815252D01*
X925448Y38810488D01*
X931605Y38779535D01*
X936133Y38756769D01*
X980448Y38690448D01*
X1046769Y38646133D01*
X1056332Y38644231D01*
X1056334Y38644230D01*
X1079005Y38639721D01*
X1105252Y38634500D01*
X2944748Y38634500D01*
X2970995Y38639721D01*
X2993666Y38644230D01*
X2993668Y38644231D01*
X3003231Y38646133D01*
X3069552Y38690448D01*
X3113867Y38756769D01*
X3116657Y38754905D01*
X3145468Y38788649D01*
X3204961Y38802941D01*
X3261492Y38779535D01*
X3276841Y38763063D01*
X3302850Y38727850D01*
X3308807Y38723450D01*
X3360825Y38685029D01*
X3411816Y38647366D01*
X3539631Y38602481D01*
X3545638Y38601913D01*
X3545639Y38601913D01*
X3568855Y38599718D01*
X3568865Y38599718D01*
X3571166Y38599500D01*
X4928834Y38599500D01*
X4931135Y38599718D01*
X4931145Y38599718D01*
X4954361Y38601913D01*
X4954362Y38601913D01*
X4960369Y38602481D01*
X5088184Y38647366D01*
X5139176Y38685029D01*
X5191193Y38723450D01*
X5197150Y38727850D01*
X5225575Y38766334D01*
X5273238Y38830864D01*
X5273239Y38830865D01*
X5277634Y38836816D01*
X5322519Y38964631D01*
X5325500Y38996166D01*
X5325500Y39903834D01*
X5322519Y39935369D01*
X5277634Y40063184D01*
X5197150Y40172150D01*
X5125523Y40225055D01*
X5094136Y40248238D01*
X5094135Y40248239D01*
X5088184Y40252634D01*
X4960369Y40297519D01*
X4954362Y40298087D01*
X4954361Y40298087D01*
X4931145Y40300282D01*
X4931135Y40300282D01*
X4928834Y40300500D01*
X3571166Y40300500D01*
X3568865Y40300282D01*
X3568855Y40300282D01*
X3545639Y40298087D01*
X3545638Y40298087D01*
X3539631Y40297519D01*
X3411816Y40252634D01*
X3405865Y40248239D01*
X3405864Y40248238D01*
X3374477Y40225055D01*
X3302850Y40172150D01*
X3298450Y40166193D01*
X3296753Y40164496D01*
X3242236Y40136719D01*
X3226749Y40135500D01*
X3224500Y40135500D01*
X3166309Y40154407D01*
X3130345Y40203907D01*
X3125500Y40234500D01*
X3125500Y40654748D01*
X3118993Y40687461D01*
X3115770Y40703666D01*
X3115769Y40703668D01*
X3113867Y40713231D01*
X3069552Y40779552D01*
X3003231Y40823867D01*
X2993668Y40825769D01*
X2993666Y40825770D01*
X2970995Y40830279D01*
X2944748Y40835500D01*
X1105252Y40835500D01*
X1079005Y40830279D01*
X1056334Y40825770D01*
X1056332Y40825769D01*
X1046769Y40823867D01*
X980448Y40779552D01*
X936133Y40713231D01*
X934231Y40703668D01*
X934230Y40703666D01*
X931007Y40687461D01*
X924500Y40654748D01*
X924500Y38815252D01*
X50500Y38815252D01*
X50500Y51934989D01*
X69407Y51993180D01*
X118907Y52029144D01*
X180093Y52029144D01*
X229133Y51993807D01*
G37*
%TD.AperFunction*%
%TA.AperFunction,Conductor*%
G36*
X8410218Y4090104D02*
G01*
X8446182Y4040604D01*
X8446182Y3979418D01*
X8427866Y3946376D01*
X8373593Y3881695D01*
X8373589Y3881689D01*
X8370480Y3877984D01*
X8275956Y3706046D01*
X8274492Y3701432D01*
X8274491Y3701429D01*
X8245973Y3611528D01*
X8216628Y3519022D01*
X8216088Y3514210D01*
X8216088Y3514209D01*
X8197353Y3347179D01*
X8194757Y3324037D01*
X8198060Y3284704D01*
X8209334Y3150446D01*
X8211175Y3128517D01*
X8212508Y3123869D01*
X8212508Y3123868D01*
X8259090Y2961420D01*
X8265258Y2939909D01*
X8267473Y2935599D01*
X8352731Y2769704D01*
X8352734Y2769700D01*
X8354944Y2765399D01*
X8476818Y2611631D01*
X8480505Y2608493D01*
X8480507Y2608491D01*
X8622550Y2487603D01*
X8622555Y2487600D01*
X8626238Y2484465D01*
X8630460Y2482105D01*
X8630465Y2482102D01*
X8729266Y2426885D01*
X8797513Y2388743D01*
X8898549Y2355914D01*
X8979513Y2329607D01*
X8979516Y2329606D01*
X8984118Y2328111D01*
X9178946Y2304879D01*
X9183768Y2305250D01*
X9183771Y2305250D01*
X9369748Y2319560D01*
X9369753Y2319561D01*
X9374576Y2319932D01*
X9563556Y2372697D01*
X9636307Y2409446D01*
X9696771Y2418807D01*
X9730839Y2404626D01*
X9734789Y2404000D01*
X11106110Y2404000D01*
X11116512Y2407380D01*
X11113508Y2412282D01*
X10990417Y2535373D01*
X10962640Y2589890D01*
X10972211Y2650322D01*
X10990417Y2675381D01*
X11209619Y2894583D01*
X11264136Y2922360D01*
X11324568Y2912789D01*
X11349627Y2894583D01*
X12024206Y2220004D01*
X12051983Y2165487D01*
X12042412Y2105055D01*
X12024206Y2079996D01*
X11349627Y1405417D01*
X11295110Y1377640D01*
X11234678Y1387211D01*
X11209619Y1405417D01*
X10990417Y1624619D01*
X10962640Y1679136D01*
X10972211Y1739568D01*
X10990417Y1764627D01*
X11110704Y1884914D01*
X11115668Y1894657D01*
X11110072Y1896000D01*
X9742681Y1896000D01*
X9729996Y1891878D01*
X9727001Y1887757D01*
X9727001Y1661654D01*
X9727154Y1657761D01*
X9733055Y1582763D01*
X9734584Y1573865D01*
X9774311Y1425603D01*
X9771109Y1364502D01*
X9732603Y1316952D01*
X9678684Y1300980D01*
X3418331Y1300980D01*
X3360140Y1319887D01*
X3324176Y1369387D01*
X3324392Y1431228D01*
X3327823Y1441542D01*
X3327824Y1441547D01*
X3329351Y1446137D01*
X3332271Y1469247D01*
X3354823Y1647772D01*
X3355171Y1650526D01*
X3355583Y1680000D01*
X3353248Y1703817D01*
X3335952Y1880220D01*
X3335951Y1880224D01*
X3335480Y1885030D01*
X3333413Y1891878D01*
X3300125Y2002131D01*
X3275935Y2082251D01*
X3179218Y2264151D01*
X3049011Y2423800D01*
X3003847Y2461163D01*
X2894002Y2552035D01*
X2894000Y2552036D01*
X2890275Y2555118D01*
X2778123Y2615758D01*
X2713309Y2650803D01*
X2713308Y2650803D01*
X2709055Y2653103D01*
X2627059Y2678485D01*
X2516875Y2712593D01*
X2516871Y2712594D01*
X2512254Y2714023D01*
X2507446Y2714528D01*
X2507443Y2714529D01*
X2312185Y2735051D01*
X2312183Y2735051D01*
X2307369Y2735557D01*
X2247354Y2730095D01*
X2107022Y2717325D01*
X2107017Y2717324D01*
X2102203Y2716886D01*
X1904572Y2658720D01*
X1900288Y2656481D01*
X1900287Y2656480D01*
X1889428Y2650803D01*
X1722002Y2563274D01*
X1718231Y2560242D01*
X1565220Y2437219D01*
X1565217Y2437217D01*
X1561447Y2434185D01*
X1558333Y2430474D01*
X1558332Y2430473D01*
X1466670Y2321234D01*
X1429024Y2276370D01*
X1426689Y2272122D01*
X1426688Y2272121D01*
X1419955Y2259874D01*
X1329776Y2095838D01*
X1328313Y2091225D01*
X1328311Y2091221D01*
X1268866Y1903825D01*
X1233249Y1854076D01*
X1175191Y1834762D01*
X1116870Y1853263D01*
X1080561Y1902511D01*
X1075500Y1933760D01*
X1075500Y3974587D01*
X1094407Y4032778D01*
X1143907Y4068742D01*
X1205093Y4068742D01*
X1254593Y4032778D01*
X1269665Y4001875D01*
X1309753Y3862073D01*
X1318544Y3831414D01*
X1320759Y3827104D01*
X1352660Y3765032D01*
X1412712Y3648182D01*
X1540677Y3486730D01*
X1544357Y3483598D01*
X1544359Y3483596D01*
X1587589Y3446805D01*
X1697564Y3353209D01*
X1701787Y3350849D01*
X1701791Y3350846D01*
X1818702Y3285507D01*
X1877398Y3252703D01*
X1881996Y3251209D01*
X2068724Y3190537D01*
X2068726Y3190536D01*
X2073329Y3189041D01*
X2277894Y3164649D01*
X2282716Y3165020D01*
X2282719Y3165020D01*
X2350541Y3170239D01*
X2483300Y3180454D01*
X2681725Y3235855D01*
X2686038Y3238034D01*
X2686044Y3238036D01*
X2861289Y3326559D01*
X2861291Y3326560D01*
X2865610Y3328742D01*
X2869427Y3331724D01*
X3024135Y3452594D01*
X3024139Y3452598D01*
X3027951Y3455576D01*
X3032365Y3460689D01*
X3087313Y3524349D01*
X3162564Y3611528D01*
X3164957Y3615740D01*
X3261934Y3786450D01*
X3261935Y3786453D01*
X3264323Y3790656D01*
X3277882Y3831414D01*
X3327824Y3981546D01*
X3327824Y3981548D01*
X3329351Y3986137D01*
X3333935Y4022421D01*
X3359984Y4077780D01*
X3413601Y4107257D01*
X3432153Y4109011D01*
X8352027Y4109011D01*
X8410218Y4090104D01*
G37*
%TD.AperFunction*%
%TA.AperFunction,Conductor*%
G36*
X20433691Y51855593D02*
G01*
X20469655Y51806093D01*
X20474500Y51775500D01*
X20474500Y51357000D01*
X20455593Y51298809D01*
X20406093Y51262845D01*
X20388533Y51260064D01*
X20369495Y51253878D01*
X20366500Y51249757D01*
X20366500Y50119680D01*
X20370622Y50106995D01*
X20374743Y50104000D01*
X23092319Y50104000D01*
X23105004Y50108122D01*
X23107999Y50112243D01*
X23107999Y50547792D01*
X23107733Y50552922D01*
X23097591Y50650673D01*
X23095318Y50661200D01*
X23042914Y50818277D01*
X23038067Y50828624D01*
X22951109Y50969145D01*
X22944013Y50978098D01*
X22916628Y51005435D01*
X22888802Y51059927D01*
X22898321Y51120368D01*
X22941548Y51163670D01*
X22986570Y51174500D01*
X24375011Y51174500D01*
X24433202Y51155593D01*
X24469166Y51106093D01*
X24474011Y51075500D01*
X24474011Y50980061D01*
X24455104Y50921870D01*
X24433829Y50900428D01*
X24327850Y50822150D01*
X24323450Y50816193D01*
X24299481Y50783741D01*
X24247366Y50713184D01*
X24202481Y50585369D01*
X24201913Y50579362D01*
X24201913Y50579361D01*
X24201830Y50578477D01*
X24199500Y50553834D01*
X24199500Y49146166D01*
X24199718Y49143865D01*
X24199718Y49143855D01*
X24201913Y49120639D01*
X24202481Y49114631D01*
X24204479Y49108942D01*
X24204481Y49108932D01*
X24217942Y49070603D01*
X24219384Y49009435D01*
X24194539Y48967796D01*
X22306239Y47079496D01*
X22251722Y47051719D01*
X22236235Y47050500D01*
X21805252Y47050500D01*
X21779005Y47045279D01*
X21756334Y47040770D01*
X21756332Y47040769D01*
X21746769Y47038867D01*
X21680448Y46994552D01*
X21675029Y46986442D01*
X21668393Y46979806D01*
X21613876Y46952029D01*
X21553444Y46961600D01*
X21510179Y47004865D01*
X21505689Y47015058D01*
X21477649Y47089855D01*
X21470941Y47102108D01*
X21392137Y47207256D01*
X21382256Y47217137D01*
X21277108Y47295941D01*
X21264855Y47302649D01*
X21141022Y47349072D01*
X21129033Y47351923D01*
X21075748Y47357711D01*
X21070414Y47358000D01*
X20544680Y47358000D01*
X20531995Y47353878D01*
X20529000Y47349757D01*
X20529000Y44357681D01*
X20533122Y44344996D01*
X20537243Y44342001D01*
X21070411Y44342001D01*
X21075751Y44342290D01*
X21129035Y44348078D01*
X21141020Y44350927D01*
X21264855Y44397351D01*
X21277108Y44404059D01*
X21382256Y44482863D01*
X21392137Y44492744D01*
X21470941Y44597892D01*
X21477649Y44610145D01*
X21505689Y44684942D01*
X21543820Y44732793D01*
X21602794Y44749092D01*
X21660086Y44727614D01*
X21668393Y44720194D01*
X21675029Y44713558D01*
X21680448Y44705448D01*
X21746769Y44661133D01*
X21756332Y44659231D01*
X21756334Y44659230D01*
X21779005Y44654721D01*
X21805252Y44649500D01*
X21875500Y44649500D01*
X21933691Y44630593D01*
X21969655Y44581093D01*
X21974500Y44550500D01*
X21974500Y40849500D01*
X21955593Y40791309D01*
X21906093Y40755345D01*
X21875500Y40750500D01*
X20655252Y40750500D01*
X20629005Y40745279D01*
X20606334Y40740770D01*
X20606332Y40740769D01*
X20596769Y40738867D01*
X20530448Y40694552D01*
X20486133Y40628231D01*
X20484231Y40618668D01*
X20484230Y40618666D01*
X20480418Y40599500D01*
X20474500Y40569748D01*
X20474500Y38530252D01*
X20486133Y38471769D01*
X20530448Y38405448D01*
X20596769Y38361133D01*
X20606332Y38359231D01*
X20606334Y38359230D01*
X20629005Y38354721D01*
X20655252Y38349500D01*
X21725989Y38349500D01*
X21784180Y38330593D01*
X21820144Y38281093D01*
X21824989Y38250500D01*
X21824989Y31269007D01*
X21818963Y31238709D01*
X21819608Y31238536D01*
X21817929Y31232271D01*
X21815445Y31226273D01*
X21794807Y31069511D01*
X21815445Y30912749D01*
X21875953Y30766670D01*
X21879899Y30761528D01*
X21879901Y30761524D01*
X21918149Y30711679D01*
X21948039Y30672726D01*
X22780144Y29840621D01*
X22807921Y29786104D01*
X22808523Y29759582D01*
X22801258Y29694807D01*
X22794520Y29634738D01*
X22811759Y29429447D01*
X22813092Y29424799D01*
X22813092Y29424798D01*
X22859753Y29262073D01*
X22868544Y29231414D01*
X22962712Y29048182D01*
X23090677Y28886730D01*
X23094357Y28883598D01*
X23094359Y28883596D01*
X23158211Y28829254D01*
X23247564Y28753209D01*
X23251787Y28750849D01*
X23251791Y28750846D01*
X23353692Y28693896D01*
X23427398Y28652703D01*
X23581944Y28602488D01*
X23631444Y28566524D01*
X23650351Y28508333D01*
X23631444Y28450142D01*
X23581944Y28414178D01*
X23566327Y28410472D01*
X23538226Y28406172D01*
X23530341Y28404293D01*
X23325807Y28337442D01*
X23318350Y28334307D01*
X23127479Y28234946D01*
X23120627Y28230631D01*
X22948544Y28101427D01*
X22942491Y28096053D01*
X22793830Y27940487D01*
X22788727Y27934186D01*
X22667466Y27756425D01*
X22663468Y27749387D01*
X22572871Y27554210D01*
X22570073Y27546606D01*
X22514056Y27344616D01*
X22515756Y27336538D01*
X22517566Y27334902D01*
X22521792Y27334000D01*
X24005000Y27334000D01*
X24063191Y27315093D01*
X24099155Y27265593D01*
X24104000Y27235000D01*
X24104000Y26925000D01*
X24085093Y26866809D01*
X24035593Y26830845D01*
X24005000Y26826000D01*
X22530790Y26826000D01*
X22518460Y26821994D01*
X22518092Y26814047D01*
X22496515Y26756792D01*
X22445406Y26723155D01*
X22384286Y26725983D01*
X22349194Y26748619D01*
X21723134Y27374680D01*
X19929496Y29168318D01*
X19901719Y29222835D01*
X19900500Y29238322D01*
X19900500Y42607834D01*
X19901919Y42620535D01*
X19901897Y42620537D01*
X19902463Y42627569D01*
X19904019Y42634447D01*
X19900690Y42688102D01*
X19900500Y42694233D01*
X19900500Y42710940D01*
X19900001Y42714427D01*
X19900000Y42714435D01*
X19898899Y42722121D01*
X19898089Y42730024D01*
X19895578Y42770501D01*
X19895577Y42770504D01*
X19895141Y42777538D01*
X19892748Y42784167D01*
X19892747Y42784171D01*
X19891658Y42787187D01*
X19886777Y42806764D01*
X19886323Y42809936D01*
X19886323Y42809937D01*
X19885323Y42816918D01*
X19882404Y42823337D01*
X19882403Y42823342D01*
X19865619Y42860257D01*
X19862623Y42867615D01*
X19857069Y42883000D01*
X19846460Y42912387D01*
X19840408Y42920672D01*
X19830232Y42938086D01*
X19825984Y42947428D01*
X19807046Y42969407D01*
X19794907Y42983495D01*
X19789967Y42989716D01*
X19789653Y42990146D01*
X19781478Y43001336D01*
X19770014Y43012800D01*
X19765019Y43018181D01*
X19737005Y43050693D01*
X19737004Y43050694D01*
X19732400Y43056037D01*
X19725189Y43060711D01*
X19709032Y43073782D01*
X19095935Y43686879D01*
X19068158Y43741396D01*
X19069239Y43778099D01*
X19070522Y43783945D01*
X19072519Y43789632D01*
X19073086Y43795631D01*
X19073087Y43795635D01*
X19075282Y43818856D01*
X19075282Y43818866D01*
X19075500Y43821167D01*
X19075500Y44354085D01*
X19094406Y44412274D01*
X19143906Y44448238D01*
X19205092Y44448238D01*
X19233871Y44433304D01*
X19272892Y44404059D01*
X19285145Y44397351D01*
X19408978Y44350928D01*
X19420967Y44348077D01*
X19474252Y44342289D01*
X19479586Y44342000D01*
X20005320Y44342000D01*
X20018005Y44346122D01*
X20021000Y44350243D01*
X20021000Y45580320D01*
X20016878Y45593005D01*
X20012757Y45596000D01*
X19032681Y45596000D01*
X19019996Y45591878D01*
X19017001Y45587757D01*
X19017001Y45341756D01*
X18998094Y45283565D01*
X18948594Y45247601D01*
X18887408Y45247601D01*
X18859183Y45262123D01*
X18844135Y45273238D01*
X18844134Y45273239D01*
X18838183Y45277634D01*
X18710368Y45322519D01*
X18704361Y45323087D01*
X18704360Y45323087D01*
X18681144Y45325282D01*
X18681134Y45325282D01*
X18678833Y45325500D01*
X17700421Y45325500D01*
X16721168Y45325499D01*
X16689632Y45322519D01*
X16657781Y45311334D01*
X16596614Y45309893D01*
X16546281Y45344680D01*
X16525980Y45404742D01*
X16525980Y46277693D01*
X16544887Y46335884D01*
X16594387Y46371848D01*
X16635071Y46376177D01*
X16722115Y46367259D01*
X16727171Y46367000D01*
X17430320Y46367000D01*
X17443005Y46371122D01*
X17446000Y46375243D01*
X17446000Y46382680D01*
X17954000Y46382680D01*
X17958122Y46369995D01*
X17962243Y46367000D01*
X18672793Y46367000D01*
X18677920Y46367265D01*
X18775671Y46377409D01*
X18786209Y46379684D01*
X18886669Y46413200D01*
X18947852Y46413681D01*
X18997633Y46378107D01*
X19017000Y46319289D01*
X19017000Y46119680D01*
X19021122Y46106995D01*
X19025243Y46104000D01*
X20005320Y46104000D01*
X20018005Y46108122D01*
X20021000Y46112243D01*
X20021000Y47342319D01*
X20016878Y47355004D01*
X20012757Y47357999D01*
X19479589Y47357999D01*
X19474250Y47357710D01*
X19441587Y47354162D01*
X19381695Y47366675D01*
X19375010Y47371000D01*
X17969680Y47371000D01*
X17956995Y47366878D01*
X17954000Y47362757D01*
X17954000Y46382680D01*
X17446000Y46382680D01*
X17446000Y47780000D01*
X17464907Y47838191D01*
X17514407Y47874155D01*
X17545000Y47879000D01*
X19367320Y47879000D01*
X19380005Y47883122D01*
X19383000Y47887243D01*
X19383000Y48172793D01*
X19382735Y48177920D01*
X19372591Y48275671D01*
X19370318Y48286201D01*
X19348661Y48351115D01*
X19348181Y48412299D01*
X19383755Y48462080D01*
X19441796Y48481443D01*
X19473740Y48476412D01*
X19540110Y48454398D01*
X19550621Y48452145D01*
X19647112Y48442259D01*
X19652170Y48442000D01*
X19842820Y48442000D01*
X19855505Y48446122D01*
X19858500Y48450243D01*
X19858500Y48457681D01*
X20366500Y48457681D01*
X20370622Y48444996D01*
X20374743Y48442001D01*
X20572792Y48442001D01*
X20577922Y48442267D01*
X20675673Y48452409D01*
X20686200Y48454682D01*
X20843277Y48507086D01*
X20853619Y48511931D01*
X20972806Y48585687D01*
X21032238Y48600230D01*
X21076850Y48585778D01*
X21197580Y48511359D01*
X21207934Y48506531D01*
X21365110Y48454398D01*
X21375621Y48452145D01*
X21472112Y48442259D01*
X21477170Y48442000D01*
X21667820Y48442000D01*
X21680505Y48446122D01*
X21683500Y48450243D01*
X21683500Y48457681D01*
X22191500Y48457681D01*
X22195622Y48444996D01*
X22199743Y48442001D01*
X22397792Y48442001D01*
X22402922Y48442267D01*
X22500673Y48452409D01*
X22511200Y48454682D01*
X22668277Y48507086D01*
X22678624Y48511933D01*
X22819145Y48598891D01*
X22828098Y48605987D01*
X22944847Y48722939D01*
X22951927Y48731904D01*
X23038641Y48872580D01*
X23043469Y48882934D01*
X23095602Y49040110D01*
X23097855Y49050621D01*
X23107741Y49147112D01*
X23108000Y49152171D01*
X23108000Y49580320D01*
X23103878Y49593005D01*
X23099757Y49596000D01*
X22207180Y49596000D01*
X22194495Y49591878D01*
X22191500Y49587757D01*
X22191500Y48457681D01*
X21683500Y48457681D01*
X21683500Y49580320D01*
X21679378Y49593005D01*
X21675257Y49596000D01*
X20382180Y49596000D01*
X20369495Y49591878D01*
X20366500Y49587757D01*
X20366500Y48457681D01*
X19858500Y48457681D01*
X19858500Y49580320D01*
X19854378Y49593005D01*
X19850257Y49596000D01*
X18957681Y49596000D01*
X18944996Y49591878D01*
X18942001Y49587757D01*
X18942001Y49152208D01*
X18942267Y49147078D01*
X18952409Y49049327D01*
X18954684Y49038792D01*
X18976338Y48973885D01*
X18976819Y48912702D01*
X18941245Y48862921D01*
X18883204Y48843557D01*
X18851260Y48848588D01*
X18784889Y48870602D01*
X18774378Y48872855D01*
X18677887Y48882741D01*
X18672829Y48883000D01*
X17905870Y48883000D01*
X17847679Y48901907D01*
X17811715Y48951407D01*
X17812462Y49014802D01*
X17845519Y49108936D01*
X17847519Y49114631D01*
X17848087Y49120639D01*
X17850282Y49143855D01*
X17850282Y49143865D01*
X17850500Y49146166D01*
X17850500Y49964178D01*
X17869407Y50022369D01*
X17879496Y50034182D01*
X17964994Y50119680D01*
X18942000Y50119680D01*
X18946122Y50106995D01*
X18950243Y50104000D01*
X19842820Y50104000D01*
X19855505Y50108122D01*
X19858500Y50112243D01*
X19858500Y51242319D01*
X19854378Y51255004D01*
X19850257Y51257999D01*
X19652208Y51257999D01*
X19647078Y51257733D01*
X19549327Y51247591D01*
X19538800Y51245318D01*
X19381723Y51192914D01*
X19371376Y51188067D01*
X19230855Y51101109D01*
X19221902Y51094013D01*
X19105153Y50977061D01*
X19098073Y50968096D01*
X19011359Y50827420D01*
X19006531Y50817066D01*
X18954398Y50659890D01*
X18952145Y50649379D01*
X18942259Y50552888D01*
X18942000Y50547830D01*
X18942000Y50119680D01*
X17964994Y50119680D01*
X19690818Y51845504D01*
X19745335Y51873281D01*
X19760822Y51874500D01*
X20375500Y51874500D01*
X20433691Y51855593D01*
G37*
%TD.AperFunction*%
%TA.AperFunction,Conductor*%
G36*
X20488191Y58910093D02*
G01*
X20524155Y58860593D01*
X20529000Y58830000D01*
X20529000Y57182681D01*
X20533122Y57169996D01*
X20537243Y57167001D01*
X21070411Y57167001D01*
X21075751Y57167290D01*
X21129035Y57173078D01*
X21141020Y57175927D01*
X21264855Y57222351D01*
X21277108Y57229059D01*
X21382256Y57307863D01*
X21392137Y57317744D01*
X21470941Y57422892D01*
X21477649Y57435145D01*
X21505689Y57509942D01*
X21543820Y57557793D01*
X21602794Y57574092D01*
X21660086Y57552614D01*
X21668393Y57545194D01*
X21675029Y57538558D01*
X21680448Y57530448D01*
X21746769Y57486133D01*
X21756332Y57484231D01*
X21756334Y57484230D01*
X21774987Y57480520D01*
X21805252Y57474500D01*
X21975500Y57474500D01*
X22033691Y57455593D01*
X22069655Y57406093D01*
X22074500Y57375500D01*
X22074500Y53674500D01*
X22055593Y53616309D01*
X22006093Y53580345D01*
X21975500Y53575500D01*
X20655252Y53575500D01*
X20629005Y53570279D01*
X20606334Y53565770D01*
X20606332Y53565769D01*
X20596769Y53563867D01*
X20530448Y53519552D01*
X20486133Y53453231D01*
X20474500Y53394748D01*
X20474500Y52974500D01*
X20455593Y52916309D01*
X20406093Y52880345D01*
X20375500Y52875500D01*
X19579660Y52875500D01*
X19566963Y52876919D01*
X19566961Y52876896D01*
X19559931Y52877461D01*
X19553052Y52879018D01*
X19499408Y52875690D01*
X19493278Y52875500D01*
X19476560Y52875500D01*
X19473080Y52875002D01*
X19473070Y52875001D01*
X19465364Y52873898D01*
X19457468Y52873089D01*
X19417000Y52870578D01*
X19416998Y52870578D01*
X19409962Y52870141D01*
X19403328Y52867746D01*
X19400313Y52866658D01*
X19380737Y52861777D01*
X19379545Y52861606D01*
X19377564Y52861323D01*
X19377563Y52861323D01*
X19370582Y52860323D01*
X19364163Y52857404D01*
X19364158Y52857403D01*
X19327243Y52840619D01*
X19319885Y52837623D01*
X19275113Y52821460D01*
X19266828Y52815408D01*
X19249414Y52805232D01*
X19240072Y52800984D01*
X19234728Y52796379D01*
X19204005Y52769907D01*
X19197784Y52764967D01*
X19186164Y52756478D01*
X19174700Y52745014D01*
X19169319Y52740019D01*
X19131463Y52707400D01*
X19127300Y52700977D01*
X19126789Y52700189D01*
X19113718Y52684032D01*
X17409182Y50979496D01*
X17354665Y50951719D01*
X17339178Y50950500D01*
X16521166Y50950500D01*
X16518865Y50950282D01*
X16518855Y50950282D01*
X16495639Y50948087D01*
X16495638Y50948087D01*
X16489631Y50947519D01*
X16361816Y50902634D01*
X16252850Y50822150D01*
X16248450Y50816193D01*
X16224481Y50783741D01*
X16172366Y50713184D01*
X16127481Y50585369D01*
X16126913Y50579362D01*
X16126913Y50579361D01*
X16126830Y50578477D01*
X16124500Y50553834D01*
X16124500Y49735822D01*
X16105593Y49677631D01*
X16095504Y49665818D01*
X15719061Y49289375D01*
X15709081Y49281401D01*
X15709096Y49281384D01*
X15703726Y49276814D01*
X15697760Y49273050D01*
X15693092Y49267765D01*
X15693089Y49267762D01*
X15662188Y49232772D01*
X15657988Y49228302D01*
X15646160Y49216474D01*
X15639382Y49207430D01*
X15634376Y49201281D01*
X15602857Y49165592D01*
X15598498Y49156309D01*
X15588107Y49139014D01*
X15581954Y49130804D01*
X15579478Y49124199D01*
X15565245Y49086234D01*
X15562160Y49078914D01*
X15544926Y49042206D01*
X15544925Y49042202D01*
X15541927Y49035817D01*
X15540842Y49028849D01*
X15540841Y49028845D01*
X15540350Y49025688D01*
X15535227Y49006160D01*
X15531628Y48996560D01*
X15528273Y48951407D01*
X15528100Y48949082D01*
X15527193Y48941187D01*
X15525568Y48930752D01*
X15525567Y48930744D01*
X15524980Y48926971D01*
X15524980Y48910771D01*
X15524708Y48903435D01*
X15521004Y48853588D01*
X15522476Y48846693D01*
X15522476Y48846691D01*
X15522799Y48845179D01*
X15524980Y48824512D01*
X15524980Y44941686D01*
X15523561Y44928985D01*
X15523583Y44928983D01*
X15523017Y44921951D01*
X15521461Y44915073D01*
X15521898Y44908035D01*
X15524790Y44861418D01*
X15524980Y44855287D01*
X15524980Y44838580D01*
X15525479Y44835093D01*
X15525480Y44835085D01*
X15526581Y44827399D01*
X15527391Y44819496D01*
X15529759Y44781334D01*
X15530339Y44771982D01*
X15532732Y44765353D01*
X15532733Y44765349D01*
X15533822Y44762333D01*
X15538703Y44742757D01*
X15540157Y44732602D01*
X15543076Y44726183D01*
X15543077Y44726178D01*
X15559861Y44689263D01*
X15562857Y44681905D01*
X15579020Y44637133D01*
X15585072Y44628848D01*
X15595248Y44611434D01*
X15599496Y44602092D01*
X15604101Y44596748D01*
X15630573Y44566025D01*
X15635513Y44559804D01*
X15644002Y44548184D01*
X15655466Y44536720D01*
X15660461Y44531339D01*
X15693080Y44493483D01*
X15700298Y44488804D01*
X15716450Y44475736D01*
X15920232Y44271955D01*
X16123599Y44068588D01*
X16131577Y44058603D01*
X16131594Y44058617D01*
X16136168Y44053243D01*
X16139930Y44047280D01*
X16145214Y44042613D01*
X16145216Y44042611D01*
X16180217Y44011700D01*
X16184687Y44007500D01*
X16196507Y43995680D01*
X16199322Y43993571D01*
X16199327Y43993566D01*
X16205540Y43988910D01*
X16211703Y43983893D01*
X16247388Y43952377D01*
X16256671Y43948019D01*
X16273967Y43937627D01*
X16282176Y43931474D01*
X16282177Y43931474D01*
X16280695Y43929497D01*
X16315009Y43893077D01*
X16324501Y43850777D01*
X16324501Y43821168D01*
X16327481Y43789632D01*
X16329478Y43783945D01*
X16329479Y43783941D01*
X16338260Y43758937D01*
X16372366Y43661817D01*
X16376761Y43655866D01*
X16376762Y43655865D01*
X16438867Y43571781D01*
X16452850Y43552850D01*
X16458807Y43548450D01*
X16504970Y43514354D01*
X16561817Y43472366D01*
X16689632Y43427481D01*
X16695639Y43426913D01*
X16695640Y43426913D01*
X16718856Y43424718D01*
X16718866Y43424718D01*
X16721167Y43424500D01*
X16786707Y43424500D01*
X17901677Y43424501D01*
X17959868Y43405594D01*
X17971681Y43395505D01*
X18315182Y43052004D01*
X18342959Y42997487D01*
X18333388Y42937055D01*
X18290123Y42893790D01*
X18245178Y42883000D01*
X17969680Y42883000D01*
X17956995Y42878878D01*
X17954000Y42874757D01*
X17954000Y40382680D01*
X17958122Y40369995D01*
X17962243Y40367000D01*
X18672793Y40367000D01*
X18677920Y40367265D01*
X18775677Y40377409D01*
X18779603Y40378257D01*
X18840474Y40372059D01*
X18886076Y40331265D01*
X18899500Y40281488D01*
X18899500Y39395794D01*
X18880593Y39337603D01*
X18831093Y39301639D01*
X18767699Y39302386D01*
X18710368Y39322519D01*
X18704361Y39323087D01*
X18704360Y39323087D01*
X18681144Y39325282D01*
X18681134Y39325282D01*
X18678833Y39325500D01*
X18182690Y39325500D01*
X18124499Y39344407D01*
X18088536Y39393906D01*
X18086865Y39399048D01*
X18085646Y39406745D01*
X18074695Y39428237D01*
X18068751Y39442586D01*
X18063704Y39458120D01*
X18063704Y39458121D01*
X18061296Y39465531D01*
X18047111Y39485055D01*
X18039004Y39498285D01*
X18028050Y39519783D01*
X17349837Y40197996D01*
X17322060Y40252513D01*
X17331631Y40312945D01*
X17374896Y40356210D01*
X17419841Y40367000D01*
X17430320Y40367000D01*
X17443005Y40371122D01*
X17446000Y40375243D01*
X17446000Y42867320D01*
X17441878Y42880005D01*
X17437757Y42883000D01*
X16727207Y42883000D01*
X16722080Y42882735D01*
X16624329Y42872591D01*
X16613800Y42870318D01*
X16456724Y42817914D01*
X16446377Y42813067D01*
X16305854Y42726109D01*
X16296903Y42719014D01*
X16180152Y42602059D01*
X16173073Y42593096D01*
X16086359Y42452420D01*
X16081531Y42442066D01*
X16029398Y42284889D01*
X16027145Y42274378D01*
X16017259Y42177887D01*
X16017000Y42172829D01*
X16017000Y41769842D01*
X15998093Y41711651D01*
X15948593Y41675687D01*
X15887407Y41675687D01*
X15847996Y41699838D01*
X15442351Y42105483D01*
X15442342Y42105491D01*
X15419783Y42128050D01*
X15398287Y42139002D01*
X15385046Y42147117D01*
X15382422Y42149024D01*
X15365531Y42161296D01*
X15358120Y42163704D01*
X15342584Y42168752D01*
X15328235Y42174696D01*
X15306745Y42185646D01*
X15299052Y42186864D01*
X15299050Y42186865D01*
X15282922Y42189419D01*
X15267821Y42193044D01*
X15244874Y42200500D01*
X14094459Y42200500D01*
X14094455Y42200499D01*
X14062545Y42200499D01*
X14055138Y42198093D01*
X14055135Y42198092D01*
X14039605Y42193046D01*
X14024503Y42189420D01*
X14000674Y42185646D01*
X13980373Y42175302D01*
X13979184Y42174696D01*
X13964834Y42168751D01*
X13941888Y42161296D01*
X13922364Y42147111D01*
X13909134Y42139004D01*
X13887636Y42128050D01*
X13865069Y42105483D01*
X12995004Y41235419D01*
X12940487Y41207642D01*
X12880055Y41217213D01*
X12854996Y41235419D01*
X12284931Y41805484D01*
X12284927Y41805487D01*
X12262364Y41828050D01*
X12240868Y41839002D01*
X12227627Y41847117D01*
X12214417Y41856715D01*
X12208112Y41861296D01*
X12185165Y41868752D01*
X12170819Y41874695D01*
X12149326Y41885646D01*
X12141633Y41886864D01*
X12141631Y41886865D01*
X12125503Y41889419D01*
X12110402Y41893044D01*
X12087455Y41900500D01*
X5404574Y41900500D01*
X5346383Y41919407D01*
X5310419Y41968907D01*
X5311166Y42032302D01*
X5320522Y42058943D01*
X5320523Y42058947D01*
X5322519Y42064631D01*
X5323086Y42070630D01*
X5323325Y42071719D01*
X5354265Y42124505D01*
X5410323Y42149024D01*
X5420024Y42149500D01*
X9563433Y42149500D01*
X9586380Y42156956D01*
X9601481Y42160581D01*
X9617609Y42163135D01*
X9617611Y42163136D01*
X9625304Y42164354D01*
X9646797Y42175305D01*
X9661143Y42181248D01*
X9676679Y42186296D01*
X9684090Y42188704D01*
X9703607Y42202884D01*
X9716846Y42210998D01*
X9738342Y42221950D01*
X9760905Y42244513D01*
X9760909Y42244516D01*
X11930484Y44414091D01*
X11930487Y44414095D01*
X11953050Y44436658D01*
X11958951Y44448238D01*
X11964001Y44458151D01*
X11972113Y44471390D01*
X11986296Y44490911D01*
X11988702Y44498316D01*
X11988704Y44498320D01*
X11993751Y44513855D01*
X11999694Y44528201D01*
X12010646Y44549696D01*
X12014419Y44573519D01*
X12018045Y44588625D01*
X12018390Y44589687D01*
X12025500Y44611567D01*
X12025500Y45375500D01*
X12044407Y45433691D01*
X12093907Y45469655D01*
X12124500Y45474500D01*
X12167139Y45474500D01*
X12225330Y45455593D01*
X12249414Y45428228D01*
X12249828Y45428538D01*
X12253771Y45423277D01*
X12253975Y45423045D01*
X12254057Y45422895D01*
X12332863Y45317744D01*
X12342744Y45307863D01*
X12447892Y45229059D01*
X12460145Y45222351D01*
X12583978Y45175928D01*
X12595967Y45173077D01*
X12649252Y45167289D01*
X12654586Y45167000D01*
X12684320Y45167000D01*
X12697005Y45171122D01*
X12700000Y45175243D01*
X12700000Y45182681D01*
X13150000Y45182681D01*
X13154122Y45169996D01*
X13158243Y45167001D01*
X13195410Y45167001D01*
X13200751Y45167290D01*
X13239307Y45171478D01*
X13260688Y45171478D01*
X13299250Y45167289D01*
X13304588Y45167000D01*
X13334320Y45167000D01*
X13347005Y45171122D01*
X13350000Y45175243D01*
X13350000Y45655252D01*
X13799500Y45655252D01*
X13799833Y45653580D01*
X13800000Y45650175D01*
X13800000Y45182681D01*
X13804122Y45169996D01*
X13808243Y45167001D01*
X13845411Y45167001D01*
X13850751Y45167290D01*
X13904035Y45173078D01*
X13916020Y45175927D01*
X14039855Y45222351D01*
X14052108Y45229059D01*
X14157256Y45307863D01*
X14167137Y45317744D01*
X14245943Y45422895D01*
X14246025Y45423045D01*
X14246128Y45423142D01*
X14250172Y45428538D01*
X14251109Y45427836D01*
X14290555Y45465005D01*
X14332861Y45474500D01*
X14469748Y45474500D01*
X14528231Y45486133D01*
X14528887Y45482836D01*
X14571664Y45486203D01*
X14571769Y45486133D01*
X14630252Y45474500D01*
X15119748Y45474500D01*
X15145995Y45479721D01*
X15168666Y45484230D01*
X15168668Y45484231D01*
X15178231Y45486133D01*
X15244552Y45530448D01*
X15288867Y45596769D01*
X15291492Y45609963D01*
X15299552Y45650488D01*
X15300500Y45655252D01*
X15300500Y47444748D01*
X15288867Y47503231D01*
X15244552Y47569552D01*
X15178231Y47613867D01*
X15168668Y47615769D01*
X15168666Y47615770D01*
X15145995Y47620279D01*
X15119748Y47625500D01*
X14630252Y47625500D01*
X14571769Y47613867D01*
X14571113Y47617164D01*
X14528336Y47613797D01*
X14528231Y47613867D01*
X14469748Y47625500D01*
X14332861Y47625500D01*
X14274670Y47644407D01*
X14250586Y47671772D01*
X14250172Y47671462D01*
X14246229Y47676723D01*
X14246025Y47676955D01*
X14245943Y47677105D01*
X14167137Y47782256D01*
X14157256Y47792137D01*
X14052108Y47870941D01*
X14039855Y47877649D01*
X13916022Y47924072D01*
X13904033Y47926923D01*
X13850748Y47932711D01*
X13845414Y47933000D01*
X13815680Y47933000D01*
X13802995Y47928878D01*
X13800000Y47924757D01*
X13800000Y47449825D01*
X13799833Y47446420D01*
X13799500Y47444748D01*
X13799500Y45655252D01*
X13350000Y45655252D01*
X13350000Y46309320D01*
X13345878Y46322005D01*
X13341757Y46325000D01*
X13165680Y46325000D01*
X13152995Y46320878D01*
X13150000Y46316757D01*
X13150000Y45182681D01*
X12700000Y45182681D01*
X12700000Y45650175D01*
X12700167Y45653580D01*
X12700500Y45655252D01*
X12700500Y46790680D01*
X13150000Y46790680D01*
X13154122Y46777995D01*
X13158243Y46775000D01*
X13334320Y46775000D01*
X13347005Y46779122D01*
X13350000Y46783243D01*
X13350000Y47917319D01*
X13345878Y47930004D01*
X13341757Y47932999D01*
X13304590Y47932999D01*
X13299249Y47932710D01*
X13260693Y47928522D01*
X13239312Y47928522D01*
X13200750Y47932711D01*
X13195412Y47933000D01*
X13165680Y47933000D01*
X13152995Y47928878D01*
X13150000Y47924757D01*
X13150000Y46790680D01*
X12700500Y46790680D01*
X12700500Y47444748D01*
X12700167Y47446420D01*
X12700000Y47449825D01*
X12700000Y47917319D01*
X12695878Y47930004D01*
X12691757Y47932999D01*
X12654589Y47932999D01*
X12649249Y47932710D01*
X12595965Y47926922D01*
X12583980Y47924073D01*
X12460145Y47877649D01*
X12447892Y47870941D01*
X12342744Y47792137D01*
X12332863Y47782256D01*
X12254057Y47677105D01*
X12253975Y47676955D01*
X12253872Y47676858D01*
X12249828Y47671462D01*
X12248891Y47672164D01*
X12209445Y47634995D01*
X12167139Y47625500D01*
X12030252Y47625500D01*
X11971769Y47613867D01*
X11971113Y47617164D01*
X11928336Y47613797D01*
X11928231Y47613867D01*
X11869748Y47625500D01*
X11380252Y47625500D01*
X11321769Y47613867D01*
X11321113Y47617164D01*
X11278336Y47613797D01*
X11278231Y47613867D01*
X11219748Y47625500D01*
X11082861Y47625500D01*
X11024670Y47644407D01*
X11000586Y47671772D01*
X11000172Y47671462D01*
X10996229Y47676723D01*
X10996025Y47676955D01*
X10995943Y47677105D01*
X10917137Y47782256D01*
X10907256Y47792137D01*
X10802108Y47870941D01*
X10789855Y47877649D01*
X10666022Y47924072D01*
X10654033Y47926923D01*
X10600748Y47932711D01*
X10595414Y47933000D01*
X10565680Y47933000D01*
X10552995Y47928878D01*
X10550000Y47924757D01*
X10550000Y47449825D01*
X10549833Y47446420D01*
X10549500Y47444748D01*
X10549500Y46424000D01*
X10530593Y46365809D01*
X10481093Y46329845D01*
X10450500Y46325000D01*
X10199500Y46325000D01*
X10141309Y46343907D01*
X10105345Y46393407D01*
X10100500Y46424000D01*
X10100500Y48300500D01*
X10119407Y48358691D01*
X10168907Y48394655D01*
X10199500Y48399500D01*
X10969748Y48399500D01*
X10995995Y48404721D01*
X11018666Y48409230D01*
X11018668Y48409231D01*
X11028231Y48411133D01*
X11094552Y48455448D01*
X11138867Y48521769D01*
X11142101Y48538024D01*
X11145335Y48554286D01*
X11150500Y48580252D01*
X11150500Y50419748D01*
X11138867Y50478231D01*
X11094552Y50544552D01*
X11028231Y50588867D01*
X11018668Y50590769D01*
X11018666Y50590770D01*
X10995995Y50595279D01*
X10969748Y50600500D01*
X8430252Y50600500D01*
X8404005Y50595279D01*
X8381334Y50590770D01*
X8381332Y50590769D01*
X8371769Y50588867D01*
X8305448Y50544552D01*
X8261133Y50478231D01*
X8249500Y50419748D01*
X8249500Y48580252D01*
X8254665Y48554286D01*
X8257900Y48538024D01*
X8261133Y48521769D01*
X8305448Y48455448D01*
X8371769Y48411133D01*
X8381332Y48409231D01*
X8381334Y48409230D01*
X8404005Y48404721D01*
X8430252Y48399500D01*
X9200500Y48399500D01*
X9258691Y48380593D01*
X9294655Y48331093D01*
X9299500Y48300500D01*
X9299500Y47724500D01*
X9280593Y47666309D01*
X9231093Y47630345D01*
X9200500Y47625500D01*
X9132861Y47625500D01*
X9074670Y47644407D01*
X9050586Y47671772D01*
X9050172Y47671462D01*
X9046229Y47676723D01*
X9046025Y47676955D01*
X9045943Y47677105D01*
X8967137Y47782256D01*
X8957256Y47792137D01*
X8852108Y47870941D01*
X8839855Y47877649D01*
X8716022Y47924072D01*
X8704033Y47926923D01*
X8650748Y47932711D01*
X8645414Y47933000D01*
X8615680Y47933000D01*
X8602995Y47928878D01*
X8600000Y47924757D01*
X8600000Y47449825D01*
X8599833Y47446420D01*
X8599500Y47444748D01*
X8599500Y45655252D01*
X8599833Y45653580D01*
X8600000Y45650175D01*
X8600000Y45182681D01*
X8604122Y45169996D01*
X8608243Y45167001D01*
X8645411Y45167001D01*
X8650751Y45167290D01*
X8704035Y45173078D01*
X8716020Y45175927D01*
X8757699Y45191552D01*
X8818824Y45194275D01*
X8869875Y45160549D01*
X8891353Y45103257D01*
X8875054Y45044283D01*
X8862455Y45028848D01*
X8788593Y44954986D01*
X8734076Y44927209D01*
X8718589Y44925990D01*
X8144978Y44925990D01*
X8086787Y44944897D01*
X8050823Y44994397D01*
X8050823Y45055583D01*
X8056768Y45069934D01*
X8059907Y45076093D01*
X8064001Y45084128D01*
X8072117Y45097373D01*
X8081716Y45110584D01*
X8081717Y45110585D01*
X8086296Y45116888D01*
X8087966Y45122028D01*
X8130378Y45164438D01*
X8144729Y45170382D01*
X8147005Y45171122D01*
X8150000Y45175243D01*
X8150000Y45650175D01*
X8150167Y45653580D01*
X8150500Y45655252D01*
X8150500Y47444748D01*
X8150167Y47446420D01*
X8150000Y47449825D01*
X8150000Y47917319D01*
X8145878Y47930004D01*
X8141757Y47932999D01*
X8104589Y47932999D01*
X8099249Y47932710D01*
X8045965Y47926922D01*
X8033980Y47924073D01*
X7910145Y47877649D01*
X7897892Y47870941D01*
X7792744Y47792137D01*
X7782863Y47782256D01*
X7704057Y47677105D01*
X7703975Y47676955D01*
X7703872Y47676858D01*
X7699828Y47671462D01*
X7698891Y47672164D01*
X7659445Y47634995D01*
X7617139Y47625500D01*
X7574500Y47625500D01*
X7516309Y47644407D01*
X7480345Y47693907D01*
X7475500Y47724500D01*
X7475500Y50118085D01*
X7494407Y50176276D01*
X7504496Y50188089D01*
X8286910Y50970504D01*
X8341427Y50998281D01*
X8356914Y50999500D01*
X12435304Y50999500D01*
X12458251Y51006956D01*
X12473352Y51010581D01*
X12489480Y51013135D01*
X12489482Y51013136D01*
X12497175Y51014354D01*
X12518668Y51025305D01*
X12533014Y51031248D01*
X12548550Y51036296D01*
X12555961Y51038704D01*
X12575478Y51052884D01*
X12588717Y51060998D01*
X12610213Y51071950D01*
X12632776Y51094513D01*
X12632780Y51094516D01*
X13705496Y52167232D01*
X13760013Y52195009D01*
X13820445Y52185438D01*
X13863710Y52142173D01*
X13874500Y52097228D01*
X13874500Y50699500D01*
X13855593Y50641309D01*
X13806093Y50605345D01*
X13775500Y50600500D01*
X12430252Y50600500D01*
X12404005Y50595279D01*
X12381334Y50590770D01*
X12381332Y50590769D01*
X12371769Y50588867D01*
X12305448Y50544552D01*
X12261133Y50478231D01*
X12249500Y50419748D01*
X12249500Y48580252D01*
X12254665Y48554286D01*
X12257900Y48538024D01*
X12261133Y48521769D01*
X12305448Y48455448D01*
X12371769Y48411133D01*
X12381332Y48409231D01*
X12381334Y48409230D01*
X12404005Y48404721D01*
X12430252Y48399500D01*
X14969748Y48399500D01*
X14995995Y48404721D01*
X15018666Y48409230D01*
X15018668Y48409231D01*
X15028231Y48411133D01*
X15094552Y48455448D01*
X15138867Y48521769D01*
X15142101Y48538024D01*
X15145335Y48554286D01*
X15150500Y48580252D01*
X15150500Y50419748D01*
X15138867Y50478231D01*
X15094552Y50544552D01*
X15028231Y50588867D01*
X15018668Y50590769D01*
X15018666Y50590770D01*
X14995995Y50595279D01*
X14969748Y50600500D01*
X14774500Y50600500D01*
X14716309Y50619407D01*
X14680345Y50668907D01*
X14675500Y50699500D01*
X14675500Y52750444D01*
X14694407Y52808635D01*
X14743907Y52844599D01*
X14774586Y52849444D01*
X14820281Y52849404D01*
X14820574Y52849404D01*
X14820664Y52849447D01*
X14820690Y52849450D01*
X17093288Y52849450D01*
X17151479Y52830543D01*
X17158173Y52825223D01*
X17185511Y52801500D01*
X17193153Y52796049D01*
X17372132Y52692507D01*
X17380655Y52688605D01*
X17575993Y52620772D01*
X17581581Y52619410D01*
X17593627Y52621480D01*
X17594637Y52622517D01*
X17596000Y52628361D01*
X17596000Y52750450D01*
X17614907Y52808641D01*
X17664407Y52844605D01*
X17695000Y52849450D01*
X18005000Y52849450D01*
X18063191Y52830543D01*
X18099155Y52781043D01*
X18104000Y52750450D01*
X18104000Y52636446D01*
X18107932Y52624344D01*
X18117333Y52623979D01*
X18215964Y52647750D01*
X18224836Y52650804D01*
X18413066Y52736388D01*
X18421194Y52741061D01*
X18548263Y52831198D01*
X18605542Y52849450D01*
X18627963Y52849450D01*
X18680574Y52849404D01*
X18690621Y52854228D01*
X18690624Y52854229D01*
X18691527Y52854663D01*
X18712356Y52861937D01*
X18724207Y52864641D01*
X18733503Y52872049D01*
X18752337Y52883864D01*
X18763056Y52889011D01*
X18770647Y52898503D01*
X18786259Y52914088D01*
X18795765Y52921663D01*
X18800926Y52932364D01*
X18812779Y52951186D01*
X18820203Y52960469D01*
X18822701Y52971330D01*
X18822702Y52971333D01*
X18822927Y52972313D01*
X18830237Y52993131D01*
X18835516Y53004076D01*
X18835536Y53027150D01*
X18837327Y53027148D01*
X18837321Y53027210D01*
X18835550Y53027210D01*
X18835550Y53042963D01*
X18835596Y53095281D01*
X18835596Y53095574D01*
X18835553Y53095664D01*
X18835550Y53095690D01*
X18835550Y53133442D01*
X18851381Y53187144D01*
X18857918Y53197268D01*
X18862229Y53205584D01*
X18939527Y53397384D01*
X18942187Y53406364D01*
X18982040Y53610441D01*
X18982896Y53617494D01*
X18982940Y53618399D01*
X18983000Y53620846D01*
X18983000Y54080320D01*
X18978878Y54093005D01*
X18974757Y54096000D01*
X18934550Y54096000D01*
X18876359Y54114907D01*
X18840395Y54164407D01*
X18835550Y54195000D01*
X18835550Y54505000D01*
X18854457Y54563191D01*
X18903957Y54599155D01*
X18934550Y54604000D01*
X18967320Y54604000D01*
X18980005Y54608122D01*
X18983000Y54612243D01*
X18983000Y55026660D01*
X18982775Y55031374D01*
X18968068Y55185525D01*
X18966292Y55194746D01*
X18908087Y55393151D01*
X18904604Y55401858D01*
X18846537Y55514603D01*
X18835550Y55559933D01*
X18835550Y55642963D01*
X18835586Y55684426D01*
X18835596Y55695574D01*
X18830772Y55705621D01*
X18830771Y55705624D01*
X18830337Y55706527D01*
X18823063Y55727356D01*
X18820359Y55739207D01*
X18812951Y55748503D01*
X18801136Y55767337D01*
X18795989Y55778056D01*
X18786497Y55785647D01*
X18770912Y55801259D01*
X18763337Y55810765D01*
X18752636Y55815926D01*
X18733814Y55827779D01*
X18724531Y55835203D01*
X18713670Y55837701D01*
X18713667Y55837702D01*
X18712687Y55837927D01*
X18691869Y55845237D01*
X18680924Y55850516D01*
X18669778Y55850526D01*
X18669777Y55850526D01*
X18657850Y55850536D01*
X18657852Y55852327D01*
X18657790Y55852321D01*
X18657790Y55850550D01*
X18642037Y55850550D01*
X18606589Y55850581D01*
X18548415Y55869539D01*
X18541791Y55874808D01*
X18514489Y55898500D01*
X18506847Y55903951D01*
X18327868Y56007493D01*
X18319345Y56011395D01*
X18124007Y56079228D01*
X18118419Y56080590D01*
X18106373Y56078520D01*
X18105363Y56077483D01*
X18104000Y56071639D01*
X18104000Y55949550D01*
X18085093Y55891359D01*
X18035593Y55855395D01*
X18005000Y55850550D01*
X17695000Y55850550D01*
X17636809Y55869457D01*
X17600845Y55918957D01*
X17596000Y55949550D01*
X17596000Y56063554D01*
X17592068Y56075656D01*
X17582667Y56076021D01*
X17484036Y56052250D01*
X17475164Y56049196D01*
X17286934Y55963612D01*
X17278801Y55958936D01*
X17156778Y55872379D01*
X17098377Y55854133D01*
X17040404Y55873700D01*
X17005004Y55923604D01*
X17000500Y55953127D01*
X17000500Y56649978D01*
X17019407Y56708169D01*
X17068907Y56744133D01*
X17130047Y56744133D01*
X17135469Y56739797D01*
X17146334Y56737299D01*
X17146335Y56737298D01*
X17147313Y56737073D01*
X17168131Y56729763D01*
X17179076Y56724484D01*
X17190222Y56724474D01*
X17190223Y56724474D01*
X17202150Y56724464D01*
X17202148Y56722673D01*
X17202210Y56722679D01*
X17202210Y56724450D01*
X17217963Y56724450D01*
X17270281Y56724404D01*
X17270574Y56724404D01*
X17270664Y56724447D01*
X17270690Y56724450D01*
X17290344Y56724450D01*
X17339919Y56711143D01*
X17372132Y56692507D01*
X17380655Y56688605D01*
X17575993Y56620772D01*
X17581581Y56619410D01*
X17593627Y56621480D01*
X17594637Y56622517D01*
X17598586Y56639452D01*
X17600411Y56639026D01*
X17614907Y56683641D01*
X17664407Y56719605D01*
X17695000Y56724450D01*
X18005000Y56724450D01*
X18063191Y56705543D01*
X18099155Y56656043D01*
X18100603Y56646903D01*
X18107932Y56624344D01*
X18117333Y56623979D01*
X18215964Y56647750D01*
X18224836Y56650804D01*
X18367285Y56715572D01*
X18408261Y56724450D01*
X18627963Y56724450D01*
X18680574Y56724404D01*
X18690621Y56729228D01*
X18690624Y56729229D01*
X18691527Y56729663D01*
X18712356Y56736937D01*
X18724207Y56739641D01*
X18733503Y56747049D01*
X18752337Y56758864D01*
X18763056Y56764011D01*
X18770647Y56773503D01*
X18786259Y56789088D01*
X18795765Y56796663D01*
X18800926Y56807364D01*
X18812779Y56826186D01*
X18820203Y56835469D01*
X18822701Y56846330D01*
X18822702Y56846333D01*
X18822927Y56847313D01*
X18830237Y56868131D01*
X18835516Y56879076D01*
X18835527Y56891087D01*
X18835536Y56902150D01*
X18837327Y56902148D01*
X18837321Y56902210D01*
X18835550Y56902210D01*
X18835550Y56917963D01*
X18835596Y56970281D01*
X18835596Y56970574D01*
X18835553Y56970664D01*
X18835550Y56970690D01*
X18835550Y57133442D01*
X18851381Y57187144D01*
X18857918Y57197268D01*
X18862229Y57205584D01*
X18929330Y57372084D01*
X18968619Y57418989D01*
X19027974Y57433843D01*
X19084724Y57410972D01*
X19100375Y57394451D01*
X19157866Y57317741D01*
X19167744Y57307863D01*
X19272892Y57229059D01*
X19285145Y57222351D01*
X19408978Y57175928D01*
X19420967Y57173077D01*
X19474252Y57167289D01*
X19479586Y57167000D01*
X20005320Y57167000D01*
X20018005Y57171122D01*
X20021000Y57175243D01*
X20021000Y58830000D01*
X20039907Y58888191D01*
X20089407Y58924155D01*
X20120000Y58929000D01*
X20430000Y58929000D01*
X20488191Y58910093D01*
G37*
%TD.AperFunction*%
%TA.AperFunction,Conductor*%
G36*
X7080429Y59930593D02*
G01*
X7116393Y59881093D01*
X7118684Y59829632D01*
X7114484Y59820924D01*
X7114474Y59809779D01*
X7114474Y59809778D01*
X7114469Y59804120D01*
X7114464Y59797850D01*
X7112673Y59797852D01*
X7112679Y59797790D01*
X7114450Y59797790D01*
X7114450Y59782037D01*
X7114407Y59732329D01*
X7114404Y59729426D01*
X7114447Y59729336D01*
X7114450Y59729310D01*
X7114450Y59566558D01*
X7098619Y59512856D01*
X7092082Y59502732D01*
X7087771Y59494416D01*
X7010473Y59302616D01*
X7007813Y59293636D01*
X6967960Y59089559D01*
X6967104Y59082506D01*
X6967060Y59081601D01*
X6967000Y59079154D01*
X6967000Y58619680D01*
X6971122Y58606995D01*
X6975243Y58604000D01*
X7015450Y58604000D01*
X7073641Y58585093D01*
X7109605Y58535593D01*
X7114450Y58505000D01*
X7114450Y58195000D01*
X7095543Y58136809D01*
X7046043Y58100845D01*
X7015450Y58096000D01*
X6982680Y58096000D01*
X6969995Y58091878D01*
X6967000Y58087757D01*
X6967000Y57673340D01*
X6967225Y57668626D01*
X6981932Y57514475D01*
X6983708Y57505254D01*
X7041913Y57306849D01*
X7045396Y57298142D01*
X7103463Y57185397D01*
X7114450Y57140067D01*
X7114450Y56932037D01*
X7114404Y56879426D01*
X7119228Y56869379D01*
X7119229Y56869376D01*
X7119663Y56868473D01*
X7126937Y56847644D01*
X7129641Y56835793D01*
X7136588Y56827075D01*
X7137048Y56826498D01*
X7148864Y56807663D01*
X7154011Y56796944D01*
X7163503Y56789353D01*
X7179088Y56773741D01*
X7186663Y56764235D01*
X7197364Y56759074D01*
X7216186Y56747221D01*
X7225469Y56739797D01*
X7236330Y56737299D01*
X7236333Y56737298D01*
X7237313Y56737073D01*
X7258131Y56729763D01*
X7269076Y56724484D01*
X7280222Y56724474D01*
X7280223Y56724474D01*
X7292150Y56724464D01*
X7292148Y56722673D01*
X7292210Y56722679D01*
X7292210Y56724450D01*
X7307963Y56724450D01*
X7360281Y56724404D01*
X7360574Y56724404D01*
X7360664Y56724447D01*
X7360690Y56724450D01*
X7540344Y56724450D01*
X7589919Y56711143D01*
X7622132Y56692507D01*
X7630655Y56688605D01*
X7825993Y56620772D01*
X7831581Y56619410D01*
X7843627Y56621480D01*
X7844637Y56622517D01*
X7848586Y56639452D01*
X7850411Y56639026D01*
X7864907Y56683641D01*
X7914407Y56719605D01*
X7945000Y56724450D01*
X8255000Y56724450D01*
X8313191Y56705543D01*
X8349155Y56656043D01*
X8350603Y56646903D01*
X8357932Y56624344D01*
X8367333Y56623979D01*
X8465964Y56647750D01*
X8474836Y56650804D01*
X8617285Y56715572D01*
X8658261Y56724450D01*
X8717963Y56724450D01*
X8770574Y56724404D01*
X8780621Y56729228D01*
X8780624Y56729229D01*
X8781527Y56729663D01*
X8802356Y56736937D01*
X8814207Y56739641D01*
X8814893Y56740188D01*
X8868199Y56747396D01*
X8922072Y56718390D01*
X8948607Y56663258D01*
X8949500Y56649991D01*
X8949500Y55954941D01*
X8930593Y55896750D01*
X8881093Y55860786D01*
X8819907Y55860786D01*
X8785616Y55880167D01*
X8764489Y55898500D01*
X8756847Y55903951D01*
X8577868Y56007493D01*
X8569345Y56011395D01*
X8374007Y56079228D01*
X8368419Y56080590D01*
X8356373Y56078520D01*
X8355363Y56077483D01*
X8354000Y56071639D01*
X8354000Y55949550D01*
X8335093Y55891359D01*
X8285593Y55855395D01*
X8255000Y55850550D01*
X7945000Y55850550D01*
X7886809Y55869457D01*
X7850845Y55918957D01*
X7846000Y55949550D01*
X7846000Y56063554D01*
X7842068Y56075656D01*
X7832667Y56076021D01*
X7734036Y56052250D01*
X7725164Y56049196D01*
X7536934Y55963612D01*
X7528806Y55958939D01*
X7401737Y55868802D01*
X7344458Y55850550D01*
X7322037Y55850550D01*
X7269426Y55850596D01*
X7259379Y55845772D01*
X7259376Y55845771D01*
X7258473Y55845337D01*
X7237644Y55838063D01*
X7225793Y55835359D01*
X7217075Y55828412D01*
X7216498Y55827952D01*
X7197663Y55816136D01*
X7186944Y55810989D01*
X7179353Y55801497D01*
X7163741Y55785912D01*
X7154235Y55778337D01*
X7149391Y55768294D01*
X7149075Y55767638D01*
X7137221Y55748814D01*
X7129797Y55739531D01*
X7127299Y55728670D01*
X7127298Y55728667D01*
X7127073Y55727687D01*
X7119763Y55706869D01*
X7114484Y55695924D01*
X7114464Y55672850D01*
X7112673Y55672852D01*
X7112679Y55672790D01*
X7114450Y55672790D01*
X7114450Y55657037D01*
X7114404Y55604426D01*
X7114447Y55604336D01*
X7114450Y55604310D01*
X7114450Y55566558D01*
X7098619Y55512856D01*
X7092082Y55502732D01*
X7087771Y55494416D01*
X7010473Y55302616D01*
X7007813Y55293636D01*
X6967960Y55089559D01*
X6967104Y55082506D01*
X6967060Y55081601D01*
X6967000Y55079154D01*
X6967000Y54619680D01*
X6971122Y54606995D01*
X6975243Y54604000D01*
X7015450Y54604000D01*
X7073641Y54585093D01*
X7109605Y54535593D01*
X7114450Y54505000D01*
X7114450Y54195000D01*
X7095543Y54136809D01*
X7046043Y54100845D01*
X7015450Y54096000D01*
X6982680Y54096000D01*
X6969995Y54091878D01*
X6967000Y54087757D01*
X6967000Y53673340D01*
X6967225Y53668626D01*
X6981932Y53514475D01*
X6983708Y53505254D01*
X7041913Y53306849D01*
X7045396Y53298142D01*
X7103463Y53185397D01*
X7114450Y53140067D01*
X7114450Y53057037D01*
X7114404Y53004426D01*
X7119228Y52994379D01*
X7119229Y52994376D01*
X7119663Y52993473D01*
X7126937Y52972644D01*
X7129641Y52960793D01*
X7136588Y52952075D01*
X7137048Y52951498D01*
X7148864Y52932663D01*
X7154011Y52921944D01*
X7163503Y52914353D01*
X7179088Y52898741D01*
X7186663Y52889235D01*
X7197364Y52884074D01*
X7216186Y52872221D01*
X7225469Y52864797D01*
X7236330Y52862299D01*
X7236333Y52862298D01*
X7237313Y52862073D01*
X7258131Y52854763D01*
X7269076Y52849484D01*
X7280222Y52849474D01*
X7280223Y52849474D01*
X7292150Y52849464D01*
X7292148Y52847673D01*
X7292210Y52847679D01*
X7292210Y52849450D01*
X7307963Y52849450D01*
X7343411Y52849419D01*
X7401585Y52830461D01*
X7408209Y52825192D01*
X7435511Y52801500D01*
X7443153Y52796049D01*
X7622132Y52692507D01*
X7630655Y52688605D01*
X7790194Y52633203D01*
X7838963Y52596252D01*
X7856698Y52537694D01*
X7836627Y52479894D01*
X7815910Y52459590D01*
X7798066Y52446626D01*
X7784831Y52438515D01*
X7763333Y52427561D01*
X7740766Y52404994D01*
X6119516Y50783745D01*
X6119513Y50783741D01*
X6096950Y50761178D01*
X6085998Y50739682D01*
X6077884Y50726443D01*
X6063704Y50706926D01*
X6061296Y50699515D01*
X6056248Y50683979D01*
X6050305Y50669633D01*
X6039354Y50648140D01*
X6038136Y50640447D01*
X6038135Y50640445D01*
X6035581Y50624317D01*
X6031956Y50609216D01*
X6024500Y50586269D01*
X6024500Y48324460D01*
X6005593Y48266269D01*
X5956093Y48230305D01*
X5894907Y48230305D01*
X5855496Y48254456D01*
X4054496Y50055456D01*
X4026719Y50109973D01*
X4025500Y50125460D01*
X4025500Y51670500D01*
X4044407Y51728691D01*
X4093907Y51764655D01*
X4124500Y51769500D01*
X4328834Y51769500D01*
X4331135Y51769718D01*
X4331145Y51769718D01*
X4354361Y51771913D01*
X4354362Y51771913D01*
X4360369Y51772481D01*
X4488184Y51817366D01*
X4563887Y51873281D01*
X4591193Y51893450D01*
X4597150Y51897850D01*
X4616062Y51923455D01*
X4673238Y52000864D01*
X4673239Y52000865D01*
X4677634Y52006816D01*
X4722519Y52134631D01*
X4725500Y52166166D01*
X4725500Y53098834D01*
X4725248Y53101509D01*
X4723087Y53124361D01*
X4723087Y53124362D01*
X4722519Y53130369D01*
X4677634Y53258184D01*
X4668450Y53270619D01*
X4601550Y53361193D01*
X4597150Y53367150D01*
X4590381Y53372150D01*
X4494136Y53443238D01*
X4494135Y53443239D01*
X4488184Y53447634D01*
X4360369Y53492519D01*
X4354362Y53493087D01*
X4354361Y53493087D01*
X4331145Y53495282D01*
X4331135Y53495282D01*
X4328834Y53495500D01*
X2921166Y53495500D01*
X2918865Y53495282D01*
X2918855Y53495282D01*
X2895639Y53493087D01*
X2895638Y53493087D01*
X2889631Y53492519D01*
X2761816Y53447634D01*
X2755865Y53443239D01*
X2755864Y53443238D01*
X2659619Y53372150D01*
X2652850Y53367150D01*
X2648450Y53361193D01*
X2581551Y53270619D01*
X2572366Y53258184D01*
X2527481Y53130369D01*
X2526913Y53124362D01*
X2526913Y53124361D01*
X2524753Y53101509D01*
X2524500Y53098834D01*
X2524500Y52166166D01*
X2527481Y52134631D01*
X2572366Y52006816D01*
X2576761Y52000865D01*
X2576762Y52000864D01*
X2633938Y51923455D01*
X2652850Y51897850D01*
X2658807Y51893450D01*
X2686114Y51873281D01*
X2761816Y51817366D01*
X2889631Y51772481D01*
X2895638Y51771913D01*
X2895639Y51771913D01*
X2918855Y51769718D01*
X2918865Y51769718D01*
X2921166Y51769500D01*
X3125500Y51769500D01*
X3183691Y51750593D01*
X3219655Y51701093D01*
X3224500Y51670500D01*
X3224500Y49855126D01*
X3231955Y49832184D01*
X3235581Y49817078D01*
X3239354Y49793255D01*
X3250305Y49771762D01*
X3256248Y49757416D01*
X3263704Y49734469D01*
X3268285Y49728164D01*
X3277883Y49714954D01*
X3285998Y49701713D01*
X3296950Y49680217D01*
X3319513Y49657654D01*
X3319516Y49657650D01*
X4607662Y48369504D01*
X4635439Y48314987D01*
X4625868Y48254555D01*
X4582603Y48211290D01*
X4537658Y48200500D01*
X3571166Y48200500D01*
X3568865Y48200282D01*
X3568855Y48200282D01*
X3545639Y48198087D01*
X3545638Y48198087D01*
X3539631Y48197519D01*
X3411816Y48152634D01*
X3302850Y48072150D01*
X3298450Y48066193D01*
X3293221Y48060964D01*
X3291297Y48062888D01*
X3251486Y48034447D01*
X3190303Y48034936D01*
X3141092Y48071294D01*
X3124549Y48109529D01*
X3115770Y48153666D01*
X3115769Y48153668D01*
X3113867Y48163231D01*
X3069552Y48229552D01*
X3003231Y48273867D01*
X2993668Y48275769D01*
X2993666Y48275770D01*
X2970995Y48280279D01*
X2944748Y48285500D01*
X1224989Y48285500D01*
X1166798Y48304407D01*
X1130834Y48353907D01*
X1125989Y48384500D01*
X1125989Y51700500D01*
X1144896Y51758691D01*
X1194396Y51794655D01*
X1224989Y51799500D01*
X1903834Y51799500D01*
X1906135Y51799718D01*
X1906145Y51799718D01*
X1929361Y51801913D01*
X1929362Y51801913D01*
X1935369Y51802481D01*
X2063184Y51847366D01*
X2074323Y51855593D01*
X2166193Y51923450D01*
X2172150Y51927850D01*
X2235632Y52013797D01*
X2248238Y52030864D01*
X2248239Y52030865D01*
X2252634Y52036816D01*
X2297519Y52164631D01*
X2300500Y52196166D01*
X2300500Y53103834D01*
X2297519Y53135369D01*
X2252634Y53263184D01*
X2247143Y53270619D01*
X2176550Y53366193D01*
X2172150Y53372150D01*
X2075326Y53443666D01*
X2069136Y53448238D01*
X2069135Y53448239D01*
X2063184Y53452634D01*
X1935369Y53497519D01*
X1929362Y53498087D01*
X1929361Y53498087D01*
X1906145Y53500282D01*
X1906135Y53500282D01*
X1903834Y53500500D01*
X546166Y53500500D01*
X543865Y53500282D01*
X543855Y53500282D01*
X520639Y53498087D01*
X520638Y53498087D01*
X514631Y53497519D01*
X386816Y53452634D01*
X380865Y53448239D01*
X380864Y53448238D01*
X374674Y53443666D01*
X277850Y53372150D01*
X273450Y53366193D01*
X229133Y53306193D01*
X179352Y53270619D01*
X118168Y53271100D01*
X68953Y53307451D01*
X50500Y53365011D01*
X50500Y55034989D01*
X69407Y55093180D01*
X118907Y55129144D01*
X180093Y55129144D01*
X229133Y55093807D01*
X277850Y55027850D01*
X386816Y54947366D01*
X514631Y54902481D01*
X520638Y54901913D01*
X520639Y54901913D01*
X543855Y54899718D01*
X543865Y54899718D01*
X546166Y54899500D01*
X1903834Y54899500D01*
X1906135Y54899718D01*
X1906145Y54899718D01*
X1929361Y54901913D01*
X1929362Y54901913D01*
X1935369Y54902481D01*
X2063184Y54947366D01*
X2159605Y55018584D01*
X2217645Y55037948D01*
X2275983Y55019498D01*
X2302608Y54991046D01*
X2373891Y54875855D01*
X2380987Y54866902D01*
X2497939Y54750153D01*
X2506904Y54743073D01*
X2647580Y54656359D01*
X2657934Y54651531D01*
X2815110Y54599398D01*
X2825621Y54597145D01*
X2922112Y54587259D01*
X2927170Y54587000D01*
X3355320Y54587000D01*
X3368005Y54591122D01*
X3371000Y54595243D01*
X3371000Y54602681D01*
X3879000Y54602681D01*
X3883122Y54589996D01*
X3887243Y54587001D01*
X4322792Y54587001D01*
X4327922Y54587267D01*
X4425673Y54597409D01*
X4436200Y54599682D01*
X4593277Y54652086D01*
X4603624Y54656933D01*
X4744145Y54743891D01*
X4753098Y54750987D01*
X4869847Y54867939D01*
X4876927Y54876904D01*
X4963641Y55017580D01*
X4968469Y55027934D01*
X5020602Y55185110D01*
X5022855Y55195621D01*
X5032741Y55292112D01*
X5033000Y55297171D01*
X5033000Y55487820D01*
X5028878Y55500505D01*
X5024757Y55503500D01*
X3894680Y55503500D01*
X3881995Y55499378D01*
X3879000Y55495257D01*
X3879000Y54602681D01*
X3371000Y54602681D01*
X3371000Y56027180D01*
X3879000Y56027180D01*
X3883122Y56014495D01*
X3887243Y56011500D01*
X5017319Y56011500D01*
X5030004Y56015622D01*
X5032999Y56019743D01*
X5032999Y56217792D01*
X5032733Y56222922D01*
X5022591Y56320672D01*
X5020316Y56331205D01*
X4983057Y56442885D01*
X4982576Y56504068D01*
X4997748Y56533589D01*
X5045940Y56597891D01*
X5052649Y56610145D01*
X5099072Y56733978D01*
X5101923Y56745967D01*
X5107711Y56799252D01*
X5108000Y56804586D01*
X5108000Y57480320D01*
X5103878Y57493005D01*
X5099757Y57496000D01*
X3969680Y57496000D01*
X3956995Y57491878D01*
X3954000Y57487757D01*
X3954000Y56393202D01*
X3935093Y56335011D01*
X3885592Y56299047D01*
X3881994Y56297878D01*
X3879000Y56293757D01*
X3879000Y56027180D01*
X3371000Y56027180D01*
X3371000Y56876798D01*
X3389907Y56934989D01*
X3439408Y56970953D01*
X3443006Y56972122D01*
X3446000Y56976243D01*
X3446000Y58019680D01*
X3954000Y58019680D01*
X3958122Y58006995D01*
X3962243Y58004000D01*
X5092319Y58004000D01*
X5105004Y58008122D01*
X5107999Y58012243D01*
X5107999Y58695411D01*
X5107710Y58700751D01*
X5101922Y58754035D01*
X5099073Y58766020D01*
X5052649Y58889855D01*
X5045941Y58902108D01*
X4967137Y59007256D01*
X4957256Y59017137D01*
X4852108Y59095941D01*
X4839855Y59102649D01*
X4716022Y59149072D01*
X4704033Y59151923D01*
X4650748Y59157711D01*
X4645414Y59158000D01*
X3969680Y59158000D01*
X3956995Y59153878D01*
X3954000Y59149757D01*
X3954000Y58019680D01*
X3446000Y58019680D01*
X3446000Y59142319D01*
X3441878Y59155004D01*
X3437757Y59157999D01*
X2754589Y59157999D01*
X2749249Y59157710D01*
X2695965Y59151922D01*
X2683980Y59149073D01*
X2560145Y59102649D01*
X2547892Y59095941D01*
X2442744Y59017137D01*
X2432863Y59007256D01*
X2354059Y58902108D01*
X2347351Y58889855D01*
X2300928Y58766022D01*
X2298077Y58754033D01*
X2292289Y58700748D01*
X2292000Y58695414D01*
X2292000Y58367490D01*
X2273093Y58309299D01*
X2223593Y58273335D01*
X2162407Y58273335D01*
X2112907Y58309299D01*
X2106613Y58319723D01*
X2104360Y58323400D01*
X2102351Y58327473D01*
X1981335Y58489533D01*
X1832812Y58626826D01*
X1810125Y58641141D01*
X1665594Y58732333D01*
X1661757Y58734754D01*
X1473898Y58809702D01*
X1275526Y58849161D01*
X1175930Y58850465D01*
X1077826Y58851749D01*
X1077821Y58851749D01*
X1073286Y58851808D01*
X1068813Y58851039D01*
X1068808Y58851039D01*
X970245Y58834102D01*
X873949Y58817556D01*
X684193Y58747551D01*
X510371Y58644138D01*
X506956Y58641143D01*
X506953Y58641141D01*
X490630Y58626826D01*
X358305Y58510780D01*
X233089Y58351943D01*
X232015Y58349902D01*
X184979Y58311813D01*
X123877Y58308610D01*
X72563Y58341934D01*
X50500Y58404237D01*
X50500Y58989955D01*
X50542Y58989955D01*
X50533Y58990034D01*
X54661Y59000000D01*
X51226Y59008294D01*
X57640Y59081601D01*
X64170Y59156247D01*
X67166Y59173242D01*
X76568Y59208329D01*
X105523Y59316390D01*
X111421Y59332595D01*
X174048Y59466899D01*
X182676Y59481843D01*
X267671Y59603229D01*
X278763Y59616449D01*
X383551Y59721237D01*
X396771Y59732329D01*
X518157Y59817324D01*
X533101Y59825952D01*
X538713Y59828569D01*
X667405Y59888579D01*
X683610Y59894477D01*
X826757Y59932834D01*
X843753Y59935830D01*
X991706Y59948774D01*
X991867Y59946937D01*
X994936Y59947436D01*
X1000000Y59945339D01*
X1009862Y59949424D01*
X1021327Y59948522D01*
X1027498Y59949500D01*
X7022238Y59949500D01*
X7080429Y59930593D01*
G37*
%TD.AperFunction*%
%TD*%
M02*
