%TF.GenerationSoftware,KiCad,Pcbnew,6.0.4-6f826c9f35~116~ubuntu20.04.1*%
%TF.CreationDate,2022-04-09T15:47:30+02:00*%
%TF.ProjectId,Arduini_TPSE,41726475-696e-4695-9f54-5053452e6b69,rev?*%
%TF.SameCoordinates,Original*%
%TF.FileFunction,Copper,L1,Top*%
%TF.FilePolarity,Positive*%
%FSLAX46Y46*%
G04 Gerber Fmt 4.6, Leading zero omitted, Abs format (unit mm)*
G04 Created by KiCad (PCBNEW 6.0.4-6f826c9f35~116~ubuntu20.04.1) date 2022-04-09 15:47:30*
%MOMM*%
%LPD*%
G01*
G04 APERTURE LIST*
%TA.AperFunction,EtchedComponent*%
%ADD10C,0.000100*%
%TD*%
%TA.AperFunction,ComponentPad*%
%ADD11C,1.500000*%
%TD*%
%TA.AperFunction,ComponentPad*%
%ADD12R,1.600000X1.600000*%
%TD*%
%TA.AperFunction,ComponentPad*%
%ADD13O,1.600000X1.600000*%
%TD*%
%TA.AperFunction,ComponentPad*%
%ADD14R,1.800000X1.800000*%
%TD*%
%TA.AperFunction,ComponentPad*%
%ADD15C,1.800000*%
%TD*%
%TA.AperFunction,SMDPad,CuDef*%
%ADD16R,0.700000X1.000000*%
%TD*%
%TA.AperFunction,ComponentPad*%
%ADD17O,1.250000X2.500000*%
%TD*%
%TA.AperFunction,ComponentPad*%
%ADD18R,1.700000X1.700000*%
%TD*%
%TA.AperFunction,ComponentPad*%
%ADD19O,1.700000X1.700000*%
%TD*%
%TA.AperFunction,ComponentPad*%
%ADD20C,0.700000*%
%TD*%
%TA.AperFunction,Conductor*%
%ADD21C,0.400000*%
%TD*%
%TA.AperFunction,Conductor*%
%ADD22C,0.800000*%
%TD*%
%TA.AperFunction,Conductor*%
%ADD23C,0.750000*%
%TD*%
G04 APERTURE END LIST*
%TO.C,J1*%
G36*
X18635000Y53050000D02*
G01*
X17225000Y53050000D01*
X17225000Y55650000D01*
X18635000Y55650000D01*
X18635000Y53050000D01*
G37*
D10*
X18635000Y53050000D02*
X17225000Y53050000D01*
X17225000Y55650000D01*
X18635000Y55650000D01*
X18635000Y53050000D01*
G36*
X8725000Y56925000D02*
G01*
X7315000Y56925000D01*
X7315000Y59775000D01*
X8725000Y59775000D01*
X8725000Y56925000D01*
G37*
X8725000Y56925000D02*
X7315000Y56925000D01*
X7315000Y59775000D01*
X8725000Y59775000D01*
X8725000Y56925000D01*
G36*
X8725000Y53050000D02*
G01*
X7315000Y53050000D01*
X7315000Y55650000D01*
X8725000Y55650000D01*
X8725000Y53050000D01*
G37*
X8725000Y53050000D02*
X7315000Y53050000D01*
X7315000Y55650000D01*
X8725000Y55650000D01*
X8725000Y53050000D01*
G36*
X18635000Y56925000D02*
G01*
X17225000Y56925000D01*
X17225000Y59775000D01*
X18635000Y59775000D01*
X18635000Y56925000D01*
G37*
X18635000Y56925000D02*
X17225000Y56925000D01*
X17225000Y59775000D01*
X18635000Y59775000D01*
X18635000Y56925000D01*
%TD*%
D11*
%TO.P,Y1,1,1*%
%TO.N,Net-(C5-Pad1)*%
X6200000Y12137500D03*
%TO.P,Y1,2,2*%
%TO.N,Net-(C4-Pad1)*%
X6200000Y17017500D03*
%TD*%
D12*
%TO.P,U4,1,~{RESET}/PC6*%
%TO.N,/Reset*%
X9200000Y36330000D03*
D13*
%TO.P,U4,2,PD0*%
%TO.N,/0(Rx)*%
X9200000Y33790000D03*
%TO.P,U4,3,PD1*%
%TO.N,/1(Tx)*%
X9200000Y31250000D03*
%TO.P,U4,4,PD2*%
%TO.N,/2*%
X9200000Y28710000D03*
%TO.P,U4,5,PD3*%
%TO.N,/3(\u002A\u002A)*%
X9200000Y26170000D03*
%TO.P,U4,6,PD4*%
%TO.N,/4*%
X9200000Y23630000D03*
%TO.P,U4,7,VCC*%
%TO.N,+5V*%
X9200000Y21090000D03*
%TO.P,U4,8,GND*%
%TO.N,GND*%
X9200000Y18550000D03*
%TO.P,U4,9,XTAL1/PB6*%
%TO.N,Net-(C4-Pad1)*%
X9200000Y16010000D03*
%TO.P,U4,10,XTAL2/PB7*%
%TO.N,Net-(C5-Pad1)*%
X9200000Y13470000D03*
%TO.P,U4,11,PD5*%
%TO.N,/5(\u002A\u002A)*%
X9200000Y10930000D03*
%TO.P,U4,12,PD6*%
%TO.N,/6(\u002A\u002A)*%
X9200000Y8390000D03*
%TO.P,U4,13,PD7*%
%TO.N,/7*%
X9200000Y5850000D03*
%TO.P,U4,14,PB0*%
%TO.N,/8*%
X9200000Y3310000D03*
%TO.P,U4,15,PB1*%
%TO.N,/9(\u002A\u002A)*%
X16820000Y3310000D03*
%TO.P,U4,16,PB2*%
%TO.N,/10(\u002A\u002A{slash}SS)*%
X16820000Y5850000D03*
%TO.P,U4,17,PB3*%
%TO.N,/11(\u002A\u002A{slash}MOSI)*%
X16820000Y8390000D03*
%TO.P,U4,18,PB4*%
%TO.N,/12(MISO)*%
X16820000Y10930000D03*
%TO.P,U4,19,PB5*%
%TO.N,/13(SCK)*%
X16820000Y13470000D03*
%TO.P,U4,20,AVCC*%
%TO.N,+5VA*%
X16820000Y16010000D03*
%TO.P,U4,21,AREF*%
%TO.N,/AREF*%
X16820000Y18550000D03*
%TO.P,U4,22,GND*%
%TO.N,GND*%
X16820000Y21090000D03*
%TO.P,U4,23,PC0*%
%TO.N,/A0*%
X16820000Y23630000D03*
%TO.P,U4,24,PC1*%
%TO.N,/A1*%
X16820000Y26170000D03*
%TO.P,U4,25,PC2*%
%TO.N,/A2*%
X16820000Y28710000D03*
%TO.P,U4,26,PC3*%
%TO.N,/A3*%
X16820000Y31250000D03*
%TO.P,U4,27,PC4*%
%TO.N,/A4*%
X16820000Y33790000D03*
%TO.P,U4,28,PC5*%
%TO.N,/A5*%
X16820000Y36330000D03*
%TD*%
D14*
%TO.P,D4,1,K*%
%TO.N,GND*%
X3700000Y57750000D03*
D15*
%TO.P,D4,2,A*%
%TO.N,Net-(D4-Pad2)*%
X1160000Y57750000D03*
%TD*%
D14*
%TO.P,D3,1,K*%
%TO.N,Net-(D3-Pad1)*%
X2025000Y39735000D03*
D15*
%TO.P,D3,2,A*%
%TO.N,+5V*%
X2025000Y42275000D03*
%TD*%
D14*
%TO.P,D2,1,K*%
%TO.N,Net-(D2-Pad1)*%
X2025000Y47185000D03*
D15*
%TO.P,D2,2,A*%
%TO.N,+5V*%
X2025000Y44645000D03*
%TD*%
D16*
%TO.P,SW1,1,1*%
%TO.N,GND*%
X20100000Y40080000D03*
X20100000Y46080000D03*
%TO.P,SW1,2,2*%
%TO.N,/Reset*%
X23800000Y46080000D03*
X23800000Y40080000D03*
%TD*%
D17*
%TO.P,J1,S1,SHIELD*%
%TO.N,GND*%
X8100000Y54350000D03*
%TO.P,J1,S2,SHIELD*%
X8100000Y58350000D03*
%TO.P,J1,S3,SHIELD*%
X17850000Y58350000D03*
%TO.P,J1,S4,SHIELD*%
X17850000Y54350000D03*
%TD*%
D18*
%TO.P,P1,1,Pin_1*%
%TO.N,/1(Tx)*%
X2300000Y37240000D03*
D19*
%TO.P,P1,2,Pin_2*%
%TO.N,/0(Rx)*%
X2300000Y34700000D03*
%TO.P,P1,3,Pin_3*%
%TO.N,/Reset*%
X2300000Y32160000D03*
%TO.P,P1,4,Pin_4*%
%TO.N,GND*%
X2300000Y29620000D03*
%TO.P,P1,5,Pin_5*%
%TO.N,/2*%
X2300000Y27080000D03*
%TO.P,P1,6,Pin_6*%
%TO.N,/3(\u002A\u002A)*%
X2300000Y24540000D03*
%TO.P,P1,7,Pin_7*%
%TO.N,/4*%
X2300000Y22000000D03*
%TO.P,P1,8,Pin_8*%
%TO.N,/5(\u002A\u002A)*%
X2300000Y19460000D03*
%TO.P,P1,9,Pin_9*%
%TO.N,/6(\u002A\u002A)*%
X2300000Y16920000D03*
%TO.P,P1,10,Pin_10*%
%TO.N,/7*%
X2300000Y14380000D03*
%TO.P,P1,11,Pin_11*%
%TO.N,/8*%
X2300000Y11840000D03*
%TO.P,P1,12,Pin_12*%
%TO.N,/9(\u002A\u002A)*%
X2300000Y9300000D03*
%TO.P,P1,13,Pin_13*%
%TO.N,/10(\u002A\u002A{slash}SS)*%
X2300000Y6760000D03*
%TO.P,P1,14,Pin_14*%
%TO.N,/11(\u002A\u002A{slash}MOSI)*%
X2300000Y4220000D03*
%TO.P,P1,15,Pin_15*%
%TO.N,/12(MISO)*%
X2300000Y1680000D03*
%TD*%
D20*
%TO.P,J2,2,Pin_2*%
%TO.N,+5V*%
X11735000Y7230000D03*
%TO.P,J2,4,Pin_4*%
%TO.N,/11(\u002A\u002A{slash}MOSI)*%
X11735000Y4690000D03*
%TO.P,J2,6,Pin_6*%
%TO.N,GND*%
X11735000Y2150000D03*
%TD*%
D18*
%TO.P,P2,1,Pin_1*%
%TO.N,/Vin*%
X23850000Y37240000D03*
D19*
%TO.P,P2,2,Pin_2*%
%TO.N,GND*%
X23850000Y34700000D03*
%TO.P,P2,3,Pin_3*%
%TO.N,/Reset*%
X23850000Y32160000D03*
%TO.P,P2,4,Pin_4*%
%TO.N,+5V*%
X23850000Y29620000D03*
%TO.P,P2,5,Pin_5*%
%TO.N,GND*%
X23850000Y27080000D03*
%TO.P,P2,6,Pin_6*%
%TO.N,+3V3*%
X23850000Y24540000D03*
%TO.P,P2,7,Pin_7*%
%TO.N,/A5*%
X23850000Y22000000D03*
%TO.P,P2,8,Pin_8*%
%TO.N,/A4*%
X23850000Y19460000D03*
%TO.P,P2,9,Pin_9*%
%TO.N,/A3*%
X23850000Y16920000D03*
%TO.P,P2,10,Pin_10*%
%TO.N,/A2*%
X23850000Y14380000D03*
%TO.P,P2,11,Pin_11*%
%TO.N,/A1*%
X23850000Y11840000D03*
%TO.P,P2,12,Pin_12*%
%TO.N,/A0*%
X23850000Y9300000D03*
%TO.P,P2,13,Pin_13*%
%TO.N,/AREF*%
X23850000Y6760000D03*
%TO.P,P2,14,Pin_14*%
%TO.N,+3V3*%
X23850000Y4220000D03*
%TO.P,P2,15,Pin_15*%
%TO.N,/13(SCK)*%
X23850000Y1680000D03*
%TD*%
D21*
%TO.N,/0(Rx)*%
X2300000Y34700000D02*
X8290000Y34700000D01*
X8290000Y34700000D02*
X9200000Y33790000D01*
%TO.N,/Reset*%
X4324022Y39775978D02*
X4324022Y43700978D01*
X1782435Y35949511D02*
X1050489Y35217565D01*
X17850000Y38550000D02*
X5550000Y38550000D01*
X22425000Y33585000D02*
X22425000Y38705000D01*
X4324022Y43700978D02*
X3625000Y44400000D01*
X3625000Y48275000D02*
X3415489Y48484511D01*
X1050489Y33409511D02*
X2300000Y32160000D01*
X9200000Y36330000D02*
X8819511Y35949511D01*
X725489Y35542565D02*
X1050489Y35217565D01*
X22425000Y33975000D02*
X17850000Y38550000D01*
X22425000Y38705000D02*
X22425000Y33975000D01*
X23850000Y32160000D02*
X22425000Y33585000D01*
X22425000Y38705000D02*
X23800000Y40080000D01*
X1050489Y35217565D02*
X1050489Y33409511D01*
X23800000Y40080000D02*
X23800000Y46080000D01*
X834511Y48484511D02*
X725489Y48375489D01*
X5550000Y38550000D02*
X4324022Y39775978D01*
X3415489Y48484511D02*
X834511Y48484511D01*
X8819511Y35949511D02*
X1782435Y35949511D01*
X725489Y48375489D02*
X725489Y35542565D01*
X3625000Y44400000D02*
X3625000Y48275000D01*
%TO.N,GND*%
X7075000Y54350000D02*
X6875000Y54150000D01*
X19425000Y58350000D02*
X19475000Y58300000D01*
X4300000Y58350000D02*
X3700000Y57750000D01*
X8100000Y54350000D02*
X17850000Y54350000D01*
X19275000Y54350000D02*
X19300000Y54325000D01*
X8100000Y58350000D02*
X4300000Y58350000D01*
X17850000Y58350000D02*
X19425000Y58350000D01*
X17850000Y54350000D02*
X19275000Y54350000D01*
X8100000Y54350000D02*
X7075000Y54350000D01*
%TO.N,/2*%
X7570000Y27080000D02*
X9200000Y28710000D01*
X2300000Y27080000D02*
X7570000Y27080000D01*
%TO.N,/3(\u002A\u002A)*%
X7570000Y24540000D02*
X9200000Y26170000D01*
X2300000Y24540000D02*
X7570000Y24540000D01*
%TO.N,/4*%
X2300000Y22000000D02*
X7570000Y22000000D01*
X7570000Y22000000D02*
X9200000Y23630000D01*
%TO.N,/5(\u002A\u002A)*%
X3549511Y16580489D02*
X9200000Y10930000D01*
X3549511Y18210489D02*
X3549511Y16580489D01*
X2300000Y19460000D02*
X3549511Y18210489D01*
%TO.N,/6(\u002A\u002A)*%
X8068630Y8390000D02*
X9200000Y8390000D01*
X4149022Y12309608D02*
X8068630Y8390000D01*
X2300000Y16920000D02*
X4149022Y15070978D01*
X4149022Y15070978D02*
X4149022Y12309608D01*
%TO.N,/7*%
X3549511Y13130489D02*
X3549511Y11500489D01*
X2300000Y14380000D02*
X3549511Y13130489D01*
X3549511Y11500489D02*
X9200000Y5850000D01*
%TO.N,/8*%
X3549511Y8960489D02*
X9200000Y3310000D01*
X3549511Y10590489D02*
X3549511Y8960489D01*
X2300000Y11840000D02*
X3549511Y10590489D01*
%TO.N,/9(\u002A\u002A)*%
X16820000Y3310000D02*
X14910489Y1400489D01*
X14910489Y1400489D02*
X9413145Y1400489D01*
X9413145Y1400489D02*
X3549511Y7264123D01*
X3549511Y7264123D02*
X3549511Y8050489D01*
X3549511Y8050489D02*
X2300000Y9300000D01*
D22*
%TO.N,+5V*%
X3170000Y43420000D02*
X2025000Y42275000D01*
X4895489Y37729511D02*
X3524511Y39100489D01*
X22118831Y32760489D02*
X18219511Y36659809D01*
X3524511Y43145489D02*
X2025000Y44645000D01*
X11575000Y23465000D02*
X9200000Y21090000D01*
X18219511Y36659809D02*
X18219511Y36924809D01*
X17414809Y37729511D02*
X12550489Y37729511D01*
X10599511Y37729511D02*
X4895489Y37729511D01*
X11575000Y36754022D02*
X10599511Y37729511D01*
X18219511Y36924809D02*
X17414809Y37729511D01*
D23*
X9200000Y21090000D02*
X11735000Y18555000D01*
X11735000Y18555000D02*
X11735000Y7230000D01*
D22*
X3524511Y39100489D02*
X3524511Y43145489D01*
X12550489Y37729511D02*
X11575000Y36754022D01*
X22118831Y31351169D02*
X22118831Y32760489D01*
X11575000Y36754022D02*
X11575000Y23465000D01*
X23850000Y29620000D02*
X22118831Y31351169D01*
D21*
%TO.N,/A5*%
X22600489Y23249511D02*
X22600489Y27234187D01*
X21051467Y32098533D02*
X16820000Y36330000D01*
X23850000Y22000000D02*
X22600489Y23249511D01*
X21051467Y28783210D02*
X21051467Y32098533D01*
X22600489Y27234187D02*
X21051467Y28783210D01*
%TO.N,/A4*%
X22000978Y26985862D02*
X20451956Y28534886D01*
X23850000Y19460000D02*
X22000978Y21309022D01*
X20451956Y28534886D02*
X20451957Y30158043D01*
X20451957Y30158043D02*
X16820000Y33790000D01*
X22000978Y21309022D02*
X22000978Y26985862D01*
%TO.N,/A3*%
X23850000Y16920000D02*
X21365000Y19405000D01*
X21365000Y26705000D02*
X16820000Y31250000D01*
X21365000Y19405000D02*
X21365000Y26705000D01*
%TO.N,/A2*%
X19975000Y25555000D02*
X16820000Y28710000D01*
X19975000Y18255000D02*
X19975000Y25555000D01*
X23850000Y14380000D02*
X19975000Y18255000D01*
%TO.N,/A1*%
X19218532Y16471468D02*
X19218532Y23771468D01*
X23850000Y11840000D02*
X19218532Y16471468D01*
X19218532Y23771468D02*
X16820000Y26170000D01*
%TO.N,/A0*%
X18619022Y14530978D02*
X18619022Y21830978D01*
X18619022Y21830978D02*
X16820000Y23630000D01*
X23850000Y9300000D02*
X18619022Y14530978D01*
%TO.N,/AREF*%
X18019511Y17350489D02*
X16820000Y18550000D01*
X18019511Y12590489D02*
X18019511Y17350489D01*
X23850000Y6760000D02*
X18019511Y12590489D01*
%TO.N,/10(\u002A\u002A{slash}SS)*%
X18019511Y4650489D02*
X16820000Y5850000D01*
X2300000Y6760000D02*
X8280000Y780000D01*
X8280000Y780000D02*
X15986366Y780000D01*
X18019511Y2813145D02*
X18019511Y4650489D01*
X15986366Y780000D02*
X18019511Y2813145D01*
%TO.N,/11(\u002A\u002A{slash}MOSI)*%
X13120000Y4690000D02*
X16820000Y8390000D01*
X11735000Y4690000D02*
X13120000Y4690000D01*
%TD*%
%TA.AperFunction,Conductor*%
%TO.N,GND*%
G36*
X7080429Y59930593D02*
G01*
X7116393Y59881093D01*
X7118684Y59829632D01*
X7114484Y59820924D01*
X7114474Y59809779D01*
X7114474Y59809778D01*
X7114464Y59797852D01*
X7114464Y59797850D01*
X7112673Y59797852D01*
X7112679Y59797790D01*
X7114450Y59797790D01*
X7114450Y59782037D01*
X7114407Y59732329D01*
X7114404Y59729426D01*
X7114447Y59729336D01*
X7114450Y59729310D01*
X7114450Y59566558D01*
X7098619Y59512856D01*
X7092082Y59502732D01*
X7087771Y59494416D01*
X7010473Y59302616D01*
X7007813Y59293636D01*
X6967960Y59089559D01*
X6967104Y59082506D01*
X6967060Y59081601D01*
X6967000Y59079154D01*
X6967000Y58619680D01*
X6971122Y58606995D01*
X6975243Y58604000D01*
X7015450Y58604000D01*
X7073641Y58585093D01*
X7109605Y58535593D01*
X7114450Y58505000D01*
X7114450Y58195000D01*
X7095543Y58136809D01*
X7046043Y58100845D01*
X7015450Y58096000D01*
X6982680Y58096000D01*
X6969995Y58091878D01*
X6967000Y58087757D01*
X6967000Y57673340D01*
X6967225Y57668626D01*
X6981932Y57514475D01*
X6983708Y57505254D01*
X7041913Y57306849D01*
X7045396Y57298142D01*
X7103463Y57185397D01*
X7114450Y57140067D01*
X7114450Y56932037D01*
X7114404Y56879426D01*
X7119228Y56869379D01*
X7119229Y56869376D01*
X7119663Y56868473D01*
X7126937Y56847644D01*
X7129641Y56835793D01*
X7136588Y56827075D01*
X7137048Y56826498D01*
X7148864Y56807663D01*
X7154011Y56796944D01*
X7163503Y56789353D01*
X7179088Y56773741D01*
X7186663Y56764235D01*
X7197364Y56759074D01*
X7216186Y56747221D01*
X7225469Y56739797D01*
X7236330Y56737299D01*
X7236333Y56737298D01*
X7237313Y56737073D01*
X7258131Y56729763D01*
X7269076Y56724484D01*
X7280222Y56724474D01*
X7280223Y56724474D01*
X7292150Y56724464D01*
X7292148Y56722673D01*
X7292210Y56722679D01*
X7292210Y56724450D01*
X7307963Y56724450D01*
X7360281Y56724404D01*
X7360574Y56724404D01*
X7360664Y56724447D01*
X7360690Y56724450D01*
X7540344Y56724450D01*
X7589919Y56711143D01*
X7622132Y56692507D01*
X7630655Y56688605D01*
X7825993Y56620772D01*
X7831581Y56619410D01*
X7843627Y56621480D01*
X7844637Y56622517D01*
X7848586Y56639452D01*
X7850411Y56639026D01*
X7864907Y56683641D01*
X7914407Y56719605D01*
X7945000Y56724450D01*
X8255000Y56724450D01*
X8313191Y56705543D01*
X8349155Y56656043D01*
X8350603Y56646903D01*
X8357932Y56624344D01*
X8367333Y56623979D01*
X8465964Y56647750D01*
X8474836Y56650804D01*
X8617285Y56715572D01*
X8658261Y56724450D01*
X8717963Y56724450D01*
X8770574Y56724404D01*
X8780621Y56729228D01*
X8780624Y56729229D01*
X8781527Y56729663D01*
X8802356Y56736937D01*
X8814207Y56739641D01*
X8814893Y56740188D01*
X8868199Y56747396D01*
X8922072Y56718390D01*
X8948607Y56663258D01*
X8949500Y56649991D01*
X8949500Y55954941D01*
X8930593Y55896750D01*
X8881093Y55860786D01*
X8819907Y55860786D01*
X8785616Y55880167D01*
X8764489Y55898500D01*
X8756847Y55903951D01*
X8577868Y56007493D01*
X8569345Y56011395D01*
X8374007Y56079228D01*
X8368419Y56080590D01*
X8356373Y56078520D01*
X8355363Y56077483D01*
X8354000Y56071639D01*
X8354000Y55949550D01*
X8335093Y55891359D01*
X8285593Y55855395D01*
X8255000Y55850550D01*
X7945000Y55850550D01*
X7886809Y55869457D01*
X7850845Y55918957D01*
X7846000Y55949550D01*
X7846000Y56063554D01*
X7842068Y56075656D01*
X7832667Y56076021D01*
X7734036Y56052250D01*
X7725164Y56049196D01*
X7536934Y55963612D01*
X7528806Y55958939D01*
X7401737Y55868802D01*
X7344458Y55850550D01*
X7322037Y55850550D01*
X7269426Y55850596D01*
X7259379Y55845772D01*
X7259376Y55845771D01*
X7258473Y55845337D01*
X7237644Y55838063D01*
X7225793Y55835359D01*
X7217075Y55828412D01*
X7216498Y55827952D01*
X7197663Y55816136D01*
X7186944Y55810989D01*
X7179353Y55801497D01*
X7163741Y55785912D01*
X7154235Y55778337D01*
X7149391Y55768294D01*
X7149075Y55767638D01*
X7137221Y55748814D01*
X7129797Y55739531D01*
X7127299Y55728670D01*
X7127298Y55728667D01*
X7127073Y55727687D01*
X7119763Y55706869D01*
X7114484Y55695924D01*
X7114464Y55672850D01*
X7112673Y55672852D01*
X7112679Y55672790D01*
X7114450Y55672790D01*
X7114450Y55657037D01*
X7114404Y55604426D01*
X7114447Y55604336D01*
X7114450Y55604310D01*
X7114450Y55566558D01*
X7098619Y55512856D01*
X7092082Y55502732D01*
X7087771Y55494416D01*
X7010473Y55302616D01*
X7007813Y55293636D01*
X6967960Y55089559D01*
X6967104Y55082506D01*
X6967060Y55081601D01*
X6967000Y55079154D01*
X6967000Y54619680D01*
X6971122Y54606995D01*
X6975243Y54604000D01*
X7015450Y54604000D01*
X7073641Y54585093D01*
X7109605Y54535593D01*
X7114450Y54505000D01*
X7114450Y54195000D01*
X7095543Y54136809D01*
X7046043Y54100845D01*
X7015450Y54096000D01*
X6982680Y54096000D01*
X6969995Y54091878D01*
X6967000Y54087757D01*
X6967000Y53673340D01*
X6967225Y53668626D01*
X6981932Y53514475D01*
X6983708Y53505254D01*
X7041913Y53306849D01*
X7045396Y53298142D01*
X7103463Y53185397D01*
X7114450Y53140067D01*
X7114450Y53057037D01*
X7114404Y53004426D01*
X7119228Y52994379D01*
X7119229Y52994376D01*
X7119663Y52993473D01*
X7126937Y52972644D01*
X7129641Y52960793D01*
X7136588Y52952075D01*
X7137048Y52951498D01*
X7148864Y52932663D01*
X7154011Y52921944D01*
X7163503Y52914353D01*
X7179088Y52898741D01*
X7186663Y52889235D01*
X7197364Y52884074D01*
X7216186Y52872221D01*
X7225469Y52864797D01*
X7236330Y52862299D01*
X7236333Y52862298D01*
X7237313Y52862073D01*
X7258131Y52854763D01*
X7269076Y52849484D01*
X7280222Y52849474D01*
X7280223Y52849474D01*
X7292150Y52849464D01*
X7292148Y52847673D01*
X7292210Y52847679D01*
X7292210Y52849450D01*
X7307963Y52849450D01*
X7343411Y52849419D01*
X7401585Y52830461D01*
X7408209Y52825192D01*
X7435511Y52801500D01*
X7443153Y52796049D01*
X7622132Y52692507D01*
X7630655Y52688605D01*
X7825993Y52620772D01*
X7831581Y52619410D01*
X7843627Y52621480D01*
X7844637Y52622517D01*
X7846000Y52628361D01*
X7846000Y52750450D01*
X7864907Y52808641D01*
X7914407Y52844605D01*
X7945000Y52849450D01*
X8255000Y52849450D01*
X8313191Y52830543D01*
X8349155Y52781043D01*
X8354000Y52750450D01*
X8354000Y52636446D01*
X8357932Y52624344D01*
X8367333Y52623979D01*
X8465964Y52647750D01*
X8474836Y52650804D01*
X8663066Y52736388D01*
X8671199Y52741064D01*
X8839850Y52860697D01*
X8846950Y52866826D01*
X8989938Y53016192D01*
X8995752Y53023555D01*
X9107918Y53197268D01*
X9112229Y53205584D01*
X9189527Y53397384D01*
X9192187Y53406364D01*
X9232040Y53610441D01*
X9232896Y53617494D01*
X9232940Y53618399D01*
X9233000Y53620846D01*
X9233000Y54080320D01*
X9228878Y54093005D01*
X9224757Y54096000D01*
X9024550Y54096000D01*
X8966359Y54114907D01*
X8930395Y54164407D01*
X8925550Y54195000D01*
X8925550Y54505000D01*
X8944457Y54563191D01*
X8993957Y54599155D01*
X9024550Y54604000D01*
X9217320Y54604000D01*
X9230005Y54608122D01*
X9233000Y54612243D01*
X9233000Y54723525D01*
X9251907Y54781716D01*
X9301407Y54817680D01*
X9362593Y54817680D01*
X9378668Y54810835D01*
X9433146Y54781716D01*
X9472953Y54760439D01*
X9477607Y54759027D01*
X9477610Y54759026D01*
X9628617Y54713218D01*
X9628621Y54713217D01*
X9633273Y54711806D01*
X9799854Y54695399D01*
X9800000Y54695339D01*
X9809914Y54699446D01*
X9821622Y54698557D01*
X9827547Y54699500D01*
X16139955Y54699500D01*
X16139955Y54699459D01*
X16140032Y54699468D01*
X16150000Y54695339D01*
X16150146Y54695399D01*
X16170709Y54697424D01*
X16170710Y54697424D01*
X16311884Y54711329D01*
X16316727Y54711806D01*
X16321379Y54713217D01*
X16321383Y54713218D01*
X16472390Y54759026D01*
X16472393Y54759027D01*
X16477047Y54760439D01*
X16516854Y54781716D01*
X16571332Y54810835D01*
X16631565Y54821591D01*
X16686616Y54794889D01*
X16715458Y54740929D01*
X16717000Y54723525D01*
X16717000Y54619680D01*
X16721122Y54606995D01*
X16725243Y54604000D01*
X16925450Y54604000D01*
X16983641Y54585093D01*
X17019605Y54535593D01*
X17024450Y54505000D01*
X17024450Y54195000D01*
X17005543Y54136809D01*
X16956043Y54100845D01*
X16925450Y54096000D01*
X16732680Y54096000D01*
X16719995Y54091878D01*
X16717000Y54087757D01*
X16717000Y53673340D01*
X16717225Y53668626D01*
X16731932Y53514475D01*
X16733708Y53505254D01*
X16791913Y53306849D01*
X16795397Y53298137D01*
X16890074Y53114311D01*
X16895141Y53106418D01*
X17022868Y52943815D01*
X17029341Y52937017D01*
X17185511Y52801500D01*
X17193153Y52796049D01*
X17372132Y52692507D01*
X17380655Y52688605D01*
X17575993Y52620772D01*
X17581581Y52619410D01*
X17593627Y52621480D01*
X17594637Y52622517D01*
X17596000Y52628361D01*
X17596000Y52750450D01*
X17614907Y52808641D01*
X17664407Y52844605D01*
X17695000Y52849450D01*
X18005000Y52849450D01*
X18063191Y52830543D01*
X18099155Y52781043D01*
X18104000Y52750450D01*
X18104000Y52636446D01*
X18107932Y52624344D01*
X18117333Y52623979D01*
X18215964Y52647750D01*
X18224836Y52650804D01*
X18413066Y52736388D01*
X18421194Y52741061D01*
X18548263Y52831198D01*
X18605542Y52849450D01*
X18627963Y52849450D01*
X18680574Y52849404D01*
X18690621Y52854228D01*
X18690624Y52854229D01*
X18691527Y52854663D01*
X18712356Y52861937D01*
X18724207Y52864641D01*
X18733503Y52872049D01*
X18752337Y52883864D01*
X18763056Y52889011D01*
X18770647Y52898503D01*
X18786259Y52914088D01*
X18795765Y52921663D01*
X18800926Y52932364D01*
X18812779Y52951186D01*
X18820203Y52960469D01*
X18822701Y52971330D01*
X18822702Y52971333D01*
X18822927Y52972313D01*
X18830237Y52993131D01*
X18835516Y53004076D01*
X18835536Y53027150D01*
X18837327Y53027148D01*
X18837321Y53027210D01*
X18835550Y53027210D01*
X18835550Y53042963D01*
X18835596Y53095281D01*
X18835596Y53095574D01*
X18835553Y53095664D01*
X18835550Y53095690D01*
X18835550Y53133442D01*
X18851381Y53187144D01*
X18857918Y53197268D01*
X18862229Y53205584D01*
X18939527Y53397384D01*
X18942187Y53406364D01*
X18982040Y53610441D01*
X18982896Y53617494D01*
X18982940Y53618399D01*
X18983000Y53620846D01*
X18983000Y54080320D01*
X18978878Y54093005D01*
X18974757Y54096000D01*
X18934550Y54096000D01*
X18876359Y54114907D01*
X18840395Y54164407D01*
X18835550Y54195000D01*
X18835550Y54505000D01*
X18854457Y54563191D01*
X18903957Y54599155D01*
X18934550Y54604000D01*
X18967320Y54604000D01*
X18980005Y54608122D01*
X18983000Y54612243D01*
X18983000Y55026660D01*
X18982775Y55031374D01*
X18968068Y55185525D01*
X18966292Y55194746D01*
X18908087Y55393151D01*
X18904604Y55401858D01*
X18846537Y55514603D01*
X18835550Y55559933D01*
X18835550Y55642963D01*
X18835586Y55684426D01*
X18835596Y55695574D01*
X18830772Y55705621D01*
X18830771Y55705624D01*
X18830337Y55706527D01*
X18823063Y55727356D01*
X18820359Y55739207D01*
X18812951Y55748503D01*
X18801136Y55767337D01*
X18795989Y55778056D01*
X18786497Y55785647D01*
X18770912Y55801259D01*
X18763337Y55810765D01*
X18752636Y55815926D01*
X18733814Y55827779D01*
X18724531Y55835203D01*
X18713670Y55837701D01*
X18713667Y55837702D01*
X18712687Y55837927D01*
X18691869Y55845237D01*
X18680924Y55850516D01*
X18669778Y55850526D01*
X18669777Y55850526D01*
X18657850Y55850536D01*
X18657852Y55852327D01*
X18657790Y55852321D01*
X18657790Y55850550D01*
X18642037Y55850550D01*
X18606589Y55850581D01*
X18548415Y55869539D01*
X18541791Y55874808D01*
X18514489Y55898500D01*
X18506847Y55903951D01*
X18327868Y56007493D01*
X18319345Y56011395D01*
X18124007Y56079228D01*
X18118419Y56080590D01*
X18106373Y56078520D01*
X18105363Y56077483D01*
X18104000Y56071639D01*
X18104000Y55949550D01*
X18085093Y55891359D01*
X18035593Y55855395D01*
X18005000Y55850550D01*
X17695000Y55850550D01*
X17636809Y55869457D01*
X17600845Y55918957D01*
X17596000Y55949550D01*
X17596000Y56063554D01*
X17592068Y56075656D01*
X17582667Y56076021D01*
X17484036Y56052250D01*
X17475164Y56049196D01*
X17286934Y55963612D01*
X17278801Y55958936D01*
X17156778Y55872379D01*
X17098377Y55854133D01*
X17040404Y55873700D01*
X17005004Y55923604D01*
X17000500Y55953127D01*
X17000500Y56649978D01*
X17019407Y56708169D01*
X17068907Y56744133D01*
X17130047Y56744133D01*
X17135469Y56739797D01*
X17146334Y56737299D01*
X17146335Y56737298D01*
X17147313Y56737073D01*
X17168131Y56729763D01*
X17179076Y56724484D01*
X17190222Y56724474D01*
X17190223Y56724474D01*
X17202150Y56724464D01*
X17202148Y56722673D01*
X17202210Y56722679D01*
X17202210Y56724450D01*
X17217963Y56724450D01*
X17270281Y56724404D01*
X17270574Y56724404D01*
X17270664Y56724447D01*
X17270690Y56724450D01*
X17290344Y56724450D01*
X17339919Y56711143D01*
X17372132Y56692507D01*
X17380655Y56688605D01*
X17575993Y56620772D01*
X17581581Y56619410D01*
X17593627Y56621480D01*
X17594637Y56622517D01*
X17598586Y56639452D01*
X17600411Y56639026D01*
X17614907Y56683641D01*
X17664407Y56719605D01*
X17695000Y56724450D01*
X18005000Y56724450D01*
X18063191Y56705543D01*
X18099155Y56656043D01*
X18100603Y56646903D01*
X18107932Y56624344D01*
X18117333Y56623979D01*
X18215964Y56647750D01*
X18224836Y56650804D01*
X18367285Y56715572D01*
X18408261Y56724450D01*
X18627963Y56724450D01*
X18680574Y56724404D01*
X18690621Y56729228D01*
X18690624Y56729229D01*
X18691527Y56729663D01*
X18712356Y56736937D01*
X18724207Y56739641D01*
X18733503Y56747049D01*
X18752337Y56758864D01*
X18763056Y56764011D01*
X18770647Y56773503D01*
X18786259Y56789088D01*
X18795765Y56796663D01*
X18800926Y56807364D01*
X18812779Y56826186D01*
X18820203Y56835469D01*
X18822701Y56846330D01*
X18822702Y56846333D01*
X18822927Y56847313D01*
X18830237Y56868131D01*
X18835516Y56879076D01*
X18835527Y56891087D01*
X18835536Y56902150D01*
X18837327Y56902148D01*
X18837321Y56902210D01*
X18835550Y56902210D01*
X18835550Y56917963D01*
X18835596Y56970281D01*
X18835596Y56970574D01*
X18835553Y56970664D01*
X18835550Y56970690D01*
X18835550Y57133442D01*
X18851381Y57187144D01*
X18857918Y57197268D01*
X18862229Y57205584D01*
X18939527Y57397384D01*
X18942187Y57406364D01*
X18982040Y57610441D01*
X18982896Y57617494D01*
X18982940Y57618399D01*
X18983000Y57620846D01*
X18983000Y58080320D01*
X18978878Y58093005D01*
X18974757Y58096000D01*
X18934550Y58096000D01*
X18876359Y58114907D01*
X18840395Y58164407D01*
X18835550Y58195000D01*
X18835550Y58505000D01*
X18854457Y58563191D01*
X18903957Y58599155D01*
X18934550Y58604000D01*
X18967320Y58604000D01*
X18980005Y58608122D01*
X18983000Y58612243D01*
X18983000Y59026660D01*
X18982775Y59031374D01*
X18968068Y59185525D01*
X18966292Y59194746D01*
X18908087Y59393151D01*
X18904604Y59401858D01*
X18846537Y59514603D01*
X18835550Y59559933D01*
X18835550Y59767963D01*
X18835586Y59809428D01*
X18835596Y59820574D01*
X18831321Y59829478D01*
X18836785Y59889503D01*
X18877088Y59935538D01*
X18927778Y59949500D01*
X24989955Y59949500D01*
X24989955Y59949458D01*
X24990034Y59949467D01*
X25000000Y59945339D01*
X25008294Y59948774D01*
X25009845Y59948638D01*
X25009846Y59948638D01*
X25156247Y59935830D01*
X25173243Y59932834D01*
X25316390Y59894477D01*
X25332595Y59888579D01*
X25461287Y59828569D01*
X25466899Y59825952D01*
X25481843Y59817324D01*
X25603229Y59732329D01*
X25616449Y59721237D01*
X25721237Y59616449D01*
X25732329Y59603229D01*
X25817324Y59481843D01*
X25825952Y59466899D01*
X25888579Y59332595D01*
X25894477Y59316390D01*
X25923432Y59208329D01*
X25932834Y59173242D01*
X25935830Y59156247D01*
X25948774Y59008294D01*
X25946937Y59008133D01*
X25947436Y59005064D01*
X25945339Y59000000D01*
X25949424Y58990138D01*
X25948522Y58978673D01*
X25949500Y58972502D01*
X25949500Y1010045D01*
X25949458Y1010045D01*
X25949467Y1009966D01*
X25945339Y1000000D01*
X25948774Y991706D01*
X25948638Y990155D01*
X25948638Y990154D01*
X25935830Y843753D01*
X25932834Y826758D01*
X25894479Y683614D01*
X25888579Y667405D01*
X25829942Y541658D01*
X25825952Y533101D01*
X25817324Y518157D01*
X25732329Y396771D01*
X25721237Y383551D01*
X25616449Y278763D01*
X25603229Y267671D01*
X25481843Y182676D01*
X25466899Y174048D01*
X25332595Y111421D01*
X25316390Y105523D01*
X25246387Y86765D01*
X25173242Y67166D01*
X25156247Y64170D01*
X25008294Y51226D01*
X25008133Y53063D01*
X25005064Y52564D01*
X25000000Y54661D01*
X24990138Y50576D01*
X24978673Y51478D01*
X24972502Y50500D01*
X1010045Y50500D01*
X1010045Y50542D01*
X1009966Y50533D01*
X1000000Y54661D01*
X991706Y51226D01*
X990155Y51362D01*
X990154Y51362D01*
X843753Y64170D01*
X826758Y67166D01*
X753613Y86765D01*
X683610Y105523D01*
X667405Y111421D01*
X533101Y174048D01*
X518157Y182676D01*
X396771Y267671D01*
X383551Y278763D01*
X278763Y383551D01*
X267671Y396771D01*
X182676Y518157D01*
X174048Y533101D01*
X170058Y541658D01*
X111421Y667405D01*
X105521Y683614D01*
X67166Y826758D01*
X64170Y843753D01*
X51226Y991706D01*
X53063Y991867D01*
X52564Y994936D01*
X54661Y1000000D01*
X50576Y1009862D01*
X51478Y1021327D01*
X50500Y1027498D01*
X50500Y1694738D01*
X1244520Y1694738D01*
X1261759Y1489447D01*
X1318544Y1291414D01*
X1412712Y1108182D01*
X1540677Y946730D01*
X1544357Y943598D01*
X1544359Y943596D01*
X1657017Y847717D01*
X1697564Y813209D01*
X1701787Y810849D01*
X1701791Y810846D01*
X1741342Y788742D01*
X1877398Y712703D01*
X1881996Y711209D01*
X2068724Y650537D01*
X2068726Y650536D01*
X2073329Y649041D01*
X2277894Y624649D01*
X2282716Y625020D01*
X2282719Y625020D01*
X2350541Y630239D01*
X2483300Y640454D01*
X2681725Y695855D01*
X2686038Y698034D01*
X2686044Y698036D01*
X2861289Y786559D01*
X2861291Y786560D01*
X2865610Y788742D01*
X2924973Y835121D01*
X3024135Y912594D01*
X3024139Y912598D01*
X3027951Y915576D01*
X3162564Y1071528D01*
X3181231Y1104387D01*
X3261934Y1246450D01*
X3261935Y1246453D01*
X3264323Y1250656D01*
X3277882Y1291414D01*
X3327824Y1441546D01*
X3327824Y1441548D01*
X3329351Y1446137D01*
X3355171Y1650526D01*
X3355583Y1680000D01*
X3343422Y1804033D01*
X3335952Y1880220D01*
X3335951Y1880224D01*
X3335480Y1885030D01*
X3332922Y1893505D01*
X3277333Y2077620D01*
X3275935Y2082251D01*
X3179218Y2264151D01*
X3049011Y2423800D01*
X3009417Y2456555D01*
X2894002Y2552035D01*
X2894000Y2552036D01*
X2890275Y2555118D01*
X2709055Y2653103D01*
X2619261Y2680899D01*
X2516875Y2712593D01*
X2516871Y2712594D01*
X2512254Y2714023D01*
X2507446Y2714528D01*
X2507443Y2714529D01*
X2312185Y2735051D01*
X2312183Y2735051D01*
X2307369Y2735557D01*
X2247354Y2730095D01*
X2107022Y2717325D01*
X2107017Y2717324D01*
X2102203Y2716886D01*
X1904572Y2658720D01*
X1900288Y2656481D01*
X1900287Y2656480D01*
X1835772Y2622752D01*
X1722002Y2563274D01*
X1718231Y2560242D01*
X1565220Y2437219D01*
X1565217Y2437217D01*
X1561447Y2434185D01*
X1558333Y2430474D01*
X1558332Y2430473D01*
X1466670Y2321234D01*
X1429024Y2276370D01*
X1426689Y2272122D01*
X1426688Y2272121D01*
X1420142Y2260213D01*
X1329776Y2095838D01*
X1328313Y2091225D01*
X1328311Y2091221D01*
X1277861Y1932182D01*
X1267484Y1899468D01*
X1266944Y1894656D01*
X1266944Y1894655D01*
X1258559Y1819896D01*
X1244520Y1694738D01*
X50500Y1694738D01*
X50500Y4234738D01*
X1244520Y4234738D01*
X1244925Y4229918D01*
X1258877Y4063773D01*
X1261759Y4029447D01*
X1263092Y4024799D01*
X1263092Y4024798D01*
X1309753Y3862073D01*
X1318544Y3831414D01*
X1412712Y3648182D01*
X1540677Y3486730D01*
X1544357Y3483598D01*
X1544359Y3483596D01*
X1638248Y3403691D01*
X1697564Y3353209D01*
X1701787Y3350849D01*
X1701791Y3350846D01*
X1818702Y3285507D01*
X1877398Y3252703D01*
X1881996Y3251209D01*
X2068724Y3190537D01*
X2068726Y3190536D01*
X2073329Y3189041D01*
X2277894Y3164649D01*
X2282716Y3165020D01*
X2282719Y3165020D01*
X2350541Y3170239D01*
X2483300Y3180454D01*
X2681725Y3235855D01*
X2686038Y3238034D01*
X2686044Y3238036D01*
X2861289Y3326559D01*
X2861291Y3326560D01*
X2865610Y3328742D01*
X2961541Y3403691D01*
X3024135Y3452594D01*
X3024139Y3452598D01*
X3027951Y3455576D01*
X3162564Y3611528D01*
X3181231Y3644387D01*
X3261934Y3786450D01*
X3261935Y3786453D01*
X3264323Y3790656D01*
X3277882Y3831414D01*
X3327824Y3981546D01*
X3327824Y3981548D01*
X3329351Y3986137D01*
X3332953Y4014645D01*
X3354823Y4187772D01*
X3355171Y4190526D01*
X3355583Y4220000D01*
X3354233Y4233768D01*
X3335952Y4420220D01*
X3335951Y4420224D01*
X3335480Y4425030D01*
X3314082Y4495905D01*
X3277333Y4617620D01*
X3275935Y4622251D01*
X3179218Y4804151D01*
X3049011Y4963800D01*
X3014788Y4992112D01*
X2894002Y5092035D01*
X2894000Y5092036D01*
X2890275Y5095118D01*
X2709055Y5193103D01*
X2578757Y5233437D01*
X2516875Y5252593D01*
X2516871Y5252594D01*
X2512254Y5254023D01*
X2507446Y5254528D01*
X2507443Y5254529D01*
X2312185Y5275051D01*
X2312183Y5275051D01*
X2307369Y5275557D01*
X2247354Y5270095D01*
X2107022Y5257325D01*
X2107017Y5257324D01*
X2102203Y5256886D01*
X1904572Y5198720D01*
X1900288Y5196481D01*
X1900287Y5196480D01*
X1843722Y5166908D01*
X1722002Y5103274D01*
X1718231Y5100242D01*
X1565220Y4977219D01*
X1565217Y4977217D01*
X1561447Y4974185D01*
X1558333Y4970474D01*
X1558332Y4970473D01*
X1466670Y4861234D01*
X1429024Y4816370D01*
X1426689Y4812122D01*
X1426688Y4812121D01*
X1419955Y4799874D01*
X1329776Y4635838D01*
X1328313Y4631225D01*
X1328311Y4631221D01*
X1285854Y4497377D01*
X1267484Y4439468D01*
X1266944Y4434656D01*
X1266944Y4434655D01*
X1247489Y4261203D01*
X1244520Y4234738D01*
X50500Y4234738D01*
X50500Y6774738D01*
X1244520Y6774738D01*
X1261759Y6569447D01*
X1263092Y6564799D01*
X1263092Y6564798D01*
X1309753Y6402073D01*
X1318544Y6371414D01*
X1412712Y6188182D01*
X1540677Y6026730D01*
X1544357Y6023598D01*
X1544359Y6023596D01*
X1657017Y5927717D01*
X1697564Y5893209D01*
X1701787Y5890849D01*
X1701791Y5890846D01*
X1818702Y5825507D01*
X1877398Y5792703D01*
X1881996Y5791209D01*
X2068724Y5730537D01*
X2068726Y5730536D01*
X2073329Y5729041D01*
X2277894Y5704649D01*
X2282716Y5705020D01*
X2282719Y5705020D01*
X2350541Y5710239D01*
X2483300Y5720454D01*
X2654168Y5768161D01*
X2715300Y5765599D01*
X2750795Y5742812D01*
X5360272Y3133336D01*
X8041658Y451950D01*
X8063156Y440996D01*
X8076386Y432889D01*
X8095910Y418704D01*
X8103315Y416298D01*
X8103319Y416296D01*
X8118857Y411248D01*
X8133203Y405305D01*
X8154696Y394354D01*
X8162389Y393136D01*
X8162391Y393135D01*
X8178519Y390581D01*
X8193620Y386956D01*
X8216567Y379500D01*
X16049799Y379500D01*
X16072746Y386956D01*
X16087847Y390581D01*
X16103975Y393135D01*
X16103977Y393136D01*
X16111670Y394354D01*
X16133163Y405305D01*
X16147509Y411248D01*
X16163045Y416296D01*
X16170456Y418704D01*
X16189973Y432884D01*
X16203212Y440998D01*
X16224708Y451950D01*
X16247271Y474513D01*
X16247275Y474516D01*
X17467496Y1694738D01*
X22794520Y1694738D01*
X22811759Y1489447D01*
X22868544Y1291414D01*
X22962712Y1108182D01*
X23090677Y946730D01*
X23094357Y943598D01*
X23094359Y943596D01*
X23207017Y847717D01*
X23247564Y813209D01*
X23251787Y810849D01*
X23251791Y810846D01*
X23291342Y788742D01*
X23427398Y712703D01*
X23431996Y711209D01*
X23618724Y650537D01*
X23618726Y650536D01*
X23623329Y649041D01*
X23827894Y624649D01*
X23832716Y625020D01*
X23832719Y625020D01*
X23900541Y630239D01*
X24033300Y640454D01*
X24231725Y695855D01*
X24236038Y698034D01*
X24236044Y698036D01*
X24411289Y786559D01*
X24411291Y786560D01*
X24415610Y788742D01*
X24474973Y835121D01*
X24574135Y912594D01*
X24574139Y912598D01*
X24577951Y915576D01*
X24712564Y1071528D01*
X24731231Y1104387D01*
X24811934Y1246450D01*
X24811935Y1246453D01*
X24814323Y1250656D01*
X24827882Y1291414D01*
X24877824Y1441546D01*
X24877824Y1441548D01*
X24879351Y1446137D01*
X24905171Y1650526D01*
X24905583Y1680000D01*
X24893422Y1804033D01*
X24885952Y1880220D01*
X24885951Y1880224D01*
X24885480Y1885030D01*
X24882922Y1893505D01*
X24827333Y2077620D01*
X24825935Y2082251D01*
X24729218Y2264151D01*
X24599011Y2423800D01*
X24559417Y2456555D01*
X24444002Y2552035D01*
X24444000Y2552036D01*
X24440275Y2555118D01*
X24259055Y2653103D01*
X24169261Y2680899D01*
X24066875Y2712593D01*
X24066871Y2712594D01*
X24062254Y2714023D01*
X24057446Y2714528D01*
X24057443Y2714529D01*
X23862185Y2735051D01*
X23862183Y2735051D01*
X23857369Y2735557D01*
X23797354Y2730095D01*
X23657022Y2717325D01*
X23657017Y2717324D01*
X23652203Y2716886D01*
X23454572Y2658720D01*
X23450288Y2656481D01*
X23450287Y2656480D01*
X23385772Y2622752D01*
X23272002Y2563274D01*
X23268231Y2560242D01*
X23115220Y2437219D01*
X23115217Y2437217D01*
X23111447Y2434185D01*
X23108333Y2430474D01*
X23108332Y2430473D01*
X23016670Y2321234D01*
X22979024Y2276370D01*
X22976689Y2272122D01*
X22976688Y2272121D01*
X22970142Y2260213D01*
X22879776Y2095838D01*
X22878313Y2091225D01*
X22878311Y2091221D01*
X22827861Y1932182D01*
X22817484Y1899468D01*
X22816944Y1894656D01*
X22816944Y1894655D01*
X22808559Y1819896D01*
X22794520Y1694738D01*
X17467496Y1694738D01*
X18324994Y2552236D01*
X18347561Y2574803D01*
X18358515Y2596301D01*
X18366622Y2609531D01*
X18380807Y2629055D01*
X18388262Y2652001D01*
X18394207Y2666351D01*
X18405157Y2687841D01*
X18408931Y2711670D01*
X18412557Y2726772D01*
X18417603Y2742302D01*
X18417604Y2742305D01*
X18420010Y2749712D01*
X18420010Y2781620D01*
X18420011Y2781626D01*
X18420011Y4234738D01*
X22794520Y4234738D01*
X22794925Y4229918D01*
X22808877Y4063773D01*
X22811759Y4029447D01*
X22813092Y4024799D01*
X22813092Y4024798D01*
X22859753Y3862073D01*
X22868544Y3831414D01*
X22962712Y3648182D01*
X23090677Y3486730D01*
X23094357Y3483598D01*
X23094359Y3483596D01*
X23188248Y3403691D01*
X23247564Y3353209D01*
X23251787Y3350849D01*
X23251791Y3350846D01*
X23368702Y3285507D01*
X23427398Y3252703D01*
X23431996Y3251209D01*
X23618724Y3190537D01*
X23618726Y3190536D01*
X23623329Y3189041D01*
X23827894Y3164649D01*
X23832716Y3165020D01*
X23832719Y3165020D01*
X23900541Y3170239D01*
X24033300Y3180454D01*
X24231725Y3235855D01*
X24236038Y3238034D01*
X24236044Y3238036D01*
X24411289Y3326559D01*
X24411291Y3326560D01*
X24415610Y3328742D01*
X24511541Y3403691D01*
X24574135Y3452594D01*
X24574139Y3452598D01*
X24577951Y3455576D01*
X24712564Y3611528D01*
X24731231Y3644387D01*
X24811934Y3786450D01*
X24811935Y3786453D01*
X24814323Y3790656D01*
X24827882Y3831414D01*
X24877824Y3981546D01*
X24877824Y3981548D01*
X24879351Y3986137D01*
X24882953Y4014645D01*
X24904823Y4187772D01*
X24905171Y4190526D01*
X24905583Y4220000D01*
X24904233Y4233768D01*
X24885952Y4420220D01*
X24885951Y4420224D01*
X24885480Y4425030D01*
X24864082Y4495905D01*
X24827333Y4617620D01*
X24825935Y4622251D01*
X24729218Y4804151D01*
X24599011Y4963800D01*
X24564788Y4992112D01*
X24444002Y5092035D01*
X24444000Y5092036D01*
X24440275Y5095118D01*
X24259055Y5193103D01*
X24128757Y5233437D01*
X24066875Y5252593D01*
X24066871Y5252594D01*
X24062254Y5254023D01*
X24057446Y5254528D01*
X24057443Y5254529D01*
X23862185Y5275051D01*
X23862183Y5275051D01*
X23857369Y5275557D01*
X23797354Y5270095D01*
X23657022Y5257325D01*
X23657017Y5257324D01*
X23652203Y5256886D01*
X23454572Y5198720D01*
X23450288Y5196481D01*
X23450287Y5196480D01*
X23393722Y5166908D01*
X23272002Y5103274D01*
X23268231Y5100242D01*
X23115220Y4977219D01*
X23115217Y4977217D01*
X23111447Y4974185D01*
X23108333Y4970474D01*
X23108332Y4970473D01*
X23016670Y4861234D01*
X22979024Y4816370D01*
X22976689Y4812122D01*
X22976688Y4812121D01*
X22969955Y4799874D01*
X22879776Y4635838D01*
X22878313Y4631225D01*
X22878311Y4631221D01*
X22835854Y4497377D01*
X22817484Y4439468D01*
X22816944Y4434656D01*
X22816944Y4434655D01*
X22797489Y4261203D01*
X22794520Y4234738D01*
X18420011Y4234738D01*
X18420011Y4713922D01*
X18412555Y4736869D01*
X18408930Y4751970D01*
X18406376Y4768098D01*
X18406375Y4768100D01*
X18405157Y4775793D01*
X18394205Y4797288D01*
X18388262Y4811634D01*
X18383215Y4827169D01*
X18383213Y4827173D01*
X18380807Y4834578D01*
X18366624Y4854099D01*
X18358512Y4867338D01*
X18351097Y4881892D01*
X18351095Y4881894D01*
X18347561Y4888831D01*
X18324998Y4911394D01*
X18324995Y4911398D01*
X17795858Y5440535D01*
X17768081Y5495052D01*
X17771923Y5541788D01*
X17798831Y5622677D01*
X17798831Y5622679D01*
X17800358Y5627268D01*
X17824949Y5821929D01*
X17825341Y5850000D01*
X17824438Y5859217D01*
X17808012Y6026730D01*
X17806194Y6045272D01*
X17749484Y6233106D01*
X17685082Y6354228D01*
X17659643Y6402073D01*
X17659641Y6402077D01*
X17657370Y6406347D01*
X17533361Y6558398D01*
X17399287Y6669313D01*
X17385907Y6680382D01*
X17385906Y6680383D01*
X17382180Y6683465D01*
X17240632Y6760000D01*
X17213839Y6774487D01*
X17213838Y6774487D01*
X17209585Y6776787D01*
X17022152Y6834807D01*
X17017342Y6835313D01*
X17017340Y6835313D01*
X16831835Y6854811D01*
X16831833Y6854811D01*
X16827019Y6855317D01*
X16762891Y6849481D01*
X16636438Y6837973D01*
X16636435Y6837972D01*
X16631618Y6837534D01*
X16626976Y6836168D01*
X16626972Y6836167D01*
X16448040Y6783504D01*
X16448037Y6783503D01*
X16443393Y6782136D01*
X16269512Y6691233D01*
X16265743Y6688203D01*
X16265742Y6688202D01*
X16256016Y6680382D01*
X16116600Y6568289D01*
X16090186Y6536810D01*
X15993589Y6421690D01*
X15993586Y6421686D01*
X15990480Y6417984D01*
X15895956Y6246046D01*
X15894492Y6241432D01*
X15894491Y6241429D01*
X15877600Y6188182D01*
X15836628Y6059022D01*
X15836088Y6054210D01*
X15836088Y6054209D01*
X15829923Y5999241D01*
X15814757Y5864037D01*
X15831175Y5668517D01*
X15832508Y5663869D01*
X15832508Y5663868D01*
X15880916Y5495052D01*
X15885258Y5479909D01*
X15887473Y5475599D01*
X15972731Y5309704D01*
X15972734Y5309700D01*
X15974944Y5305399D01*
X16096818Y5151631D01*
X16100505Y5148493D01*
X16100507Y5148491D01*
X16242550Y5027603D01*
X16242555Y5027600D01*
X16246238Y5024465D01*
X16250460Y5022105D01*
X16250465Y5022102D01*
X16349266Y4966885D01*
X16417513Y4928743D01*
X16509840Y4898744D01*
X16599513Y4869607D01*
X16599516Y4869606D01*
X16604118Y4868111D01*
X16798946Y4844879D01*
X16803768Y4845250D01*
X16803771Y4845250D01*
X16989748Y4859560D01*
X16989753Y4859561D01*
X16994576Y4859932D01*
X17021817Y4867538D01*
X17133585Y4898744D01*
X17194717Y4896182D01*
X17230212Y4873395D01*
X17590015Y4513592D01*
X17617792Y4459075D01*
X17619011Y4443588D01*
X17619011Y4157928D01*
X17600104Y4099737D01*
X17550604Y4063773D01*
X17489418Y4063773D01*
X17456906Y4081647D01*
X17385907Y4140382D01*
X17385906Y4140383D01*
X17382180Y4143465D01*
X17240632Y4220000D01*
X17213839Y4234487D01*
X17213838Y4234487D01*
X17209585Y4236787D01*
X17022152Y4294807D01*
X17017342Y4295313D01*
X17017340Y4295313D01*
X16831835Y4314811D01*
X16831833Y4314811D01*
X16827019Y4315317D01*
X16762891Y4309481D01*
X16636438Y4297973D01*
X16636435Y4297972D01*
X16631618Y4297534D01*
X16626976Y4296168D01*
X16626972Y4296167D01*
X16448040Y4243504D01*
X16448037Y4243503D01*
X16443393Y4242136D01*
X16269512Y4151233D01*
X16265743Y4148203D01*
X16265742Y4148202D01*
X16256016Y4140382D01*
X16116600Y4028289D01*
X16090186Y3996810D01*
X15993589Y3881690D01*
X15993586Y3881686D01*
X15990480Y3877984D01*
X15895956Y3706046D01*
X15894492Y3701432D01*
X15894491Y3701429D01*
X15877600Y3648182D01*
X15836628Y3519022D01*
X15836088Y3514210D01*
X15836088Y3514209D01*
X15817442Y3347970D01*
X15814757Y3324037D01*
X15818060Y3284704D01*
X15827478Y3172549D01*
X15831175Y3128517D01*
X15866043Y3006921D01*
X15868796Y2997319D01*
X15866661Y2936171D01*
X15843635Y2900027D01*
X14903565Y1959958D01*
X14849050Y1932182D01*
X14788618Y1941753D01*
X14745353Y1985018D01*
X14735782Y2045450D01*
X14738713Y2058327D01*
X14743095Y2072981D01*
X14745117Y2079741D01*
X14745940Y2214511D01*
X14732975Y2259874D01*
X14710843Y2337315D01*
X14710842Y2337317D01*
X14708905Y2344095D01*
X14636988Y2458076D01*
X14535971Y2547291D01*
X14413975Y2604568D01*
X14311654Y2620500D01*
X14241218Y2620500D01*
X14237727Y2620000D01*
X14237726Y2620000D01*
X14237098Y2619910D01*
X14141588Y2606232D01*
X14135165Y2603312D01*
X14135166Y2603312D01*
X14034230Y2557419D01*
X14018902Y2550450D01*
X13916803Y2462475D01*
X13843499Y2349382D01*
X13841479Y2342627D01*
X13841477Y2342623D01*
X13816832Y2260213D01*
X13804883Y2220259D01*
X13804060Y2085489D01*
X13805997Y2078712D01*
X13805997Y2078711D01*
X13835412Y1975791D01*
X13841095Y1955905D01*
X13844858Y1949941D01*
X13847738Y1943503D01*
X13845648Y1942568D01*
X13858103Y1893505D01*
X13835426Y1836678D01*
X13783677Y1804033D01*
X13759316Y1800989D01*
X12660015Y1800989D01*
X12601824Y1819896D01*
X12565860Y1869396D01*
X12565860Y1930582D01*
X12577270Y1965697D01*
X12579416Y1975791D01*
X12597184Y2144843D01*
X12597184Y2155157D01*
X12579415Y2324212D01*
X12577270Y2334304D01*
X12524741Y2495971D01*
X12520545Y2505396D01*
X12502419Y2536789D01*
X12493275Y2545023D01*
X12484430Y2540220D01*
X11805004Y1860794D01*
X11750487Y1833017D01*
X11690055Y1842588D01*
X11664996Y1860794D01*
X10986507Y2539283D01*
X10975546Y2544868D01*
X10968244Y2537938D01*
X10949455Y2505396D01*
X10945259Y2495971D01*
X10892730Y2334304D01*
X10890585Y2324212D01*
X10872816Y2155157D01*
X10872816Y2144843D01*
X10890584Y1975791D01*
X10892730Y1965697D01*
X10904140Y1930582D01*
X10904140Y1869396D01*
X10868176Y1819896D01*
X10809985Y1800989D01*
X9620046Y1800989D01*
X9561855Y1819896D01*
X9550042Y1829985D01*
X9234763Y2145264D01*
X9206986Y2199781D01*
X9216557Y2260213D01*
X9259822Y2303478D01*
X9297172Y2313976D01*
X9369748Y2319560D01*
X9369753Y2319561D01*
X9374576Y2319932D01*
X9563556Y2372697D01*
X9567869Y2374876D01*
X9567875Y2374878D01*
X9734368Y2458980D01*
X9734370Y2458982D01*
X9738689Y2461163D01*
X9746260Y2467078D01*
X9889487Y2578978D01*
X9889491Y2578982D01*
X9893303Y2581960D01*
X9911734Y2603312D01*
X10018345Y2726823D01*
X10018347Y2726825D01*
X10021509Y2730489D01*
X10118425Y2901091D01*
X10120965Y2908724D01*
X10121364Y2909923D01*
X11340264Y2909923D01*
X11345715Y2898495D01*
X11723914Y2520296D01*
X11735797Y2514242D01*
X11740828Y2515038D01*
X12125226Y2899436D01*
X12129958Y2908724D01*
X12120772Y2917441D01*
X12006335Y2968392D01*
X11996526Y2971579D01*
X11830253Y3006921D01*
X11819990Y3008000D01*
X11650010Y3008000D01*
X11639747Y3006921D01*
X11473474Y2971579D01*
X11463665Y2968392D01*
X11348014Y2916900D01*
X11340264Y2909923D01*
X10121364Y2909923D01*
X10178831Y3082677D01*
X10178831Y3082679D01*
X10180358Y3087268D01*
X10204949Y3281929D01*
X10205341Y3310000D01*
X10204582Y3317748D01*
X10188012Y3486730D01*
X10186194Y3505272D01*
X10129484Y3693106D01*
X10058236Y3827104D01*
X10039643Y3862073D01*
X10039641Y3862077D01*
X10037370Y3866347D01*
X9913361Y4018398D01*
X9836906Y4081647D01*
X9765907Y4140382D01*
X9765906Y4140383D01*
X9762180Y4143465D01*
X9620632Y4220000D01*
X9593839Y4234487D01*
X9593838Y4234487D01*
X9589585Y4236787D01*
X9402152Y4294807D01*
X9397342Y4295313D01*
X9397340Y4295313D01*
X9211835Y4314811D01*
X9211833Y4314811D01*
X9207019Y4315317D01*
X9142891Y4309481D01*
X9016438Y4297973D01*
X9016435Y4297972D01*
X9011618Y4297534D01*
X9006976Y4296168D01*
X9006972Y4296167D01*
X8888177Y4261203D01*
X8827016Y4262911D01*
X8790221Y4286171D01*
X8386392Y4690000D01*
X11179750Y4690000D01*
X11182855Y4666419D01*
X11188551Y4623154D01*
X11198670Y4546291D01*
X11254139Y4412375D01*
X11342379Y4297379D01*
X11457375Y4209139D01*
X11591291Y4153670D01*
X11597720Y4152824D01*
X11597722Y4152823D01*
X11728567Y4135597D01*
X11735000Y4134750D01*
X11741433Y4135597D01*
X11872278Y4152823D01*
X11872280Y4152824D01*
X11878709Y4153670D01*
X12012625Y4209139D01*
X12017772Y4213089D01*
X12017778Y4213092D01*
X12090693Y4269042D01*
X12150960Y4289500D01*
X13183433Y4289500D01*
X13206380Y4296956D01*
X13221481Y4300581D01*
X13237609Y4303135D01*
X13237611Y4303136D01*
X13245304Y4304354D01*
X13266797Y4315305D01*
X13281143Y4321248D01*
X13296679Y4326296D01*
X13304090Y4328704D01*
X13323607Y4342884D01*
X13336846Y4350998D01*
X13358342Y4361950D01*
X13380905Y4384513D01*
X13380909Y4384516D01*
X13644605Y4648212D01*
X13699121Y4675990D01*
X13759553Y4666419D01*
X13802818Y4623154D01*
X13809797Y4605414D01*
X13836040Y4513592D01*
X13841095Y4495905D01*
X13913012Y4381924D01*
X14014029Y4292709D01*
X14136025Y4235432D01*
X14238346Y4219500D01*
X14308782Y4219500D01*
X14312273Y4220000D01*
X14312274Y4220000D01*
X14381528Y4229918D01*
X14408412Y4233768D01*
X14531098Y4289550D01*
X14633197Y4377525D01*
X14706501Y4490618D01*
X14708521Y4497373D01*
X14708523Y4497377D01*
X14743095Y4612980D01*
X14745117Y4619741D01*
X14745832Y4736864D01*
X14745897Y4747460D01*
X14745940Y4754511D01*
X14727199Y4820085D01*
X14710843Y4877315D01*
X14710842Y4877317D01*
X14708905Y4884095D01*
X14636988Y4998076D01*
X14535971Y5087291D01*
X14413975Y5144568D01*
X14370351Y5151361D01*
X14315762Y5178994D01*
X14287842Y5233437D01*
X14297255Y5293894D01*
X14315578Y5319185D01*
X16410558Y7414166D01*
X16465075Y7441943D01*
X16511155Y7438316D01*
X16599504Y7409609D01*
X16599515Y7409607D01*
X16604118Y7408111D01*
X16798946Y7384879D01*
X16803768Y7385250D01*
X16803771Y7385250D01*
X16989748Y7399560D01*
X16989753Y7399561D01*
X16994576Y7399932D01*
X17183556Y7452697D01*
X17187869Y7454876D01*
X17187875Y7454878D01*
X17354368Y7538980D01*
X17354370Y7538982D01*
X17358689Y7541163D01*
X17366260Y7547078D01*
X17509487Y7658978D01*
X17509491Y7658982D01*
X17513303Y7661960D01*
X17531734Y7683312D01*
X17638345Y7806823D01*
X17638347Y7806825D01*
X17641509Y7810489D01*
X17649521Y7824592D01*
X17736036Y7976885D01*
X17736037Y7976888D01*
X17738425Y7981091D01*
X17741223Y7989500D01*
X17798831Y8162677D01*
X17798831Y8162679D01*
X17800358Y8167268D01*
X17824949Y8361929D01*
X17825341Y8390000D01*
X17824438Y8399217D01*
X17808012Y8566730D01*
X17806194Y8585272D01*
X17749484Y8773106D01*
X17678236Y8907104D01*
X17659643Y8942073D01*
X17659641Y8942077D01*
X17657370Y8946347D01*
X17533361Y9098398D01*
X17464159Y9155646D01*
X17385907Y9220382D01*
X17385906Y9220383D01*
X17382180Y9223465D01*
X17209585Y9316787D01*
X17022152Y9374807D01*
X17017342Y9375313D01*
X17017340Y9375313D01*
X16831835Y9394811D01*
X16831833Y9394811D01*
X16827019Y9395317D01*
X16762891Y9389481D01*
X16636438Y9377973D01*
X16636435Y9377972D01*
X16631618Y9377534D01*
X16626976Y9376168D01*
X16626972Y9376167D01*
X16448040Y9323504D01*
X16448037Y9323503D01*
X16443393Y9322136D01*
X16269512Y9231233D01*
X16265743Y9228203D01*
X16265742Y9228202D01*
X16256016Y9220382D01*
X16116600Y9108289D01*
X16090186Y9076810D01*
X15993589Y8961690D01*
X15993586Y8961686D01*
X15990480Y8957984D01*
X15895956Y8786046D01*
X15894492Y8781432D01*
X15894491Y8781429D01*
X15877600Y8728182D01*
X15836628Y8599022D01*
X15836088Y8594210D01*
X15836088Y8594209D01*
X15829923Y8539241D01*
X15814757Y8404037D01*
X15831175Y8208517D01*
X15832508Y8203869D01*
X15832508Y8203868D01*
X15868796Y8077319D01*
X15866661Y8016171D01*
X15843635Y7980027D01*
X14903566Y7039959D01*
X14849049Y7012182D01*
X14788617Y7021753D01*
X14745352Y7065018D01*
X14735781Y7125450D01*
X14738710Y7138316D01*
X14745117Y7159741D01*
X14745940Y7294511D01*
X14708905Y7424095D01*
X14636988Y7538076D01*
X14535971Y7627291D01*
X14413975Y7684568D01*
X14311654Y7700500D01*
X14241218Y7700500D01*
X14237727Y7700000D01*
X14237726Y7700000D01*
X14237098Y7699910D01*
X14141588Y7686232D01*
X14135165Y7683312D01*
X14135166Y7683312D01*
X14034230Y7637419D01*
X14018902Y7630450D01*
X13916803Y7542475D01*
X13843499Y7429382D01*
X13841479Y7422627D01*
X13841477Y7422623D01*
X13816730Y7339874D01*
X13804883Y7300259D01*
X13804060Y7165489D01*
X13805997Y7158712D01*
X13805997Y7158711D01*
X13832775Y7065018D01*
X13841095Y7035905D01*
X13913012Y6921924D01*
X14014029Y6832709D01*
X14136025Y6775432D01*
X14238346Y6759500D01*
X14308782Y6759500D01*
X14312270Y6759999D01*
X14312277Y6760000D01*
X14381476Y6769910D01*
X14441759Y6759443D01*
X14484377Y6715541D01*
X14493051Y6654974D01*
X14465515Y6601907D01*
X13722824Y5859217D01*
X12983103Y5119496D01*
X12928586Y5091719D01*
X12913099Y5090500D01*
X12150960Y5090500D01*
X12090693Y5110958D01*
X12017778Y5166908D01*
X12017772Y5166911D01*
X12012625Y5170861D01*
X11878709Y5226330D01*
X11872280Y5227176D01*
X11872278Y5227177D01*
X11741433Y5244403D01*
X11735000Y5245250D01*
X11728567Y5244403D01*
X11597722Y5227177D01*
X11597720Y5227176D01*
X11591291Y5226330D01*
X11457375Y5170861D01*
X11342379Y5082621D01*
X11254139Y4967625D01*
X11198670Y4833709D01*
X11197824Y4827280D01*
X11197823Y4827278D01*
X11189000Y4760259D01*
X11179750Y4690000D01*
X8386392Y4690000D01*
X6390627Y6685766D01*
X3979007Y9097386D01*
X3951230Y9151903D01*
X3950011Y9167390D01*
X3950011Y10294588D01*
X3968918Y10352779D01*
X4018418Y10388743D01*
X4079604Y10388743D01*
X4119015Y10364592D01*
X8224147Y6259461D01*
X8251924Y6204944D01*
X8248509Y6159522D01*
X8216628Y6059022D01*
X8216088Y6054210D01*
X8216088Y6054209D01*
X8209923Y5999241D01*
X8194757Y5864037D01*
X8211175Y5668517D01*
X8212508Y5663869D01*
X8212508Y5663868D01*
X8260916Y5495052D01*
X8265258Y5479909D01*
X8267473Y5475599D01*
X8352731Y5309704D01*
X8352734Y5309700D01*
X8354944Y5305399D01*
X8476818Y5151631D01*
X8480505Y5148493D01*
X8480507Y5148491D01*
X8622550Y5027603D01*
X8622555Y5027600D01*
X8626238Y5024465D01*
X8630460Y5022105D01*
X8630465Y5022102D01*
X8729266Y4966885D01*
X8797513Y4928743D01*
X8889840Y4898744D01*
X8979513Y4869607D01*
X8979516Y4869606D01*
X8984118Y4868111D01*
X9178946Y4844879D01*
X9183768Y4845250D01*
X9183771Y4845250D01*
X9369748Y4859560D01*
X9369753Y4859561D01*
X9374576Y4859932D01*
X9563556Y4912697D01*
X9567869Y4914876D01*
X9567875Y4914878D01*
X9734368Y4998980D01*
X9734370Y4998982D01*
X9738689Y5001163D01*
X9765490Y5022102D01*
X9889487Y5118978D01*
X9889491Y5118982D01*
X9893303Y5121960D01*
X9913755Y5145653D01*
X10018345Y5266823D01*
X10018347Y5266825D01*
X10021509Y5270489D01*
X10034805Y5293894D01*
X10116036Y5436885D01*
X10116037Y5436888D01*
X10118425Y5441091D01*
X10129905Y5475599D01*
X10178831Y5622677D01*
X10178831Y5622679D01*
X10180358Y5627268D01*
X10204949Y5821929D01*
X10205341Y5850000D01*
X10204438Y5859217D01*
X10188012Y6026730D01*
X10186194Y6045272D01*
X10129484Y6233106D01*
X10065082Y6354228D01*
X10039643Y6402073D01*
X10039641Y6402077D01*
X10037370Y6406347D01*
X9913361Y6558398D01*
X9779287Y6669313D01*
X9765907Y6680382D01*
X9765906Y6680383D01*
X9762180Y6683465D01*
X9620632Y6760000D01*
X9593839Y6774487D01*
X9593838Y6774487D01*
X9589585Y6776787D01*
X9402152Y6834807D01*
X9397342Y6835313D01*
X9397340Y6835313D01*
X9211835Y6854811D01*
X9211833Y6854811D01*
X9207019Y6855317D01*
X9142891Y6849481D01*
X9016438Y6837973D01*
X9016435Y6837972D01*
X9011618Y6837534D01*
X9006976Y6836168D01*
X9006972Y6836167D01*
X8888177Y6801203D01*
X8827016Y6802911D01*
X8790221Y6826171D01*
X7705527Y7910865D01*
X7677750Y7965382D01*
X7687321Y8025814D01*
X7730586Y8069079D01*
X7791018Y8078650D01*
X7829545Y8062693D01*
X7830288Y8061950D01*
X7837232Y8058412D01*
X7851781Y8050999D01*
X7865020Y8042887D01*
X7884541Y8028704D01*
X7891946Y8026298D01*
X7891950Y8026296D01*
X7907485Y8021249D01*
X7921831Y8015306D01*
X7943326Y8004354D01*
X7951019Y8003136D01*
X7951021Y8003135D01*
X7967149Y8000581D01*
X7982250Y7996956D01*
X8005197Y7989500D01*
X8220456Y7989500D01*
X8278647Y7970593D01*
X8308508Y7935753D01*
X8354944Y7845399D01*
X8476818Y7691631D01*
X8480505Y7688493D01*
X8480507Y7688491D01*
X8622550Y7567603D01*
X8622555Y7567600D01*
X8626238Y7564465D01*
X8630460Y7562105D01*
X8630465Y7562102D01*
X8729266Y7506885D01*
X8797513Y7468743D01*
X8891157Y7438316D01*
X8979513Y7409607D01*
X8979516Y7409606D01*
X8984118Y7408111D01*
X9178946Y7384879D01*
X9183768Y7385250D01*
X9183771Y7385250D01*
X9369748Y7399560D01*
X9369753Y7399561D01*
X9374576Y7399932D01*
X9563556Y7452697D01*
X9567869Y7454876D01*
X9567875Y7454878D01*
X9734368Y7538980D01*
X9734370Y7538982D01*
X9738689Y7541163D01*
X9746260Y7547078D01*
X9889487Y7658978D01*
X9889491Y7658982D01*
X9893303Y7661960D01*
X9911734Y7683312D01*
X10018345Y7806823D01*
X10018347Y7806825D01*
X10021509Y7810489D01*
X10029521Y7824592D01*
X10116036Y7976885D01*
X10116037Y7976888D01*
X10118425Y7981091D01*
X10121223Y7989500D01*
X10178831Y8162677D01*
X10178831Y8162679D01*
X10180358Y8167268D01*
X10204949Y8361929D01*
X10205341Y8390000D01*
X10204438Y8399217D01*
X10188012Y8566730D01*
X10186194Y8585272D01*
X10129484Y8773106D01*
X10058236Y8907104D01*
X10039643Y8942073D01*
X10039641Y8942077D01*
X10037370Y8946347D01*
X9913361Y9098398D01*
X9844159Y9155646D01*
X9765907Y9220382D01*
X9765906Y9220383D01*
X9762180Y9223465D01*
X9589585Y9316787D01*
X9402152Y9374807D01*
X9397342Y9375313D01*
X9397340Y9375313D01*
X9211835Y9394811D01*
X9211833Y9394811D01*
X9207019Y9395317D01*
X9142891Y9389481D01*
X9016438Y9377973D01*
X9016435Y9377972D01*
X9011618Y9377534D01*
X9006976Y9376168D01*
X9006972Y9376167D01*
X8828040Y9323504D01*
X8828037Y9323503D01*
X8823393Y9322136D01*
X8649512Y9231233D01*
X8645743Y9228203D01*
X8645742Y9228202D01*
X8636016Y9220382D01*
X8496600Y9108289D01*
X8470186Y9076810D01*
X8373589Y8961690D01*
X8373586Y8961686D01*
X8370480Y8957984D01*
X8368148Y8953742D01*
X8326360Y8877731D01*
X8281758Y8835847D01*
X8221055Y8828179D01*
X8169602Y8855421D01*
X5998868Y11026155D01*
X5971091Y11080672D01*
X5980662Y11141104D01*
X6023927Y11184369D01*
X6080594Y11194463D01*
X6124323Y11189249D01*
X6179998Y11182610D01*
X6184820Y11182981D01*
X6184823Y11182981D01*
X6361023Y11196539D01*
X6361028Y11196540D01*
X6365851Y11196911D01*
X6545387Y11247038D01*
X6549700Y11249217D01*
X6549706Y11249219D01*
X6707447Y11328900D01*
X6707449Y11328902D01*
X6711768Y11331083D01*
X6858655Y11445844D01*
X6980454Y11586950D01*
X7072526Y11749026D01*
X7077330Y11763465D01*
X7129837Y11921308D01*
X7129837Y11921310D01*
X7131364Y11925899D01*
X7132499Y11934878D01*
X7146999Y12049658D01*
X7154727Y12110832D01*
X7155099Y12137500D01*
X7152619Y12162796D01*
X7165757Y12222551D01*
X7211511Y12263174D01*
X7272405Y12269145D01*
X7321150Y12242458D01*
X8224147Y11339461D01*
X8251924Y11284944D01*
X8248509Y11239522D01*
X8216628Y11139022D01*
X8216088Y11134210D01*
X8216088Y11134209D01*
X8209923Y11079241D01*
X8194757Y10944037D01*
X8211175Y10748517D01*
X8212508Y10743869D01*
X8212508Y10743868D01*
X8224320Y10702677D01*
X8265258Y10559909D01*
X8267473Y10555599D01*
X8352731Y10389704D01*
X8352734Y10389700D01*
X8354944Y10385399D01*
X8476818Y10231631D01*
X8480505Y10228493D01*
X8480507Y10228491D01*
X8622550Y10107603D01*
X8622555Y10107600D01*
X8626238Y10104465D01*
X8630460Y10102105D01*
X8630465Y10102102D01*
X8729266Y10046885D01*
X8797513Y10008743D01*
X8898549Y9975914D01*
X8979513Y9949607D01*
X8979516Y9949606D01*
X8984118Y9948111D01*
X9178946Y9924879D01*
X9183768Y9925250D01*
X9183771Y9925250D01*
X9369748Y9939560D01*
X9369753Y9939561D01*
X9374576Y9939932D01*
X9563556Y9992697D01*
X9567869Y9994876D01*
X9567875Y9994878D01*
X9734368Y10078980D01*
X9734370Y10078982D01*
X9738689Y10081163D01*
X9742506Y10084145D01*
X9889487Y10198978D01*
X9889491Y10198982D01*
X9893303Y10201960D01*
X9918915Y10231631D01*
X10018345Y10346823D01*
X10018347Y10346825D01*
X10021509Y10350489D01*
X10029521Y10364592D01*
X10116036Y10516885D01*
X10116037Y10516888D01*
X10118425Y10521091D01*
X10129905Y10555599D01*
X10178831Y10702677D01*
X10178831Y10702679D01*
X10180358Y10707268D01*
X10204949Y10901929D01*
X10205341Y10930000D01*
X10204438Y10939217D01*
X10188012Y11106730D01*
X10186194Y11125272D01*
X10129484Y11313106D01*
X10056960Y11449504D01*
X10039643Y11482073D01*
X10039641Y11482077D01*
X10037370Y11486347D01*
X9913361Y11638398D01*
X9762180Y11763465D01*
X9589585Y11856787D01*
X9402152Y11914807D01*
X9397342Y11915313D01*
X9397340Y11915313D01*
X9211835Y11934811D01*
X9211833Y11934811D01*
X9207019Y11935317D01*
X9156309Y11930702D01*
X9016438Y11917973D01*
X9016435Y11917972D01*
X9011618Y11917534D01*
X9006976Y11916168D01*
X9006972Y11916167D01*
X8888177Y11881203D01*
X8827016Y11882911D01*
X8790221Y11906171D01*
X7212356Y13484037D01*
X8194757Y13484037D01*
X8211175Y13288517D01*
X8212508Y13283869D01*
X8212508Y13283868D01*
X8252540Y13144263D01*
X8265258Y13099909D01*
X8267473Y13095599D01*
X8352731Y12929704D01*
X8352734Y12929700D01*
X8354944Y12925399D01*
X8476818Y12771631D01*
X8480505Y12768493D01*
X8480507Y12768491D01*
X8622550Y12647603D01*
X8622555Y12647600D01*
X8626238Y12644465D01*
X8630460Y12642105D01*
X8630465Y12642102D01*
X8729266Y12586885D01*
X8797513Y12548743D01*
X8887058Y12519648D01*
X8979513Y12489607D01*
X8979516Y12489606D01*
X8984118Y12488111D01*
X9178946Y12464879D01*
X9183768Y12465250D01*
X9183771Y12465250D01*
X9369748Y12479560D01*
X9369753Y12479561D01*
X9374576Y12479932D01*
X9563556Y12532697D01*
X9567869Y12534876D01*
X9567875Y12534878D01*
X9734368Y12618980D01*
X9734370Y12618982D01*
X9738689Y12621163D01*
X9742506Y12624145D01*
X9889487Y12738978D01*
X9889491Y12738982D01*
X9893303Y12741960D01*
X9918915Y12771631D01*
X10018345Y12886823D01*
X10018347Y12886825D01*
X10021509Y12890489D01*
X10024388Y12895557D01*
X10116036Y13056885D01*
X10116037Y13056888D01*
X10118425Y13061091D01*
X10128292Y13090750D01*
X10178831Y13242677D01*
X10178831Y13242679D01*
X10180358Y13247268D01*
X10204949Y13441929D01*
X10205341Y13470000D01*
X10204438Y13479217D01*
X10188012Y13646730D01*
X10186194Y13665272D01*
X10129484Y13853106D01*
X10060536Y13982779D01*
X10039643Y14022073D01*
X10039641Y14022077D01*
X10037370Y14026347D01*
X9913361Y14178398D01*
X9836906Y14241647D01*
X9765907Y14300382D01*
X9765906Y14300383D01*
X9762180Y14303465D01*
X9589585Y14396787D01*
X9402152Y14454807D01*
X9397342Y14455313D01*
X9397340Y14455313D01*
X9211835Y14474811D01*
X9211833Y14474811D01*
X9207019Y14475317D01*
X9142891Y14469481D01*
X9016438Y14457973D01*
X9016435Y14457972D01*
X9011618Y14457534D01*
X9006976Y14456168D01*
X9006972Y14456167D01*
X8828040Y14403504D01*
X8828037Y14403503D01*
X8823393Y14402136D01*
X8649512Y14311233D01*
X8645743Y14308203D01*
X8645742Y14308202D01*
X8636016Y14300382D01*
X8496600Y14188289D01*
X8475880Y14163596D01*
X8373589Y14041690D01*
X8373586Y14041686D01*
X8370480Y14037984D01*
X8275956Y13866046D01*
X8274492Y13861432D01*
X8274491Y13861429D01*
X8257600Y13808182D01*
X8216628Y13679022D01*
X8216088Y13674210D01*
X8216088Y13674209D01*
X8196309Y13497870D01*
X8194757Y13484037D01*
X7212356Y13484037D01*
X6390627Y14305766D01*
X4672356Y16024037D01*
X8194757Y16024037D01*
X8211175Y15828517D01*
X8212508Y15823869D01*
X8212508Y15823868D01*
X8224320Y15782677D01*
X8265258Y15639909D01*
X8267473Y15635599D01*
X8352731Y15469704D01*
X8352734Y15469700D01*
X8354944Y15465399D01*
X8476818Y15311631D01*
X8480505Y15308493D01*
X8480507Y15308491D01*
X8622550Y15187603D01*
X8622555Y15187600D01*
X8626238Y15184465D01*
X8630460Y15182105D01*
X8630465Y15182102D01*
X8729266Y15126885D01*
X8797513Y15088743D01*
X8898549Y15055914D01*
X8979513Y15029607D01*
X8979516Y15029606D01*
X8984118Y15028111D01*
X9178946Y15004879D01*
X9183768Y15005250D01*
X9183771Y15005250D01*
X9369748Y15019560D01*
X9369753Y15019561D01*
X9374576Y15019932D01*
X9563556Y15072697D01*
X9567869Y15074876D01*
X9567875Y15074878D01*
X9734368Y15158980D01*
X9734370Y15158982D01*
X9738689Y15161163D01*
X9765490Y15182102D01*
X9889487Y15278978D01*
X9889491Y15278982D01*
X9893303Y15281960D01*
X9918915Y15311631D01*
X10018345Y15426823D01*
X10018347Y15426825D01*
X10021509Y15430489D01*
X10024388Y15435557D01*
X10116036Y15596885D01*
X10116037Y15596888D01*
X10118425Y15601091D01*
X10129905Y15635599D01*
X10178831Y15782677D01*
X10178831Y15782679D01*
X10180358Y15787268D01*
X10204949Y15981929D01*
X10205341Y16010000D01*
X10204438Y16019217D01*
X10188012Y16186730D01*
X10186194Y16205272D01*
X10129484Y16393106D01*
X10058236Y16527104D01*
X10039643Y16562073D01*
X10039641Y16562077D01*
X10037370Y16566347D01*
X9958639Y16662882D01*
X9916422Y16714645D01*
X9916421Y16714646D01*
X9913361Y16718398D01*
X9836906Y16781647D01*
X9765907Y16840382D01*
X9765906Y16840383D01*
X9762180Y16843465D01*
X9589585Y16936787D01*
X9402152Y16994807D01*
X9397342Y16995313D01*
X9397340Y16995313D01*
X9211835Y17014811D01*
X9211833Y17014811D01*
X9207019Y17015317D01*
X9142891Y17009481D01*
X9016438Y16997973D01*
X9016435Y16997972D01*
X9011618Y16997534D01*
X9006976Y16996168D01*
X9006972Y16996167D01*
X8828040Y16943504D01*
X8828037Y16943503D01*
X8823393Y16942136D01*
X8649512Y16851233D01*
X8645743Y16848203D01*
X8645742Y16848202D01*
X8636084Y16840437D01*
X8496600Y16728289D01*
X8470186Y16696810D01*
X8373589Y16581690D01*
X8373586Y16581686D01*
X8370480Y16577984D01*
X8275956Y16406046D01*
X8274492Y16401432D01*
X8274491Y16401429D01*
X8258460Y16350892D01*
X8216628Y16219022D01*
X8216088Y16214210D01*
X8216088Y16214209D01*
X8199084Y16062610D01*
X8194757Y16024037D01*
X4672356Y16024037D01*
X3979007Y16717386D01*
X3951230Y16771903D01*
X3950011Y16787390D01*
X3950011Y17030835D01*
X5244994Y17030835D01*
X5248120Y16993606D01*
X5260076Y16851233D01*
X5260592Y16845086D01*
X5261925Y16840438D01*
X5261925Y16840437D01*
X5306170Y16686137D01*
X5311971Y16665905D01*
X5314186Y16661595D01*
X5381090Y16531414D01*
X5397176Y16500115D01*
X5512959Y16354032D01*
X5516646Y16350894D01*
X5516648Y16350892D01*
X5651224Y16236359D01*
X5651229Y16236356D01*
X5654912Y16233221D01*
X5659134Y16230861D01*
X5659139Y16230858D01*
X5731322Y16190517D01*
X5817627Y16142283D01*
X5822225Y16140789D01*
X5990302Y16086177D01*
X5990304Y16086176D01*
X5994907Y16084681D01*
X6179998Y16062610D01*
X6184820Y16062981D01*
X6184823Y16062981D01*
X6361023Y16076539D01*
X6361028Y16076540D01*
X6365851Y16076911D01*
X6545387Y16127038D01*
X6549700Y16129217D01*
X6549706Y16129219D01*
X6707447Y16208900D01*
X6707449Y16208902D01*
X6711768Y16211083D01*
X6858655Y16325844D01*
X6980454Y16466950D01*
X7043530Y16577984D01*
X7070137Y16624820D01*
X7070138Y16624823D01*
X7072526Y16629026D01*
X7083361Y16661595D01*
X7129837Y16801308D01*
X7129837Y16801310D01*
X7131364Y16805899D01*
X7136401Y16845766D01*
X7146127Y16922756D01*
X7154727Y16990832D01*
X7154783Y16994807D01*
X7155060Y17014729D01*
X7155099Y17017500D01*
X7136909Y17203013D01*
X7083033Y17381460D01*
X6995522Y17546044D01*
X6877710Y17690495D01*
X6873981Y17693580D01*
X6737812Y17806230D01*
X6737810Y17806231D01*
X6734085Y17809313D01*
X6583373Y17890803D01*
X6574370Y17895671D01*
X6574369Y17895671D01*
X6570116Y17897971D01*
X6392049Y17953091D01*
X6387239Y17953597D01*
X6387237Y17953597D01*
X6211484Y17972070D01*
X6211482Y17972070D01*
X6206668Y17972576D01*
X6144673Y17966934D01*
X6025852Y17956121D01*
X6025848Y17956120D01*
X6021032Y17955682D01*
X6016390Y17954316D01*
X6016386Y17954315D01*
X5846861Y17904420D01*
X5846858Y17904419D01*
X5842214Y17903052D01*
X5677023Y17816693D01*
X5673247Y17813657D01*
X5673244Y17813655D01*
X5559376Y17722102D01*
X5531752Y17699892D01*
X5528644Y17696188D01*
X5415044Y17560805D01*
X5415041Y17560801D01*
X5411935Y17557099D01*
X5322135Y17393754D01*
X5320672Y17389141D01*
X5320670Y17389137D01*
X5297079Y17314768D01*
X5265772Y17216076D01*
X5265232Y17211264D01*
X5265232Y17211263D01*
X5255560Y17125030D01*
X5244994Y17030835D01*
X3950011Y17030835D01*
X3950011Y18242008D01*
X3950010Y18242014D01*
X3950010Y18273922D01*
X3947604Y18281329D01*
X3947603Y18281332D01*
X3947342Y18282136D01*
X7917633Y18282136D01*
X7965069Y18105102D01*
X7968015Y18097009D01*
X8061082Y17897427D01*
X8065394Y17889957D01*
X8191708Y17709563D01*
X8197241Y17702968D01*
X8352968Y17547241D01*
X8359563Y17541708D01*
X8539957Y17415394D01*
X8547427Y17411082D01*
X8747009Y17318015D01*
X8755102Y17315069D01*
X8930855Y17267976D01*
X8943141Y17268620D01*
X8946000Y17278273D01*
X8946000Y17279598D01*
X9454000Y17279598D01*
X9457802Y17267896D01*
X9467864Y17267633D01*
X9644898Y17315069D01*
X9652991Y17318015D01*
X9852573Y17411082D01*
X9860043Y17415394D01*
X10040437Y17541708D01*
X10047032Y17547241D01*
X10202759Y17702968D01*
X10208292Y17709563D01*
X10334606Y17889957D01*
X10338918Y17897427D01*
X10431985Y18097009D01*
X10434931Y18105102D01*
X10482024Y18280855D01*
X10481380Y18293141D01*
X10471727Y18296000D01*
X9469680Y18296000D01*
X9456995Y18291878D01*
X9454000Y18287757D01*
X9454000Y17279598D01*
X8946000Y17279598D01*
X8946000Y18280320D01*
X8941878Y18293005D01*
X8937757Y18296000D01*
X7929598Y18296000D01*
X7917896Y18292198D01*
X7917633Y18282136D01*
X3947342Y18282136D01*
X3942557Y18296862D01*
X3938931Y18311965D01*
X3936376Y18328097D01*
X3935157Y18335793D01*
X3924206Y18357285D01*
X3918262Y18371634D01*
X3913215Y18387168D01*
X3913215Y18387169D01*
X3910807Y18394579D01*
X3896622Y18414103D01*
X3888515Y18427333D01*
X3877561Y18448831D01*
X3507247Y18819145D01*
X7917976Y18819145D01*
X7918620Y18806859D01*
X7928273Y18804000D01*
X8930320Y18804000D01*
X8943005Y18808122D01*
X8946000Y18812243D01*
X8946000Y19820402D01*
X8942198Y19832104D01*
X8932136Y19832367D01*
X8755102Y19784931D01*
X8747009Y19781985D01*
X8547427Y19688918D01*
X8539957Y19684606D01*
X8359563Y19558292D01*
X8352968Y19552759D01*
X8197241Y19397032D01*
X8191708Y19390437D01*
X8065394Y19210043D01*
X8061082Y19202573D01*
X7968015Y19002991D01*
X7965069Y18994898D01*
X7917976Y18819145D01*
X3507247Y18819145D01*
X3315399Y19010993D01*
X3287622Y19065510D01*
X3291464Y19112245D01*
X3329351Y19226137D01*
X3332953Y19254645D01*
X3354823Y19427772D01*
X3355171Y19430526D01*
X3355583Y19460000D01*
X3353413Y19482136D01*
X3335952Y19660220D01*
X3335951Y19660224D01*
X3335480Y19665030D01*
X3275935Y19862251D01*
X3179218Y20044151D01*
X3049011Y20203800D01*
X2890275Y20335118D01*
X2778123Y20395758D01*
X2713309Y20430803D01*
X2713308Y20430803D01*
X2709055Y20433103D01*
X2644190Y20453182D01*
X2516875Y20492593D01*
X2516871Y20492594D01*
X2512254Y20494023D01*
X2507446Y20494528D01*
X2507443Y20494529D01*
X2312185Y20515051D01*
X2312183Y20515051D01*
X2307369Y20515557D01*
X2247354Y20510095D01*
X2107022Y20497325D01*
X2107017Y20497324D01*
X2102203Y20496886D01*
X1904572Y20438720D01*
X1900288Y20436481D01*
X1900287Y20436480D01*
X1893474Y20432918D01*
X1722002Y20343274D01*
X1718231Y20340242D01*
X1565220Y20217219D01*
X1565217Y20217217D01*
X1561447Y20214185D01*
X1558333Y20210474D01*
X1558332Y20210473D01*
X1462743Y20096554D01*
X1429024Y20056370D01*
X1426689Y20052122D01*
X1426688Y20052121D01*
X1419955Y20039874D01*
X1329776Y19875838D01*
X1328313Y19871225D01*
X1328311Y19871221D01*
X1308140Y19807633D01*
X1267484Y19679468D01*
X1266944Y19674656D01*
X1266944Y19674655D01*
X1251315Y19535313D01*
X1244520Y19474738D01*
X1244925Y19469918D01*
X1258252Y19311216D01*
X1261759Y19269447D01*
X1263092Y19264799D01*
X1263092Y19264798D01*
X1309753Y19102073D01*
X1318544Y19071414D01*
X1412712Y18888182D01*
X1540677Y18726730D01*
X1544357Y18723598D01*
X1544359Y18723596D01*
X1657017Y18627717D01*
X1697564Y18593209D01*
X1701787Y18590849D01*
X1701791Y18590846D01*
X1818702Y18525507D01*
X1877398Y18492703D01*
X1881996Y18491209D01*
X2068724Y18430537D01*
X2068726Y18430536D01*
X2073329Y18429041D01*
X2277894Y18404649D01*
X2282716Y18405020D01*
X2282719Y18405020D01*
X2350541Y18410239D01*
X2483300Y18420454D01*
X2524181Y18431868D01*
X2654169Y18468161D01*
X2715301Y18465599D01*
X2750795Y18442812D01*
X3120014Y18073594D01*
X3147792Y18019077D01*
X3149011Y18003590D01*
X3149011Y17791459D01*
X3130104Y17733268D01*
X3080604Y17697304D01*
X3019418Y17697304D01*
X2986906Y17715178D01*
X2894002Y17792035D01*
X2894000Y17792036D01*
X2890275Y17795118D01*
X2741480Y17875571D01*
X2713309Y17890803D01*
X2713308Y17890803D01*
X2709055Y17893103D01*
X2644190Y17913182D01*
X2516875Y17952593D01*
X2516871Y17952594D01*
X2512254Y17954023D01*
X2507446Y17954528D01*
X2507443Y17954529D01*
X2312185Y17975051D01*
X2312183Y17975051D01*
X2307369Y17975557D01*
X2247354Y17970095D01*
X2107022Y17957325D01*
X2107017Y17957324D01*
X2102203Y17956886D01*
X1904572Y17898720D01*
X1900288Y17896481D01*
X1900287Y17896480D01*
X1893474Y17892918D01*
X1722002Y17803274D01*
X1718231Y17800242D01*
X1565220Y17677219D01*
X1565217Y17677217D01*
X1561447Y17674185D01*
X1558333Y17670474D01*
X1558332Y17670473D01*
X1453924Y17546044D01*
X1429024Y17516370D01*
X1426689Y17512122D01*
X1426688Y17512121D01*
X1419955Y17499874D01*
X1329776Y17335838D01*
X1328313Y17331225D01*
X1328311Y17331221D01*
X1286113Y17198195D01*
X1267484Y17139468D01*
X1266944Y17134656D01*
X1266944Y17134655D01*
X1251315Y16995313D01*
X1244520Y16934738D01*
X1244925Y16929918D01*
X1258877Y16763773D01*
X1261759Y16729447D01*
X1263092Y16724799D01*
X1263092Y16724798D01*
X1309753Y16562073D01*
X1318544Y16531414D01*
X1412712Y16348182D01*
X1540677Y16186730D01*
X1544357Y16183598D01*
X1544359Y16183596D01*
X1608252Y16129219D01*
X1697564Y16053209D01*
X1701787Y16050849D01*
X1701791Y16050846D01*
X1818702Y15985507D01*
X1877398Y15952703D01*
X1881996Y15951209D01*
X2068724Y15890537D01*
X2068726Y15890536D01*
X2073329Y15889041D01*
X2277894Y15864649D01*
X2282716Y15865020D01*
X2282719Y15865020D01*
X2350541Y15870239D01*
X2483300Y15880454D01*
X2654168Y15928161D01*
X2715300Y15925599D01*
X2750795Y15902812D01*
X3719526Y14934081D01*
X3747303Y14879564D01*
X3748522Y14864077D01*
X3748522Y13736878D01*
X3729615Y13678687D01*
X3680115Y13642723D01*
X3618929Y13642723D01*
X3579518Y13666874D01*
X3315399Y13930993D01*
X3287622Y13985510D01*
X3291464Y14032245D01*
X3329351Y14146137D01*
X3332953Y14174645D01*
X3354823Y14347772D01*
X3355171Y14350526D01*
X3355583Y14380000D01*
X3353413Y14402136D01*
X3335952Y14580220D01*
X3335951Y14580224D01*
X3335480Y14585030D01*
X3310468Y14667875D01*
X3277333Y14777620D01*
X3275935Y14782251D01*
X3179218Y14964151D01*
X3049011Y15123800D01*
X3003356Y15161569D01*
X2894002Y15252035D01*
X2894000Y15252036D01*
X2890275Y15255118D01*
X2709055Y15353103D01*
X2644190Y15373182D01*
X2516875Y15412593D01*
X2516871Y15412594D01*
X2512254Y15414023D01*
X2507446Y15414528D01*
X2507443Y15414529D01*
X2312185Y15435051D01*
X2312183Y15435051D01*
X2307369Y15435557D01*
X2247354Y15430095D01*
X2107022Y15417325D01*
X2107017Y15417324D01*
X2102203Y15416886D01*
X1904572Y15358720D01*
X1900288Y15356481D01*
X1900287Y15356480D01*
X1893474Y15352918D01*
X1722002Y15263274D01*
X1718231Y15260242D01*
X1565220Y15137219D01*
X1565217Y15137217D01*
X1561447Y15134185D01*
X1558333Y15130474D01*
X1558332Y15130473D01*
X1460671Y15014085D01*
X1429024Y14976370D01*
X1426689Y14972122D01*
X1426688Y14972121D01*
X1419955Y14959874D01*
X1329776Y14795838D01*
X1328313Y14791225D01*
X1328311Y14791221D01*
X1298382Y14696871D01*
X1267484Y14599468D01*
X1266944Y14594656D01*
X1266944Y14594655D01*
X1251315Y14455313D01*
X1244520Y14394738D01*
X1244925Y14389918D01*
X1258877Y14223773D01*
X1261759Y14189447D01*
X1263092Y14184799D01*
X1263092Y14184798D01*
X1310708Y14018743D01*
X1318544Y13991414D01*
X1412712Y13808182D01*
X1540677Y13646730D01*
X1544357Y13643598D01*
X1544359Y13643596D01*
X1657017Y13547717D01*
X1697564Y13513209D01*
X1701787Y13510849D01*
X1701791Y13510846D01*
X1818702Y13445507D01*
X1877398Y13412703D01*
X1881996Y13411209D01*
X2068724Y13350537D01*
X2068726Y13350536D01*
X2073329Y13349041D01*
X2277894Y13324649D01*
X2282716Y13325020D01*
X2282719Y13325020D01*
X2350541Y13330239D01*
X2483300Y13340454D01*
X2563378Y13362812D01*
X2654169Y13388161D01*
X2715301Y13385599D01*
X2750795Y13362812D01*
X3120014Y12993594D01*
X3147792Y12939077D01*
X3149011Y12923590D01*
X3149011Y12711459D01*
X3130104Y12653268D01*
X3080604Y12617304D01*
X3019418Y12617304D01*
X2986906Y12635178D01*
X2894002Y12712035D01*
X2894000Y12712036D01*
X2890275Y12715118D01*
X2709055Y12813103D01*
X2644190Y12833182D01*
X2516875Y12872593D01*
X2516871Y12872594D01*
X2512254Y12874023D01*
X2507446Y12874528D01*
X2507443Y12874529D01*
X2312185Y12895051D01*
X2312183Y12895051D01*
X2307369Y12895557D01*
X2247354Y12890095D01*
X2107022Y12877325D01*
X2107017Y12877324D01*
X2102203Y12876886D01*
X1904572Y12818720D01*
X1900288Y12816481D01*
X1900287Y12816480D01*
X1893474Y12812918D01*
X1722002Y12723274D01*
X1718231Y12720242D01*
X1565220Y12597219D01*
X1565217Y12597217D01*
X1561447Y12594185D01*
X1558333Y12590474D01*
X1558332Y12590473D01*
X1435175Y12443700D01*
X1429024Y12436370D01*
X1426689Y12432122D01*
X1426688Y12432121D01*
X1419955Y12419874D01*
X1329776Y12255838D01*
X1328313Y12251225D01*
X1328311Y12251221D01*
X1282905Y12108080D01*
X1267484Y12059468D01*
X1266944Y12054656D01*
X1266944Y12054655D01*
X1247489Y11881203D01*
X1244520Y11854738D01*
X1261759Y11649447D01*
X1263092Y11644799D01*
X1263092Y11644798D01*
X1309753Y11482073D01*
X1318544Y11451414D01*
X1412712Y11268182D01*
X1540677Y11106730D01*
X1544357Y11103598D01*
X1544359Y11103596D01*
X1657017Y11007717D01*
X1697564Y10973209D01*
X1701787Y10970849D01*
X1701791Y10970846D01*
X1818702Y10905507D01*
X1877398Y10872703D01*
X1881996Y10871209D01*
X2068724Y10810537D01*
X2068726Y10810536D01*
X2073329Y10809041D01*
X2277894Y10784649D01*
X2282716Y10785020D01*
X2282719Y10785020D01*
X2350541Y10790239D01*
X2483300Y10800454D01*
X2563378Y10822812D01*
X2654169Y10848161D01*
X2715301Y10845599D01*
X2750795Y10822812D01*
X3120014Y10453594D01*
X3147792Y10399077D01*
X3149011Y10383590D01*
X3149011Y10171459D01*
X3130104Y10113268D01*
X3080604Y10077304D01*
X3019418Y10077304D01*
X2986906Y10095178D01*
X2894002Y10172035D01*
X2894000Y10172036D01*
X2890275Y10175118D01*
X2709055Y10273103D01*
X2639648Y10294588D01*
X2516875Y10332593D01*
X2516871Y10332594D01*
X2512254Y10334023D01*
X2507446Y10334528D01*
X2507443Y10334529D01*
X2312185Y10355051D01*
X2312183Y10355051D01*
X2307369Y10355557D01*
X2247354Y10350095D01*
X2107022Y10337325D01*
X2107017Y10337324D01*
X2102203Y10336886D01*
X1904572Y10278720D01*
X1900288Y10276481D01*
X1900287Y10276480D01*
X1893474Y10272918D01*
X1722002Y10183274D01*
X1718231Y10180242D01*
X1565220Y10057219D01*
X1565217Y10057217D01*
X1561447Y10054185D01*
X1558333Y10050474D01*
X1558332Y10050473D01*
X1466670Y9941234D01*
X1429024Y9896370D01*
X1426689Y9892122D01*
X1426688Y9892121D01*
X1419955Y9879874D01*
X1329776Y9715838D01*
X1328313Y9711225D01*
X1328311Y9711221D01*
X1274413Y9541311D01*
X1267484Y9519468D01*
X1266944Y9514656D01*
X1266944Y9514655D01*
X1251315Y9375313D01*
X1244520Y9314738D01*
X1261759Y9109447D01*
X1263092Y9104799D01*
X1263092Y9104798D01*
X1309753Y8942073D01*
X1318544Y8911414D01*
X1412712Y8728182D01*
X1540677Y8566730D01*
X1544357Y8563598D01*
X1544359Y8563596D01*
X1657017Y8467717D01*
X1697564Y8433209D01*
X1701787Y8430849D01*
X1701791Y8430846D01*
X1818702Y8365507D01*
X1877398Y8332703D01*
X1881996Y8331209D01*
X2068724Y8270537D01*
X2068726Y8270536D01*
X2073329Y8269041D01*
X2277894Y8244649D01*
X2282716Y8245020D01*
X2282719Y8245020D01*
X2350541Y8250239D01*
X2483300Y8260454D01*
X2563378Y8282812D01*
X2654169Y8308161D01*
X2715301Y8305599D01*
X2750795Y8282812D01*
X3120014Y7913594D01*
X3147792Y7859077D01*
X3149011Y7843590D01*
X3149011Y7631459D01*
X3130104Y7573268D01*
X3080604Y7537304D01*
X3019418Y7537304D01*
X2986906Y7555178D01*
X2894002Y7632035D01*
X2894000Y7632036D01*
X2890275Y7635118D01*
X2709055Y7733103D01*
X2639648Y7754588D01*
X2516875Y7792593D01*
X2516871Y7792594D01*
X2512254Y7794023D01*
X2507446Y7794528D01*
X2507443Y7794529D01*
X2312185Y7815051D01*
X2312183Y7815051D01*
X2307369Y7815557D01*
X2247354Y7810095D01*
X2107022Y7797325D01*
X2107017Y7797324D01*
X2102203Y7796886D01*
X1904572Y7738720D01*
X1900288Y7736481D01*
X1900287Y7736480D01*
X1893474Y7732918D01*
X1722002Y7643274D01*
X1718231Y7640242D01*
X1565220Y7517219D01*
X1565217Y7517217D01*
X1561447Y7514185D01*
X1558333Y7510474D01*
X1558332Y7510473D01*
X1466670Y7401234D01*
X1429024Y7356370D01*
X1426689Y7352122D01*
X1426688Y7352121D01*
X1419955Y7339874D01*
X1329776Y7175838D01*
X1328313Y7171225D01*
X1328311Y7171221D01*
X1277861Y7012182D01*
X1267484Y6979468D01*
X1266944Y6974656D01*
X1266944Y6974655D01*
X1247489Y6801203D01*
X1244520Y6774738D01*
X50500Y6774738D01*
X50500Y22014738D01*
X1244520Y22014738D01*
X1261759Y21809447D01*
X1263092Y21804799D01*
X1263092Y21804798D01*
X1316687Y21617891D01*
X1318544Y21611414D01*
X1412712Y21428182D01*
X1540677Y21266730D01*
X1544357Y21263598D01*
X1544359Y21263596D01*
X1636015Y21185591D01*
X1697564Y21133209D01*
X1701787Y21130849D01*
X1701791Y21130846D01*
X1818702Y21065507D01*
X1877398Y21032703D01*
X1881996Y21031209D01*
X2068724Y20970537D01*
X2068726Y20970536D01*
X2073329Y20969041D01*
X2277894Y20944649D01*
X2282716Y20945020D01*
X2282719Y20945020D01*
X2350541Y20950239D01*
X2483300Y20960454D01*
X2681725Y21015855D01*
X2686038Y21018034D01*
X2686044Y21018036D01*
X2861289Y21106559D01*
X2861291Y21106560D01*
X2865610Y21108742D01*
X2963973Y21185591D01*
X3024135Y21232594D01*
X3024139Y21232598D01*
X3027951Y21235576D01*
X3162564Y21391528D01*
X3183387Y21428182D01*
X3252248Y21549400D01*
X3297431Y21590658D01*
X3338328Y21599500D01*
X7633433Y21599500D01*
X7656380Y21606956D01*
X7671481Y21610581D01*
X7687609Y21613135D01*
X7687611Y21613136D01*
X7695304Y21614354D01*
X7716797Y21625305D01*
X7731143Y21631248D01*
X7746679Y21636296D01*
X7754090Y21638704D01*
X7773607Y21652884D01*
X7786846Y21660998D01*
X7808342Y21671950D01*
X7830905Y21694513D01*
X7830909Y21694516D01*
X8790559Y22654166D01*
X8845076Y22681943D01*
X8891156Y22678316D01*
X8979504Y22649609D01*
X8979515Y22649607D01*
X8984118Y22648111D01*
X9178946Y22624879D01*
X9183768Y22625250D01*
X9183771Y22625250D01*
X9369748Y22639560D01*
X9369753Y22639561D01*
X9374576Y22639932D01*
X9563556Y22692697D01*
X9567869Y22694876D01*
X9567875Y22694878D01*
X9734368Y22778980D01*
X9734370Y22778982D01*
X9738689Y22781163D01*
X9768515Y22804465D01*
X9849644Y22867850D01*
X9907139Y22888777D01*
X9942652Y22878594D01*
X9934918Y22927429D01*
X9957756Y22976630D01*
X10018345Y23046823D01*
X10018347Y23046825D01*
X10021509Y23050489D01*
X10024388Y23055557D01*
X10116036Y23216885D01*
X10116037Y23216888D01*
X10118425Y23221091D01*
X10129905Y23255599D01*
X10178831Y23402677D01*
X10178831Y23402679D01*
X10180358Y23407268D01*
X10180966Y23412075D01*
X10198964Y23554554D01*
X10204949Y23601929D01*
X10205341Y23630000D01*
X10204438Y23639217D01*
X10194144Y23744197D01*
X10186194Y23825272D01*
X10129484Y24013106D01*
X10069061Y24126745D01*
X10039643Y24182073D01*
X10039641Y24182077D01*
X10037370Y24186347D01*
X10032040Y24192883D01*
X9916422Y24334645D01*
X9916421Y24334646D01*
X9913361Y24338398D01*
X9762180Y24463465D01*
X9589585Y24556787D01*
X9402152Y24614807D01*
X9397342Y24615313D01*
X9397340Y24615313D01*
X9211835Y24634811D01*
X9211833Y24634811D01*
X9207019Y24635317D01*
X9142891Y24629481D01*
X9016438Y24617973D01*
X9016435Y24617972D01*
X9011618Y24617534D01*
X9006976Y24616168D01*
X9006972Y24616167D01*
X8828040Y24563504D01*
X8828037Y24563503D01*
X8823393Y24562136D01*
X8649512Y24471233D01*
X8645743Y24468203D01*
X8645742Y24468202D01*
X8636016Y24460382D01*
X8496600Y24348289D01*
X8470186Y24316810D01*
X8373589Y24201690D01*
X8373586Y24201686D01*
X8370480Y24197984D01*
X8275956Y24026046D01*
X8274492Y24021432D01*
X8274491Y24021429D01*
X8257600Y23968182D01*
X8216628Y23839022D01*
X8216088Y23834210D01*
X8216088Y23834209D01*
X8205992Y23744197D01*
X8194757Y23644037D01*
X8197987Y23605576D01*
X8209251Y23471433D01*
X8211175Y23448517D01*
X8212508Y23443869D01*
X8212508Y23443868D01*
X8248796Y23317319D01*
X8246661Y23256171D01*
X8223635Y23220027D01*
X7433103Y22429496D01*
X7378586Y22401719D01*
X7363099Y22400500D01*
X3336351Y22400500D01*
X3278160Y22419407D01*
X3248939Y22453023D01*
X3181492Y22579874D01*
X3179218Y22584151D01*
X3049011Y22743800D01*
X3032790Y22757219D01*
X2894002Y22872035D01*
X2894000Y22872036D01*
X2890275Y22875118D01*
X2709055Y22973103D01*
X2644190Y22993182D01*
X2516875Y23032593D01*
X2516871Y23032594D01*
X2512254Y23034023D01*
X2507446Y23034528D01*
X2507443Y23034529D01*
X2312185Y23055051D01*
X2312183Y23055051D01*
X2307369Y23055557D01*
X2247354Y23050095D01*
X2107022Y23037325D01*
X2107017Y23037324D01*
X2102203Y23036886D01*
X1904572Y22978720D01*
X1900288Y22976481D01*
X1900287Y22976480D01*
X1893474Y22972918D01*
X1722002Y22883274D01*
X1718231Y22880242D01*
X1565220Y22757219D01*
X1565217Y22757217D01*
X1561447Y22754185D01*
X1558333Y22750474D01*
X1558332Y22750473D01*
X1466670Y22641234D01*
X1429024Y22596370D01*
X1426689Y22592122D01*
X1426688Y22592121D01*
X1419955Y22579874D01*
X1329776Y22415838D01*
X1328313Y22411225D01*
X1328311Y22411221D01*
X1306738Y22343213D01*
X1267484Y22219468D01*
X1266944Y22214656D01*
X1266944Y22214655D01*
X1251564Y22077534D01*
X1244520Y22014738D01*
X50500Y22014738D01*
X50500Y24554738D01*
X1244520Y24554738D01*
X1261759Y24349447D01*
X1263092Y24344799D01*
X1263092Y24344798D01*
X1316687Y24157891D01*
X1318544Y24151414D01*
X1412712Y23968182D01*
X1540677Y23806730D01*
X1544357Y23803598D01*
X1544359Y23803596D01*
X1614153Y23744197D01*
X1697564Y23673209D01*
X1701787Y23670849D01*
X1701791Y23670846D01*
X1818579Y23605576D01*
X1877398Y23572703D01*
X1881996Y23571209D01*
X2068724Y23510537D01*
X2068726Y23510536D01*
X2073329Y23509041D01*
X2277894Y23484649D01*
X2282716Y23485020D01*
X2282719Y23485020D01*
X2350541Y23490239D01*
X2483300Y23500454D01*
X2681725Y23555855D01*
X2686038Y23558034D01*
X2686044Y23558036D01*
X2861289Y23646559D01*
X2861291Y23646560D01*
X2865610Y23648742D01*
X2900943Y23676347D01*
X3024135Y23772594D01*
X3024139Y23772598D01*
X3027951Y23775576D01*
X3162564Y23931528D01*
X3183387Y23968182D01*
X3252248Y24089400D01*
X3297431Y24130658D01*
X3338328Y24139500D01*
X7633433Y24139500D01*
X7656380Y24146956D01*
X7671481Y24150581D01*
X7687609Y24153135D01*
X7687611Y24153136D01*
X7695304Y24154354D01*
X7716797Y24165305D01*
X7731143Y24171248D01*
X7746679Y24176296D01*
X7754090Y24178704D01*
X7773607Y24192884D01*
X7786846Y24200998D01*
X7808342Y24211950D01*
X7830905Y24234513D01*
X7830909Y24234516D01*
X8790559Y25194166D01*
X8845076Y25221943D01*
X8891156Y25218316D01*
X8979504Y25189609D01*
X8979515Y25189607D01*
X8984118Y25188111D01*
X9178946Y25164879D01*
X9183768Y25165250D01*
X9183771Y25165250D01*
X9369748Y25179560D01*
X9369753Y25179561D01*
X9374576Y25179932D01*
X9563556Y25232697D01*
X9567869Y25234876D01*
X9567875Y25234878D01*
X9734368Y25318980D01*
X9734370Y25318982D01*
X9738689Y25321163D01*
X9748930Y25329164D01*
X9889487Y25438978D01*
X9889491Y25438982D01*
X9893303Y25441960D01*
X9918915Y25471631D01*
X10018345Y25586823D01*
X10018347Y25586825D01*
X10021509Y25590489D01*
X10032957Y25610641D01*
X10116036Y25756885D01*
X10116037Y25756888D01*
X10118425Y25761091D01*
X10126846Y25786403D01*
X10178831Y25942677D01*
X10178831Y25942679D01*
X10180358Y25947268D01*
X10204949Y26141929D01*
X10205341Y26170000D01*
X10204438Y26179217D01*
X10188012Y26346730D01*
X10186194Y26365272D01*
X10129484Y26553106D01*
X10077616Y26650656D01*
X10039643Y26722073D01*
X10039641Y26722077D01*
X10037370Y26726347D01*
X10032040Y26732883D01*
X9916422Y26874645D01*
X9916421Y26874646D01*
X9913361Y26878398D01*
X9762180Y27003465D01*
X9589585Y27096787D01*
X9402152Y27154807D01*
X9397342Y27155313D01*
X9397340Y27155313D01*
X9211835Y27174811D01*
X9211833Y27174811D01*
X9207019Y27175317D01*
X9142891Y27169481D01*
X9016438Y27157973D01*
X9016435Y27157972D01*
X9011618Y27157534D01*
X9006976Y27156168D01*
X9006972Y27156167D01*
X8828040Y27103504D01*
X8828037Y27103503D01*
X8823393Y27102136D01*
X8649512Y27011233D01*
X8645743Y27008203D01*
X8645742Y27008202D01*
X8636016Y27000382D01*
X8496600Y26888289D01*
X8470186Y26856810D01*
X8373589Y26741690D01*
X8373586Y26741686D01*
X8370480Y26737984D01*
X8275956Y26566046D01*
X8274492Y26561432D01*
X8274491Y26561429D01*
X8257600Y26508182D01*
X8216628Y26379022D01*
X8216088Y26374210D01*
X8216088Y26374209D01*
X8195871Y26193965D01*
X8194757Y26184037D01*
X8198060Y26144704D01*
X8206678Y26042076D01*
X8211175Y25988517D01*
X8247515Y25861788D01*
X8248796Y25857319D01*
X8246661Y25796171D01*
X8223635Y25760027D01*
X7433103Y24969496D01*
X7378586Y24941719D01*
X7363099Y24940500D01*
X3336351Y24940500D01*
X3278160Y24959407D01*
X3248939Y24993023D01*
X3181492Y25119874D01*
X3179218Y25124151D01*
X3049011Y25283800D01*
X3003847Y25321163D01*
X2894002Y25412035D01*
X2894000Y25412036D01*
X2890275Y25415118D01*
X2709055Y25513103D01*
X2645855Y25532667D01*
X2516875Y25572593D01*
X2516871Y25572594D01*
X2512254Y25574023D01*
X2507446Y25574528D01*
X2507443Y25574529D01*
X2312185Y25595051D01*
X2312183Y25595051D01*
X2307369Y25595557D01*
X2247354Y25590095D01*
X2107022Y25577325D01*
X2107017Y25577324D01*
X2102203Y25576886D01*
X1904572Y25518720D01*
X1900288Y25516481D01*
X1900287Y25516480D01*
X1889428Y25510803D01*
X1722002Y25423274D01*
X1718231Y25420242D01*
X1565220Y25297219D01*
X1565217Y25297217D01*
X1561447Y25294185D01*
X1558333Y25290474D01*
X1558332Y25290473D01*
X1466670Y25181234D01*
X1429024Y25136370D01*
X1426689Y25132122D01*
X1426688Y25132121D01*
X1419955Y25119874D01*
X1329776Y24955838D01*
X1328313Y24951225D01*
X1328311Y24951221D01*
X1323997Y24937620D01*
X1267484Y24759468D01*
X1266944Y24754656D01*
X1266944Y24754655D01*
X1251315Y24615313D01*
X1244520Y24554738D01*
X50500Y24554738D01*
X50500Y29352986D01*
X968043Y29352986D01*
X998807Y29216476D01*
X1001231Y29208742D01*
X1082183Y29009380D01*
X1085840Y29002140D01*
X1198266Y28818678D01*
X1203056Y28812133D01*
X1343935Y28649498D01*
X1349729Y28643824D01*
X1515292Y28506371D01*
X1521921Y28501730D01*
X1707713Y28393162D01*
X1715008Y28389666D01*
X1916038Y28312901D01*
X1923808Y28310643D01*
X2027991Y28289447D01*
X2081244Y28259318D01*
X2106618Y28203641D01*
X2094419Y28143684D01*
X2049309Y28102348D01*
X2036206Y28097462D01*
X1904572Y28058720D01*
X1900288Y28056481D01*
X1900287Y28056480D01*
X1889428Y28050803D01*
X1722002Y27963274D01*
X1718231Y27960242D01*
X1565220Y27837219D01*
X1565217Y27837217D01*
X1561447Y27834185D01*
X1558333Y27830474D01*
X1558332Y27830473D01*
X1466670Y27721234D01*
X1429024Y27676370D01*
X1426689Y27672122D01*
X1426688Y27672121D01*
X1419955Y27659874D01*
X1329776Y27495838D01*
X1328313Y27491225D01*
X1328311Y27491221D01*
X1322382Y27472529D01*
X1267484Y27299468D01*
X1266944Y27294656D01*
X1266944Y27294655D01*
X1251315Y27155313D01*
X1244520Y27094738D01*
X1261759Y26889447D01*
X1263092Y26884799D01*
X1263092Y26884798D01*
X1316687Y26697891D01*
X1318544Y26691414D01*
X1412712Y26508182D01*
X1540677Y26346730D01*
X1544357Y26343598D01*
X1544359Y26343596D01*
X1657017Y26247717D01*
X1697564Y26213209D01*
X1701787Y26210849D01*
X1701791Y26210846D01*
X1818702Y26145507D01*
X1877398Y26112703D01*
X1881996Y26111209D01*
X2068724Y26050537D01*
X2068726Y26050536D01*
X2073329Y26049041D01*
X2277894Y26024649D01*
X2282716Y26025020D01*
X2282719Y26025020D01*
X2350541Y26030239D01*
X2483300Y26040454D01*
X2681725Y26095855D01*
X2686038Y26098034D01*
X2686044Y26098036D01*
X2861289Y26186559D01*
X2861291Y26186560D01*
X2865610Y26188742D01*
X2872295Y26193965D01*
X3024135Y26312594D01*
X3024139Y26312598D01*
X3027951Y26315576D01*
X3162564Y26471528D01*
X3177659Y26498099D01*
X3252248Y26629400D01*
X3297431Y26670658D01*
X3338328Y26679500D01*
X7633433Y26679500D01*
X7656380Y26686956D01*
X7671481Y26690581D01*
X7687609Y26693135D01*
X7687611Y26693136D01*
X7695304Y26694354D01*
X7716797Y26705305D01*
X7731143Y26711248D01*
X7746679Y26716296D01*
X7754090Y26718704D01*
X7773607Y26732884D01*
X7786846Y26740998D01*
X7808342Y26751950D01*
X7830905Y26774513D01*
X7830909Y26774516D01*
X8790559Y27734166D01*
X8845076Y27761943D01*
X8891156Y27758316D01*
X8979504Y27729609D01*
X8979515Y27729607D01*
X8984118Y27728111D01*
X9178946Y27704879D01*
X9183768Y27705250D01*
X9183771Y27705250D01*
X9369748Y27719560D01*
X9369753Y27719561D01*
X9374576Y27719932D01*
X9563556Y27772697D01*
X9567869Y27774876D01*
X9567875Y27774878D01*
X9734368Y27858980D01*
X9734370Y27858982D01*
X9738689Y27861163D01*
X9765490Y27882102D01*
X9889487Y27978978D01*
X9889491Y27978982D01*
X9893303Y27981960D01*
X9918915Y28011631D01*
X10018345Y28126823D01*
X10018347Y28126825D01*
X10021509Y28130489D01*
X10029005Y28143684D01*
X10116036Y28296885D01*
X10116037Y28296888D01*
X10118425Y28301091D01*
X10129905Y28335599D01*
X10178831Y28482677D01*
X10178831Y28482679D01*
X10180358Y28487268D01*
X10181259Y28494395D01*
X10198964Y28634554D01*
X10204949Y28681929D01*
X10205341Y28710000D01*
X10204438Y28719217D01*
X10188012Y28886730D01*
X10186194Y28905272D01*
X10129484Y29093106D01*
X10058236Y29227104D01*
X10039643Y29262073D01*
X10039641Y29262077D01*
X10037370Y29266347D01*
X9966710Y29352986D01*
X9916422Y29414645D01*
X9916421Y29414646D01*
X9913361Y29418398D01*
X9762180Y29543465D01*
X9589585Y29636787D01*
X9402152Y29694807D01*
X9397342Y29695313D01*
X9397340Y29695313D01*
X9211835Y29714811D01*
X9211833Y29714811D01*
X9207019Y29715317D01*
X9142891Y29709481D01*
X9016438Y29697973D01*
X9016435Y29697972D01*
X9011618Y29697534D01*
X9006976Y29696168D01*
X9006972Y29696167D01*
X8828040Y29643504D01*
X8828037Y29643503D01*
X8823393Y29642136D01*
X8649512Y29551233D01*
X8645743Y29548203D01*
X8645742Y29548202D01*
X8636016Y29540382D01*
X8496600Y29428289D01*
X8470186Y29396810D01*
X8373589Y29281690D01*
X8373586Y29281686D01*
X8370480Y29277984D01*
X8275956Y29106046D01*
X8274492Y29101432D01*
X8274491Y29101429D01*
X8234266Y28974623D01*
X8216628Y28919022D01*
X8216088Y28914210D01*
X8216088Y28914209D01*
X8195871Y28733965D01*
X8194757Y28724037D01*
X8198060Y28684704D01*
X8207984Y28566524D01*
X8211175Y28528517D01*
X8247515Y28401788D01*
X8248796Y28397319D01*
X8246661Y28336171D01*
X8223635Y28300027D01*
X7811210Y27887603D01*
X7433103Y27509496D01*
X7378586Y27481719D01*
X7363099Y27480500D01*
X3336351Y27480500D01*
X3278160Y27499407D01*
X3248939Y27533023D01*
X3181492Y27659874D01*
X3179218Y27664151D01*
X3049011Y27823800D01*
X3003847Y27861163D01*
X2894002Y27952035D01*
X2894000Y27952036D01*
X2890275Y27955118D01*
X2709055Y28053103D01*
X2625069Y28079101D01*
X2572061Y28095510D01*
X2522063Y28130780D01*
X2502346Y28188701D01*
X2520439Y28247150D01*
X2569432Y28283801D01*
X2580752Y28286919D01*
X2587202Y28288290D01*
X2793304Y28350124D01*
X2800852Y28353082D01*
X2994087Y28447747D01*
X3001046Y28451896D01*
X3176231Y28576852D01*
X3182412Y28582076D01*
X3334831Y28733965D01*
X3340088Y28740142D01*
X3465651Y28914881D01*
X3469823Y28921824D01*
X3565164Y29114732D01*
X3568144Y29122256D01*
X3630701Y29328157D01*
X3632410Y29336062D01*
X3634304Y29350453D01*
X3631873Y29363569D01*
X3630571Y29364805D01*
X3625290Y29366000D01*
X980790Y29366000D01*
X968460Y29361994D01*
X968043Y29352986D01*
X50500Y29352986D01*
X50500Y35479132D01*
X324989Y35479132D01*
X332444Y35456190D01*
X336070Y35441084D01*
X339843Y35417261D01*
X350794Y35395768D01*
X356737Y35381422D01*
X364193Y35358475D01*
X368774Y35352170D01*
X378372Y35338960D01*
X386487Y35325719D01*
X397439Y35304223D01*
X420002Y35281660D01*
X420005Y35281656D01*
X548639Y35153023D01*
X620992Y35080670D01*
X648770Y35026153D01*
X649989Y35010666D01*
X649989Y33346078D01*
X657444Y33323136D01*
X661070Y33308030D01*
X664843Y33284207D01*
X675794Y33262714D01*
X681737Y33248368D01*
X689193Y33225421D01*
X696728Y33215051D01*
X703372Y33205906D01*
X711487Y33192665D01*
X722439Y33171169D01*
X745002Y33148606D01*
X745005Y33148602D01*
X1026359Y32867249D01*
X1284322Y32609286D01*
X1312099Y32554769D01*
X1308684Y32509347D01*
X1267484Y32379468D01*
X1266944Y32374656D01*
X1266944Y32374655D01*
X1246492Y32192317D01*
X1244520Y32174738D01*
X1261759Y31969447D01*
X1263092Y31964799D01*
X1263092Y31964798D01*
X1309753Y31802073D01*
X1318544Y31771414D01*
X1412712Y31588182D01*
X1540677Y31426730D01*
X1544357Y31423598D01*
X1544359Y31423596D01*
X1583212Y31390530D01*
X1697564Y31293209D01*
X1701787Y31290849D01*
X1701791Y31290846D01*
X1797807Y31237185D01*
X1877398Y31192703D01*
X2031944Y31142488D01*
X2081444Y31106524D01*
X2100351Y31048333D01*
X2081444Y30990142D01*
X2031944Y30954178D01*
X2016327Y30950472D01*
X1988226Y30946172D01*
X1980341Y30944293D01*
X1775807Y30877442D01*
X1768350Y30874307D01*
X1577479Y30774946D01*
X1570627Y30770631D01*
X1398544Y30641427D01*
X1392491Y30636053D01*
X1243830Y30480487D01*
X1238727Y30474186D01*
X1117466Y30296425D01*
X1113468Y30289387D01*
X1022871Y30094210D01*
X1020073Y30086606D01*
X964056Y29884616D01*
X965756Y29876538D01*
X967566Y29874902D01*
X971792Y29874000D01*
X3620779Y29874000D01*
X3632730Y29877883D01*
X3633058Y29887538D01*
X3590946Y30055191D01*
X3588333Y30062867D01*
X3502534Y30260193D01*
X3498701Y30267340D01*
X3381826Y30448003D01*
X3376880Y30454425D01*
X3232065Y30613574D01*
X3226139Y30619101D01*
X3057269Y30752466D01*
X3050525Y30756946D01*
X2862141Y30860940D01*
X2854749Y30864262D01*
X2651920Y30936088D01*
X2644081Y30938159D01*
X2574589Y30950537D01*
X2520616Y30979356D01*
X2493890Y31034395D01*
X2504619Y31094633D01*
X2548706Y31137059D01*
X2565327Y31143356D01*
X2609867Y31155792D01*
X2681725Y31175855D01*
X2686038Y31178034D01*
X2686044Y31178036D01*
X2856296Y31264037D01*
X8194757Y31264037D01*
X8197966Y31225823D01*
X8207984Y31106524D01*
X8211175Y31068517D01*
X8212508Y31063869D01*
X8212508Y31063868D01*
X8260916Y30895052D01*
X8265258Y30879909D01*
X8267473Y30875599D01*
X8352731Y30709704D01*
X8352734Y30709700D01*
X8354944Y30705399D01*
X8476818Y30551631D01*
X8480505Y30548493D01*
X8480507Y30548491D01*
X8622550Y30427603D01*
X8622555Y30427600D01*
X8626238Y30424465D01*
X8630460Y30422105D01*
X8630465Y30422102D01*
X8671838Y30398980D01*
X8797513Y30328743D01*
X8889840Y30298744D01*
X8979513Y30269607D01*
X8979516Y30269606D01*
X8984118Y30268111D01*
X9178946Y30244879D01*
X9183768Y30245250D01*
X9183771Y30245250D01*
X9369748Y30259560D01*
X9369753Y30259561D01*
X9374576Y30259932D01*
X9563556Y30312697D01*
X9567869Y30314876D01*
X9567875Y30314878D01*
X9734368Y30398980D01*
X9734370Y30398982D01*
X9738689Y30401163D01*
X9765490Y30422102D01*
X9889487Y30518978D01*
X9889491Y30518982D01*
X9893303Y30521960D01*
X9918915Y30551631D01*
X10018345Y30666823D01*
X10018347Y30666825D01*
X10021509Y30670489D01*
X10032891Y30690524D01*
X10116036Y30836885D01*
X10116037Y30836888D01*
X10118425Y30841091D01*
X10129905Y30875599D01*
X10178831Y31022677D01*
X10178831Y31022679D01*
X10180358Y31027268D01*
X10181259Y31034395D01*
X10198964Y31174554D01*
X10204949Y31221929D01*
X10205004Y31225823D01*
X10205302Y31247230D01*
X10205341Y31250000D01*
X10204438Y31259217D01*
X10195421Y31351169D01*
X10186194Y31445272D01*
X10129484Y31633106D01*
X10058236Y31767104D01*
X10039643Y31802073D01*
X10039641Y31802077D01*
X10037370Y31806347D01*
X9913361Y31958398D01*
X9762180Y32083465D01*
X9589585Y32176787D01*
X9402152Y32234807D01*
X9397342Y32235313D01*
X9397340Y32235313D01*
X9211835Y32254811D01*
X9211833Y32254811D01*
X9207019Y32255317D01*
X9142891Y32249481D01*
X9016438Y32237973D01*
X9016435Y32237972D01*
X9011618Y32237534D01*
X9006976Y32236168D01*
X9006972Y32236167D01*
X8828040Y32183504D01*
X8828037Y32183503D01*
X8823393Y32182136D01*
X8649512Y32091233D01*
X8645743Y32088203D01*
X8645742Y32088202D01*
X8636016Y32080382D01*
X8496600Y31968289D01*
X8470186Y31936810D01*
X8373589Y31821690D01*
X8373586Y31821686D01*
X8370480Y31817984D01*
X8275956Y31646046D01*
X8274492Y31641432D01*
X8274491Y31641429D01*
X8247309Y31555740D01*
X8216628Y31459022D01*
X8216088Y31454210D01*
X8216088Y31454209D01*
X8209923Y31399241D01*
X8194757Y31264037D01*
X2856296Y31264037D01*
X2861289Y31266559D01*
X2861291Y31266560D01*
X2865610Y31268742D01*
X2900943Y31296347D01*
X3024135Y31392594D01*
X3024139Y31392598D01*
X3027951Y31395576D01*
X3162564Y31551528D01*
X3166732Y31558865D01*
X3261934Y31726450D01*
X3261935Y31726453D01*
X3264323Y31730656D01*
X3269657Y31746689D01*
X3327824Y31921546D01*
X3327824Y31921548D01*
X3329351Y31926137D01*
X3332953Y31954645D01*
X3354823Y32127772D01*
X3355171Y32130526D01*
X3355583Y32160000D01*
X3353413Y32182136D01*
X3335952Y32360220D01*
X3335951Y32360224D01*
X3335480Y32365030D01*
X3275935Y32562251D01*
X3179218Y32744151D01*
X3049011Y32903800D01*
X3003847Y32941163D01*
X2894002Y33032035D01*
X2894000Y33032036D01*
X2890275Y33035118D01*
X2709055Y33133103D01*
X2644190Y33153182D01*
X2516875Y33192593D01*
X2516871Y33192594D01*
X2512254Y33194023D01*
X2507446Y33194528D01*
X2507443Y33194529D01*
X2312185Y33215051D01*
X2312183Y33215051D01*
X2307369Y33215557D01*
X2247354Y33210095D01*
X2107022Y33197325D01*
X2107017Y33197324D01*
X2102203Y33196886D01*
X2087831Y33192656D01*
X1947905Y33151474D01*
X1886743Y33153182D01*
X1849949Y33176443D01*
X1671930Y33354463D01*
X1479985Y33546408D01*
X1452208Y33600924D01*
X1450989Y33616411D01*
X1450989Y33828805D01*
X1469896Y33886996D01*
X1519396Y33922960D01*
X1580582Y33922960D01*
X1614153Y33904197D01*
X1693876Y33836347D01*
X1693881Y33836344D01*
X1697564Y33833209D01*
X1701787Y33830849D01*
X1701791Y33830846D01*
X1818702Y33765507D01*
X1877398Y33732703D01*
X1881996Y33731209D01*
X2068724Y33670537D01*
X2068726Y33670536D01*
X2073329Y33669041D01*
X2277894Y33644649D01*
X2282716Y33645020D01*
X2282719Y33645020D01*
X2350541Y33650239D01*
X2483300Y33660454D01*
X2681725Y33715855D01*
X2686038Y33718034D01*
X2686044Y33718036D01*
X2861289Y33806559D01*
X2861291Y33806560D01*
X2865610Y33808742D01*
X2872295Y33813965D01*
X3024135Y33932594D01*
X3024139Y33932598D01*
X3027951Y33935576D01*
X3162564Y34091528D01*
X3199700Y34156898D01*
X3252248Y34249400D01*
X3297431Y34290658D01*
X3338328Y34299500D01*
X8083100Y34299500D01*
X8141291Y34280593D01*
X8153103Y34270504D01*
X8224146Y34199462D01*
X8251924Y34144946D01*
X8248509Y34099523D01*
X8219371Y34007670D01*
X8216628Y33999022D01*
X8216088Y33994210D01*
X8216088Y33994209D01*
X8195326Y33809107D01*
X8194757Y33804037D01*
X8198060Y33764704D01*
X8206678Y33662076D01*
X8211175Y33608517D01*
X8212508Y33603869D01*
X8212508Y33603868D01*
X8261481Y33433082D01*
X8265258Y33419909D01*
X8267473Y33415599D01*
X8352731Y33249704D01*
X8352734Y33249700D01*
X8354944Y33245399D01*
X8476818Y33091631D01*
X8480505Y33088493D01*
X8480507Y33088491D01*
X8622550Y32967603D01*
X8622555Y32967600D01*
X8626238Y32964465D01*
X8630460Y32962105D01*
X8630465Y32962102D01*
X8671838Y32938980D01*
X8797513Y32868743D01*
X8889840Y32838744D01*
X8979513Y32809607D01*
X8979516Y32809606D01*
X8984118Y32808111D01*
X9178946Y32784879D01*
X9183768Y32785250D01*
X9183771Y32785250D01*
X9369748Y32799560D01*
X9369753Y32799561D01*
X9374576Y32799932D01*
X9563556Y32852697D01*
X9567869Y32854876D01*
X9567875Y32854878D01*
X9734368Y32938980D01*
X9734370Y32938982D01*
X9738689Y32941163D01*
X9765490Y32962102D01*
X9889487Y33058978D01*
X9889491Y33058982D01*
X9893303Y33061960D01*
X9918915Y33091631D01*
X10018345Y33206823D01*
X10018347Y33206825D01*
X10021509Y33210489D01*
X10037998Y33239514D01*
X10116036Y33376885D01*
X10116037Y33376888D01*
X10118425Y33381091D01*
X10123960Y33397728D01*
X10178831Y33562677D01*
X10178831Y33562679D01*
X10180358Y33567268D01*
X10204949Y33761929D01*
X10205341Y33790000D01*
X10204438Y33799217D01*
X10186666Y33980454D01*
X10186194Y33985272D01*
X10129484Y34173106D01*
X10080664Y34264922D01*
X10039643Y34342073D01*
X10039641Y34342077D01*
X10037370Y34346347D01*
X9940676Y34464907D01*
X9916422Y34494645D01*
X9916421Y34494646D01*
X9913361Y34498398D01*
X9762180Y34623465D01*
X9589585Y34716787D01*
X9402152Y34774807D01*
X9397342Y34775313D01*
X9397340Y34775313D01*
X9211835Y34794811D01*
X9211833Y34794811D01*
X9207019Y34795317D01*
X9142891Y34789481D01*
X9016438Y34777973D01*
X9016435Y34777972D01*
X9011618Y34777534D01*
X9006976Y34776168D01*
X9006972Y34776167D01*
X8888176Y34741203D01*
X8827014Y34742911D01*
X8790220Y34766172D01*
X8550909Y35005484D01*
X8533851Y35022542D01*
X8533847Y35022545D01*
X8528342Y35028050D01*
X8506846Y35039002D01*
X8493605Y35047117D01*
X8487335Y35051673D01*
X8474090Y35061296D01*
X8451143Y35068752D01*
X8436797Y35074695D01*
X8415304Y35085646D01*
X8407611Y35086864D01*
X8407609Y35086865D01*
X8391481Y35089419D01*
X8376380Y35093044D01*
X8353433Y35100500D01*
X3336351Y35100500D01*
X3278160Y35119407D01*
X3248939Y35153023D01*
X3181492Y35279874D01*
X3179218Y35284151D01*
X3094977Y35387441D01*
X3072850Y35444484D01*
X3088480Y35503640D01*
X3135895Y35542311D01*
X3171696Y35549011D01*
X8110543Y35549011D01*
X8168734Y35530104D01*
X8204698Y35480604D01*
X8207641Y35469324D01*
X8211133Y35451769D01*
X8255448Y35385448D01*
X8321769Y35341133D01*
X8331332Y35339231D01*
X8331334Y35339230D01*
X8354005Y35334721D01*
X8380252Y35329500D01*
X10019748Y35329500D01*
X10045995Y35334721D01*
X10068666Y35339230D01*
X10068668Y35339231D01*
X10078231Y35341133D01*
X10144552Y35385448D01*
X10188867Y35451769D01*
X10192837Y35471724D01*
X10198879Y35502102D01*
X10200500Y35510252D01*
X10200500Y37030011D01*
X10219407Y37088202D01*
X10268907Y37124166D01*
X10299500Y37129011D01*
X10309768Y37129011D01*
X10367959Y37110104D01*
X10379772Y37100015D01*
X10945504Y36534283D01*
X10973281Y36479766D01*
X10974500Y36464279D01*
X10974500Y23754743D01*
X10955593Y23696552D01*
X10945504Y23684739D01*
X10102703Y22841938D01*
X10048186Y22814161D01*
X10003711Y22821205D01*
X10005759Y22762549D01*
X9980598Y22719833D01*
X9375294Y22114529D01*
X9320777Y22086752D01*
X9294944Y22086075D01*
X9231355Y22092759D01*
X9211834Y22094811D01*
X9211833Y22094811D01*
X9207019Y22095317D01*
X9142891Y22089481D01*
X9016438Y22077973D01*
X9016435Y22077972D01*
X9011618Y22077534D01*
X9006976Y22076168D01*
X9006972Y22076167D01*
X8828040Y22023504D01*
X8828037Y22023503D01*
X8823393Y22022136D01*
X8649512Y21931233D01*
X8496600Y21808289D01*
X8493493Y21804586D01*
X8373589Y21661690D01*
X8373586Y21661686D01*
X8370480Y21657984D01*
X8275956Y21486046D01*
X8274492Y21481432D01*
X8274491Y21481429D01*
X8231803Y21346859D01*
X8216628Y21299022D01*
X8216088Y21294210D01*
X8216088Y21294209D01*
X8203905Y21185591D01*
X8194757Y21104037D01*
X8198060Y21064704D01*
X8210445Y20917213D01*
X8211175Y20908517D01*
X8212508Y20903869D01*
X8212508Y20903868D01*
X8235945Y20822136D01*
X8265258Y20719909D01*
X8267473Y20715599D01*
X8352731Y20549704D01*
X8352734Y20549700D01*
X8354944Y20545399D01*
X8476818Y20391631D01*
X8480505Y20388493D01*
X8480507Y20388491D01*
X8622550Y20267603D01*
X8622555Y20267600D01*
X8626238Y20264465D01*
X8630460Y20262105D01*
X8630465Y20262102D01*
X8729266Y20206885D01*
X8797513Y20168743D01*
X8898549Y20135914D01*
X8979513Y20109607D01*
X8979516Y20109606D01*
X8984118Y20108111D01*
X9178946Y20084879D01*
X9183768Y20085250D01*
X9183770Y20085250D01*
X9237625Y20089394D01*
X9330672Y20096554D01*
X9390140Y20082167D01*
X9408270Y20067850D01*
X9482494Y19993626D01*
X9510271Y19939109D01*
X9500700Y19878677D01*
X9474793Y19846685D01*
X9457164Y19832409D01*
X9454000Y19821727D01*
X9454000Y18819680D01*
X9458122Y18806995D01*
X9462243Y18804000D01*
X10470402Y18804000D01*
X10483088Y18808122D01*
X10492766Y18821443D01*
X10542265Y18857407D01*
X10603451Y18857408D01*
X10642863Y18833257D01*
X11130504Y18345616D01*
X11158281Y18291099D01*
X11159500Y18275612D01*
X11159500Y7192280D01*
X11174313Y7079764D01*
X11176797Y7073767D01*
X11229819Y6945760D01*
X11229821Y6945756D01*
X11232302Y6939767D01*
X11236248Y6934625D01*
X11236250Y6934621D01*
X11310870Y6837376D01*
X11324549Y6819549D01*
X11329698Y6815598D01*
X11439621Y6731250D01*
X11439625Y6731248D01*
X11444767Y6727302D01*
X11450756Y6724821D01*
X11450760Y6724819D01*
X11539162Y6688202D01*
X11584764Y6669313D01*
X11735000Y6649534D01*
X11885236Y6669313D01*
X11930838Y6688202D01*
X12019240Y6724819D01*
X12019244Y6724821D01*
X12025233Y6727302D01*
X12030375Y6731248D01*
X12030379Y6731250D01*
X12140302Y6815598D01*
X12145451Y6819549D01*
X12159130Y6837376D01*
X12233750Y6934621D01*
X12233752Y6934625D01*
X12237698Y6939767D01*
X12240179Y6945756D01*
X12240181Y6945760D01*
X12293203Y7073767D01*
X12295687Y7079764D01*
X12310500Y7192280D01*
X12310500Y10944037D01*
X15814757Y10944037D01*
X15831175Y10748517D01*
X15832508Y10743869D01*
X15832508Y10743868D01*
X15844320Y10702677D01*
X15885258Y10559909D01*
X15887473Y10555599D01*
X15972731Y10389704D01*
X15972734Y10389700D01*
X15974944Y10385399D01*
X16096818Y10231631D01*
X16100505Y10228493D01*
X16100507Y10228491D01*
X16242550Y10107603D01*
X16242555Y10107600D01*
X16246238Y10104465D01*
X16250460Y10102105D01*
X16250465Y10102102D01*
X16349266Y10046885D01*
X16417513Y10008743D01*
X16518549Y9975914D01*
X16599513Y9949607D01*
X16599516Y9949606D01*
X16604118Y9948111D01*
X16798946Y9924879D01*
X16803768Y9925250D01*
X16803771Y9925250D01*
X16989748Y9939560D01*
X16989753Y9939561D01*
X16994576Y9939932D01*
X17183556Y9992697D01*
X17187869Y9994876D01*
X17187875Y9994878D01*
X17354368Y10078980D01*
X17354370Y10078982D01*
X17358689Y10081163D01*
X17362506Y10084145D01*
X17509487Y10198978D01*
X17509491Y10198982D01*
X17513303Y10201960D01*
X17538915Y10231631D01*
X17638345Y10346823D01*
X17638347Y10346825D01*
X17641509Y10350489D01*
X17649521Y10364592D01*
X17736036Y10516885D01*
X17736037Y10516888D01*
X17738425Y10521091D01*
X17749905Y10555599D01*
X17798831Y10702677D01*
X17798831Y10702679D01*
X17800358Y10707268D01*
X17824949Y10901929D01*
X17825341Y10930000D01*
X17824438Y10939217D01*
X17808012Y11106730D01*
X17806194Y11125272D01*
X17749484Y11313106D01*
X17676960Y11449504D01*
X17659643Y11482073D01*
X17659641Y11482077D01*
X17657370Y11486347D01*
X17533361Y11638398D01*
X17382180Y11763465D01*
X17209585Y11856787D01*
X17022152Y11914807D01*
X17017342Y11915313D01*
X17017340Y11915313D01*
X16831835Y11934811D01*
X16831833Y11934811D01*
X16827019Y11935317D01*
X16776309Y11930702D01*
X16636438Y11917973D01*
X16636435Y11917972D01*
X16631618Y11917534D01*
X16626976Y11916168D01*
X16626972Y11916167D01*
X16448040Y11863504D01*
X16448037Y11863503D01*
X16443393Y11862136D01*
X16269512Y11771233D01*
X16265743Y11768203D01*
X16265742Y11768202D01*
X16256016Y11760382D01*
X16116600Y11648289D01*
X16090186Y11616810D01*
X15993589Y11501690D01*
X15993586Y11501686D01*
X15990480Y11497984D01*
X15895956Y11326046D01*
X15894492Y11321432D01*
X15894491Y11321429D01*
X15877600Y11268182D01*
X15836628Y11139022D01*
X15836088Y11134210D01*
X15836088Y11134209D01*
X15829923Y11079241D01*
X15814757Y10944037D01*
X12310500Y10944037D01*
X12310500Y13484037D01*
X15814757Y13484037D01*
X15831175Y13288517D01*
X15832508Y13283869D01*
X15832508Y13283868D01*
X15872540Y13144263D01*
X15885258Y13099909D01*
X15887473Y13095599D01*
X15972731Y12929704D01*
X15972734Y12929700D01*
X15974944Y12925399D01*
X16096818Y12771631D01*
X16100505Y12768493D01*
X16100507Y12768491D01*
X16242550Y12647603D01*
X16242555Y12647600D01*
X16246238Y12644465D01*
X16250460Y12642105D01*
X16250465Y12642102D01*
X16349266Y12586885D01*
X16417513Y12548743D01*
X16507058Y12519648D01*
X16599513Y12489607D01*
X16599516Y12489606D01*
X16604118Y12488111D01*
X16798946Y12464879D01*
X16803768Y12465250D01*
X16803771Y12465250D01*
X16989748Y12479560D01*
X16989753Y12479561D01*
X16994576Y12479932D01*
X17183556Y12532697D01*
X17187869Y12534876D01*
X17187875Y12534878D01*
X17354368Y12618980D01*
X17354370Y12618982D01*
X17358689Y12621163D01*
X17376628Y12635178D01*
X17459061Y12699582D01*
X17516556Y12720509D01*
X17575371Y12703644D01*
X17613041Y12655429D01*
X17619011Y12621569D01*
X17619011Y12527056D01*
X17626466Y12504114D01*
X17630092Y12489008D01*
X17633865Y12465185D01*
X17644816Y12443692D01*
X17650759Y12429346D01*
X17658215Y12406399D01*
X17662796Y12400094D01*
X17672394Y12386884D01*
X17680509Y12373643D01*
X17691461Y12352147D01*
X17714024Y12329584D01*
X17714027Y12329580D01*
X22834322Y7209285D01*
X22862099Y7154768D01*
X22858684Y7109349D01*
X22817484Y6979468D01*
X22810536Y6917525D01*
X22797489Y6801203D01*
X22794520Y6774738D01*
X22811759Y6569447D01*
X22813092Y6564799D01*
X22813092Y6564798D01*
X22859753Y6402073D01*
X22868544Y6371414D01*
X22962712Y6188182D01*
X23090677Y6026730D01*
X23094357Y6023598D01*
X23094359Y6023596D01*
X23207017Y5927717D01*
X23247564Y5893209D01*
X23251787Y5890849D01*
X23251791Y5890846D01*
X23368702Y5825507D01*
X23427398Y5792703D01*
X23431996Y5791209D01*
X23618724Y5730537D01*
X23618726Y5730536D01*
X23623329Y5729041D01*
X23827894Y5704649D01*
X23832716Y5705020D01*
X23832719Y5705020D01*
X23900541Y5710239D01*
X24033300Y5720454D01*
X24231725Y5775855D01*
X24236038Y5778034D01*
X24236044Y5778036D01*
X24411289Y5866559D01*
X24411291Y5866560D01*
X24415610Y5868742D01*
X24450943Y5896347D01*
X24574135Y5992594D01*
X24574139Y5992598D01*
X24577951Y5995576D01*
X24712564Y6151528D01*
X24731231Y6184387D01*
X24811934Y6326450D01*
X24811935Y6326453D01*
X24814323Y6330656D01*
X24822165Y6354228D01*
X24877824Y6521546D01*
X24877824Y6521548D01*
X24879351Y6526137D01*
X24882953Y6554645D01*
X24904823Y6727772D01*
X24905171Y6730526D01*
X24905583Y6760000D01*
X24905313Y6762756D01*
X24885952Y6960220D01*
X24885951Y6960224D01*
X24885480Y6965030D01*
X24864082Y7035905D01*
X24833157Y7138331D01*
X24825935Y7162251D01*
X24729218Y7344151D01*
X24599011Y7503800D01*
X24558512Y7537304D01*
X24444002Y7632035D01*
X24444000Y7632036D01*
X24440275Y7635118D01*
X24259055Y7733103D01*
X24189648Y7754588D01*
X24066875Y7792593D01*
X24066871Y7792594D01*
X24062254Y7794023D01*
X24057446Y7794528D01*
X24057443Y7794529D01*
X23862185Y7815051D01*
X23862183Y7815051D01*
X23857369Y7815557D01*
X23797354Y7810095D01*
X23657022Y7797325D01*
X23657017Y7797324D01*
X23652203Y7796886D01*
X23497906Y7751474D01*
X23436745Y7753182D01*
X23399951Y7776442D01*
X18449007Y12727386D01*
X18421230Y12781903D01*
X18420011Y12797390D01*
X18420011Y13924588D01*
X18438918Y13982779D01*
X18488418Y14018743D01*
X18549604Y14018743D01*
X18589015Y13994592D01*
X22834322Y9749285D01*
X22862099Y9694768D01*
X22858684Y9649349D01*
X22817484Y9519468D01*
X22816944Y9514652D01*
X22801315Y9375313D01*
X22794520Y9314738D01*
X22811759Y9109447D01*
X22813092Y9104799D01*
X22813092Y9104798D01*
X22859753Y8942073D01*
X22868544Y8911414D01*
X22962712Y8728182D01*
X23090677Y8566730D01*
X23094357Y8563598D01*
X23094359Y8563596D01*
X23207017Y8467717D01*
X23247564Y8433209D01*
X23251787Y8430849D01*
X23251791Y8430846D01*
X23368702Y8365507D01*
X23427398Y8332703D01*
X23431996Y8331209D01*
X23618724Y8270537D01*
X23618726Y8270536D01*
X23623329Y8269041D01*
X23827894Y8244649D01*
X23832716Y8245020D01*
X23832719Y8245020D01*
X23900541Y8250239D01*
X24033300Y8260454D01*
X24231725Y8315855D01*
X24236038Y8318034D01*
X24236044Y8318036D01*
X24411289Y8406559D01*
X24411291Y8406560D01*
X24415610Y8408742D01*
X24450943Y8436347D01*
X24574135Y8532594D01*
X24574139Y8532598D01*
X24577951Y8535576D01*
X24712564Y8691528D01*
X24731231Y8724387D01*
X24811934Y8866450D01*
X24811935Y8866453D01*
X24814323Y8870656D01*
X24827882Y8911414D01*
X24877824Y9061546D01*
X24877824Y9061548D01*
X24879351Y9066137D01*
X24882953Y9094645D01*
X24904823Y9267772D01*
X24905171Y9270526D01*
X24905583Y9300000D01*
X24903413Y9322136D01*
X24885952Y9500220D01*
X24885951Y9500224D01*
X24885480Y9505030D01*
X24825935Y9702251D01*
X24729218Y9884151D01*
X24599011Y10043800D01*
X24553847Y10081163D01*
X24444002Y10172035D01*
X24444000Y10172036D01*
X24440275Y10175118D01*
X24259055Y10273103D01*
X24189648Y10294588D01*
X24066875Y10332593D01*
X24066871Y10332594D01*
X24062254Y10334023D01*
X24057446Y10334528D01*
X24057443Y10334529D01*
X23862185Y10355051D01*
X23862183Y10355051D01*
X23857369Y10355557D01*
X23797354Y10350095D01*
X23657022Y10337325D01*
X23657017Y10337324D01*
X23652203Y10336886D01*
X23497906Y10291474D01*
X23436745Y10293182D01*
X23399951Y10316442D01*
X19048518Y14667875D01*
X19020741Y14722392D01*
X19019522Y14737879D01*
X19019522Y15865077D01*
X19038429Y15923268D01*
X19087929Y15959232D01*
X19149115Y15959232D01*
X19188526Y15935081D01*
X22834322Y12289285D01*
X22862099Y12234768D01*
X22858684Y12189349D01*
X22817484Y12059468D01*
X22816944Y12054652D01*
X22797489Y11881203D01*
X22794520Y11854738D01*
X22811759Y11649447D01*
X22813092Y11644799D01*
X22813092Y11644798D01*
X22859753Y11482073D01*
X22868544Y11451414D01*
X22962712Y11268182D01*
X23090677Y11106730D01*
X23094357Y11103598D01*
X23094359Y11103596D01*
X23207017Y11007717D01*
X23247564Y10973209D01*
X23251787Y10970849D01*
X23251791Y10970846D01*
X23368702Y10905507D01*
X23427398Y10872703D01*
X23431996Y10871209D01*
X23618724Y10810537D01*
X23618726Y10810536D01*
X23623329Y10809041D01*
X23827894Y10784649D01*
X23832716Y10785020D01*
X23832719Y10785020D01*
X23900541Y10790239D01*
X24033300Y10800454D01*
X24231725Y10855855D01*
X24236038Y10858034D01*
X24236044Y10858036D01*
X24411289Y10946559D01*
X24411291Y10946560D01*
X24415610Y10948742D01*
X24514695Y11026155D01*
X24574135Y11072594D01*
X24574139Y11072598D01*
X24577951Y11075576D01*
X24712564Y11231528D01*
X24722614Y11249219D01*
X24811934Y11406450D01*
X24811935Y11406453D01*
X24814323Y11410656D01*
X24825039Y11442867D01*
X24877824Y11601546D01*
X24877824Y11601548D01*
X24879351Y11606137D01*
X24882953Y11634645D01*
X24904823Y11807772D01*
X24905171Y11810526D01*
X24905583Y11840000D01*
X24903413Y11862136D01*
X24885952Y12040220D01*
X24885951Y12040224D01*
X24885480Y12045030D01*
X24857562Y12137500D01*
X24827333Y12237620D01*
X24825935Y12242251D01*
X24729218Y12424151D01*
X24599011Y12583800D01*
X24553356Y12621569D01*
X24444002Y12712035D01*
X24444000Y12712036D01*
X24440275Y12715118D01*
X24259055Y12813103D01*
X24194190Y12833182D01*
X24066875Y12872593D01*
X24066871Y12872594D01*
X24062254Y12874023D01*
X24057446Y12874528D01*
X24057443Y12874529D01*
X23862185Y12895051D01*
X23862183Y12895051D01*
X23857369Y12895557D01*
X23797354Y12890095D01*
X23657022Y12877325D01*
X23657017Y12877324D01*
X23652203Y12876886D01*
X23497906Y12831474D01*
X23436745Y12833182D01*
X23399951Y12856442D01*
X19648028Y16608365D01*
X19620251Y16662882D01*
X19619032Y16678369D01*
X19619032Y17805567D01*
X19637939Y17863758D01*
X19687439Y17899722D01*
X19748625Y17899722D01*
X19788036Y17875571D01*
X22834322Y14829285D01*
X22862099Y14774768D01*
X22858684Y14729349D01*
X22817484Y14599468D01*
X22816944Y14594652D01*
X22801315Y14455313D01*
X22794520Y14394738D01*
X22794925Y14389918D01*
X22808877Y14223773D01*
X22811759Y14189447D01*
X22813092Y14184799D01*
X22813092Y14184798D01*
X22860708Y14018743D01*
X22868544Y13991414D01*
X22962712Y13808182D01*
X23090677Y13646730D01*
X23094357Y13643598D01*
X23094359Y13643596D01*
X23207017Y13547717D01*
X23247564Y13513209D01*
X23251787Y13510849D01*
X23251791Y13510846D01*
X23368702Y13445507D01*
X23427398Y13412703D01*
X23431996Y13411209D01*
X23618724Y13350537D01*
X23618726Y13350536D01*
X23623329Y13349041D01*
X23827894Y13324649D01*
X23832716Y13325020D01*
X23832719Y13325020D01*
X23900541Y13330239D01*
X24033300Y13340454D01*
X24231725Y13395855D01*
X24236038Y13398034D01*
X24236044Y13398036D01*
X24411289Y13486559D01*
X24411291Y13486560D01*
X24415610Y13488742D01*
X24419427Y13491724D01*
X24574135Y13612594D01*
X24574139Y13612598D01*
X24577951Y13615576D01*
X24601384Y13642723D01*
X24682655Y13736878D01*
X24712564Y13771528D01*
X24731231Y13804387D01*
X24811934Y13946450D01*
X24811935Y13946453D01*
X24814323Y13950656D01*
X24822165Y13974228D01*
X24877824Y14141546D01*
X24877825Y14141550D01*
X24879351Y14146137D01*
X24882953Y14174645D01*
X24904823Y14347772D01*
X24905171Y14350526D01*
X24905583Y14380000D01*
X24903413Y14402136D01*
X24885952Y14580220D01*
X24885951Y14580224D01*
X24885480Y14585030D01*
X24860468Y14667875D01*
X24827333Y14777620D01*
X24825935Y14782251D01*
X24729218Y14964151D01*
X24599011Y15123800D01*
X24553356Y15161569D01*
X24444002Y15252035D01*
X24444000Y15252036D01*
X24440275Y15255118D01*
X24259055Y15353103D01*
X24194190Y15373182D01*
X24066875Y15412593D01*
X24066871Y15412594D01*
X24062254Y15414023D01*
X24057446Y15414528D01*
X24057443Y15414529D01*
X23862185Y15435051D01*
X23862183Y15435051D01*
X23857369Y15435557D01*
X23797354Y15430095D01*
X23657022Y15417325D01*
X23657017Y15417324D01*
X23652203Y15416886D01*
X23497906Y15371474D01*
X23436745Y15373182D01*
X23399951Y15396442D01*
X20404496Y18391897D01*
X20376719Y18446414D01*
X20375500Y18461901D01*
X20375500Y25618433D01*
X20368044Y25641380D01*
X20364419Y25656481D01*
X20361865Y25672609D01*
X20361864Y25672611D01*
X20360646Y25680304D01*
X20349694Y25701799D01*
X20343751Y25716145D01*
X20338704Y25731680D01*
X20338702Y25731684D01*
X20336296Y25739089D01*
X20322113Y25758610D01*
X20314001Y25771849D01*
X20306586Y25786403D01*
X20306584Y25786405D01*
X20303050Y25793342D01*
X20280487Y25815905D01*
X20280484Y25815909D01*
X17795858Y28300535D01*
X17768081Y28355052D01*
X17771923Y28401788D01*
X17798831Y28482677D01*
X17798831Y28482679D01*
X17800358Y28487268D01*
X17801259Y28494395D01*
X17818964Y28634554D01*
X17824949Y28681929D01*
X17825341Y28710000D01*
X17824438Y28719217D01*
X17808012Y28886730D01*
X17806194Y28905272D01*
X17749484Y29093106D01*
X17678236Y29227104D01*
X17659643Y29262073D01*
X17659641Y29262077D01*
X17657370Y29266347D01*
X17586710Y29352986D01*
X17536422Y29414645D01*
X17536421Y29414646D01*
X17533361Y29418398D01*
X17382180Y29543465D01*
X17209585Y29636787D01*
X17022152Y29694807D01*
X17017342Y29695313D01*
X17017340Y29695313D01*
X16831835Y29714811D01*
X16831833Y29714811D01*
X16827019Y29715317D01*
X16762891Y29709481D01*
X16636438Y29697973D01*
X16636435Y29697972D01*
X16631618Y29697534D01*
X16626976Y29696168D01*
X16626972Y29696167D01*
X16448040Y29643504D01*
X16448037Y29643503D01*
X16443393Y29642136D01*
X16269512Y29551233D01*
X16265743Y29548203D01*
X16265742Y29548202D01*
X16256016Y29540382D01*
X16116600Y29428289D01*
X16090186Y29396810D01*
X15993589Y29281690D01*
X15993586Y29281686D01*
X15990480Y29277984D01*
X15895956Y29106046D01*
X15894492Y29101432D01*
X15894491Y29101429D01*
X15854266Y28974623D01*
X15836628Y28919022D01*
X15836088Y28914210D01*
X15836088Y28914209D01*
X15815871Y28733965D01*
X15814757Y28724037D01*
X15818060Y28684704D01*
X15827984Y28566524D01*
X15831175Y28528517D01*
X15832508Y28523869D01*
X15832508Y28523868D01*
X15881481Y28353082D01*
X15885258Y28339909D01*
X15887473Y28335599D01*
X15972731Y28169704D01*
X15972734Y28169700D01*
X15974944Y28165399D01*
X16096818Y28011631D01*
X16100505Y28008493D01*
X16100507Y28008491D01*
X16242550Y27887603D01*
X16242555Y27887600D01*
X16246238Y27884465D01*
X16250460Y27882105D01*
X16250465Y27882102D01*
X16348475Y27827327D01*
X16417513Y27788743D01*
X16509840Y27758744D01*
X16599513Y27729607D01*
X16599516Y27729606D01*
X16604118Y27728111D01*
X16798946Y27704879D01*
X16803768Y27705250D01*
X16803771Y27705250D01*
X16989748Y27719560D01*
X16989753Y27719561D01*
X16994576Y27719932D01*
X17021817Y27727538D01*
X17133585Y27758744D01*
X17194717Y27756182D01*
X17230212Y27733395D01*
X19545504Y25418103D01*
X19573281Y25363586D01*
X19574500Y25348099D01*
X19574500Y24220900D01*
X19555593Y24162709D01*
X19506093Y24126745D01*
X19444907Y24126745D01*
X19405496Y24150896D01*
X17795858Y25760535D01*
X17768081Y25815052D01*
X17771923Y25861788D01*
X17798831Y25942677D01*
X17798831Y25942679D01*
X17800358Y25947268D01*
X17824949Y26141929D01*
X17825341Y26170000D01*
X17824438Y26179217D01*
X17808012Y26346730D01*
X17806194Y26365272D01*
X17749484Y26553106D01*
X17697616Y26650656D01*
X17659643Y26722073D01*
X17659641Y26722077D01*
X17657370Y26726347D01*
X17652040Y26732883D01*
X17536422Y26874645D01*
X17536421Y26874646D01*
X17533361Y26878398D01*
X17382180Y27003465D01*
X17209585Y27096787D01*
X17022152Y27154807D01*
X17017342Y27155313D01*
X17017340Y27155313D01*
X16831835Y27174811D01*
X16831833Y27174811D01*
X16827019Y27175317D01*
X16762891Y27169481D01*
X16636438Y27157973D01*
X16636435Y27157972D01*
X16631618Y27157534D01*
X16626976Y27156168D01*
X16626972Y27156167D01*
X16448040Y27103504D01*
X16448037Y27103503D01*
X16443393Y27102136D01*
X16269512Y27011233D01*
X16265743Y27008203D01*
X16265742Y27008202D01*
X16256016Y27000382D01*
X16116600Y26888289D01*
X16090186Y26856810D01*
X15993589Y26741690D01*
X15993586Y26741686D01*
X15990480Y26737984D01*
X15895956Y26566046D01*
X15894492Y26561432D01*
X15894491Y26561429D01*
X15877600Y26508182D01*
X15836628Y26379022D01*
X15836088Y26374210D01*
X15836088Y26374209D01*
X15815871Y26193965D01*
X15814757Y26184037D01*
X15818060Y26144704D01*
X15826678Y26042076D01*
X15831175Y25988517D01*
X15832508Y25983869D01*
X15832508Y25983868D01*
X15881481Y25813082D01*
X15885258Y25799909D01*
X15887473Y25795599D01*
X15972731Y25629704D01*
X15972734Y25629700D01*
X15974944Y25625399D01*
X16096818Y25471631D01*
X16100505Y25468493D01*
X16100507Y25468491D01*
X16242550Y25347603D01*
X16242555Y25347600D01*
X16246238Y25344465D01*
X16250460Y25342105D01*
X16250465Y25342102D01*
X16349266Y25286885D01*
X16417513Y25248743D01*
X16509840Y25218744D01*
X16599513Y25189607D01*
X16599516Y25189606D01*
X16604118Y25188111D01*
X16798946Y25164879D01*
X16803768Y25165250D01*
X16803771Y25165250D01*
X16989748Y25179560D01*
X16989753Y25179561D01*
X16994576Y25179932D01*
X17021817Y25187538D01*
X17133585Y25218744D01*
X17194717Y25216182D01*
X17230212Y25193395D01*
X18789036Y23634572D01*
X18816813Y23580055D01*
X18818032Y23564568D01*
X18818032Y22437368D01*
X18799125Y22379177D01*
X18749625Y22343213D01*
X18688439Y22343213D01*
X18649028Y22367364D01*
X17795857Y23220535D01*
X17768080Y23275052D01*
X17771923Y23321789D01*
X17798828Y23402665D01*
X17798831Y23402677D01*
X17800358Y23407268D01*
X17824949Y23601929D01*
X17825341Y23630000D01*
X17824438Y23639217D01*
X17814144Y23744197D01*
X17806194Y23825272D01*
X17749484Y24013106D01*
X17689061Y24126745D01*
X17659643Y24182073D01*
X17659641Y24182077D01*
X17657370Y24186347D01*
X17652040Y24192883D01*
X17536422Y24334645D01*
X17536421Y24334646D01*
X17533361Y24338398D01*
X17382180Y24463465D01*
X17209585Y24556787D01*
X17022152Y24614807D01*
X17017342Y24615313D01*
X17017340Y24615313D01*
X16831835Y24634811D01*
X16831833Y24634811D01*
X16827019Y24635317D01*
X16762891Y24629481D01*
X16636438Y24617973D01*
X16636435Y24617972D01*
X16631618Y24617534D01*
X16626976Y24616168D01*
X16626972Y24616167D01*
X16448040Y24563504D01*
X16448037Y24563503D01*
X16443393Y24562136D01*
X16269512Y24471233D01*
X16265743Y24468203D01*
X16265742Y24468202D01*
X16256016Y24460382D01*
X16116600Y24348289D01*
X16090186Y24316810D01*
X15993589Y24201690D01*
X15993586Y24201686D01*
X15990480Y24197984D01*
X15895956Y24026046D01*
X15894492Y24021432D01*
X15894491Y24021429D01*
X15877600Y23968182D01*
X15836628Y23839022D01*
X15836088Y23834210D01*
X15836088Y23834209D01*
X15825992Y23744197D01*
X15814757Y23644037D01*
X15817987Y23605576D01*
X15829251Y23471433D01*
X15831175Y23448517D01*
X15832508Y23443869D01*
X15832508Y23443868D01*
X15880916Y23275052D01*
X15885258Y23259909D01*
X15887473Y23255599D01*
X15972731Y23089704D01*
X15972734Y23089700D01*
X15974944Y23085399D01*
X16096818Y22931631D01*
X16100505Y22928493D01*
X16100507Y22928491D01*
X16242550Y22807603D01*
X16242555Y22807600D01*
X16246238Y22804465D01*
X16250460Y22802105D01*
X16250465Y22802102D01*
X16349266Y22746885D01*
X16417513Y22708743D01*
X16509840Y22678744D01*
X16599513Y22649607D01*
X16599516Y22649606D01*
X16604118Y22648111D01*
X16798946Y22624879D01*
X16803768Y22625250D01*
X16803771Y22625250D01*
X16989748Y22639560D01*
X16989753Y22639561D01*
X16994576Y22639932D01*
X17021817Y22647538D01*
X17133585Y22678744D01*
X17194717Y22676182D01*
X17230212Y22653395D01*
X17416800Y22466807D01*
X17444577Y22412290D01*
X17435006Y22351858D01*
X17391741Y22308593D01*
X17331309Y22299022D01*
X17304957Y22307079D01*
X17272991Y22321985D01*
X17264898Y22324931D01*
X17089145Y22372024D01*
X17076859Y22371380D01*
X17074000Y22361727D01*
X17074000Y19819598D01*
X17077802Y19807896D01*
X17087864Y19807633D01*
X17264898Y19855069D01*
X17272991Y19858015D01*
X17472573Y19951082D01*
X17480043Y19955394D01*
X17660437Y20081708D01*
X17667032Y20087241D01*
X17822759Y20242968D01*
X17828292Y20249563D01*
X17954606Y20429957D01*
X17958918Y20437427D01*
X18029798Y20589429D01*
X18071526Y20634177D01*
X18131587Y20645852D01*
X18187040Y20619994D01*
X18216703Y20566480D01*
X18218522Y20547590D01*
X18218522Y17956879D01*
X18199615Y17898688D01*
X18150115Y17862724D01*
X18088929Y17862724D01*
X18049518Y17886875D01*
X17795858Y18140535D01*
X17768081Y18195052D01*
X17771923Y18241788D01*
X17798831Y18322677D01*
X17798831Y18322679D01*
X17800358Y18327268D01*
X17808523Y18391897D01*
X17818964Y18474554D01*
X17824949Y18521929D01*
X17825341Y18550000D01*
X17824438Y18559217D01*
X17811067Y18695576D01*
X17806194Y18745272D01*
X17749484Y18933106D01*
X17685082Y19054228D01*
X17659643Y19102073D01*
X17659641Y19102077D01*
X17657370Y19106347D01*
X17578891Y19202573D01*
X17536422Y19254645D01*
X17536421Y19254646D01*
X17533361Y19258398D01*
X17382180Y19383465D01*
X17209585Y19476787D01*
X17022152Y19534807D01*
X17017342Y19535313D01*
X17017340Y19535313D01*
X16831835Y19554811D01*
X16831833Y19554811D01*
X16827019Y19555317D01*
X16762891Y19549481D01*
X16636438Y19537973D01*
X16636435Y19537972D01*
X16631618Y19537534D01*
X16626976Y19536168D01*
X16626972Y19536167D01*
X16448040Y19483504D01*
X16448037Y19483503D01*
X16443393Y19482136D01*
X16269512Y19391233D01*
X16265743Y19388203D01*
X16265742Y19388202D01*
X16256016Y19380382D01*
X16116600Y19268289D01*
X16102313Y19251262D01*
X15993589Y19121690D01*
X15993586Y19121686D01*
X15990480Y19117984D01*
X15895956Y18946046D01*
X15894492Y18941432D01*
X15894491Y18941429D01*
X15851846Y18806995D01*
X15836628Y18759022D01*
X15836088Y18754210D01*
X15836088Y18754209D01*
X15817974Y18592715D01*
X15814757Y18564037D01*
X15818293Y18521929D01*
X15829212Y18391897D01*
X15831175Y18368517D01*
X15832508Y18363869D01*
X15832508Y18363868D01*
X15880916Y18195052D01*
X15885258Y18179909D01*
X15887473Y18175599D01*
X15972731Y18009704D01*
X15972734Y18009700D01*
X15974944Y18005399D01*
X15977951Y18001605D01*
X15992320Y17983476D01*
X16096818Y17851631D01*
X16100505Y17848493D01*
X16100507Y17848491D01*
X16242550Y17727603D01*
X16242555Y17727600D01*
X16246238Y17724465D01*
X16250460Y17722105D01*
X16250465Y17722102D01*
X16349266Y17666885D01*
X16417513Y17628743D01*
X16509840Y17598744D01*
X16599513Y17569607D01*
X16599516Y17569606D01*
X16604118Y17568111D01*
X16798946Y17544879D01*
X16803768Y17545250D01*
X16803771Y17545250D01*
X16989748Y17559560D01*
X16989753Y17559561D01*
X16994576Y17559932D01*
X17021817Y17567538D01*
X17133585Y17598744D01*
X17194717Y17596182D01*
X17230212Y17573395D01*
X17590015Y17213592D01*
X17617792Y17159075D01*
X17619011Y17143588D01*
X17619011Y16857928D01*
X17600104Y16799737D01*
X17550604Y16763773D01*
X17489418Y16763773D01*
X17456906Y16781647D01*
X17385907Y16840382D01*
X17385906Y16840383D01*
X17382180Y16843465D01*
X17209585Y16936787D01*
X17022152Y16994807D01*
X17017342Y16995313D01*
X17017340Y16995313D01*
X16831835Y17014811D01*
X16831833Y17014811D01*
X16827019Y17015317D01*
X16762891Y17009481D01*
X16636438Y16997973D01*
X16636435Y16997972D01*
X16631618Y16997534D01*
X16626976Y16996168D01*
X16626972Y16996167D01*
X16448040Y16943504D01*
X16448037Y16943503D01*
X16443393Y16942136D01*
X16269512Y16851233D01*
X16265743Y16848203D01*
X16265742Y16848202D01*
X16256084Y16840437D01*
X16116600Y16728289D01*
X16090186Y16696810D01*
X15993589Y16581690D01*
X15993586Y16581686D01*
X15990480Y16577984D01*
X15895956Y16406046D01*
X15894492Y16401432D01*
X15894491Y16401429D01*
X15878460Y16350892D01*
X15836628Y16219022D01*
X15836088Y16214210D01*
X15836088Y16214209D01*
X15819084Y16062610D01*
X15814757Y16024037D01*
X15831175Y15828517D01*
X15832508Y15823869D01*
X15832508Y15823868D01*
X15844320Y15782677D01*
X15885258Y15639909D01*
X15887473Y15635599D01*
X15972731Y15469704D01*
X15972734Y15469700D01*
X15974944Y15465399D01*
X16096818Y15311631D01*
X16100505Y15308493D01*
X16100507Y15308491D01*
X16242550Y15187603D01*
X16242555Y15187600D01*
X16246238Y15184465D01*
X16250460Y15182105D01*
X16250465Y15182102D01*
X16349266Y15126885D01*
X16417513Y15088743D01*
X16518549Y15055914D01*
X16599513Y15029607D01*
X16599516Y15029606D01*
X16604118Y15028111D01*
X16798946Y15004879D01*
X16803768Y15005250D01*
X16803771Y15005250D01*
X16989748Y15019560D01*
X16989753Y15019561D01*
X16994576Y15019932D01*
X17183556Y15072697D01*
X17187869Y15074876D01*
X17187875Y15074878D01*
X17354368Y15158980D01*
X17354370Y15158982D01*
X17358689Y15161163D01*
X17459062Y15239582D01*
X17516556Y15260509D01*
X17575371Y15243644D01*
X17613041Y15195429D01*
X17619011Y15161569D01*
X17619011Y14317928D01*
X17600104Y14259737D01*
X17550604Y14223773D01*
X17489418Y14223773D01*
X17456906Y14241647D01*
X17385907Y14300382D01*
X17385906Y14300383D01*
X17382180Y14303465D01*
X17209585Y14396787D01*
X17022152Y14454807D01*
X17017342Y14455313D01*
X17017340Y14455313D01*
X16831835Y14474811D01*
X16831833Y14474811D01*
X16827019Y14475317D01*
X16762891Y14469481D01*
X16636438Y14457973D01*
X16636435Y14457972D01*
X16631618Y14457534D01*
X16626976Y14456168D01*
X16626972Y14456167D01*
X16448040Y14403504D01*
X16448037Y14403503D01*
X16443393Y14402136D01*
X16269512Y14311233D01*
X16265743Y14308203D01*
X16265742Y14308202D01*
X16256016Y14300382D01*
X16116600Y14188289D01*
X16095880Y14163596D01*
X15993589Y14041690D01*
X15993586Y14041686D01*
X15990480Y14037984D01*
X15895956Y13866046D01*
X15894492Y13861432D01*
X15894491Y13861429D01*
X15877600Y13808182D01*
X15836628Y13679022D01*
X15836088Y13674210D01*
X15836088Y13674209D01*
X15816309Y13497870D01*
X15814757Y13484037D01*
X12310500Y13484037D01*
X12310500Y18510798D01*
X12311347Y18523720D01*
X12314618Y18548566D01*
X12315465Y18555000D01*
X12310500Y18592715D01*
X12310500Y18592720D01*
X12295687Y18705236D01*
X12237698Y18845233D01*
X12204742Y18888182D01*
X12168612Y18935268D01*
X12168609Y18935271D01*
X12145451Y18965451D01*
X12120416Y18984661D01*
X12110687Y18993193D01*
X10281744Y20822136D01*
X15537633Y20822136D01*
X15585069Y20645102D01*
X15588015Y20637009D01*
X15681082Y20437427D01*
X15685394Y20429957D01*
X15811708Y20249563D01*
X15817241Y20242968D01*
X15972968Y20087241D01*
X15979563Y20081708D01*
X16159957Y19955394D01*
X16167427Y19951082D01*
X16367009Y19858015D01*
X16375102Y19855069D01*
X16550855Y19807976D01*
X16563141Y19808620D01*
X16566000Y19818273D01*
X16566000Y20820320D01*
X16561878Y20833005D01*
X16557757Y20836000D01*
X15549598Y20836000D01*
X15537896Y20832198D01*
X15537633Y20822136D01*
X10281744Y20822136D01*
X10220961Y20882919D01*
X10193184Y20937436D01*
X10192746Y20965331D01*
X10204601Y21059176D01*
X10204949Y21061929D01*
X10205341Y21090000D01*
X10204438Y21099217D01*
X10195968Y21185591D01*
X10209106Y21245349D01*
X10224491Y21265256D01*
X10318380Y21359145D01*
X15537976Y21359145D01*
X15538620Y21346859D01*
X15548273Y21344000D01*
X16550320Y21344000D01*
X16563005Y21348122D01*
X16566000Y21352243D01*
X16566000Y22360402D01*
X16562198Y22372104D01*
X16552136Y22372367D01*
X16375102Y22324931D01*
X16367009Y22321985D01*
X16167427Y22228918D01*
X16159957Y22224606D01*
X15979563Y22098292D01*
X15972968Y22092759D01*
X15817241Y21937032D01*
X15811708Y21930437D01*
X15685394Y21750043D01*
X15681082Y21742573D01*
X15588015Y21542991D01*
X15585069Y21534898D01*
X15537976Y21359145D01*
X10318380Y21359145D01*
X11967199Y23007964D01*
X11976936Y23016502D01*
X11998129Y23032764D01*
X12003282Y23036718D01*
X12099536Y23162159D01*
X12160044Y23308238D01*
X12175500Y23425639D01*
X12180682Y23465000D01*
X12176347Y23497928D01*
X12175500Y23510849D01*
X12175500Y36464279D01*
X12194407Y36522470D01*
X12204496Y36534283D01*
X12770228Y37100015D01*
X12824745Y37127792D01*
X12840232Y37129011D01*
X15972027Y37129011D01*
X16030218Y37110104D01*
X16066182Y37060604D01*
X16066182Y36999418D01*
X16047866Y36966376D01*
X15993593Y36901695D01*
X15993589Y36901689D01*
X15990480Y36897984D01*
X15895956Y36726046D01*
X15836628Y36539022D01*
X15836088Y36534210D01*
X15836088Y36534209D01*
X15815971Y36354856D01*
X15814757Y36344037D01*
X15819272Y36290268D01*
X15827734Y36189500D01*
X15831175Y36148517D01*
X15832508Y36143869D01*
X15832508Y36143868D01*
X15880916Y35975052D01*
X15885258Y35959909D01*
X15887473Y35955599D01*
X15972731Y35789704D01*
X15972734Y35789700D01*
X15974944Y35785399D01*
X16096818Y35631631D01*
X16100505Y35628493D01*
X16100507Y35628491D01*
X16242550Y35507603D01*
X16242555Y35507600D01*
X16246238Y35504465D01*
X16250460Y35502105D01*
X16250465Y35502102D01*
X16323410Y35461335D01*
X16417513Y35408743D01*
X16501598Y35381422D01*
X16599513Y35349607D01*
X16599516Y35349606D01*
X16604118Y35348111D01*
X16798946Y35324879D01*
X16803768Y35325250D01*
X16803771Y35325250D01*
X16989748Y35339560D01*
X16989753Y35339561D01*
X16994576Y35339932D01*
X17021817Y35347538D01*
X17133585Y35378744D01*
X17194717Y35376182D01*
X17230212Y35353395D01*
X20621971Y31961636D01*
X20649748Y31907119D01*
X20650967Y31891632D01*
X20650967Y30764434D01*
X20632060Y30706243D01*
X20582560Y30670279D01*
X20521374Y30670279D01*
X20481963Y30694430D01*
X17795858Y33380535D01*
X17768081Y33435052D01*
X17771923Y33481788D01*
X17798831Y33562677D01*
X17798831Y33562679D01*
X17800358Y33567268D01*
X17824949Y33761929D01*
X17825341Y33790000D01*
X17824438Y33799217D01*
X17806666Y33980454D01*
X17806194Y33985272D01*
X17749484Y34173106D01*
X17700664Y34264922D01*
X17659643Y34342073D01*
X17659641Y34342077D01*
X17657370Y34346347D01*
X17560676Y34464907D01*
X17536422Y34494645D01*
X17536421Y34494646D01*
X17533361Y34498398D01*
X17382180Y34623465D01*
X17209585Y34716787D01*
X17022152Y34774807D01*
X17017342Y34775313D01*
X17017340Y34775313D01*
X16831835Y34794811D01*
X16831833Y34794811D01*
X16827019Y34795317D01*
X16762891Y34789481D01*
X16636438Y34777973D01*
X16636435Y34777972D01*
X16631618Y34777534D01*
X16626976Y34776168D01*
X16626972Y34776167D01*
X16448040Y34723504D01*
X16448037Y34723503D01*
X16443393Y34722136D01*
X16269512Y34631233D01*
X16265743Y34628203D01*
X16265742Y34628202D01*
X16256016Y34620382D01*
X16116600Y34508289D01*
X16090186Y34476810D01*
X15993589Y34361690D01*
X15993586Y34361686D01*
X15990480Y34357984D01*
X15895956Y34186046D01*
X15894492Y34181432D01*
X15894491Y34181429D01*
X15882918Y34144946D01*
X15836628Y33999022D01*
X15836088Y33994210D01*
X15836088Y33994209D01*
X15815326Y33809107D01*
X15814757Y33804037D01*
X15818060Y33764704D01*
X15826678Y33662076D01*
X15831175Y33608517D01*
X15832508Y33603869D01*
X15832508Y33603868D01*
X15881481Y33433082D01*
X15885258Y33419909D01*
X15887473Y33415599D01*
X15972731Y33249704D01*
X15972734Y33249700D01*
X15974944Y33245399D01*
X16096818Y33091631D01*
X16100505Y33088493D01*
X16100507Y33088491D01*
X16242550Y32967603D01*
X16242555Y32967600D01*
X16246238Y32964465D01*
X16250460Y32962105D01*
X16250465Y32962102D01*
X16291838Y32938980D01*
X16417513Y32868743D01*
X16509840Y32838744D01*
X16599513Y32809607D01*
X16599516Y32809606D01*
X16604118Y32808111D01*
X16798946Y32784879D01*
X16803768Y32785250D01*
X16803771Y32785250D01*
X16989748Y32799560D01*
X16989753Y32799561D01*
X16994576Y32799932D01*
X17021817Y32807538D01*
X17133585Y32838744D01*
X17194717Y32836182D01*
X17230212Y32813395D01*
X20022461Y30021146D01*
X20050238Y29966629D01*
X20051457Y29951142D01*
X20051456Y28823945D01*
X20032549Y28765754D01*
X19983049Y28729790D01*
X19921863Y28729790D01*
X19882452Y28753941D01*
X17795858Y30840535D01*
X17768081Y30895052D01*
X17771923Y30941788D01*
X17798831Y31022677D01*
X17798831Y31022679D01*
X17800358Y31027268D01*
X17801259Y31034395D01*
X17818964Y31174554D01*
X17824949Y31221929D01*
X17825004Y31225823D01*
X17825302Y31247230D01*
X17825341Y31250000D01*
X17824438Y31259217D01*
X17815421Y31351169D01*
X17806194Y31445272D01*
X17749484Y31633106D01*
X17678236Y31767104D01*
X17659643Y31802073D01*
X17659641Y31802077D01*
X17657370Y31806347D01*
X17533361Y31958398D01*
X17382180Y32083465D01*
X17209585Y32176787D01*
X17022152Y32234807D01*
X17017342Y32235313D01*
X17017340Y32235313D01*
X16831835Y32254811D01*
X16831833Y32254811D01*
X16827019Y32255317D01*
X16762891Y32249481D01*
X16636438Y32237973D01*
X16636435Y32237972D01*
X16631618Y32237534D01*
X16626976Y32236168D01*
X16626972Y32236167D01*
X16448040Y32183504D01*
X16448037Y32183503D01*
X16443393Y32182136D01*
X16269512Y32091233D01*
X16265743Y32088203D01*
X16265742Y32088202D01*
X16256016Y32080382D01*
X16116600Y31968289D01*
X16090186Y31936810D01*
X15993589Y31821690D01*
X15993586Y31821686D01*
X15990480Y31817984D01*
X15895956Y31646046D01*
X15894492Y31641432D01*
X15894491Y31641429D01*
X15867309Y31555740D01*
X15836628Y31459022D01*
X15836088Y31454210D01*
X15836088Y31454209D01*
X15829923Y31399241D01*
X15814757Y31264037D01*
X15817966Y31225823D01*
X15827984Y31106524D01*
X15831175Y31068517D01*
X15832508Y31063869D01*
X15832508Y31063868D01*
X15880916Y30895052D01*
X15885258Y30879909D01*
X15887473Y30875599D01*
X15972731Y30709704D01*
X15972734Y30709700D01*
X15974944Y30705399D01*
X16096818Y30551631D01*
X16100505Y30548493D01*
X16100507Y30548491D01*
X16242550Y30427603D01*
X16242555Y30427600D01*
X16246238Y30424465D01*
X16250460Y30422105D01*
X16250465Y30422102D01*
X16291838Y30398980D01*
X16417513Y30328743D01*
X16509840Y30298744D01*
X16599513Y30269607D01*
X16599516Y30269606D01*
X16604118Y30268111D01*
X16798946Y30244879D01*
X16803768Y30245250D01*
X16803771Y30245250D01*
X16989748Y30259560D01*
X16989753Y30259561D01*
X16994576Y30259932D01*
X17021817Y30267538D01*
X17133585Y30298744D01*
X17194717Y30296182D01*
X17230212Y30273395D01*
X20935504Y26568103D01*
X20963281Y26513586D01*
X20964500Y26498099D01*
X20964500Y19341567D01*
X20971955Y19318625D01*
X20975581Y19303519D01*
X20979354Y19279696D01*
X20990305Y19258203D01*
X20996248Y19243857D01*
X21003704Y19220910D01*
X21008285Y19214605D01*
X21017883Y19201395D01*
X21025998Y19188154D01*
X21036950Y19166658D01*
X21059513Y19144095D01*
X21059516Y19144091D01*
X22834322Y17369285D01*
X22862099Y17314768D01*
X22858684Y17269349D01*
X22817484Y17139468D01*
X22816944Y17134652D01*
X22801315Y16995313D01*
X22794520Y16934738D01*
X22794925Y16929918D01*
X22808877Y16763773D01*
X22811759Y16729447D01*
X22813092Y16724799D01*
X22813092Y16724798D01*
X22859753Y16562073D01*
X22868544Y16531414D01*
X22962712Y16348182D01*
X23090677Y16186730D01*
X23094357Y16183598D01*
X23094359Y16183596D01*
X23158252Y16129219D01*
X23247564Y16053209D01*
X23251787Y16050849D01*
X23251791Y16050846D01*
X23368702Y15985507D01*
X23427398Y15952703D01*
X23431996Y15951209D01*
X23618724Y15890537D01*
X23618726Y15890536D01*
X23623329Y15889041D01*
X23827894Y15864649D01*
X23832716Y15865020D01*
X23832719Y15865020D01*
X23900541Y15870239D01*
X24033300Y15880454D01*
X24231725Y15935855D01*
X24236038Y15938034D01*
X24236044Y15938036D01*
X24411289Y16026559D01*
X24411291Y16026560D01*
X24415610Y16028742D01*
X24450943Y16056347D01*
X24574135Y16152594D01*
X24574139Y16152598D01*
X24577951Y16155576D01*
X24712564Y16311528D01*
X24714957Y16315740D01*
X24811934Y16486450D01*
X24811935Y16486453D01*
X24814323Y16490656D01*
X24816208Y16496321D01*
X24877824Y16681546D01*
X24877824Y16681548D01*
X24879351Y16686137D01*
X24882953Y16714645D01*
X24904823Y16887772D01*
X24905171Y16890526D01*
X24905583Y16920000D01*
X24903413Y16942136D01*
X24885952Y17120220D01*
X24885951Y17120224D01*
X24885480Y17125030D01*
X24860538Y17207643D01*
X24827333Y17317620D01*
X24825935Y17322251D01*
X24729218Y17504151D01*
X24599011Y17663800D01*
X24536906Y17715178D01*
X24444002Y17792035D01*
X24444000Y17792036D01*
X24440275Y17795118D01*
X24291480Y17875571D01*
X24263309Y17890803D01*
X24263308Y17890803D01*
X24259055Y17893103D01*
X24194190Y17913182D01*
X24066875Y17952593D01*
X24066871Y17952594D01*
X24062254Y17954023D01*
X24057446Y17954528D01*
X24057443Y17954529D01*
X23862185Y17975051D01*
X23862183Y17975051D01*
X23857369Y17975557D01*
X23797354Y17970095D01*
X23657022Y17957325D01*
X23657017Y17957324D01*
X23652203Y17956886D01*
X23497906Y17911474D01*
X23436745Y17913182D01*
X23399951Y17936442D01*
X21794496Y19541897D01*
X21766719Y19596414D01*
X21765500Y19611901D01*
X21765500Y20739099D01*
X21784407Y20797290D01*
X21833907Y20833254D01*
X21895093Y20833254D01*
X21934504Y20809103D01*
X22834322Y19909285D01*
X22862099Y19854768D01*
X22858684Y19809349D01*
X22817484Y19679468D01*
X22816944Y19674652D01*
X22801315Y19535313D01*
X22794520Y19474738D01*
X22794925Y19469918D01*
X22808252Y19311216D01*
X22811759Y19269447D01*
X22813092Y19264799D01*
X22813092Y19264798D01*
X22859753Y19102073D01*
X22868544Y19071414D01*
X22962712Y18888182D01*
X23090677Y18726730D01*
X23094357Y18723598D01*
X23094359Y18723596D01*
X23207017Y18627717D01*
X23247564Y18593209D01*
X23251787Y18590849D01*
X23251791Y18590846D01*
X23368702Y18525507D01*
X23427398Y18492703D01*
X23431996Y18491209D01*
X23618724Y18430537D01*
X23618726Y18430536D01*
X23623329Y18429041D01*
X23827894Y18404649D01*
X23832716Y18405020D01*
X23832719Y18405020D01*
X23900541Y18410239D01*
X24033300Y18420454D01*
X24231725Y18475855D01*
X24236038Y18478034D01*
X24236044Y18478036D01*
X24411289Y18566559D01*
X24411291Y18566560D01*
X24415610Y18568742D01*
X24443902Y18590846D01*
X24574135Y18692594D01*
X24574139Y18692598D01*
X24577951Y18695576D01*
X24586290Y18705236D01*
X24684612Y18819145D01*
X24712564Y18851528D01*
X24715904Y18857407D01*
X24811934Y19026450D01*
X24811935Y19026453D01*
X24814323Y19030656D01*
X24822165Y19054228D01*
X24877824Y19221546D01*
X24877825Y19221550D01*
X24879351Y19226137D01*
X24882953Y19254645D01*
X24904823Y19427772D01*
X24905171Y19430526D01*
X24905583Y19460000D01*
X24903413Y19482136D01*
X24885952Y19660220D01*
X24885951Y19660224D01*
X24885480Y19665030D01*
X24825935Y19862251D01*
X24729218Y20044151D01*
X24599011Y20203800D01*
X24440275Y20335118D01*
X24328123Y20395758D01*
X24263309Y20430803D01*
X24263308Y20430803D01*
X24259055Y20433103D01*
X24194190Y20453182D01*
X24066875Y20492593D01*
X24066871Y20492594D01*
X24062254Y20494023D01*
X24057446Y20494528D01*
X24057443Y20494529D01*
X23862185Y20515051D01*
X23862183Y20515051D01*
X23857369Y20515557D01*
X23797354Y20510095D01*
X23657022Y20497325D01*
X23657017Y20497324D01*
X23652203Y20496886D01*
X23497906Y20451474D01*
X23436745Y20453182D01*
X23399951Y20476442D01*
X22430474Y21445919D01*
X22402697Y21500436D01*
X22401478Y21515923D01*
X22401478Y22643122D01*
X22420385Y22701313D01*
X22469885Y22737277D01*
X22531071Y22737277D01*
X22570481Y22713126D01*
X22834321Y22449287D01*
X22862099Y22394770D01*
X22858684Y22349349D01*
X22842720Y22299022D01*
X22817484Y22219468D01*
X22816944Y22214656D01*
X22816944Y22214655D01*
X22801564Y22077534D01*
X22794520Y22014738D01*
X22811759Y21809447D01*
X22813092Y21804799D01*
X22813092Y21804798D01*
X22866687Y21617891D01*
X22868544Y21611414D01*
X22962712Y21428182D01*
X23090677Y21266730D01*
X23094357Y21263598D01*
X23094359Y21263596D01*
X23186015Y21185591D01*
X23247564Y21133209D01*
X23251787Y21130849D01*
X23251791Y21130846D01*
X23368702Y21065507D01*
X23427398Y21032703D01*
X23431996Y21031209D01*
X23618724Y20970537D01*
X23618726Y20970536D01*
X23623329Y20969041D01*
X23827894Y20944649D01*
X23832716Y20945020D01*
X23832719Y20945020D01*
X23900541Y20950239D01*
X24033300Y20960454D01*
X24231725Y21015855D01*
X24236038Y21018034D01*
X24236044Y21018036D01*
X24411289Y21106559D01*
X24411291Y21106560D01*
X24415610Y21108742D01*
X24513973Y21185591D01*
X24574135Y21232594D01*
X24574139Y21232598D01*
X24577951Y21235576D01*
X24712564Y21391528D01*
X24731231Y21424387D01*
X24811934Y21566450D01*
X24811935Y21566453D01*
X24814323Y21570656D01*
X24823919Y21599500D01*
X24877824Y21761546D01*
X24877824Y21761548D01*
X24879351Y21766137D01*
X24885059Y21811317D01*
X24904823Y21967772D01*
X24905171Y21970526D01*
X24905583Y22000000D01*
X24903413Y22022136D01*
X24885952Y22200220D01*
X24885951Y22200224D01*
X24885480Y22205030D01*
X24825935Y22402251D01*
X24729218Y22584151D01*
X24599011Y22743800D01*
X24582790Y22757219D01*
X24444002Y22872035D01*
X24444000Y22872036D01*
X24440275Y22875118D01*
X24259055Y22973103D01*
X24194190Y22993182D01*
X24066875Y23032593D01*
X24066871Y23032594D01*
X24062254Y23034023D01*
X24057446Y23034528D01*
X24057443Y23034529D01*
X23862185Y23055051D01*
X23862183Y23055051D01*
X23857369Y23055557D01*
X23797354Y23050095D01*
X23657022Y23037325D01*
X23657017Y23037324D01*
X23652203Y23036886D01*
X23638198Y23032764D01*
X23497905Y22991474D01*
X23436743Y22993182D01*
X23399949Y23016443D01*
X23029985Y23386408D01*
X23002208Y23440924D01*
X23000989Y23456411D01*
X23000989Y23668805D01*
X23019896Y23726996D01*
X23069396Y23762960D01*
X23130582Y23762960D01*
X23164153Y23744197D01*
X23243876Y23676347D01*
X23243881Y23676344D01*
X23247564Y23673209D01*
X23251787Y23670849D01*
X23251791Y23670846D01*
X23368579Y23605576D01*
X23427398Y23572703D01*
X23431996Y23571209D01*
X23618724Y23510537D01*
X23618726Y23510536D01*
X23623329Y23509041D01*
X23827894Y23484649D01*
X23832716Y23485020D01*
X23832719Y23485020D01*
X23900541Y23490239D01*
X24033300Y23500454D01*
X24231725Y23555855D01*
X24236038Y23558034D01*
X24236044Y23558036D01*
X24411289Y23646559D01*
X24411291Y23646560D01*
X24415610Y23648742D01*
X24450943Y23676347D01*
X24574135Y23772594D01*
X24574139Y23772598D01*
X24577951Y23775576D01*
X24712564Y23931528D01*
X24731231Y23964387D01*
X24811934Y24106450D01*
X24811935Y24106453D01*
X24814323Y24110656D01*
X24819676Y24126745D01*
X24877824Y24301546D01*
X24877824Y24301548D01*
X24879351Y24306137D01*
X24882953Y24334645D01*
X24904823Y24507772D01*
X24905171Y24510526D01*
X24905583Y24540000D01*
X24903413Y24562136D01*
X24885952Y24740220D01*
X24885951Y24740224D01*
X24885480Y24745030D01*
X24825935Y24942251D01*
X24729218Y25124151D01*
X24599011Y25283800D01*
X24553847Y25321163D01*
X24444002Y25412035D01*
X24444000Y25412036D01*
X24440275Y25415118D01*
X24259055Y25513103D01*
X24205038Y25529824D01*
X24122061Y25555510D01*
X24072063Y25590780D01*
X24052346Y25648701D01*
X24070439Y25707150D01*
X24119432Y25743801D01*
X24130752Y25746919D01*
X24137202Y25748290D01*
X24343304Y25810124D01*
X24350852Y25813082D01*
X24544087Y25907747D01*
X24551046Y25911896D01*
X24726231Y26036852D01*
X24732412Y26042076D01*
X24884831Y26193965D01*
X24890088Y26200142D01*
X25015651Y26374881D01*
X25019823Y26381824D01*
X25115164Y26574732D01*
X25118144Y26582256D01*
X25180701Y26788157D01*
X25182410Y26796062D01*
X25184304Y26810453D01*
X25181873Y26823569D01*
X25180571Y26824805D01*
X25175290Y26826000D01*
X23695000Y26826000D01*
X23636809Y26844907D01*
X23600845Y26894407D01*
X23596000Y26925000D01*
X23596000Y27235000D01*
X23614907Y27293191D01*
X23664407Y27329155D01*
X23695000Y27334000D01*
X25170779Y27334000D01*
X25182730Y27337883D01*
X25183058Y27347538D01*
X25140946Y27515191D01*
X25138333Y27522867D01*
X25052534Y27720193D01*
X25048701Y27727340D01*
X24931826Y27908003D01*
X24926880Y27914425D01*
X24782065Y28073574D01*
X24776139Y28079101D01*
X24607269Y28212466D01*
X24600525Y28216946D01*
X24412141Y28320940D01*
X24404749Y28324262D01*
X24201920Y28396088D01*
X24194081Y28398159D01*
X24124589Y28410537D01*
X24070616Y28439356D01*
X24043890Y28494395D01*
X24054619Y28554633D01*
X24098706Y28597059D01*
X24115327Y28603356D01*
X24159867Y28615792D01*
X24231725Y28635855D01*
X24236038Y28638034D01*
X24236044Y28638036D01*
X24411289Y28726559D01*
X24411291Y28726560D01*
X24415610Y28728742D01*
X24422295Y28733965D01*
X24574135Y28852594D01*
X24574139Y28852598D01*
X24577951Y28855576D01*
X24712564Y29011528D01*
X24731231Y29044387D01*
X24811934Y29186450D01*
X24811935Y29186453D01*
X24814323Y29190656D01*
X24820340Y29208742D01*
X24877824Y29381546D01*
X24877824Y29381548D01*
X24879351Y29386137D01*
X24882953Y29414645D01*
X24904823Y29587772D01*
X24905171Y29590526D01*
X24905583Y29620000D01*
X24903413Y29642136D01*
X24885952Y29820220D01*
X24885951Y29820224D01*
X24885480Y29825030D01*
X24825935Y30022251D01*
X24729218Y30204151D01*
X24599011Y30363800D01*
X24553847Y30401163D01*
X24444002Y30492035D01*
X24444000Y30492036D01*
X24440275Y30495118D01*
X24259055Y30593103D01*
X24175069Y30619101D01*
X24066875Y30652593D01*
X24066871Y30652594D01*
X24062254Y30654023D01*
X24057446Y30654528D01*
X24057443Y30654529D01*
X23862185Y30675051D01*
X23862183Y30675051D01*
X23857369Y30675557D01*
X23707688Y30661935D01*
X23648023Y30675491D01*
X23628711Y30690524D01*
X23249835Y31069400D01*
X23222058Y31123917D01*
X23231629Y31184349D01*
X23274894Y31227614D01*
X23335326Y31237185D01*
X23368137Y31225823D01*
X23427398Y31192703D01*
X23431996Y31191209D01*
X23618724Y31130537D01*
X23618726Y31130536D01*
X23623329Y31129041D01*
X23827894Y31104649D01*
X23832716Y31105020D01*
X23832719Y31105020D01*
X23900541Y31110239D01*
X24033300Y31120454D01*
X24231725Y31175855D01*
X24236038Y31178034D01*
X24236044Y31178036D01*
X24411289Y31266559D01*
X24411291Y31266560D01*
X24415610Y31268742D01*
X24450943Y31296347D01*
X24574135Y31392594D01*
X24574139Y31392598D01*
X24577951Y31395576D01*
X24712564Y31551528D01*
X24716732Y31558865D01*
X24811934Y31726450D01*
X24811935Y31726453D01*
X24814323Y31730656D01*
X24819657Y31746689D01*
X24877824Y31921546D01*
X24877824Y31921548D01*
X24879351Y31926137D01*
X24882953Y31954645D01*
X24904823Y32127772D01*
X24905171Y32130526D01*
X24905583Y32160000D01*
X24903413Y32182136D01*
X24885952Y32360220D01*
X24885951Y32360224D01*
X24885480Y32365030D01*
X24825935Y32562251D01*
X24729218Y32744151D01*
X24599011Y32903800D01*
X24553847Y32941163D01*
X24444002Y33032035D01*
X24444000Y33032036D01*
X24440275Y33035118D01*
X24259055Y33133103D01*
X24194190Y33153182D01*
X24122061Y33175510D01*
X24072063Y33210780D01*
X24052346Y33268701D01*
X24070439Y33327150D01*
X24119432Y33363801D01*
X24130752Y33366919D01*
X24137202Y33368290D01*
X24343304Y33430124D01*
X24350852Y33433082D01*
X24544087Y33527747D01*
X24551046Y33531896D01*
X24726231Y33656852D01*
X24732412Y33662076D01*
X24884831Y33813965D01*
X24890088Y33820142D01*
X25015651Y33994881D01*
X25019823Y34001824D01*
X25115164Y34194732D01*
X25118144Y34202256D01*
X25180701Y34408157D01*
X25182410Y34416062D01*
X25184304Y34430453D01*
X25181873Y34443569D01*
X25180571Y34444805D01*
X25175290Y34446000D01*
X23695000Y34446000D01*
X23636809Y34464907D01*
X23600845Y34514407D01*
X23596000Y34545000D01*
X23596000Y34855000D01*
X23614907Y34913191D01*
X23664407Y34949155D01*
X23695000Y34954000D01*
X25170779Y34954000D01*
X25182730Y34957883D01*
X25183058Y34967538D01*
X25140946Y35135191D01*
X25138333Y35142867D01*
X25052534Y35340193D01*
X25048701Y35347340D01*
X24931826Y35528003D01*
X24926880Y35534425D01*
X24782065Y35693574D01*
X24776139Y35699101D01*
X24607269Y35832466D01*
X24600525Y35836946D01*
X24412141Y35940940D01*
X24404749Y35944262D01*
X24255316Y35997179D01*
X24206774Y36034426D01*
X24189397Y36093092D01*
X24209821Y36150768D01*
X24260246Y36185423D01*
X24288363Y36189500D01*
X24719748Y36189500D01*
X24745995Y36194721D01*
X24768666Y36199230D01*
X24768668Y36199231D01*
X24778231Y36201133D01*
X24844552Y36245448D01*
X24888867Y36311769D01*
X24900500Y36370252D01*
X24900500Y38109748D01*
X24888867Y38168231D01*
X24844552Y38234552D01*
X24778231Y38278867D01*
X24768668Y38280769D01*
X24768666Y38280770D01*
X24745995Y38285279D01*
X24719748Y38290500D01*
X22980252Y38290500D01*
X22943814Y38283252D01*
X22883053Y38290444D01*
X22838123Y38331976D01*
X22825500Y38380350D01*
X22825500Y38498099D01*
X22844407Y38556290D01*
X22854496Y38568103D01*
X23636897Y39350504D01*
X23691414Y39378281D01*
X23706901Y39379500D01*
X24169748Y39379500D01*
X24195995Y39384721D01*
X24218666Y39389230D01*
X24218668Y39389231D01*
X24228231Y39391133D01*
X24294552Y39435448D01*
X24338867Y39501769D01*
X24350500Y39560252D01*
X24350500Y40599748D01*
X24338867Y40658231D01*
X24294552Y40724552D01*
X24244497Y40757998D01*
X24206619Y40806049D01*
X24200500Y40840313D01*
X24200500Y45319687D01*
X24219407Y45377878D01*
X24244497Y45402002D01*
X24250151Y45405780D01*
X24294552Y45435448D01*
X24338867Y45501769D01*
X24350500Y45560252D01*
X24350500Y46599748D01*
X24338867Y46658231D01*
X24294552Y46724552D01*
X24228231Y46768867D01*
X24218668Y46770769D01*
X24218666Y46770770D01*
X24195995Y46775279D01*
X24169748Y46780500D01*
X23430252Y46780500D01*
X23404005Y46775279D01*
X23381334Y46770770D01*
X23381332Y46770769D01*
X23371769Y46768867D01*
X23305448Y46724552D01*
X23261133Y46658231D01*
X23249500Y46599748D01*
X23249500Y45560252D01*
X23261133Y45501769D01*
X23305448Y45435448D01*
X23349849Y45405780D01*
X23355503Y45402002D01*
X23393381Y45353951D01*
X23399500Y45319687D01*
X23399500Y40840313D01*
X23380593Y40782122D01*
X23355504Y40757999D01*
X23305448Y40724552D01*
X23261133Y40658231D01*
X23249500Y40599748D01*
X23249500Y40136901D01*
X23230593Y40078710D01*
X23220504Y40066897D01*
X22119516Y38965909D01*
X22119513Y38965905D01*
X22096950Y38943342D01*
X22085998Y38921846D01*
X22077884Y38908607D01*
X22063704Y38889090D01*
X22061296Y38881679D01*
X22056248Y38866143D01*
X22050305Y38851797D01*
X22039354Y38830304D01*
X22038136Y38822611D01*
X22038135Y38822609D01*
X22035581Y38806481D01*
X22031956Y38791380D01*
X22024500Y38768433D01*
X22024500Y35180901D01*
X22005593Y35122710D01*
X21956093Y35086746D01*
X21894907Y35086746D01*
X21855496Y35110897D01*
X18110909Y38855484D01*
X18110905Y38855487D01*
X18088342Y38878050D01*
X18066846Y38889002D01*
X18053605Y38897117D01*
X18040395Y38906715D01*
X18034090Y38911296D01*
X18011143Y38918752D01*
X17996797Y38924695D01*
X17975304Y38935646D01*
X17967611Y38936864D01*
X17967609Y38936865D01*
X17951481Y38939419D01*
X17936380Y38943044D01*
X17913433Y38950500D01*
X5756901Y38950500D01*
X5698710Y38969407D01*
X5686897Y38979496D01*
X5131804Y39534589D01*
X19242001Y39534589D01*
X19242290Y39529249D01*
X19248078Y39475965D01*
X19250927Y39463980D01*
X19297351Y39340145D01*
X19304059Y39327892D01*
X19382863Y39222744D01*
X19392744Y39212863D01*
X19497892Y39134059D01*
X19510145Y39127351D01*
X19633978Y39080928D01*
X19645967Y39078077D01*
X19699252Y39072289D01*
X19704586Y39072000D01*
X19830320Y39072000D01*
X19843005Y39076122D01*
X19846000Y39080243D01*
X19846000Y39087681D01*
X20354000Y39087681D01*
X20358122Y39074996D01*
X20362243Y39072001D01*
X20495411Y39072001D01*
X20500751Y39072290D01*
X20554035Y39078078D01*
X20566020Y39080927D01*
X20689855Y39127351D01*
X20702108Y39134059D01*
X20807256Y39212863D01*
X20817137Y39222744D01*
X20895941Y39327892D01*
X20902649Y39340145D01*
X20949072Y39463978D01*
X20951923Y39475967D01*
X20957711Y39529252D01*
X20958000Y39534586D01*
X20958000Y39810320D01*
X20953878Y39823005D01*
X20949757Y39826000D01*
X20369680Y39826000D01*
X20356995Y39821878D01*
X20354000Y39817757D01*
X20354000Y39087681D01*
X19846000Y39087681D01*
X19846000Y39810320D01*
X19841878Y39823005D01*
X19837757Y39826000D01*
X19257681Y39826000D01*
X19244996Y39821878D01*
X19242001Y39817757D01*
X19242001Y39534589D01*
X5131804Y39534589D01*
X4753518Y39912875D01*
X4725741Y39967392D01*
X4724522Y39982879D01*
X4724522Y40349680D01*
X19242000Y40349680D01*
X19246122Y40336995D01*
X19250243Y40334000D01*
X19830320Y40334000D01*
X19843005Y40338122D01*
X19846000Y40342243D01*
X19846000Y40349680D01*
X20354000Y40349680D01*
X20358122Y40336995D01*
X20362243Y40334000D01*
X20942319Y40334000D01*
X20955004Y40338122D01*
X20957999Y40342243D01*
X20957999Y40625411D01*
X20957710Y40630751D01*
X20951922Y40684035D01*
X20949073Y40696020D01*
X20902649Y40819855D01*
X20895941Y40832108D01*
X20817137Y40937256D01*
X20807256Y40947137D01*
X20702108Y41025941D01*
X20689855Y41032649D01*
X20566022Y41079072D01*
X20554033Y41081923D01*
X20500748Y41087711D01*
X20495414Y41088000D01*
X20369680Y41088000D01*
X20356995Y41083878D01*
X20354000Y41079757D01*
X20354000Y40349680D01*
X19846000Y40349680D01*
X19846000Y41072319D01*
X19841878Y41085004D01*
X19837757Y41087999D01*
X19704589Y41087999D01*
X19699249Y41087710D01*
X19645965Y41081922D01*
X19633980Y41079073D01*
X19510145Y41032649D01*
X19497892Y41025941D01*
X19392744Y40947137D01*
X19382863Y40937256D01*
X19304059Y40832108D01*
X19297351Y40819855D01*
X19250928Y40696022D01*
X19248077Y40684033D01*
X19242289Y40630748D01*
X19242000Y40625414D01*
X19242000Y40349680D01*
X4724522Y40349680D01*
X4724522Y43732497D01*
X4724521Y43732503D01*
X4724521Y43764411D01*
X4722115Y43771818D01*
X4722114Y43771821D01*
X4717068Y43787351D01*
X4713442Y43802454D01*
X4710887Y43818586D01*
X4709668Y43826282D01*
X4698717Y43847774D01*
X4692773Y43862123D01*
X4687726Y43877657D01*
X4687726Y43877658D01*
X4685318Y43885068D01*
X4671133Y43904592D01*
X4663026Y43917822D01*
X4652072Y43939320D01*
X4562364Y44029028D01*
X4054496Y44536897D01*
X4026719Y44591414D01*
X4025500Y44606901D01*
X4025500Y45534589D01*
X19242001Y45534589D01*
X19242290Y45529249D01*
X19248078Y45475965D01*
X19250927Y45463980D01*
X19297351Y45340145D01*
X19304059Y45327892D01*
X19382863Y45222744D01*
X19392744Y45212863D01*
X19497892Y45134059D01*
X19510145Y45127351D01*
X19633978Y45080928D01*
X19645967Y45078077D01*
X19699252Y45072289D01*
X19704586Y45072000D01*
X19830320Y45072000D01*
X19843005Y45076122D01*
X19846000Y45080243D01*
X19846000Y45087681D01*
X20354000Y45087681D01*
X20358122Y45074996D01*
X20362243Y45072001D01*
X20495411Y45072001D01*
X20500751Y45072290D01*
X20554035Y45078078D01*
X20566020Y45080927D01*
X20689855Y45127351D01*
X20702108Y45134059D01*
X20807256Y45212863D01*
X20817137Y45222744D01*
X20895941Y45327892D01*
X20902649Y45340145D01*
X20949072Y45463978D01*
X20951923Y45475967D01*
X20957711Y45529252D01*
X20958000Y45534586D01*
X20958000Y45810320D01*
X20953878Y45823005D01*
X20949757Y45826000D01*
X20369680Y45826000D01*
X20356995Y45821878D01*
X20354000Y45817757D01*
X20354000Y45087681D01*
X19846000Y45087681D01*
X19846000Y45810320D01*
X19841878Y45823005D01*
X19837757Y45826000D01*
X19257681Y45826000D01*
X19244996Y45821878D01*
X19242001Y45817757D01*
X19242001Y45534589D01*
X4025500Y45534589D01*
X4025500Y46349680D01*
X19242000Y46349680D01*
X19246122Y46336995D01*
X19250243Y46334000D01*
X19830320Y46334000D01*
X19843005Y46338122D01*
X19846000Y46342243D01*
X19846000Y46349680D01*
X20354000Y46349680D01*
X20358122Y46336995D01*
X20362243Y46334000D01*
X20942319Y46334000D01*
X20955004Y46338122D01*
X20957999Y46342243D01*
X20957999Y46625411D01*
X20957710Y46630751D01*
X20951922Y46684035D01*
X20949073Y46696020D01*
X20902649Y46819855D01*
X20895941Y46832108D01*
X20817137Y46937256D01*
X20807256Y46947137D01*
X20702108Y47025941D01*
X20689855Y47032649D01*
X20566022Y47079072D01*
X20554033Y47081923D01*
X20500748Y47087711D01*
X20495414Y47088000D01*
X20369680Y47088000D01*
X20356995Y47083878D01*
X20354000Y47079757D01*
X20354000Y46349680D01*
X19846000Y46349680D01*
X19846000Y47072319D01*
X19841878Y47085004D01*
X19837757Y47087999D01*
X19704589Y47087999D01*
X19699249Y47087710D01*
X19645965Y47081922D01*
X19633980Y47079073D01*
X19510145Y47032649D01*
X19497892Y47025941D01*
X19392744Y46947137D01*
X19382863Y46937256D01*
X19304059Y46832108D01*
X19297351Y46819855D01*
X19250928Y46696022D01*
X19248077Y46684033D01*
X19242289Y46630748D01*
X19242000Y46625414D01*
X19242000Y46349680D01*
X4025500Y46349680D01*
X4025500Y48306519D01*
X4025499Y48306525D01*
X4025499Y48338433D01*
X4023093Y48345840D01*
X4023092Y48345843D01*
X4018046Y48361373D01*
X4014420Y48376476D01*
X4011865Y48392608D01*
X4010646Y48400304D01*
X3999695Y48421796D01*
X3993751Y48436145D01*
X3988704Y48451679D01*
X3988704Y48451680D01*
X3986296Y48459090D01*
X3972111Y48478614D01*
X3964004Y48491844D01*
X3953050Y48513342D01*
X3863345Y48603047D01*
X3863343Y48603050D01*
X3676399Y48789994D01*
X3676390Y48790002D01*
X3653831Y48812561D01*
X3632335Y48823513D01*
X3619094Y48831628D01*
X3605884Y48841226D01*
X3599579Y48845807D01*
X3576632Y48853263D01*
X3562283Y48859207D01*
X3540793Y48870157D01*
X3533100Y48871375D01*
X3533098Y48871376D01*
X3516970Y48873930D01*
X3501869Y48877555D01*
X3478922Y48885011D01*
X802992Y48885011D01*
X802988Y48885010D01*
X771078Y48885010D01*
X763671Y48882604D01*
X763668Y48882603D01*
X748138Y48877557D01*
X733036Y48873931D01*
X709207Y48870157D01*
X687721Y48859209D01*
X687717Y48859207D01*
X673367Y48853262D01*
X650421Y48845807D01*
X630897Y48831622D01*
X617667Y48823515D01*
X596169Y48812561D01*
X573602Y48789994D01*
X420005Y48636398D01*
X420002Y48636394D01*
X397439Y48613831D01*
X386487Y48592335D01*
X378373Y48579096D01*
X364193Y48559579D01*
X361785Y48552168D01*
X356737Y48536632D01*
X350794Y48522286D01*
X339843Y48500793D01*
X338625Y48493100D01*
X338624Y48493098D01*
X336070Y48476970D01*
X332445Y48461869D01*
X324989Y48438922D01*
X324989Y35479132D01*
X50500Y35479132D01*
X50500Y57101355D01*
X69407Y57159546D01*
X118907Y57195510D01*
X180093Y57195510D01*
X230348Y57158492D01*
X276191Y57093625D01*
X319588Y57032220D01*
X464466Y56891087D01*
X632637Y56778718D01*
X818470Y56698878D01*
X1015740Y56654240D01*
X1217842Y56646300D01*
X1271377Y56654062D01*
X1413519Y56674671D01*
X1413522Y56674672D01*
X1418007Y56675322D01*
X1557498Y56722673D01*
X1605234Y56738877D01*
X1605237Y56738879D01*
X1609531Y56740336D01*
X1763386Y56826498D01*
X1782039Y56836944D01*
X1782041Y56836945D01*
X1786001Y56839163D01*
X1941505Y56968495D01*
X2070837Y57123999D01*
X2079836Y57140067D01*
X2106624Y57187902D01*
X2151553Y57229435D01*
X2212314Y57236627D01*
X2265699Y57206731D01*
X2291315Y57151166D01*
X2292001Y57139529D01*
X2292001Y56804589D01*
X2292290Y56799249D01*
X2298078Y56745965D01*
X2300927Y56733980D01*
X2347351Y56610145D01*
X2354059Y56597892D01*
X2432863Y56492744D01*
X2442744Y56482863D01*
X2547892Y56404059D01*
X2560145Y56397351D01*
X2683978Y56350928D01*
X2695967Y56348077D01*
X2749252Y56342289D01*
X2754586Y56342000D01*
X3430320Y56342000D01*
X3443005Y56346122D01*
X3446000Y56350243D01*
X3446000Y56357681D01*
X3954000Y56357681D01*
X3958122Y56344996D01*
X3962243Y56342001D01*
X4645411Y56342001D01*
X4650751Y56342290D01*
X4704035Y56348078D01*
X4716020Y56350927D01*
X4839855Y56397351D01*
X4852108Y56404059D01*
X4957256Y56482863D01*
X4967137Y56492744D01*
X5045941Y56597892D01*
X5052649Y56610145D01*
X5099072Y56733978D01*
X5101923Y56745967D01*
X5107711Y56799252D01*
X5108000Y56804586D01*
X5108000Y57480320D01*
X5103878Y57493005D01*
X5099757Y57496000D01*
X3969680Y57496000D01*
X3956995Y57491878D01*
X3954000Y57487757D01*
X3954000Y56357681D01*
X3446000Y56357681D01*
X3446000Y58019680D01*
X3954000Y58019680D01*
X3958122Y58006995D01*
X3962243Y58004000D01*
X5092319Y58004000D01*
X5105004Y58008122D01*
X5107999Y58012243D01*
X5107999Y58695411D01*
X5107710Y58700751D01*
X5101922Y58754035D01*
X5099073Y58766020D01*
X5052649Y58889855D01*
X5045941Y58902108D01*
X4967137Y59007256D01*
X4957256Y59017137D01*
X4852108Y59095941D01*
X4839855Y59102649D01*
X4716022Y59149072D01*
X4704033Y59151923D01*
X4650748Y59157711D01*
X4645414Y59158000D01*
X3969680Y59158000D01*
X3956995Y59153878D01*
X3954000Y59149757D01*
X3954000Y58019680D01*
X3446000Y58019680D01*
X3446000Y59142319D01*
X3441878Y59155004D01*
X3437757Y59157999D01*
X2754589Y59157999D01*
X2749249Y59157710D01*
X2695965Y59151922D01*
X2683980Y59149073D01*
X2560145Y59102649D01*
X2547892Y59095941D01*
X2442744Y59017137D01*
X2432863Y59007256D01*
X2354059Y58902108D01*
X2347351Y58889855D01*
X2300928Y58766022D01*
X2298077Y58754033D01*
X2292289Y58700748D01*
X2292000Y58695414D01*
X2292000Y58367490D01*
X2273093Y58309299D01*
X2223593Y58273335D01*
X2162407Y58273335D01*
X2112907Y58309299D01*
X2106613Y58319723D01*
X2104360Y58323400D01*
X2102351Y58327473D01*
X1981335Y58489533D01*
X1832812Y58626826D01*
X1810125Y58641141D01*
X1665594Y58732333D01*
X1661757Y58734754D01*
X1473898Y58809702D01*
X1275526Y58849161D01*
X1175930Y58850465D01*
X1077826Y58851749D01*
X1077821Y58851749D01*
X1073286Y58851808D01*
X1068813Y58851039D01*
X1068808Y58851039D01*
X970245Y58834102D01*
X873949Y58817556D01*
X684193Y58747551D01*
X510371Y58644138D01*
X506956Y58641143D01*
X506953Y58641141D01*
X443043Y58585093D01*
X358305Y58510780D01*
X233089Y58351943D01*
X232015Y58349902D01*
X184979Y58311813D01*
X123877Y58308610D01*
X72563Y58341934D01*
X50500Y58404237D01*
X50500Y58989955D01*
X50542Y58989955D01*
X50533Y58990034D01*
X54661Y59000000D01*
X51226Y59008294D01*
X57640Y59081601D01*
X64170Y59156247D01*
X67166Y59173242D01*
X76568Y59208329D01*
X105523Y59316390D01*
X111421Y59332595D01*
X174048Y59466899D01*
X182676Y59481843D01*
X267671Y59603229D01*
X278763Y59616449D01*
X383551Y59721237D01*
X396771Y59732329D01*
X518157Y59817324D01*
X533101Y59825952D01*
X538713Y59828569D01*
X667405Y59888579D01*
X683610Y59894477D01*
X826757Y59932834D01*
X843753Y59935830D01*
X991706Y59948774D01*
X991867Y59946937D01*
X994936Y59947436D01*
X1000000Y59945339D01*
X1009862Y59949424D01*
X1021327Y59948522D01*
X1027498Y59949500D01*
X7022238Y59949500D01*
X7080429Y59930593D01*
G37*
%TD.AperFunction*%
%TD*%
M02*
